<?xml version="1.0" standalone="no"?>
<!DOCTYPE svg PUBLIC "-//W3C//DTD SVG 1.1//EN" "http://www.w3.org/Graphics/SVG/1.1/DTD/svg11.dtd" >
<svg>
<metadata>
Created by FontForge 20090914 at Wed Sep  1 05:50:39 2021
 By www-data
&#194;&#169; 1990-91 Apple Computer Inc. &#194;&#169; 1990-91 Type Solutions Inc. &#194;&#169; 1990-91 The Font Bureau Inc.
</metadata>
<defs>
<font id="Geneva" horiz-adv-x="1365" >
  <font-face 
    font-family="Geneva"
    font-weight="400"
    font-stretch="normal"
    units-per-em="2048"
    panose-1="2 11 5 0 0 0 0 0 0 0"
    ascent="1638"
    descent="-410"
    x-height="1117"
    cap-height="1552"
    bbox="-574 -481.001 2622 1924"
    underline-thickness="155"
    underline-position="-8"
    unicode-range="U+0008-U+F002"
  />
<missing-glyph horiz-adv-x="1536" 
d="M256 0v1280h1024v-1280h-1024zM1248 32v1216h-960v-1216h960z" />
    <glyph glyph-name=".notdef" horiz-adv-x="1536" 
d="M256 0v1280h1024v-1280h-1024zM1248 32v1216h-960v-1216h960z" />
    <glyph glyph-name=".null" horiz-adv-x="0" 
 />
    <glyph glyph-name=".null" horiz-adv-x="0" 
 />
    <glyph glyph-name="BS" horiz-adv-x="0" 
 />
    <glyph glyph-name="space" unicode="&#x9;" horiz-adv-x="683" 
 />
    <glyph glyph-name="nonmarkingreturn" unicode="&#xd;" horiz-adv-x="683" 
 />
    <glyph glyph-name="GS" horiz-adv-x="0" 
 />
    <glyph glyph-name="space.0" unicode=" " horiz-adv-x="683" 
 />
    <glyph glyph-name="exclam" unicode="!" horiz-adv-x="621" 
d="M405 0h-187v186h187v-186zM389 388h-153l-50 1164h248z" />
    <glyph glyph-name="quotedbl" unicode="&#x22;" horiz-adv-x="1024" 
d="M363 993h-128l-49 621h218zM794 993h-127l-42 621h213z" />
    <glyph glyph-name="numbersign" unicode="#" 
d="M288 0h-147l109 411h-188v140h226l112 426h-338v140h379l117 435h144l-115 -435h378l117 435h149l-120 -435h192v-140h-233l-113 -426h346v-140h-381l-112 -411h-148l113 411h-375zM438 551h376l115 426h-378z" />
    <glyph glyph-name="dollar" unicode="$" 
d="M783 -155l-154.998 -0.00195312v155c-184.667 10.667 -310.334 54.334 -377.001 131.001s-100 161.667 -100 255v10h202v-10c0 -60 17.167 -109.167 51.5 -147.5s108.833 -64.5 223.5 -78.5v538l-62 24c-143.333 58 -239.333 118.833 -288 182.5s-73 140.167 -73 229.5
c0 70.667 15.167 135.167 45.5 193.5s75 106.5 134 144.5s140.167 63.333 243.5 76v159h155v-159c148 -10.667 247.667 -46 299 -106s77 -123.667 77 -191v-10h-201v10c0 36.667 -14.833 66.834 -44.5 90.501s-73.167 40.167 -130.5 49.5v-547l85 -30
c67.333 -26 128.5 -57.833 183.5 -95.5s93.167 -80.667 114.5 -129s32 -98.833 32 -151.5c0 -65.333 -15.333 -129.666 -46 -192.999s-74.334 -116.333 -131.001 -159s-136 -71.334 -238 -86.001v-155zM628.002 900.998v492.002c-81.333 -14 -139.833 -44.833 -175.5 -92.5
s-53.5 -101.5 -53.5 -161.5c0 -48.667 13.5 -89.834 40.5 -123.501s76.833 -66.834 149.5 -99.501zM783.002 642l0.000976562 -477c60 7.33301 104.167 22.5 132.5 45.5s50.166 52.5 65.499 88.5s23 73.333 23 112c0 48.667 -13.167 89.667 -39.5 123
s-70.833 63.333 -133.5 90z" />
    <glyph glyph-name="percent" unicode="%" horiz-adv-x="1854" 
d="M62 1086c0 142.667 33.5 256 100.5 340s149.833 126 248.5 126s181.5 -42 248.5 -126s100.5 -197.333 100.5 -340s-33.5 -255.834 -100.5 -339.501s-149.833 -125.5 -248.5 -125.5s-181.5 41.833 -248.5 125.5s-100.5 196.834 -100.5 339.501zM233 1086
c0 -94 16.165 -171.833 48.498 -233.5s75.5 -92.5 129.5 -92.5c52.667 0 95.667 30.833 129 92.5s50 139.5 50 233.5s-16.667 171.833 -50 233.5s-76.666 92.5 -129.999 92.5s-96.166 -30.833 -128.499 -92.5s-48.5 -139.5 -48.5 -233.5zM274.998 0l1103 1552h177
l-1086 -1552h-194zM1094 465c0 142.667 33.5 256 100.5 340s149.833 126 248.5 126s181.5 -41.833 248.5 -125.5s100.5 -197.167 100.5 -340.5c0 -142.667 -33.5 -255.834 -100.5 -339.501s-149.833 -125.5 -248.5 -125.5s-181.5 41.833 -248.5 125.5
s-100.5 196.834 -100.5 339.501zM1264 465c0 -94.667 16.5 -172.5 49.5 -233.5s76.167 -91.5 129.5 -91.5s96.333 30.5 129 91.5s49 138.833 49 233.5c0 94 -16.333 171.833 -49 233.5s-75.667 92.5 -129 92.5s-96.5 -30.833 -129.5 -92.5s-49.5 -139.5 -49.5 -233.5z" />
    <glyph glyph-name="ampersand" unicode="&#x26;" horiz-adv-x="1489" 
d="M1007 126c-66.667 -60 -133.667 -103.835 -201 -131.502s-141.666 -41.5 -222.999 -41.5c-102 0 -190.167 20.833 -264.5 62.5s-133 99.834 -176 174.501s-64.5 154 -64.5 238c0 106 34.833 206 104.5 300s159.167 169 268.5 225l-16 26
c-45.333 71.333 -74.333 121.333 -87 150s-22 55.5 -28 80.5s-9 48.833 -9 71.5c0 52.667 16 105 48 157s75.333 91.667 130 119s117 41 187 41c100.667 0 180 -26.5 238 -79.5s87 -115.167 87 -186.5c0 -81.333 -28.5 -160.666 -85.5 -237.999s-129.5 -141.333 -217.5 -192
c112 -192 226 -362 342 -510c34 50 59.333 105.167 76 165.5s25 148.5 25 264.5v55h186v-24c0 -234.667 -62 -430.667 -186 -588c53.333 -66.667 136 -155 248 -265h-270c-24.667 24.667 -49.334 51.667 -74.001 81zM618 1042c70 39.333 122.832 84.999 158.499 136.999
s53.5 97.333 53.5 136c0 21.333 -6.83301 43.5 -20.5 66.5s-34.334 40.667 -62.001 53s-54.5 18.5 -80.5 18.5c-52 0 -91.167 -17.333 -117.5 -52s-39.5 -70 -39.5 -106c0 -18 2.83301 -37.833 8.5 -59.5s12.834 -42.667 21.501 -63s28.334 -54.166 59.001 -101.499z
M530.999 818.997c-82 -42.667 -145.668 -99.001 -191.001 -169.001s-68 -141.667 -68 -215c0 -60 14.5 -115 43.5 -165s71.167 -89.333 126.5 -118s109 -43 161 -43c36 0 78 7.66699 126 23s109 54.333 183 117c-45.333 56 -105.666 138.333 -180.999 247
s-142 216.334 -200 323.001z" />
    <glyph glyph-name="quotesingle" unicode="'" horiz-adv-x="621" 
d="M379 993h-134l-74 621h279z" />
    <glyph glyph-name="parenleft" unicode="(" horiz-adv-x="915" 
d="M783 1645c-116 -122.667 -199.333 -233.5 -250 -332.5s-89.5 -207.5 -116.5 -325.5s-40.5 -235 -40.5 -351s13.5 -233 40.5 -351s65.833 -226.5 116.5 -325.5s134 -209.5 250 -331.5h-155c-86 74.667 -166.167 170 -240.5 286s-127.833 235.333 -160.5 358
s-49 244 -49 364s16.333 241.333 49 364s86.167 242 160.5 358s154.5 211.667 240.5 287h155z" />
    <glyph glyph-name="parenright" unicode=")" horiz-adv-x="915" 
d="M132 -372c116 122 199.333 232.5 250 331.5s89.5 207.5 116.5 325.5s40.5 235 40.5 351s-13.5 233 -40.5 351s-65.833 226.667 -116.5 326s-134 210 -250 332h155c86 -75.333 166.167 -171 240.5 -287s127.833 -235.333 160.5 -358s49 -244 49 -364
s-16.333 -241.333 -49 -364s-86.167 -242 -160.5 -358s-154.5 -211.333 -240.5 -286h-155z" />
    <glyph glyph-name="asterisk" unicode="*" horiz-adv-x="1040" 
d="M519 1061l-178 -316l-127 85l202 308l-338 68l40 148l340 -102l-17 346h156l-17 -346l340 102l40 -148l-338 -68l202 -308l-127 -85z" />
    <glyph glyph-name="plus" unicode="+" 
d="M1241 636v-155h-481v-481h-155v481h-481v155h481v481h155v-481h481z" />
    <glyph glyph-name="comma" unicode="," horiz-adv-x="621" 
d="M178 -372l0.000976562 120.001c32 18.667 56.5 41.5 73.5 68.5s29.833 55.167 38.5 84.5s13 62.333 13 99h-125v264h264v-164c0 -98.667 -9.5 -173.834 -28.5 -225.501s-47.833 -99.167 -86.5 -142.5s-88.334 -78 -149.001 -104z" />
    <glyph glyph-name="hyphen" unicode="-" horiz-adv-x="776" 
d="M78 551v155h621v-155h-621z" />
    <glyph glyph-name="period" unicode="." horiz-adv-x="621" 
d="M442 0h-264v264h264v-264z" />
    <glyph glyph-name="slash" unicode="/" horiz-adv-x="1102" 
d="M225 -47h-178l834 1645h174z" />
    <glyph glyph-name="zero" unicode="0" 
d="M682 -47c-168.667 0 -305.167 73.833 -409.5 221.5s-156.5 348.167 -156.5 601.5s52.167 453.666 156.5 600.999s240.833 221 409.5 221c169.333 0 306.166 -73.667 410.499 -221s156.5 -347.666 156.5 -600.999s-52.167 -453.833 -156.5 -601.5
s-241.166 -221.5 -410.499 -221.5zM682 109c131.333 0 226.333 67.5 285 202.5s88 289.833 88 464.5c0 174 -29.333 328.667 -88 464s-153.667 203 -285 203c-130.667 0 -225.334 -67.667 -284.001 -203s-88 -290 -88 -464c0 -174.667 29.333 -329.5 88 -464.5
s153.334 -202.5 284.001 -202.5z" />
    <glyph glyph-name="one" unicode="1" 
d="M617 0v1359l-314 -125v173l314 145h186v-1552h-186z" />
    <glyph glyph-name="two" unicode="2" 
d="M178 0l-0.000976562 160.999c0 84 26 175.5 78 274.5s139.333 195.833 262 290.5l105 81c140 108 228.833 188.667 266.5 242s56.5 109 56.5 167c0 59.333 -25 112 -75 158s-122 69 -216 69c-85.333 0 -148.666 -16.5 -189.999 -49.5s-62 -70.167 -62 -111.5v-10h-186v10
c0 54.667 18.5 106.334 55.5 155.001s87 87.667 150 117s142.5 44 238.5 44c175.333 0 300.333 -37.167 375 -111.5s112 -163.5 112 -267.5c0 -55.333 -11.667 -111 -35 -167s-69.5 -114.5 -138.5 -175.5s-125.167 -106.5 -168.5 -136.5l-76 -52
c-238.667 -164 -358 -323.667 -358 -479v-38h807v-171h-1001z" />
    <glyph glyph-name="three" unicode="3" 
d="M396 776l-0.000976562 155.001h116c90.667 0 161.667 14.333 213 43s92 64.5 122 107.5s45 91.167 45 144.5c0 67.333 -24.667 120.333 -74 159s-114.666 58 -195.999 58c-46.667 0 -90.334 -6 -131.001 -18s-71.834 -32.333 -93.501 -61s-32.5 -58.667 -32.5 -90v-10
h-178v10c0 81.333 34.333 155.666 103 222.999s182.667 101 342 101c151.333 0 265 -32.333 341 -97s114 -148 114 -250c0 -56 -11 -108.167 -33 -156.5s-54.5 -91.5 -97.5 -129.5s-104.833 -68.667 -185.5 -92c126 -36 220.333 -89.5 283 -160.5s94 -159.5 94 -265.5
c0 -124.667 -43.833 -238.167 -131.5 -340.5s-220.5 -153.5 -398.5 -153.5c-155.333 0 -268.666 33.167 -339.999 99.5s-107 141.166 -107 224.499v10h186v-10c0 -56 26.167 -98 78.5 -126s119.5 -42 201.5 -42c64 0 120.333 11.833 169 35.5s85.667 62.167 111 115.5
s38 111.333 38 174c0 96.667 -38.167 177.834 -114.5 243.501s-193.166 98.5 -350.499 98.5h-94z" />
    <glyph glyph-name="four" unicode="4" 
d="M1040 0h-186v473h-745v155l745 924h186v-924h217v-155h-217v-473zM854 628v678l-540 -678h540z" />
    <glyph glyph-name="five" unicode="5" 
d="M303 799l-0.000976562 753.002h799v-171h-628v-419h47c160.667 0 285 -19.833 373 -59.5s155 -95.334 201 -167.001s69 -158.5 69 -260.5c0 -135.333 -42 -256.166 -126 -362.499s-212 -159.5 -384 -159.5c-136.667 0 -246.167 30.167 -328.5 90.5
s-123.5 133.166 -123.5 218.499v10h186v-10c0 -44.667 23.667 -81.5 71 -110.5s111.333 -43.5 192 -43.5c108.667 0 189 35.167 241 105.5s78 149.166 78 236.499c0 98.667 -34.667 181.5 -104 248.5s-209.666 100.5 -420.999 100.5h-142z" />
    <glyph glyph-name="six" unicode="6" 
d="M368 724c45.333 59.333 90.001 103.999 134.001 133.999s88 52.167 132 66.5s91.667 21.5 143 21.5c133.333 0 240.166 -47.5 320.499 -142.5s120.5 -210.167 120.5 -345.5c0 -94.667 -20.833 -180.667 -62.5 -258s-99.667 -137.833 -174 -181.5
s-155.5 -65.5 -243.5 -65.5c-102 0 -197.833 30.167 -287.5 90.5s-157.5 151.166 -203.5 272.499s-69 271.333 -69 450c0 253.333 51.833 455.333 155.5 606s252.5 226 446.5 226c132 0 231.5 -29 298.5 -87s100.5 -124 100.5 -198v-10h-186v10c0 32 -17.5 61.667 -52.5 89
s-87.5 41 -157.5 41c-82 0 -154 -24.667 -216 -74s-110.833 -130.166 -146.5 -242.499s-53.5 -228.166 -53.5 -347.499zM738.001 108.999c81.333 0 149.334 33.832 204.001 101.499s82 152.167 82 253.5c0 100.667 -28.833 180.334 -86.5 239.001s-127.834 88 -210.501 88
c-91.333 0 -165.666 -33.5 -222.999 -100.5s-86 -146.833 -86 -239.5c0 -61.333 14.167 -119.5 42.5 -174.5s67.166 -96.667 116.499 -125s103 -42.5 161 -42.5z" />
    <glyph glyph-name="seven" unicode="7" 
d="M558 0l-201 0.000976562v67c0 108.667 15.5 218.5 46.5 329.5s112 263.667 243 458l332.5 478.5l35 48h-859v171h1047v-171c-15.333 -22.667 -24 -35.334 -26 -38.001l-143 -192c-90 -121.333 -182.5 -269 -277.5 -443s-151.667 -306 -170 -396
s-27.5 -168.333 -27.5 -235v-77z" />
    <glyph glyph-name="eight" unicode="8" 
d="M1214 423c0 -80.667 -22.0029 -159.666 -66.0029 -236.999s-103.5 -135.5 -178.5 -174.5s-170.833 -58.5 -287.5 -58.5c-116 0 -211.5 19.5 -286.5 58.5s-134.5 97.167 -178.5 174.5s-66 156.333 -66 237c0 86 24.833 168.333 74.5 247s125.167 140.667 226.5 186
c-79.333 39.333 -139 87.666 -179 144.999s-60 123.333 -60 198c0 72.667 19.833 141 59.5 205s97.334 112.333 173.001 145s154.5 49 236.5 49c82.667 0 161.834 -16.5 237.501 -49.5s133.334 -81.333 173.001 -145s59.5 -131.834 59.5 -204.501
c0 -74.667 -20 -140.667 -60 -198s-100 -105.666 -180 -144.999c101.333 -45.333 177 -107.333 227 -186s75 -161 75 -247zM681.997 931.001c80 0 146.001 25.667 198.001 77s78 111.666 78 180.999c0 76 -27.833 137.333 -83.5 184s-119.834 70 -192.501 70
c-72 0 -135.833 -23.333 -191.5 -70s-83.5 -108 -83.5 -184c0 -69.333 25.833 -129.666 77.5 -180.999s117.5 -77 197.5 -77zM681.998 776.001c-58.667 0 -114.165 -14.667 -166.498 -44s-93.833 -71.666 -124.5 -126.999s-46 -112 -46 -170c0 -56 14.5 -110.667 43.5 -164
s70.333 -93.666 124 -120.999s110.167 -41 169.5 -41c60 0 116.833 13.667 170.5 41s95 67.666 124 120.999s43.5 108 43.5 164c0 58 -15.333 114.667 -46 170s-72.334 97.666 -125.001 126.999s-108.334 44 -167.001 44z" />
    <glyph glyph-name="nine" unicode="9" 
d="M997 827c-45.333 -59.333 -90.168 -103.83 -134.501 -133.497s-88.5 -51.834 -132.5 -66.501s-91.333 -22 -142 -22c-134 0 -241 47.667 -321 143s-120 210.333 -120 345c0 95.333 20.833 181.5 62.5 258.5s99.667 137.333 174 181s155.5 65.5 243.5 65.5
c102 0 197.833 -30.167 287.5 -90.5s157.5 -151 203.5 -272s69 -270.833 69 -449.5c0 -254 -52 -456.333 -156 -607s-253 -226 -447 -226c-132 0 -231.333 29 -298 87s-100 124 -100 198v10h186v-10c0 -31.333 17.333 -60.833 52 -88.5s87 -41.5 157 -41.5
c82.667 0 154.834 24.667 216.501 74s110.5 130.166 146.5 242.499s54 228.166 54 347.499zM625.998 1443c-80.667 0 -148.334 -33.832 -203.001 -101.499s-82 -152.167 -82 -253.5s28.833 -181.333 86.5 -240s127.834 -88 210.501 -88c90.667 0 164.667 33.667 222 101
s86 147.333 86 240c0 60.667 -14 118.667 -42 174s-66.833 97.166 -116.5 125.499s-103.5 42.5 -161.5 42.5z" />
    <glyph glyph-name="colon" unicode=":" horiz-adv-x="621" 
d="M442 0h-264v264h264v-264zM442 853h-264v264h264v-264z" />
    <glyph glyph-name="semicolon" unicode=";" horiz-adv-x="621" 
d="M178 -372l0.000976562 120.001c32 18.667 56.5 41.5 73.5 68.5s29.833 55.167 38.5 84.5s13 62.333 13 99h-125v264h264v-164c0 -98.667 -9.5 -173.834 -28.5 -225.501s-47.833 -99.167 -86.5 -142.5s-88.334 -78 -149.001 -104zM442.001 853.001h-264v264h264v-264z" />
    <glyph glyph-name="less" unicode="&#x3c;" 
d="M1241 1117v-173l-770 -389l770 -382v-173l-1117 555z" />
    <glyph glyph-name="equal" unicode="=" 
d="M1241 807v-155h-1117v155h1117zM1241 465v-155h-1117v155h1117z" />
    <glyph glyph-name="greater" unicode="&#x3e;" 
d="M124 0v178l770 389l-770 382v168l1117 -550z" />
    <glyph glyph-name="question" unicode="?" horiz-adv-x="1164" 
d="M589 396l-185.997 0.000976562v94c0 108.667 17.167 197.5 51.5 266.5s71.166 124.5 110.499 166.5l78 85c51.333 56 87.666 101.333 108.999 136s32 68.667 32 102c0 56.667 -25.5 103.667 -76.5 141s-113.833 56 -188.5 56c-62.667 0 -111.834 -11.667 -147.501 -35
s-53.5 -60 -53.5 -110v-10h-194v10c0 46.667 17.667 94.5 53 143.5s85.5 87.333 150.5 115s135.5 41.5 211.5 41.5c80 0 154.667 -15.333 224 -46s122.5 -72.167 159.5 -124.5s55.5 -107.833 55.5 -166.5c0 -32 -7.66699 -72.333 -23 -121s-61 -108.334 -137 -179.001
l-71 -66c-46 -43.333 -83.833 -89 -113.5 -137s-44.5 -123.333 -44.5 -226v-136zM589.003 0.000976562h-186v186h186v-186z" />
    <glyph glyph-name="at" unicode="@" horiz-adv-x="1784" 
d="M1261 202l-0.00292969 -156.001c-118 -62 -242.333 -93 -373 -93c-142.667 0 -274 34.667 -394 104s-211.667 169.166 -275 299.499s-95 270.5 -95 420.5c0 150.667 31.667 290.334 95 419.001s153.833 227.834 271.5 297.501s259.834 104.5 426.501 104.5
c154.667 0 286.667 -30.833 396 -92.5s194.5 -146.167 255.5 -253.5s91.5 -226 91.5 -356c0 -94 -17 -176.667 -51 -248s-80.833 -127.333 -140.5 -168s-124.5 -61 -194.5 -61c-59.333 0 -113.666 15.333 -162.999 46s-79.333 81.334 -90 152.001
c-36.667 -56 -78.5 -100.5 -125.5 -133.5s-94.167 -49.5 -141.5 -49.5c-49.333 0 -96.5 14.833 -141.5 44.5s-78.667 70 -101 121s-33.5 106.5 -33.5 166.5c0 78 19.667 154.833 59 230.5s91.166 130.167 155.499 163.5s160.5 50 288.5 50h195v-434
c0 -92 12.667 -153.833 38 -185.5s57.666 -47.5 96.999 -47.5c58 0 109.5 30.167 154.5 90.5s67.5 142.166 67.5 245.499c0 117.333 -26.667 221 -80 311s-128.5 159.833 -225.5 209.5s-202.5 74.5 -316.5 74.5c-122.667 0 -235.167 -28 -337.5 -84
s-180.166 -138.333 -233.499 -247s-80 -226.667 -80 -354c0 -124 25.333 -244.5 76 -361.5s128.834 -204.5 234.501 -262.5s210.834 -87 315.501 -87c125.333 0 250.333 41.333 375 124zM1021 1086l-62.999 -0.000976562c-56 0 -97.667 -3.83301 -125 -11.5
s-52 -20.5 -74 -38.5c-39.333 -31.333 -67.666 -69.666 -84.999 -114.999s-26 -97 -26 -155c0 -64.667 12.667 -110.167 38 -136.5s52.666 -39.5 81.999 -39.5c33.333 0 68.666 12.833 105.999 38.5s86.333 83.5 147 173.5v284z" />
    <glyph glyph-name="A" unicode="A" horiz-adv-x="1489" 
d="M218 0h-187l636 1552h204l587 -1552h-218l-161 427h-685zM455 582h564l-272 721z" />
    <glyph glyph-name="B" unicode="B" horiz-adv-x="1303" 
d="M845 816c122.667 -30 211.5 -80.502 266.5 -151.502s82.5 -151.167 82.5 -240.5c0 -74 -19 -143.667 -57 -209s-92 -117.5 -162 -156.5s-191 -58.5 -363 -58.5h-465v1552h412c188 0 314.167 -13.5 378.5 -40.5s112.833 -66.833 145.5 -119.5s49 -111 49 -175
c0 -71.333 -20.667 -142.166 -62 -212.499s-116.333 -133.166 -225 -188.499zM349 876.998l193.999 -0.00195312c100 0 174.833 13.333 224.5 40s89.334 64.834 119.001 114.501s44.5 100.834 44.5 153.501c0 58 -23.167 107.667 -69.5 149s-129.833 62 -250.5 62h-262v-519
zM348.999 154.996l284.999 -0.000976562c134.667 0 226.834 25.167 276.501 75.5s74.5 109.833 74.5 178.5c0 55.333 -16 106.333 -48 153s-79.5 84.834 -142.5 114.501s-161.5 44.5 -295.5 44.5h-150v-566z" />
    <glyph glyph-name="C" unicode="C" horiz-adv-x="1334" 
d="M1070 334l187 -0.00292969v-10c0 -61.333 -21.167 -123.666 -63.5 -186.999s-99.833 -109.833 -172.5 -139.5s-158 -44.5 -256 -44.5c-197.333 0 -358.666 68.667 -483.999 206s-188 343 -188 617c0 272.667 62.333 478 187 616s286.667 207 486 207
c97.333 0 182.333 -14.833 255 -44.5s130.167 -76.667 172.5 -141s63.5 -126.166 63.5 -185.499v-10h-187v10c0 38 -11.833 74.5 -35.5 109.5s-57.667 61.333 -102 79s-97.5 26.5 -159.5 26.5c-158.667 0 -276.834 -62.667 -354.501 -188s-116.5 -285 -116.5 -479
c0 -196 39 -356.333 117 -481s195.667 -187 353 -187c108 0 184.667 22.333 230 67s68 94.334 68 149.001v10z" />
    <glyph glyph-name="D" unicode="D" horiz-adv-x="1435" 
d="M147 0l-0.00195312 1552h429c208.667 0 361.334 -28.333 458.001 -85s172.167 -143.167 226.5 -259.5s81.5 -258.166 81.5 -425.499c0 -156.667 -24.5 -292.5 -73.5 -407.5s-123.167 -206.167 -222.5 -273.5s-246.666 -101 -441.999 -101h-457zM348.998 170.999h238.001
c142 0 249.167 20.833 321.5 62.5s127.666 107 165.999 196s57.5 200.833 57.5 335.5s-17.5 250.5 -52.5 347.5s-88.333 168.5 -160 214.5s-184.167 69 -337.5 69h-233v-1225z" />
    <glyph glyph-name="E" unicode="E" horiz-adv-x="1179" 
d="M147 0v1552h877v-171h-675v-489h589v-155h-589v-566h729v-171h-931z" />
    <glyph glyph-name="F" unicode="F" horiz-adv-x="1133" 
d="M147 0v1552h877v-171h-675v-535h589v-156h-589v-690h-202z" />
    <glyph glyph-name="G" unicode="G" horiz-adv-x="1381" 
d="M1257 71c-164.667 -78.667 -321.668 -117.998 -471.001 -117.998c-155.333 0 -281 30.833 -377 92.5s-172.667 150.5 -230 266.5s-86 264.667 -86 446c0 204.667 27.167 363.667 81.5 477s130.833 202.166 229.5 266.499s215.667 96.5 351 96.5
c92.667 0 177 -14.667 253 -44s136.5 -73.833 181.5 -133.5s67.5 -118.834 67.5 -177.501v-10h-187v10c0 36 -13.833 69.5 -41.5 100.5s-64 55.333 -109 73s-96.167 26.5 -153.5 26.5c-150.667 0 -265.667 -59 -345 -177s-119 -280.667 -119 -488
c0 -206.667 40.667 -370 122 -490s196 -180 344 -180c86.667 0 187.334 20.667 302.001 62v443h-349v155h536v-697z" />
    <glyph glyph-name="H" unicode="H" horiz-adv-x="1412" 
d="M349 0h-202v1552h202v-691h713v691h202v-1552h-202v706h-713v-706z" />
    <glyph glyph-name="I" unicode="I" horiz-adv-x="496" 
d="M349 0h-202v1552h202v-1552z" />
    <glyph glyph-name="J" unicode="J" horiz-adv-x="1008" 
d="M39 264l202.001 -0.000976562v-10c0 -28.667 7.66699 -54.334 23 -77.001s39.166 -39.667 71.499 -51s68.166 -17 107.499 -17c41.333 0 79.833 9.5 115.5 28.5s61.5 48.333 77.5 88s24 126.834 24 261.501v1065h201v-1069c0 -169.333 -18.167 -285.166 -54.5 -347.499
s-81.166 -108.333 -134.499 -138s-126 -44.5 -218 -44.5c-151.333 0 -258.333 31.333 -321 94s-94 131.667 -94 207v10z" />
    <glyph glyph-name="K" unicode="K" horiz-adv-x="1358" 
d="M349 0h-202v1552h202v-741l648 741h230l-641 -728l740 -824h-253l-724 811v-811z" />
    <glyph glyph-name="L" unicode="L" horiz-adv-x="1195" 
d="M147 0v1552h202v-1381h814v-171h-1016z" />
    <glyph glyph-name="M" unicode="M" horiz-adv-x="1614" 
d="M318 0h-171v1552h198l482 -1109l443 1109h196v-1552h-179v925l5 277h-5l-100 -278l-275 -691h-203l-299 694l-92 252h-5l5 -252v-927z" />
    <glyph glyph-name="N" unicode="N" horiz-adv-x="1451" 
d="M333 0h-186v1552h200l709 -1103l65 -123l-4 122v1104h186v-1552h-198l-711 1108l-65 125l4 -125v-1108z" />
    <glyph glyph-name="O" unicode="O" horiz-adv-x="1505" 
d="M752 -47c-194 0 -352.333 71.333 -475 214s-184 345.667 -184 609s61.333 466.166 184 608.499s281 213.5 475 213.5s352.5 -71.167 475.5 -213.5s184.5 -345.166 184.5 -608.499s-61.5 -466.333 -184.5 -609s-281.5 -214 -475.5 -214zM752 109
c141.333 0 251.666 60.833 330.999 182.5s119 283.167 119 484.5c0 200.667 -39.667 362 -119 484s-189.666 183 -330.999 183c-140.667 0 -250.834 -61 -330.501 -183s-119.5 -283.333 -119.5 -484c0 -201.333 39.833 -362.833 119.5 -484.5s189.834 -182.5 330.501 -182.5
z" />
    <glyph glyph-name="P" unicode="P" horiz-adv-x="1195" 
d="M349 0h-202.001v1552h432c164.667 0 280.834 -16.833 348.501 -50.5s118.667 -83 153 -148s51.5 -140.5 51.5 -226.5c0 -145.333 -49.5 -267.333 -148.5 -366s-246.5 -148 -442.5 -148h-192v-613zM348.999 768h135.999c178.667 0 296.334 34.333 353.001 103
s85 151 85 247c0 83.333 -22.833 150.5 -68.5 201.5s-136.167 76.5 -271.5 76.5h-234v-628z" />
    <glyph glyph-name="Q" unicode="Q" horiz-adv-x="1505" 
d="M753 -52c-168.667 14.667 -296.002 55.499 -382.002 122.499s-153.833 157.667 -203.5 272s-74.5 258.5 -74.5 432.5c0 264 61.333 467.167 184 609.5s281.334 213.5 476.001 213.5c194 0 352.333 -71.167 475 -213.5s184 -344.833 184 -607.5
c0 -132 -14.5 -248.167 -43.5 -348.5s-77 -189.666 -144 -267.999s-159.833 -138.166 -278.5 -179.499c67.333 -58.667 139.166 -102.834 215.499 -132.501s157.166 -44.5 242.499 -44.5c66.667 0 131.334 11.333 194.001 34v-178
c-63.333 -21.333 -129.666 -32 -198.999 -32c-98.667 0 -195.667 19 -291 57s-213.666 125.667 -354.999 263zM752.998 108.999c140.667 0 250.667 60.833 330 182.5s119 283.167 119 484.5c0 200.667 -39.667 362 -119 484s-189.333 183 -330 183
c-141.333 0 -251.833 -61 -331.5 -183s-119.5 -283.333 -119.5 -484c0 -201.333 39.833 -362.833 119.5 -484.5s190.167 -182.5 331.5 -182.5z" />
    <glyph glyph-name="R" unicode="R" horiz-adv-x="1241" 
d="M349 0l-202.001 0.000976562v1552h480c118 0 206.667 -17 266 -51s106.333 -83.167 141 -147.5s52 -134.166 52 -209.499c0 -60.667 -11.667 -118.834 -35 -174.501s-56.166 -106 -98.499 -151s-107.833 -85.167 -196.5 -120.5c33.333 -18.667 58.333 -36.334 75 -53.001
s37 -43.667 61 -81s45 -72.333 63 -105l247 -459h-231l-215 408c-52 98.667 -119.667 185 -203 259h-204v-667zM348.999 822.001h197.001c83.333 0 146.5 12.833 189.5 38.5s77.167 63 102.5 112s38 101.5 38 157.5c0 48.667 -10 92.167 -30 130.5s-49.333 70.5 -88 96.5
s-104.334 39 -197.001 39h-212v-574z" />
    <glyph glyph-name="S" unicode="S" horiz-adv-x="1241" 
d="M109 349l201.998 0.00390625v-10c0 -86 30.333 -145.833 91 -179.5s141.334 -50.5 242.001 -50.5c88 0 161.833 25.667 221.5 77s89.5 119 89.5 203c0 68 -25.667 123.5 -77 166.5s-129.333 85.833 -234 128.5l-81 33c-110 45.333 -192.167 90.166 -246.5 134.499
s-94.833 93.5 -121.5 147.5s-40 114.333 -40 181c0 117.333 41.5 216.333 124.5 297s212.833 121 389.5 121c162 0 276 -30 342 -90s99 -130 99 -210v-10h-202v10c0 25.333 -10.167 50.333 -30.5 75s-50.833 42.5 -91.5 53.5s-85.334 16.5 -134.001 16.5
c-99.333 0 -172.833 -24.833 -220.5 -74.5s-71.5 -106.167 -71.5 -169.5c0 -42.667 11.333 -82.834 34 -120.501s53.834 -68.834 93.501 -93.501s106.5 -57.667 200.5 -99l95 -41c152 -66 253.5 -135.333 304.5 -208s76.5 -151 76.5 -235c0 -78 -20.667 -153.5 -62 -226.5
s-98.666 -128.333 -171.999 -166s-171 -56.5 -293 -56.5c-116 0 -212.833 13.833 -290.5 41.5s-136.667 73.167 -177 136.5s-60.5 132.666 -60.5 207.999v10z" />
    <glyph glyph-name="T" unicode="T" horiz-adv-x="1311" 
d="M559 0v1396h-528v156h1249v-156h-520v-1396h-201z" />
    <glyph glyph-name="U" unicode="U" 
d="M124 1552h202.001v-998c0 -145.333 14.167 -242.833 42.5 -292.5s72.5 -87.5 132.5 -113.5s127 -39 201 -39c71.333 0 134.5 13 189.5 39s96 67.167 123 123.5s40.5 174.166 40.5 353.499v927h186v-979c0 -181.333 -20.833 -308.666 -62.5 -381.999
s-101.834 -131.333 -180.501 -174s-177.667 -64 -297 -64c-110.667 0 -212 17 -304 51s-160.5 86.833 -205.5 158.5s-67.5 193.167 -67.5 364.5v1025z" />
    <glyph glyph-name="V" unicode="V" horiz-adv-x="1489" 
d="M1270 1552h188l-633 -1552h-203l-591 1552h220l492 -1301z" />
    <glyph glyph-name="W" unicode="W" horiz-adv-x="1939" 
d="M635 0h-205l-352 1552h193l247 -1093l34 -187h9l34 187l284 1093h200l277 -1096l32 -184h9l33 184l255 1096h177l-361 -1552h-205l-287 1113l-37 190h-10l-35 -190z" />
    <glyph glyph-name="X" unicode="X" horiz-adv-x="1249" 
d="M235 0h-204l497 788l-458 764h221l351 -586l373 586h201l-476 -748l478 -804h-217l-374 625z" />
    <glyph glyph-name="Y" unicode="Y" horiz-adv-x="1249" 
d="M727 0h-201v731l-503 821h235l388 -627l383 627h196l-498 -821v-731z" />
    <glyph glyph-name="Z" unicode="Z" horiz-adv-x="1179" 
d="M1086 186v-186h-1008v186l771 1195h-717v171h939v-171l-767 -1195h782z" />
    <glyph glyph-name="bracketleft" unicode="[" horiz-adv-x="915" 
d="M737 -217v-155h-504v2017h504v-156h-333v-1706h333z" />
    <glyph glyph-name="backslash" unicode="\" horiz-adv-x="1102" 
d="M225 1598l830 -1645h-174l-834 1645h178z" />
    <glyph glyph-name="bracketright" unicode="]" horiz-adv-x="915" 
d="M178 1489v156h504v-2017h-504v155h334v1706h-334z" />
    <glyph glyph-name="asciicircum" unicode="^" 
d="M1241 434h-171l-387 776l-388 -776h-171l559 1118z" />
    <glyph glyph-name="underscore" unicode="_" 
d="M62 -155v155h1241v-155h-1241z" />
    <glyph glyph-name="grave" unicode="`" horiz-adv-x="1210" 
d="M822 1288h-170l-342 326h216z" />
    <glyph glyph-name="a" unicode="a" horiz-adv-x="1133" 
d="M836 0c-19.333 60 -29 111.666 -29 154.999c-81.333 -80.667 -150.833 -131.834 -208.5 -153.501s-112.834 -32.5 -165.501 -32.5c-88.667 0 -164.834 27.167 -228.501 81.5s-95.5 129.166 -95.5 224.499c0 108 44.833 191.333 134.5 250s244.167 109.334 463.5 152.001
l100 19v126c0 68.667 -23 116.834 -69 144.501s-101.333 41.5 -166 41.5c-77.333 0 -137.666 -17 -180.999 -51s-65 -73.667 -65 -119v-16h-202v15c0 49.333 20.833 100.333 62.5 153s97 92.334 166 119.001s144.5 40 226.5 40c81.333 0 155.333 -12.667 222 -38
s115.334 -59.5 146.001 -102.5s46 -123.833 46 -242.5v-434c0 -47.333 1.33301 -97 4 -149c2 -52.667 13.667 -113.667 35 -183h-196zM807 563.999l-56 -14.002c-188.667 -46 -309.334 -89.667 -362.001 -131s-79 -90.666 -79 -147.999
c0 -29.333 7.83301 -56.666 23.5 -81.999s38.834 -45 69.501 -59s61 -21 91 -21c52 0 103.167 15.167 153.5 45.5s89.5 70.833 117.5 121.5s42 109.667 42 177v111z" />
    <glyph glyph-name="b" unicode="b" horiz-adv-x="1249" 
d="M318 0l-186.002 -0.000976562c3.33301 36.667 6.33301 81.334 9 134.001l5 129c1.33301 33.333 2 55.666 2 66.999v1284h186v-691c40.667 63.333 78.834 109.333 114.501 138s74.667 50.334 117 65.001s86.833 22 133.5 22c84.667 0 162.334 -23.167 233.001 -69.5
s125.667 -115.5 165 -207.5s59 -195.333 59 -310c0 -170 -41 -311.167 -123 -423.5s-196.333 -168.5 -343 -168.5c-48 0 -93 6.83301 -135 20.5s-79.5 34 -112.5 61s-69.167 75.167 -108.5 144.5l-6 -81c-2.66699 -44.667 -6 -82.667 -10 -114zM333.998 557.999
c0 -126.667 27.332 -230.668 81.999 -312.001s131.334 -122 230.001 -122c90.667 0 166 36 226 108s90 179.667 90 323c0 167.333 -30.667 283.5 -92 348.5s-134.333 97.5 -219 97.5c-59.333 0 -114.5 -17.833 -165.5 -53.5s-89 -88.667 -114 -159
s-37.5 -147.166 -37.5 -230.499z" />
    <glyph glyph-name="c" unicode="c" horiz-adv-x="1117" 
d="M845 287h186.999v-10c0 -50 -18.833 -100.333 -56.5 -151s-87 -89.5 -148 -116.5s-134.5 -40.5 -220.5 -40.5c-164.667 0 -291.5 52.167 -380.5 156.5s-133.5 248.833 -133.5 433.5c0 184 44.5 328.167 133.5 432.5s215.833 156.5 380.5 156.5
c86 0 159.5 -13.5 220.5 -40.5s110.333 -64 148 -111s56.5 -99.167 56.5 -156.5v-10h-187v10v6c0 38 -17.667 71.667 -53 101c-38 30.667 -96.333 46 -175 46c-93.333 0 -171.666 -34.333 -234.999 -103s-95 -179 -95 -331c0 -152.667 31.667 -263.334 95 -332.001
s141.666 -103 234.999 -103c78.667 0 136.334 15.333 173.001 46s55 66.334 55 107.001v10z" />
    <glyph glyph-name="d" unicode="d" horiz-adv-x="1233" 
d="M915 1614h186v-1614h-186v194c-38 -72 -75 -122 -111 -150s-76.5 -47.5 -121.5 -58.5s-89.5 -16.5 -133.5 -16.5c-84 0 -161.333 23.167 -232 69.5s-125.667 115.5 -165 207.5s-59 195.333 -59 310c0 170 41 311.167 123 423.5s196.333 168.5 343 168.5
c48 0 93 -6.83301 135 -20.5s79.5 -34 112.5 -61s69.167 -75.167 108.5 -144.5v692zM915 559c0 126.667 -27.332 230.667 -81.999 312s-131.334 122 -230.001 122c-90.667 0 -166 -36 -226 -108s-90 -179.667 -90 -323c0 -167.333 29 -283.5 87 -348.5
s132.667 -97.5 224 -97.5c59.333 0 114.5 18 165.5 54s89 89 114 159s37.5 146.667 37.5 230z" />
    <glyph glyph-name="e" unicode="e" horiz-adv-x="1179" 
d="M877 287l185.999 -0.000976562v-10c0 -49.333 -19.667 -99.666 -59 -150.999s-91.333 -90.333 -156 -117s-139 -40 -223 -40c-170 0 -301.167 55 -393.5 165s-138.5 249 -138.5 417c0 172 48.833 314.5 146.5 427.5s223.5 169.5 377.5 169.5
c84.667 0 161.334 -18.333 230.001 -55s123 -93.834 163 -171.501s60 -185.834 60 -324.501v-62h-793c0 -119.333 32.167 -217.666 96.5 -294.999s153.5 -116 267.5 -116c82 0 141.833 15.833 179.5 47.5s56.5 66.834 56.5 105.501v10zM288.999 674.999l603.001 0.000976562
v22c0 52 -12.5 102.5 -37.5 151.5s-59.5 85.333 -103.5 109s-95.333 35.5 -154 35.5c-69.333 0 -133.333 -27.833 -192 -83.5s-97.334 -133.834 -116.001 -234.501z" />
    <glyph glyph-name="f" unicode="f" horiz-adv-x="799" 
d="M434 0h-185.999v962h-163v155h163v52c0 162 34.167 276.667 102.5 344s157.5 101 267.5 101c41.333 0 93.666 -4.66699 156.999 -14v-152c-52 6.66699 -93.667 10 -125 10c-60 0 -111 -14.667 -153 -44s-63 -99.333 -63 -210v-87h326v-155h-326v-962z" />
    <glyph glyph-name="g" unicode="g" horiz-adv-x="1249" 
d="M915 236c-38 -78.667 -87.334 -137.668 -148.001 -177.001s-132.667 -59 -216 -59c-132.667 0 -242.167 52.167 -328.5 156.5s-129.5 241.5 -129.5 411.5c0 112 19.333 214 58 306s93 160.667 163 206s152 68 246 68c70 0 132.667 -13.833 188 -41.5
s111 -83.834 167 -168.501v179h186v-913c0 -229.333 -24 -380.666 -72 -453.999s-108.833 -127.666 -182.5 -162.999s-160.167 -53 -259.5 -53c-92 0 -174.5 13.667 -247.5 41s-128.5 64.833 -166.5 112.5s-57 97.167 -57 148.5v17h186v-16
c0 -49.333 26.667 -88.833 80 -118.5s121 -44.5 203 -44.5c66.667 0 123.834 11.5 171.501 34.5s86 60.333 115 112s43.5 145.5 43.5 281.5v134zM914.999 591.999c0 119.333 -30.668 216 -92.001 290s-134.666 111 -219.999 111c-90.667 0 -166 -37.333 -226 -112
s-90 -179.667 -90 -315c0 -85.333 12 -160 36 -224s61.5 -112.5 112.5 -145.5s105.5 -49.5 163.5 -49.5c94 0 170.167 41.5 228.5 124.5s87.5 189.833 87.5 320.5z" />
    <glyph glyph-name="h" unicode="h" horiz-adv-x="1195" 
d="M333 0l-186.001 0.000976562v1614h186v-690c39.333 60.667 77.5 105.667 114.5 135s75.667 51.5 116 66.5s85.166 22.5 134.499 22.5c70 0 132.833 -14.333 188.5 -43s98.834 -70.834 129.501 -126.501s46 -144.834 46 -267.501v-711h-186v631
c0 100 -6.66699 170.833 -20 212.5s-38.666 74.334 -75.999 98.001s-80 35.5 -128 35.5c-54.667 0 -106.667 -16 -156 -48s-88.833 -76.667 -118.5 -134s-44.5 -139.333 -44.5 -246v-549z" />
    <glyph glyph-name="i" unicode="i" horiz-adv-x="481" 
d="M147 1117h186v-1117h-186v1117zM147 1365v187h186v-187h-186z" />
    <glyph glyph-name="j" unicode="j" horiz-adv-x="566" 
d="M225 1117l186.999 -0.000976562v-1117c0 -112.667 -13.5 -196.667 -40.5 -252s-70.5 -99.5 -130.5 -132.5s-125 -49.5 -195 -49.5c-50 0 -104 5.66699 -162 17v148l40 -4c36.667 -4 66 -6 88 -6c62.667 0 113.834 15.833 153.501 47.5s59.5 108.834 59.5 231.501v1117z
M224.999 1373v179h187v-179h-187z" />
    <glyph glyph-name="k" unicode="k" horiz-adv-x="1102" 
d="M341 0h-194v1614h194v-1029l496 532h215l-484 -519l502 -598h-233l-496 585v-585z" />
    <glyph glyph-name="l" unicode="l" horiz-adv-x="481" 
d="M333 0h-186v1614h186v-1614z" />
    <glyph glyph-name="m" unicode="m" horiz-adv-x="1831" 
d="M333 0l-185.999 0.000976562v1117h186v-202c38 67.333 74.167 115.666 108.5 144.999s71.833 51.333 112.5 66s84 22 130 22s90 -7.16699 132 -21.5s78.333 -35.833 109 -64.5s61 -77.667 91 -147c38 64.667 75.5 112.167 112.5 142.5s75 53 114 68s80.5 22.5 124.5 22.5
c63.333 0 120.666 -14.833 171.999 -44.5s90.833 -71.834 118.5 -126.501s41.5 -147.667 41.5 -279v-698h-187v621c0 131.333 -7.83301 214.333 -23.5 249s-37.334 61.167 -65.001 79.5s-61.167 27.5 -100.5 27.5c-55.333 0 -106.333 -17.167 -153 -51.5
s-84 -80.5 -112 -138.5s-42 -139.333 -42 -244v-543h-186v621c0 131.333 -7.16699 214.333 -21.5 249s-37.166 61.334 -68.499 80.001s-65 28 -101 28c-50.667 0 -100.5 -17.833 -149.5 -53.5s-87.333 -83 -115 -142s-41.5 -138.833 -41.5 -239.5v-543z" />
    <glyph glyph-name="n" unicode="n" horiz-adv-x="1195" 
d="M333 0l-186 0.000976562v1117h186v-193c39.333 60.667 77.5 105.667 114.5 135s75.667 51.5 116 66.5s85.166 22.5 134.499 22.5c70 0 132.833 -14.333 188.5 -43s98.834 -70.834 129.501 -126.501s46 -144.834 46 -267.501v-711h-186v631
c0 100 -6.66699 170.833 -20 212.5s-39.333 74.334 -78 98.001s-80.667 35.5 -126 35.5c-54.667 0 -106.667 -16 -156 -48s-88.833 -76.667 -118.5 -134s-44.5 -139.333 -44.5 -246v-549z" />
    <glyph glyph-name="o" unicode="o" horiz-adv-x="1241" 
d="M621 -31c-146 0 -270.5 49.5 -373.5 148.5s-154.5 246.167 -154.5 441.5c0 194.667 51.5 341.5 154.5 440.5s227.5 148.5 373.5 148.5c145.333 0 269.5 -49.5 372.5 -148.5s154.5 -245.833 154.5 -440.5c0 -195.333 -51.5 -342.5 -154.5 -441.5
s-227.167 -148.5 -372.5 -148.5zM621 124c100 0 180.5 39.833 241.5 119.5s91.5 184.834 91.5 315.501c0 130 -30.5 234.833 -91.5 314.5s-141.5 119.5 -241.5 119.5c-100.667 0 -181.5 -39.833 -242.5 -119.5s-91.5 -184.5 -91.5 -314.5
c0 -130.667 30.5 -235.834 91.5 -315.501s141.833 -119.5 242.5 -119.5z" />
    <glyph glyph-name="p" unicode="p" horiz-adv-x="1233" 
d="M318 -434h-186.001v1551h186v-194c38.667 66 75.5 112.667 110.5 140s74.5 48.333 118.5 63s89.333 22 136 22c85.333 0 163.333 -23.167 234 -69.5s125.5 -115.5 164.5 -207.5s58.5 -195.333 58.5 -310c0 -170 -40.833 -311.167 -122.5 -423.5
s-196.167 -168.5 -343.5 -168.5c-47.333 0 -92.166 6.83301 -134.499 20.5s-79.833 34 -112.5 61s-69 75.167 -109 144.5v-629zM317.999 558c0 -126.667 27.332 -230.668 81.999 -312.001s131.667 -122 231 -122c90.667 0 166 36 226 108s90 179.667 90 323
c0 167.333 -31.667 283.5 -95 348.5s-135.666 97.5 -216.999 97.5c-58.667 0 -113.5 -17.833 -164.5 -53.5s-89.167 -88.667 -114.5 -159s-38 -147.166 -38 -230.499z" />
    <glyph glyph-name="q" unicode="q" horiz-adv-x="1233" 
d="M915 1117h186.002v-1551h-186v628c-38.667 -66 -75.334 -112.667 -110.001 -140s-74.167 -48.333 -118.5 -63s-89.833 -22 -136.5 -22c-84.667 0 -162.334 23.167 -233.001 69.5s-125.667 115.5 -165 207.5s-59 195.333 -59 310c0 170 41 311.167 123 423.5
s196.333 168.5 343 168.5c48 0 93 -6.83301 135 -20.5s79.5 -34 112.5 -61s69.167 -75.167 108.5 -144.5v195zM915.002 559c0 126.667 -27.332 230.667 -81.999 312s-131.334 122 -230.001 122c-90.667 0 -166 -36 -226 -108s-90 -179.667 -90 -323
c0 -167.333 31.667 -283.5 95 -348.5s135.333 -97.5 216 -97.5c59.333 0 114.5 18 165.5 54s89 89 114 159s37.5 146.667 37.5 230z" />
    <glyph glyph-name="r" unicode="r" horiz-adv-x="791" 
d="M333 0l-186 0.000976562v1117h186v-197c30.667 56.667 64.167 100.667 100.5 132s75 55.166 116 71.499s82.833 24.5 125.5 24.5c38.667 0 72 -5.66699 100 -17v-193c-44 21.333 -90.667 32 -140 32c-70 0 -137.833 -30.667 -203.5 -92s-98.5 -170 -98.5 -326v-552z" />
    <glyph glyph-name="s" unicode="s" horiz-adv-x="1043" 
d="M78 295l185.999 0.00390625v-4c0 -48 18.333 -87.833 55 -119.5s98.667 -47.5 186 -47.5c76.667 0 138.834 18.667 186.501 56s71.5 81.333 71.5 132c0 68.667 -46.667 117.334 -140 146.001l-95 29l-63 20l-129 40c-147.333 54 -221 143.667 -221 269
c0 88 35.667 165.333 107 232s177.333 100 318 100c138.667 0 237.334 -28.5 296.001 -85.5s88 -120.167 88 -189.5v-4h-187v4c0 37.333 -18.833 66.666 -56.5 87.999s-87.834 32 -150.501 32c-74.667 0 -131.834 -15.5 -171.501 -46.5s-59.5 -69.167 -59.5 -114.5
c0 -34.667 12.833 -62.834 38.5 -84.501s68.834 -41.167 129.501 -58.5l90 -25l65 -19c90.667 -26 147.167 -44.333 169.5 -55s44.833 -24.334 67.5 -41.001c31.333 -24 54.5 -53 69.5 -87s22.5 -73.667 22.5 -119c0 -105.333 -37.833 -194 -113.5 -266
s-186.167 -108 -331.5 -108c-92 0 -168.333 13.667 -229 41s-109 65.166 -145 113.499s-54 104.166 -54 167.499v4z" />
    <glyph glyph-name="t" unicode="t" horiz-adv-x="908" 
d="M830 158v-156c-90.667 -22 -160 -33 -208 -33c-69.333 0 -131.833 14 -187.5 42s-98 68.667 -127 122s-43.5 138.333 -43.5 255v574h-194v155h194v264h186v-264h326v-155h-326v-521c0 -98.667 7.66699 -167.167 23 -205.5s39.5 -66.5 72.5 -84.5s72.5 -27 118.5 -27
c36.667 0 92 11.333 166 34z" />
    <glyph glyph-name="u" unicode="u" horiz-adv-x="1195" 
d="M861 1117l185.999 0.000976562v-1117h-186v195c-38.667 -60 -76.667 -105 -114 -135s-75.666 -52.667 -114.999 -68s-82.333 -23 -129 -23c-103.333 0 -191 29.167 -263 87.5s-108 175.833 -108 352.5v708h186v-630c0 -163.333 21.667 -262 65 -296s97 -51 161 -51
c55.333 0 107.5 16.167 156.5 48.5s88 77.666 117 135.999s43.5 139.5 43.5 243.5v549z" />
    <glyph glyph-name="v" unicode="v" horiz-adv-x="1156" 
d="M478 0l-455 1117h200l358 -876l366 876h185l-468 -1117h-186z" />
    <glyph glyph-name="w" unicode="w" horiz-adv-x="1598" 
d="M350 0l-319 1117h195l197 -695l26 -166h21l29 166l199 695h187l222 -693l38 -168h20l29 168l197 693h176l-319 -1117h-188l-230 730l-31 162h-16l-33 -162l-211 -730h-189z" />
    <glyph glyph-name="x" unicode="x" horiz-adv-x="1086" 
d="M248 0h-194l388 565l-365 552h214l260 -393l269 393h192l-365 -533l384 -584h-215l-279 424z" />
    <glyph glyph-name="y" unicode="y" horiz-adv-x="1171" 
d="M511 48l-480 1069h206l374 -830l350 830h187l-471 -1118c-63.333 -150.667 -116.333 -250.5 -159 -299.5s-87.834 -83.5 -135.501 -103.5s-111.167 -30 -190.5 -30h-140v155h105c51.333 0 96.333 6.83301 135 20.5s70.834 35.5 96.501 65.5s60.167 96 103.5 198z" />
    <glyph glyph-name="z" unicode="z" horiz-adv-x="1133" 
d="M1024 155v-155h-908v155l663 807h-647v155h868v-155l-651 -807h675z" />
    <glyph glyph-name="braceleft" unicode="{" horiz-adv-x="923" 
d="M209 714l53.002 0.000976562c64.667 0 108.167 17 130.5 51s33.5 73.667 33.5 119c0 54 -7.33301 111.333 -22 172l-24 103c-16 67.333 -24 131 -24 191c0 88.667 31.333 160 94 214s137.667 81 225 81h15v-156h-19c-36.667 0 -69.834 -14.667 -99.501 -44
s-44.5 -73 -44.5 -131c0 -19.333 1.66699 -36 5 -50l11 -49l22 -120c16 -90 24 -150.667 24 -182c0 -52.667 -16.167 -105.5 -48.5 -158.5s-85.833 -92.5 -160.5 -118.5c74.667 -26 128.167 -65.5 160.5 -118.5s48.5 -105.833 48.5 -158.5
c0 -30.667 -8 -91.334 -24 -182.001l-22 -120l-11 -48c-3.33301 -16.667 -5 -33.667 -5 -51c0 -57.333 14.667 -100.833 44 -130.5s62.666 -44.5 99.999 -44.5h19v-155h-15c-87.333 0 -162.333 26.833 -225 80.5s-94 125.167 -94 214.5c0 60 8 123.333 24 190l24 103
c14.667 61.333 22 119 22 173c0 44.667 -11.167 84.167 -33.5 118.5s-65.833 51.5 -130.5 51.5h-53v155z" />
    <glyph glyph-name="bar" unicode="|" horiz-adv-x="504" 
d="M171 -47v1645h163v-1645h-163z" />
    <glyph glyph-name="braceright" unicode="}" horiz-adv-x="923" 
d="M714 559l-53.002 -0.00585938c-64.667 0 -108.167 -17.167 -130.5 -51.5s-33.5 -74.166 -33.5 -119.499c0 -53.333 7 -110.666 21 -171.999l25 -103c16 -66.667 24 -130 24 -190c0 -88.667 -31.333 -160 -94 -214s-137.667 -81 -225 -81h-15v155h19
c36.667 0 69.834 14.667 99.501 44s44.5 73.333 44.5 132c0 18.667 -1.66699 35.334 -5 50.001l-11 48l-22 120c-16 90.667 -24 151.334 -24 182.001c0 52.667 16.167 105.5 48.5 158.5s85.833 92.5 160.5 118.5c-74.667 26 -128.167 65.5 -160.5 118.5
s-48.5 106.167 -48.5 159.5c0 30.667 8 91 24 181l22 120l11 49c3.33301 16 5 33 5 51c0 56.667 -14.667 99.834 -44 129.501s-62.666 44.5 -99.999 44.5h-19v156h15c87.333 0 162.333 -27 225 -81s94 -125.667 94 -215c0 -59.333 -8 -122.666 -24 -189.999l-25 -103
c-14 -60.667 -21 -118 -21 -172c0 -45.333 11.167 -85 33.5 -119s65.833 -51 130.5 -51h53v-155z" />
    <glyph glyph-name="asciitilde" unicode="~" 
d="M124 403l-0.000976562 18c0 87.333 25.833 163.166 77.5 227.499s121.167 96.5 208.5 96.5c22 0 43.5 -2.16699 64.5 -6.5s44.833 -11.666 71.5 -21.999s66.667 -30.5 120 -60.5l121 -67c74 -40.667 134.333 -61 181 -61c49.333 0 85.833 17.833 109.5 53.5
s35.5 74.5 35.5 116.5v16h128v-16c0 -111.333 -31.5 -193.5 -94.5 -246.5s-129.833 -79.5 -200.5 -79.5c-66 0 -153.333 31 -262 93l-102 59c-77.333 44 -139.666 66 -186.999 66c-26.667 0 -51.5 -7 -74.5 -21s-41.5 -36.333 -55.5 -67s-21 -57.667 -21 -81v-18h-120z" />
    <glyph glyph-name="nonbreakingspace" unicode="&#xa0;" 
 />
    <glyph glyph-name="exclamdown" unicode="&#xa1;" horiz-adv-x="621" 
d="M216 1117h186v-186h-186v186zM232 729h152l50 -1163h-248z" />
    <glyph glyph-name="cent" unicode="&#xa2;" 
d="M772 0l-155.002 -0.00195312v189c-110 20.667 -192.667 55.834 -248 105.501s-99 115.834 -131 198.501s-48 176.667 -48 282c0 99.333 14.667 189.5 44 270.5s74.833 150.333 136.5 208s143.834 94.5 246.501 110.5v188h155v-188c93.333 -13.333 162.833 -34 208.5 -62
s81.834 -64 108.501 -108s40 -87 40 -129v-10h-187v10c0 72.667 -56.667 120 -170 142v-866c62.667 12.667 106.667 34.667 132 66s38 60.333 38 87v10h187v-10c0 -58 -27.5 -118.667 -82.5 -182s-146.5 -104.333 -274.5 -123v-189zM616.998 1204
c-61.333 -20.667 -107 -49.6709 -137 -87.0039s-53.5 -84.666 -70.5 -141.999s-25.5 -124.333 -25.5 -201c0 -75.333 8.16699 -140.166 24.5 -194.499s40.333 -100.666 72 -138.999s77.167 -68.166 136.5 -89.499v853z" />
    <glyph glyph-name="sterling" unicode="&#xa3;" 
d="M163 0l-0.00292969 171.001c90.667 44.667 152.167 102 184.5 172s59.166 161.667 80.499 275l29 150h-209v155h241l47 239c22.667 116.667 50.334 202.667 83.001 258s74.834 98.833 126.501 130.5s112.834 47.5 183.501 47.5c30 0 60.333 -2.66699 91 -8
s73.334 -22.333 128.001 -51v-159c-76 31.333 -141.667 47 -197 47c-45.333 0 -82.333 -9.66699 -111 -29s-51.5 -50.333 -68.5 -93s-35.833 -113.667 -56.5 -213l-35 -169h329v-155h-360l-27 -134c-12.667 -62.667 -29.5 -126.334 -50.5 -191.001s-42.833 -115 -65.5 -151
s-59.667 -76.333 -111 -121h753v-171h-985z" />
    <glyph glyph-name="currency" unicode="&#xa4;" 
d="M380 355l-185 -185l-110 110l185 184c-46 73.333 -74 131 -84 173s-15 85.333 -15 130c0 45.333 5 89 15 131s38 99.667 84 173l-185 185l110 110l185 -186c71.333 44.667 127.833 72.5 169.5 83.5s86.167 16.5 133.5 16.5s91.833 -5.5 133.5 -16.5
s98.167 -38.833 169.5 -83.5l185 186l110 -110l-185 -185c46 -73.333 74 -131 84 -173s15 -85.667 15 -131c0 -44.667 -5 -88 -15 -130s-38 -99.667 -84 -173l185 -184l-110 -110l-185 185c-73.333 -46 -130.833 -74 -172.5 -84s-85.167 -15 -130.5 -15s-88.833 5 -130.5 15
s-99.167 38 -172.5 84zM683 411c98.667 0 182.832 35 252.499 105s104.5 153.667 104.5 251c0 64 -15.833 123.667 -47.5 179s-75.667 99 -132 131s-115.5 48 -177.5 48s-121.167 -16 -177.5 -48s-100.333 -75.667 -132 -131s-47.5 -115 -47.5 -179
c0 -97.333 34.833 -181 104.5 -251s153.834 -105 252.501 -105z" />
    <glyph glyph-name="yen" unicode="&#xa5;" 
d="M790 0h-186v256h-388v140h388v186h-388v147h375l-517 823h209l428 -673l401 673h180l-490 -823h368v-147h-380v-186h380v-140h-380v-256z" />
    <glyph glyph-name="section" unicode="&#xa7;" 
d="M1008 280c73.333 -51.333 119.667 -97.6699 139 -139.003s29 -86.333 29 -135c0 -71.333 -18.667 -134.5 -56 -189.5s-90.833 -100.167 -160.5 -135.5s-163.834 -53 -282.501 -53c-218.667 0 -363.5 40.333 -434.5 121s-106.5 168.667 -106.5 264v10h202v-10
c0 -50 12.333 -92.167 37 -126.5s64.834 -60.166 120.501 -77.499s116.167 -26 181.5 -26c106 0 184.167 22.167 234.5 66.5s75.5 92.166 75.5 143.499c0 23.333 -5 45 -15 65s-25.333 38.333 -46 55c-41.333 32.667 -125.666 79.667 -252.999 141l-215 104
c-104 50 -173.333 101.5 -208 154.5s-52 106.833 -52 161.5c0 50 14.833 100.833 44.5 152.5s66.167 92.834 109.5 123.501c-51.333 39.333 -89.833 82.166 -115.5 128.499s-38.5 96.166 -38.5 149.499c0 108 44.833 196.667 134.5 266s215.167 104 376.5 104
c157.333 0 269.166 -29.667 335.499 -89s99.5 -129.666 99.5 -210.999v-10h-201v10c0 49.333 -24.833 85.833 -74.5 109.5s-112.5 35.5 -188.5 35.5c-84 0 -153 -16.667 -207 -50s-81 -79.666 -81 -138.999c0 -47.333 19.833 -89.5 59.5 -126.5s104.167 -76.5 193.5 -118.5
l185 -86c127.333 -59.333 216.833 -115.666 268.5 -168.999s77.5 -117.666 77.5 -192.999c0 -99.333 -56 -193 -168 -281zM890.001 354.996c61.333 49.333 92.001 101.998 92.001 157.998c0 40.667 -14.333 78.834 -43 114.501s-93.334 77.834 -194.001 126.501l-264 126
c-43.333 -37.333 -69 -70.333 -77 -99s-12 -55 -12 -79c0 -37.333 11.167 -69.833 33.5 -97.5s80.5 -64.167 174.5 -109.5z" />
    <glyph glyph-name="dieresis" unicode="&#xa8;" horiz-adv-x="1210" 
d="M295 1288v186h186v-186h-186zM729 1288v186h187v-186h-187z" />
    <glyph glyph-name="copyright" unicode="&#xa9;" horiz-adv-x="1800" 
d="M1232 438l-0.000976562 -138.001c-76.667 -34.667 -170 -52 -280 -52c-101.333 0 -188.166 21.167 -260.499 63.5s-129.333 107 -171 194s-62.5 180.5 -62.5 280.5c0 136 39.667 256.167 119 360.5s200.666 156.5 363.999 156.5c102.667 0 199.667 -16.333 291 -49v-139
c-90.667 42.667 -179 64 -265 64c-97.333 0 -178 -31.667 -242 -95s-96 -164 -96 -302c0 -135.333 32.333 -236.166 97 -302.499s149.334 -99.5 254.001 -99.5c74.667 0 158.667 19.333 252 58zM899.999 -47.001c-144 0 -278.999 35.333 -404.999 106
s-227 170.334 -303 299.001s-114 267.667 -114 417c0 146.667 36.5 284 109.5 412s173.833 228.5 302.5 301.5s265.334 109.5 410.001 109.5c145.333 0 282.166 -36.5 410.499 -109.5s229.166 -173.5 302.499 -301.5s110 -265.333 110 -412
c0 -149.333 -38 -288.333 -114 -417s-177.167 -228.334 -303.5 -299.001s-261.5 -106 -405.5 -106zM900 77.999c122.667 0 237.5 29.833 344.5 89.5s192.833 144.167 257.5 253.5c64 107.333 96 224 96 350v4c0 124.667 -31 241.334 -93 350.001s-147.5 194 -256.5 256
s-225.167 93 -348.5 93s-239.5 -31 -348.5 -93s-194.5 -147.333 -256.5 -256s-93 -225.334 -93 -350.001c0 -127.333 32.167 -245.5 96.5 -354.5s150 -193.333 257 -253s221.833 -89.5 344.5 -89.5z" />
    <glyph glyph-name="ordfeminine" unicode="&#xaa;" horiz-adv-x="683" 
d="M500 905c-10.667 33.333 -16.6689 60.668 -18.002 82.001c-34.667 -33.333 -70.167 -58.333 -106.5 -75s-73.5 -25 -111.5 -25c-55.333 0 -102.833 16.833 -142.5 50.5s-59.5 79.5 -59.5 137.5c0 64.667 26.667 115.167 80 151.5s148.333 67.5 285 93.5l54 10v68
c0 34 -11.167 59.5 -33.5 76.5s-55.833 25.5 -100.5 25.5c-43.333 0 -77.333 -9.16699 -102 -27.5s-37 -42.5 -37 -72.5v-10h-137v10c0 35.333 12.833 68.5 38.5 99.5s59.834 55.333 102.501 73s89.334 26.5 140.001 26.5s96.667 -8 138 -24s71.333 -37.333 90 -64
s28 -75.334 28 -146.001v-256c0 -80.667 9.33301 -148.667 28 -204h-136zM480.998 1236l-23.999 -6.00098c-108 -26 -178.167 -50.833 -210.5 -74.5s-48.5 -51.167 -48.5 -82.5c0 -30 11.5 -52.167 34.5 -66.5s45.833 -21.5 68.5 -21.5c35.333 0 74.166 15.333 116.499 46
s63.5 80.334 63.5 149.001v56z" />
    <glyph glyph-name="guillemotleft" unicode="&#xab;" horiz-adv-x="1094" 
d="M710 555l306 -431h-170l-327 357v155l335 357h162zM276 555l305 -431h-170l-326 357v155l335 357h161z" />
    <glyph glyph-name="logicalnot" unicode="&#xac;" 
d="M1241 636v-481h-155v326h-962v155h1117z" />
    <glyph glyph-name="registered" unicode="&#xae;" horiz-adv-x="1800" 
d="M745 264l-159.999 0.000976562v1016h323c78.667 0 138.167 -11.5 178.5 -34.5s72.166 -55.833 95.499 -98.5s35 -89 35 -139c0 -58 -16.333 -113.333 -49 -166s-82.667 -93.334 -150 -122.001c35.333 -22 73 -70 113 -144l168 -312h-182l-139 265l-33 63
c-37.333 66 -64.333 99 -81 99h-119v-427zM745.001 813.001l111 -0.000976562c73.333 0 124.333 19.333 153 58s43 81.334 43 128.001c0 28.667 -5.83301 54.5 -17.5 77.5s-28.667 42.167 -51 57.5s-61.5 23 -117.5 23h-121v-344zM900.001 -47
c-144 0 -278.999 35.333 -404.999 106s-227 170.334 -303 299.001s-114 267.667 -114 417c0 146.667 36.5 284 109.5 412s173.833 228.5 302.5 301.5s265.334 109.5 410.001 109.5c145.333 0 282.166 -36.5 410.499 -109.5s229.166 -173.5 302.499 -301.5
s110 -265.333 110 -412c0 -149.333 -38 -288.333 -114 -417s-177.167 -228.334 -303.5 -299.001s-261.5 -106 -405.5 -106zM900.002 78c122.667 0 237.5 29.833 344.5 89.5s192.833 144.167 257.5 253.5c64 107.333 96 224 96 350v4c0 124.667 -31 241.334 -93 350.001
s-147.5 194 -256.5 256s-225.167 93 -348.5 93s-239.5 -31 -348.5 -93s-194.5 -147.333 -256.5 -256s-93 -225.334 -93 -350.001c0 -127.333 32.167 -245.5 96.5 -354.5s150 -193.333 257 -253s221.833 -89.5 344.5 -89.5z" />
    <glyph glyph-name="macron" unicode="&#xaf;" horiz-adv-x="1210" 
d="M326 1288v124h559v-124h-559z" />
    <glyph glyph-name="degree" unicode="&#xb0;" horiz-adv-x="698" 
d="M350 1055c-76 0 -140.333 26.833 -193 80.5s-79 117.167 -79 190.5c0 75.333 26.833 139.5 80.5 192.5s117.5 79.5 191.5 79.5s137.667 -26.5 191 -79.5s80 -117.167 80 -192.5c0 -73.333 -26.333 -136.833 -79 -190.5s-116.667 -80.5 -192 -80.5zM350 1148
c50 0 92.167 18 126.5 54s51.5 77.333 51.5 124c0 48.667 -17.5 90.667 -52.5 126s-76.833 53 -125.5 53c-49.333 0 -91.5 -17.667 -126.5 -53s-52.5 -77.333 -52.5 -126c0 -46.667 17.167 -88 51.5 -124s76.833 -54 127.5 -54z" />
    <glyph glyph-name="plusminus" unicode="&#xb1;" 
d="M1241 946v-155h-481v-481h-155v481h-481v155h481v481h155v-481h481zM1241 155v-155h-1117v155h1117z" />
    <glyph glyph-name="acute" unicode="&#xb4;" horiz-adv-x="1210" 
d="M310 1288l296 326h216l-342 -326h-170z" />
    <glyph glyph-name="mu" unicode="&#xb5;" horiz-adv-x="1210" 
d="M135 -372h-185.998l298 1489h186l-127 -635c-15.333 -76 -23 -133 -23 -171c0 -60 17 -103.5 51 -130.5s75.333 -40.5 124 -40.5c60 0 117.167 15.667 171.5 47s102.166 76.333 143.499 135s72.666 141.334 93.999 248.001l109 547h186l-223 -1117h-186l38 191
c-76 -82.667 -145.333 -140.334 -208 -173.001s-123.667 -49 -183 -49c-74.667 0 -135.667 22.667 -183 68z" />
    <glyph glyph-name="paragraph" unicode="&#xb6;" 
d="M1156 -372h-155.001v1768h-217v-1768h-155v1047c-155.333 0 -282.166 42 -380.499 126s-147.5 185 -147.5 303c0 78 21.333 154 64 228s104.5 129.167 185.5 165.5s201.5 54.5 361.5 54.5h607v-156h-163v-1768z" />
    <glyph glyph-name="cedilla" unicode="&#xb8;" horiz-adv-x="1210" 
d="M675 0l-73.001 -131c71.333 -14 118 -35.833 140 -65.5s33 -60.5 33 -92.5c0 -36.667 -14.667 -70.167 -44 -100.5s-75.333 -45.5 -138 -45.5c-55.333 0 -108.333 9.33301 -159 28v89c38.667 -20.667 78.334 -31 119.001 -31c23.333 0 44.333 7 63 21s28 28.667 28 44
c0 45.333 -62 74.333 -186 87l109 197h108z" />
    <glyph glyph-name="ordmasculine" unicode="&#xba;" horiz-adv-x="760" 
d="M380 887c-87.333 0 -163.167 29.5 -227.5 88.5s-96.5 147.833 -96.5 266.5s32 207.667 96 267s140 89 228 89s164.167 -29.667 228.5 -89s96.5 -148.333 96.5 -267s-32.167 -207.5 -96.5 -266.5s-140.5 -88.5 -228.5 -88.5zM379.999 994c58 0 104.667 22.833 140 68.5
s53 105.5 53 179.5c0 74.667 -17.5 134.834 -52.5 180.501s-81.833 68.5 -140.5 68.5c-58 0 -104.5 -22.833 -139.5 -68.5s-52.5 -105.834 -52.5 -180.501c0 -74 17.5 -133.833 52.5 -179.5s81.5 -68.5 139.5 -68.5z" />
    <glyph glyph-name="guillemotright" unicode="&#xbb;" horiz-adv-x="1094" 
d="M384 562l-306 431h170l326 -357v-155l-334 -357h-162zM818 562l-306 431h171l326 -357v-155l-335 -357h-162z" />
    <glyph glyph-name="questiondown" unicode="&#xbf;" horiz-adv-x="1164" 
d="M575 721l185.999 -0.000976562v-94c0 -108.667 -17.167 -197.5 -51.5 -266.5s-70.833 -124.5 -109.5 -166.5l-79 -85c-51.333 -56 -87.666 -101.333 -108.999 -136s-32 -68.667 -32 -102c0 -56.667 25.5 -103.667 76.5 -141s113.833 -56 188.5 -56
c62.667 0 111.834 11.667 147.501 35s53.5 60 53.5 110v10h194v-10c0 -46.667 -17.667 -94.5 -53 -143.5s-85.333 -87.333 -150 -115s-135.334 -41.5 -212.001 -41.5c-80 0 -154.667 15.333 -224 46s-122.5 72.334 -159.5 125.001s-55.5 108 -55.5 166
c0 32 7.66699 72.333 23 121s61 108.667 137 180l71 65c46 43.333 83.833 89 113.5 137s44.5 123.667 44.5 227v135zM574.999 1117h186v-186h-186v186z" />
    <glyph glyph-name="Agrave" unicode="&#xc0;" horiz-adv-x="1489" 
d="M218 0h-187l636 1552h204l587 -1552h-218l-161 427h-685zM455 582h564l-272 721zM1062 1722h-240l-396 202h326z" />
    <glyph glyph-name="Aacute" unicode="&#xc1;" horiz-adv-x="1489" 
d="M218 0h-187l636 1552h204l587 -1552h-218l-161 427h-685zM455 582h564l-272 721zM488 1722l311 202h326l-396 -202h-241z" />
    <glyph glyph-name="Acircumflex" unicode="&#xc2;" horiz-adv-x="1489" 
d="M218 0h-187l636 1552h204l587 -1552h-218l-161 427h-685zM455 582h564l-272 721zM746 1784l-139 -62h-217l294 202h124l295 -202h-217z" />
    <glyph glyph-name="Atilde" unicode="&#xc3;" horiz-adv-x="1489" 
d="M218 0h-187l636 1552h204l587 -1552h-218l-161 427h-685zM455 582h564l-272 721zM501 1722l-123.002 0.00195312c6 45.333 20.833 83.666 44.5 114.999s48.5 53.666 74.5 66.999s56 20 90 20c41.333 0 84 -7.33301 128 -22l99 -33c40.667 -14 70.334 -21 89.001 -21
c20 0 36.667 4.5 50 13.5s25.333 29.833 36 62.5h123c-13.333 -72 -41.166 -123.667 -83.499 -155s-86.833 -47 -133.5 -47c-28.667 0 -73 11.333 -133 34l-67 25l-25 9c-33.333 12 -60 18 -80 18c-12.667 0 -29.167 -4.83301 -49.5 -14.5s-33.5 -33.5 -39.5 -71.5z" />
    <glyph glyph-name="Adieresis" unicode="&#xc4;" horiz-adv-x="1489" 
d="M218 0h-187l636 1552h204l587 -1552h-218l-161 427h-685zM455 582h564l-272 721zM459 1722v186h186v-186h-186zM893 1722v186h187v-186h-187z" />
    <glyph glyph-name="Aring" unicode="&#xc5;" horiz-adv-x="1489" 
d="M675 1707c0 -25.333 9 -47.1641 27 -65.4971s40 -27.5 66 -27.5c25.333 0 47.166 9.16699 65.499 27.5s27.5 40.166 27.5 65.499s-9.16699 47.166 -27.5 65.499s-40.166 27.5 -65.499 27.5c-26 0 -48 -9.33301 -66 -28s-27 -40.334 -27 -65.001zM871 1552l586.999 -1552
h-218l-161 427h-685l-176 -427h-187l636 1552c-28 20 -49.167 42.833 -63.5 68.5s-21.5 54.5 -21.5 86.5c0 50 18 93.5 54 130.5s80 55.5 132 55.5c50.667 0 94.334 -18.333 131.001 -55s55 -80.334 55 -131.001c0 -30.667 -6.83301 -59 -20.5 -85s-34.5 -49.333 -62.5 -70z
M454.999 582.003h564l-272 721z" />
    <glyph glyph-name="AE" unicode="&#xc6;" horiz-adv-x="2032" 
d="M1001 0v427h-516l-280 -427h-205l1001 1552h876v-171h-675v-489h590v-155h-590v-566h730v-171h-931zM1001 582v645l-417 -645h417z" />
    <glyph glyph-name="Ccedilla" unicode="&#xc7;" horiz-adv-x="1334" 
d="M716 -131c71.333 -14 118 -35.833 140 -65.5s33 -60.5 33 -92.5c0 -36.667 -14.667 -70.167 -44 -100.5s-75.333 -45.5 -138 -45.5c-55.333 0 -108.333 9.33301 -159 28v89c38.667 -20.667 78 -31 118 -31c24 0 45.167 7 63.5 21s27.5 28.667 27.5 44
c0 45.333 -61.667 74.333 -185 87l83 151c-128 14.667 -236.167 59.167 -324.5 133.5s-152.5 161.333 -192.5 261s-60 232.834 -60 399.501c0 204.667 26.667 364.5 80 479.5s130.333 205.667 231 272s221.334 99.5 362.001 99.5c97.333 0 182.333 -14.833 255 -44.5
s130.167 -76.334 172.5 -140.001s63.5 -125.834 63.5 -186.501v-10h-187v10c0 39.333 -11.833 76.166 -35.5 110.499s-57.667 60.333 -102 78s-97.5 26.5 -159.5 26.5c-158.667 0 -276.834 -62.667 -354.501 -188s-116.5 -285 -116.5 -479c0 -196 39 -356.333 117 -481
s195.667 -187 353 -187c108 0 184.667 22.333 230 67s68 94.334 68 149.001v10h187v-10c0 -54.667 -18.333 -112.167 -55 -172.5s-86.667 -106.666 -150 -138.999s-155.333 -51.833 -276 -58.5z" />
    <glyph glyph-name="Egrave" unicode="&#xc8;" horiz-adv-x="1179" 
d="M147 0v1552h877v-171h-675v-489h589v-155h-589v-566h729v-171h-931zM931 1722h-240l-396 202h326z" />
    <glyph glyph-name="Eacute" unicode="&#xc9;" horiz-adv-x="1179" 
d="M147 0v1552h877v-171h-675v-489h589v-155h-589v-566h729v-171h-931zM293 1722l311 202h326l-396 -202h-241z" />
    <glyph glyph-name="Ecircumflex" unicode="&#xca;" horiz-adv-x="1179" 
d="M147 0v1552h877v-171h-675v-489h589v-155h-589v-566h729v-171h-931zM613 1784l-139 -62h-217l294 202h124l295 -202h-217z" />
    <glyph glyph-name="Edieresis" unicode="&#xcb;" horiz-adv-x="1179" 
d="M147 0v1552h877v-171h-675v-489h589v-155h-589v-566h729v-171h-931zM303 1722v186h186v-186h-186zM737 1722v186h187v-186h-187z" />
    <glyph glyph-name="Igrave" unicode="&#xcc;" horiz-adv-x="497" 
d="M349 0h-202v1552h202v-1552zM566 1722h-240l-396 202h326z" />
    <glyph glyph-name="Iacute" unicode="&#xcd;" horiz-adv-x="495" 
d="M349 0h-202v1552h202v-1552zM-71 1722l311 202h326l-396 -202h-241z" />
    <glyph glyph-name="Icircumflex" unicode="&#xce;" horiz-adv-x="495" 
d="M349 0h-202v1552h202v-1552zM246 1784l-139 -62h-217l294 202h124l295 -202h-217z" />
    <glyph glyph-name="Idieresis" unicode="&#xcf;" horiz-adv-x="497" 
d="M349 0h-202v1552h202v-1552zM-62 1722v186h186v-186h-186zM372 1722v186h187v-186h-187z" />
    <glyph glyph-name="Ntilde" unicode="&#xd1;" horiz-adv-x="1451" 
d="M333 0h-186v1552h200l709 -1103l65 -123l-4 122v1104h186v-1552h-198l-711 1108l-65 125l4 -125v-1108zM480 1722l-123.002 0.00195312c6 45.333 20.833 83.666 44.5 114.999s48.5 53.666 74.5 66.999s56 20 90 20c41.333 0 84 -7.33301 128 -22l99 -33
c40.667 -14 70.334 -21 89.001 -21c20 0 36.667 4.5 50 13.5s25.333 29.833 36 62.5h123c-13.333 -72 -41.166 -123.667 -83.499 -155s-86.833 -47 -133.5 -47c-28.667 0 -73 11.333 -133 34l-67 25l-25 9c-33.333 12 -60 18 -80 18c-12.667 0 -29.167 -4.83301 -49.5 -14.5
s-33.5 -33.5 -39.5 -71.5z" />
    <glyph glyph-name="Ograve" unicode="&#xd2;" horiz-adv-x="1505" 
d="M752 -47c-194 0 -352.333 71.333 -475 214s-184 345.667 -184 609s61.333 466.166 184 608.499s281 213.5 475 213.5s352.5 -71.167 475.5 -213.5s184.5 -345.166 184.5 -608.499s-61.5 -466.333 -184.5 -609s-281.5 -214 -475.5 -214zM752 109
c141.333 0 251.666 60.833 330.999 182.5s119 283.167 119 484.5c0 200.667 -39.667 362 -119 484s-189.666 183 -330.999 183c-140.667 0 -250.834 -61 -330.501 -183s-119.5 -283.333 -119.5 -484c0 -201.333 39.833 -362.833 119.5 -484.5s189.834 -182.5 330.501 -182.5
zM1070 1722h-240l-396 202h326z" />
    <glyph glyph-name="Oacute" unicode="&#xd3;" horiz-adv-x="1505" 
d="M752 -47c-194 0 -352.333 71.333 -475 214s-184 345.667 -184 609s61.333 466.166 184 608.499s281 213.5 475 213.5s352.5 -71.167 475.5 -213.5s184.5 -345.166 184.5 -608.499s-61.5 -466.333 -184.5 -609s-281.5 -214 -475.5 -214zM752 109
c141.333 0 251.666 60.833 330.999 182.5s119 283.167 119 484.5c0 200.667 -39.667 362 -119 484s-189.666 183 -330.999 183c-140.667 0 -250.834 -61 -330.501 -183s-119.5 -283.333 -119.5 -484c0 -201.333 39.833 -362.833 119.5 -484.5s189.834 -182.5 330.501 -182.5
zM435 1722l311 202h326l-396 -202h-241z" />
    <glyph glyph-name="Ocircumflex" unicode="&#xd4;" horiz-adv-x="1505" 
d="M752 -47c-194 0 -352.333 71.333 -475 214s-184 345.667 -184 609s61.333 466.166 184 608.499s281 213.5 475 213.5s352.5 -71.167 475.5 -213.5s184.5 -345.166 184.5 -608.499s-61.5 -466.333 -184.5 -609s-281.5 -214 -475.5 -214zM752 109
c141.333 0 251.666 60.833 330.999 182.5s119 283.167 119 484.5c0 200.667 -39.667 362 -119 484s-189.666 183 -330.999 183c-140.667 0 -250.834 -61 -330.501 -183s-119.5 -283.333 -119.5 -484c0 -201.333 39.833 -362.833 119.5 -484.5s189.834 -182.5 330.501 -182.5
zM752 1784l-139 -62h-217l294 202h124l295 -202h-217z" />
    <glyph glyph-name="Otilde" unicode="&#xd5;" horiz-adv-x="1505" 
d="M752 -47c-194 0 -352.333 71.333 -475 214s-184 345.667 -184 609s61.333 466.166 184 608.499s281 213.5 475 213.5s352.5 -71.167 475.5 -213.5s184.5 -345.166 184.5 -608.499s-61.5 -466.333 -184.5 -609s-281.5 -214 -475.5 -214zM752 109
c141.333 0 251.666 60.833 330.999 182.5s119 283.167 119 484.5c0 200.667 -39.667 362 -119 484s-189.666 183 -330.999 183c-140.667 0 -250.834 -61 -330.501 -183s-119.5 -283.333 -119.5 -484c0 -201.333 39.833 -362.833 119.5 -484.5s189.834 -182.5 330.501 -182.5
zM509 1722l-123.002 0.00195312c6 45.333 20.833 83.666 44.5 114.999s48.5 53.666 74.5 66.999s56 20 90 20c41.333 0 84 -7.33301 128 -22l99 -33c40.667 -14 70.334 -21 89.001 -21c20 0 36.667 4.5 50 13.5s25.333 29.833 36 62.5h123
c-13.333 -72 -41.166 -123.667 -83.499 -155s-86.833 -47 -133.5 -47c-28.667 0 -73 11.333 -133 34l-67 25l-25 9c-33.333 12 -60 18 -80 18c-12.667 0 -29.167 -4.83301 -49.5 -14.5s-33.5 -33.5 -39.5 -71.5z" />
    <glyph glyph-name="Odieresis" unicode="&#xd6;" horiz-adv-x="1505" 
d="M752 -47c-194 0 -352.333 71.333 -475 214s-184 345.667 -184 609s61.333 466.166 184 608.499s281 213.5 475 213.5s352.5 -71.167 475.5 -213.5s184.5 -345.166 184.5 -608.499s-61.5 -466.333 -184.5 -609s-281.5 -214 -475.5 -214zM752 109
c141.333 0 251.666 60.833 330.999 182.5s119 283.167 119 484.5c0 200.667 -39.667 362 -119 484s-189.666 183 -330.999 183c-140.667 0 -250.834 -61 -330.501 -183s-119.5 -283.333 -119.5 -484c0 -201.333 39.833 -362.833 119.5 -484.5s189.834 -182.5 330.501 -182.5
zM442 1722v186h186v-186h-186zM876 1722v186h187v-186h-187z" />
    <glyph glyph-name="Oslash" unicode="&#xd8;" horiz-adv-x="1505" 
d="M276 -47l-183 -0.000976562l159 244c-68 95.333 -111.5 192.833 -130.5 292.5s-28.5 201.5 -28.5 305.5c0 246 61 441.333 183 586s282.667 217 482 217c138.667 0 263.334 -42.333 374.001 -127l89 127h191l-165 -241c65.333 -89.333 109.166 -181.166 131.499 -275.499
s33.5 -197.833 33.5 -310.5c0 -185.333 -28 -335.833 -84 -451.5s-132.833 -205.667 -230.5 -270s-212.167 -96.5 -343.5 -96.5c-150.667 0 -280.667 42.667 -390 128zM375 372.999l656.999 952c-60 54.667 -115 88 -165 100s-91.667 18 -125 18
c-138 0 -247.167 -60.167 -327.5 -180.5s-120.5 -278.833 -120.5 -475.5c0 -58.667 4.33301 -120.5 13 -185.5s31.334 -141.167 68.001 -228.5zM1125 1182l-657 -950.999c78 -81.333 172.333 -122 283 -122c143.333 0 254.333 61.167 333 183.5s118 285.166 118 488.499
c0 154 -25.667 287.667 -77 401z" />
    <glyph glyph-name="Ugrave" unicode="&#xd9;" 
d="M124 1552h202.001v-998c0 -145.333 14.167 -242.833 42.5 -292.5s72.5 -87.5 132.5 -113.5s127 -39 201 -39c71.333 0 134.5 13 189.5 39s96 67.167 123 123.5s40.5 174.166 40.5 353.499v927h186v-979c0 -181.333 -20.833 -308.666 -62.5 -381.999
s-101.834 -131.333 -180.501 -174s-177.667 -64 -297 -64c-110.667 0 -212 17 -304 51s-160.5 86.833 -205.5 158.5s-67.5 193.167 -67.5 364.5v1025zM1001 1722h-240l-396 202h326z" />
    <glyph glyph-name="Uacute" unicode="&#xda;" 
d="M124 1552h202.001v-998c0 -145.333 14.167 -242.833 42.5 -292.5s72.5 -87.5 132.5 -113.5s127 -39 201 -39c71.333 0 134.5 13 189.5 39s96 67.167 123 123.5s40.5 174.166 40.5 353.499v927h186v-979c0 -181.333 -20.833 -308.666 -62.5 -381.999
s-101.834 -131.333 -180.501 -174s-177.667 -64 -297 -64c-110.667 0 -212 17 -304 51s-160.5 86.833 -205.5 158.5s-67.5 193.167 -67.5 364.5v1025zM312.001 1722l311 202h326l-396 -202h-241z" />
    <glyph glyph-name="Ucircumflex" unicode="&#xdb;" 
d="M124 1552h202.001v-998c0 -145.333 14.167 -242.833 42.5 -292.5s72.5 -87.5 132.5 -113.5s127 -39 201 -39c71.333 0 134.5 13 189.5 39s96 67.167 123 123.5s40.5 174.166 40.5 353.499v927h186v-979c0 -181.333 -20.833 -308.666 -62.5 -381.999
s-101.834 -131.333 -180.501 -174s-177.667 -64 -297 -64c-110.667 0 -212 17 -304 51s-160.5 86.833 -205.5 158.5s-67.5 193.167 -67.5 364.5v1025zM682.001 1784l-139 -62h-217l294 202h124l295 -202h-217z" />
    <glyph glyph-name="Udieresis" unicode="&#xdc;" 
d="M124 1552h202.001v-998c0 -145.333 14.167 -242.833 42.5 -292.5s72.5 -87.5 132.5 -113.5s127 -39 201 -39c71.333 0 134.5 13 189.5 39s96 67.167 123 123.5s40.5 174.166 40.5 353.499v927h186v-979c0 -181.333 -20.833 -308.666 -62.5 -381.999
s-101.834 -131.333 -180.501 -174s-177.667 -64 -297 -64c-110.667 0 -212 17 -304 51s-160.5 86.833 -205.5 158.5s-67.5 193.167 -67.5 364.5v1025zM373.001 1722v186h186v-186h-186zM807.001 1722v186h187v-186h-187z" />
    <glyph glyph-name="germandbls" unicode="&#xdf;" horiz-adv-x="1210" 
d="M147 0l-0.000976562 1149c0 118 16.667 208.333 50 271s79.5 110.667 138.5 144s131.5 50 217.5 50c103.333 0 192.166 -22.333 266.499 -67s111.5 -111.334 111.5 -200.001c0 -50 -12.667 -96.167 -38 -138.5s-58 -84.5 -98 -126.5l-45 -47
c-55.333 -58 -83 -101.333 -83 -130c0 -40.667 42 -92.334 126 -155.001l42 -31l56 -43l77 -60c120 -98.667 180 -204.667 180 -318c0 -92.667 -31.667 -170.667 -95 -234s-155 -95 -275 -95c-97.333 0 -183.666 14 -258.999 42v173c59.333 -26 115 -42.5 167 -49.5
s87.333 -10.5 106 -10.5c40.667 0 77.834 12.833 111.501 38.5s50.5 62.834 50.5 111.501c0 39.333 -12.167 77.5 -36.5 114.5s-81.166 90.167 -170.499 159.5l-56 44l-43 33c-79.333 60 -128.333 106.5 -147 139.5s-28 66.833 -28 101.5c0 56 29.333 117 88 183l29 33
l54 63c62 73.333 93 133.666 93 180.999c0 34 -18.333 64.667 -55 92s-81.334 41 -134.001 41c-60 0 -110.833 -18.833 -152.5 -56.5s-62.5 -116.167 -62.5 -235.5v-1167h-186z" />
    <glyph glyph-name="agrave" unicode="&#xe0;" horiz-adv-x="1132" 
d="M836 0c-19.333 60 -29 111.666 -29 154.999c-81.333 -80.667 -150.833 -131.834 -208.5 -153.501s-112.834 -32.5 -165.501 -32.5c-88.667 0 -164.834 27.167 -228.501 81.5s-95.5 129.166 -95.5 224.499c0 108 44.833 191.333 134.5 250s244.167 109.334 463.5 152.001
l100 19v126c0 68.667 -23 116.834 -69 144.501s-101.333 41.5 -166 41.5c-77.333 0 -137.666 -17 -180.999 -51s-65 -73.667 -65 -119v-16h-202v15c0 49.333 20.833 100.333 62.5 153s97 92.334 166 119.001s144.5 40 226.5 40c81.333 0 155.333 -12.667 222 -38
s115.334 -59.5 146.001 -102.5s46 -123.833 46 -242.5v-434c0 -47.333 1.33301 -97 4 -149c2 -52.667 13.667 -113.667 35 -183h-196zM807 563.999l-56 -14.002c-188.667 -46 -309.334 -89.667 -362.001 -131s-79 -90.666 -79 -147.999
c0 -29.333 7.83301 -56.666 23.5 -81.999s38.834 -45 69.501 -59s61 -21 91 -21c52 0 103.167 15.167 153.5 45.5s89.5 70.833 117.5 121.5s42 109.667 42 177v111zM826 1288h-170l-342 326h216z" />
    <glyph glyph-name="aacute" unicode="&#xe1;" horiz-adv-x="1132" 
d="M836 0c-19.333 60 -29 111.666 -29 154.999c-81.333 -80.667 -150.833 -131.834 -208.5 -153.501s-112.834 -32.5 -165.501 -32.5c-88.667 0 -164.834 27.167 -228.501 81.5s-95.5 129.166 -95.5 224.499c0 108 44.833 191.333 134.5 250s244.167 109.334 463.5 152.001
l100 19v126c0 68.667 -23 116.834 -69 144.501s-101.333 41.5 -166 41.5c-77.333 0 -137.666 -17 -180.999 -51s-65 -73.667 -65 -119v-16h-202v15c0 49.333 20.833 100.333 62.5 153s97 92.334 166 119.001s144.5 40 226.5 40c81.333 0 155.333 -12.667 222 -38
s115.334 -59.5 146.001 -102.5s46 -123.833 46 -242.5v-434c0 -47.333 1.33301 -97 4 -149c2 -52.667 13.667 -113.667 35 -183h-196zM807 563.999l-56 -14.002c-188.667 -46 -309.334 -89.667 -362.001 -131s-79 -90.666 -79 -147.999
c0 -29.333 7.83301 -56.666 23.5 -81.999s38.834 -45 69.501 -59s61 -21 91 -21c52 0 103.167 15.167 153.5 45.5s89.5 70.833 117.5 121.5s42 109.667 42 177v111zM345 1288l296 326h216l-342 -326h-170z" />
    <glyph glyph-name="acircumflex" unicode="&#xe2;" horiz-adv-x="1133" 
d="M836 0c-19.333 60 -29 111.666 -29 154.999c-81.333 -80.667 -150.833 -131.834 -208.5 -153.501s-112.834 -32.5 -165.501 -32.5c-88.667 0 -164.834 27.167 -228.501 81.5s-95.5 129.166 -95.5 224.499c0 108 44.833 191.333 134.5 250s244.167 109.334 463.5 152.001
l100 19v126c0 68.667 -23 116.834 -69 144.501s-101.333 41.5 -166 41.5c-77.333 0 -137.666 -17 -180.999 -51s-65 -73.667 -65 -119v-16h-202v15c0 49.333 20.833 100.333 62.5 153s97 92.334 166 119.001s144.5 40 226.5 40c81.333 0 155.333 -12.667 222 -38
s115.334 -59.5 146.001 -102.5s46 -123.833 46 -242.5v-434c0 -47.333 1.33301 -97 4 -149c2 -52.667 13.667 -113.667 35 -183h-196zM807 563.999l-56 -14.002c-188.667 -46 -309.334 -89.667 -362.001 -131s-79 -90.666 -79 -147.999
c0 -29.333 7.83301 -56.666 23.5 -81.999s38.834 -45 69.501 -59s61 -21 91 -21c52 0 103.167 15.167 153.5 45.5s89.5 70.833 117.5 121.5s42 109.667 42 177v111zM587 1456l-140 -168h-155l233 326h124l233 -326h-156z" />
    <glyph glyph-name="atilde" unicode="&#xe3;" horiz-adv-x="1132" 
d="M836 0c-19.333 60 -29 111.666 -29 154.999c-81.333 -80.667 -150.833 -131.834 -208.5 -153.501s-112.834 -32.5 -165.501 -32.5c-88.667 0 -164.834 27.167 -228.501 81.5s-95.5 129.166 -95.5 224.499c0 108 44.833 191.333 134.5 250s244.167 109.334 463.5 152.001
l100 19v126c0 68.667 -23 116.834 -69 144.501s-101.333 41.5 -166 41.5c-77.333 0 -137.666 -17 -180.999 -51s-65 -73.667 -65 -119v-16h-202v15c0 49.333 20.833 100.333 62.5 153s97 92.334 166 119.001s144.5 40 226.5 40c81.333 0 155.333 -12.667 222 -38
s115.334 -59.5 146.001 -102.5s46 -123.833 46 -242.5v-434c0 -47.333 1.33301 -97 4 -149c2 -52.667 13.667 -113.667 35 -183h-196zM807 563.999l-56 -14.002c-188.667 -46 -309.334 -89.667 -362.001 -131s-79 -90.666 -79 -147.999
c0 -29.333 7.83301 -56.666 23.5 -81.999s38.834 -45 69.501 -59s61 -21 91 -21c52 0 103.167 15.167 153.5 45.5s89.5 70.833 117.5 121.5s42 109.667 42 177v111zM369 1288l-125 -0.000976562c0 88 17.167 152.667 51.5 194s77.5 62 129.5 62
c41.333 0 83.333 -13.333 126 -40l42 -25c55.333 -34.667 94 -52 116 -52c40 0 60 39 60 117h127c-4 -68 -13 -117.667 -27 -149s-35.5 -57.166 -64.5 -77.499s-60.833 -30.5 -95.5 -30.5c-45.333 0 -92.333 16.333 -141 49l-44 29c-39.333 26 -67.333 39 -84 39
c-47.333 0 -71 -38.667 -71 -116z" />
    <glyph glyph-name="adieresis" unicode="&#xe4;" horiz-adv-x="1132" 
d="M836 0c-19.333 60 -29 111.666 -29 154.999c-81.333 -80.667 -150.833 -131.834 -208.5 -153.501s-112.834 -32.5 -165.501 -32.5c-88.667 0 -164.834 27.167 -228.501 81.5s-95.5 129.166 -95.5 224.499c0 108 44.833 191.333 134.5 250s244.167 109.334 463.5 152.001
l100 19v126c0 68.667 -23 116.834 -69 144.501s-101.333 41.5 -166 41.5c-77.333 0 -137.666 -17 -180.999 -51s-65 -73.667 -65 -119v-16h-202v15c0 49.333 20.833 100.333 62.5 153s97 92.334 166 119.001s144.5 40 226.5 40c81.333 0 155.333 -12.667 222 -38
s115.334 -59.5 146.001 -102.5s46 -123.833 46 -242.5v-434c0 -47.333 1.33301 -97 4 -149c2 -52.667 13.667 -113.667 35 -183h-196zM807 563.999l-56 -14.002c-188.667 -46 -309.334 -89.667 -362.001 -131s-79 -90.666 -79 -147.999
c0 -29.333 7.83301 -56.666 23.5 -81.999s38.834 -45 69.501 -59s61 -21 91 -21c52 0 103.167 15.167 153.5 45.5s89.5 70.833 117.5 121.5s42 109.667 42 177v111zM260 1288v186h186v-186h-186zM694 1288v186h187v-186h-187z" />
    <glyph glyph-name="aring" unicode="&#xe5;" horiz-adv-x="1132" 
d="M836 0c-19.333 60 -29 111.666 -29 154.999c-81.333 -80.667 -150.833 -131.834 -208.5 -153.501s-112.834 -32.5 -165.501 -32.5c-88.667 0 -164.834 27.167 -228.501 81.5s-95.5 129.166 -95.5 224.499c0 108 44.833 191.333 134.5 250s244.167 109.334 463.5 152.001
l100 19v126c0 68.667 -23 116.834 -69 144.501s-101.333 41.5 -166 41.5c-77.333 0 -137.666 -17 -180.999 -51s-65 -73.667 -65 -119v-16h-202v15c0 49.333 20.833 100.333 62.5 153s97 92.334 166 119.001s144.5 40 226.5 40c81.333 0 155.333 -12.667 222 -38
s115.334 -59.5 146.001 -102.5s46 -123.833 46 -242.5v-434c0 -47.333 1.33301 -97 4 -149c2 -52.667 13.667 -113.667 35 -183h-196zM807 563.999l-56 -14.002c-188.667 -46 -309.334 -89.667 -362.001 -131s-79 -90.666 -79 -147.999
c0 -29.333 7.83301 -56.666 23.5 -81.999s38.834 -45 69.501 -59s61 -21 91 -21c52 0 103.167 15.167 153.5 45.5s89.5 70.833 117.5 121.5s42 109.667 42 177v111zM570 1381c26 0 48 9.16699 66 27.5s27 40.166 27 65.499s-9 47.166 -27 65.499s-40 27.5 -66 27.5
c-25.333 0 -47.166 -9.16699 -65.499 -27.5s-27.5 -40.166 -27.5 -65.499s9.16699 -47.166 27.5 -65.499s40.166 -27.5 65.499 -27.5zM570 1288c-52 0 -95.999 18.667 -131.999 56s-54 80.666 -54 129.999c0 50 18.167 93.5 54.5 130.5s80.166 55.5 131.499 55.5
c52 0 96 -18.5 132 -55.5s54 -80.5 54 -130.5c0 -49.333 -18 -92.666 -54 -129.999s-80 -56 -132 -56z" />
    <glyph glyph-name="ae" unicode="&#xe6;" horiz-adv-x="1901" 
d="M962 943c30.667 55.333 63.5 96 98.5 122s76.833 46.333 125.5 61s99.667 22 153 22c131.333 0 239.666 -43.5 324.999 -130.5s128 -227.167 128 -420.5v-62h-792l-1 -35c0 -93.333 32.5 -179.333 97.5 -258s153.833 -118 266.5 -118c85.333 0 145.833 18.333 181.5 55
s53.5 69.334 53.5 98.001v10h194v-10c0 -48.667 -20.5 -98.834 -61.5 -150.501s-95.333 -90.834 -163 -117.501s-139.167 -40 -214.5 -40c-82 0 -163.333 17.167 -244 51.5s-146 105.5 -196 213.5c-67.333 -96.667 -139 -165 -215 -205s-158.667 -60 -248 -60
c-104.667 0 -187.667 28.5 -249 85.5s-92 130.5 -92 220.5c0 61.333 15.167 115 45.5 161s83 87.167 158 123.5s207.833 74.833 398.5 115.5l119 25v46c0 105.333 -23.833 175.5 -71.5 210.5s-107.834 52.5 -180.501 52.5c-81.333 0 -143.666 -17.167 -186.999 -51.5
s-65 -74.166 -65 -119.499v-16h-201v14c0 50 20.5 100.333 61.5 151s96.333 90.167 166 118.5s142.834 42.5 219.501 42.5c72.667 0 144.167 -13.167 214.5 -39.5s128.833 -81.5 175.5 -165.5zM830 566l-70.002 -18c-154 -40 -255.167 -72 -303.5 -96
s-83.5 -51.667 -105.5 -83s-33 -64.333 -33 -99c0 -54 20.5 -94.333 61.5 -121s84.5 -40 130.5 -40c50.667 0 102.834 17.167 156.501 51.5s94.334 83.333 122.001 147s41.5 133.167 41.5 208.5v50zM1012 675h602.002v24c0 44.667 -13 93 -39 145
s-61.833 89.833 -107.5 113.5s-94.834 35.5 -147.501 35.5c-73.333 0 -139.333 -29.5 -198 -88.5s-95.334 -135.5 -110.001 -229.5z" />
    <glyph glyph-name="ccedilla" unicode="&#xe7;" horiz-adv-x="1117" 
d="M587 -131c71.333 -14 117.998 -35.834 139.998 -65.501s33 -60.5 33 -92.5c0 -36.667 -14.667 -70.167 -44 -100.5s-75.333 -45.5 -138 -45.5c-55.333 0 -108.333 9.33301 -159 28v89c38.667 -20.667 78.334 -31 119.001 -31c23.333 0 44.333 7 63 21s28 28.667 28 44
c0 45.333 -62 74.333 -186 87l93 168c-145.333 22 -255.5 78.833 -330.5 170.5s-112.5 225.5 -112.5 401.5c0 199.333 45.333 350 136 452s216.667 153 378 153c86 0 159.5 -13.5 220.5 -40.5s110.333 -65.833 148 -116.5s56.5 -101 56.5 -151v-10h-187v10
c0 40.667 -19.167 76.334 -57.5 107.001s-95.166 46 -170.499 46c-93.333 0 -171.666 -34.333 -234.999 -103s-95 -179 -95 -331c0 -152.667 31.667 -263.334 95 -332.001s141.666 -103 234.999 -103c75.333 0 132.166 15.333 170.499 46s57.5 66.334 57.5 107.001v10h186
v-10c0 -48 -16.833 -95.667 -50.5 -143s-77.667 -85 -132 -113s-122.166 -44.667 -203.499 -50z" />
    <glyph glyph-name="egrave" unicode="&#xe8;" horiz-adv-x="1180" 
d="M891 287l185.999 -0.000976562v-10c0 -49.333 -19.667 -99.666 -59 -150.999s-91.333 -90.333 -156 -117s-139 -40 -223 -40c-170 0 -301.167 55 -393.5 165s-138.5 249 -138.5 417c0 172 48.833 314.5 146.5 427.5s223.5 169.5 377.5 169.5
c84.667 0 161.334 -18.333 230.001 -55s123 -93.834 163 -171.501s60 -185.834 60 -324.501v-62h-793c0 -119.333 32.167 -217.666 96.5 -294.999s153.5 -116 267.5 -116c82 0 141.833 15.833 179.5 47.5s56.5 66.834 56.5 105.501v10zM302.999 674.999l603.001 0.000976562
v22c0 52 -12.5 102.5 -37.5 151.5s-59.5 85.333 -103.5 109s-95.333 35.5 -154 35.5c-69.333 0 -133.333 -27.833 -192 -83.5s-97.334 -133.834 -116.001 -234.501zM855 1288h-170l-342 326h216z" />
    <glyph glyph-name="eacute" unicode="&#xe9;" horiz-adv-x="1179" 
d="M891 287l185.999 -0.000976562v-10c0 -49.333 -19.667 -99.666 -59 -150.999s-91.333 -90.333 -156 -117s-139 -40 -223 -40c-170 0 -301.167 55 -393.5 165s-138.5 249 -138.5 417c0 172 48.833 314.5 146.5 427.5s223.5 169.5 377.5 169.5
c84.667 0 161.334 -18.333 230.001 -55s123 -93.834 163 -171.501s60 -185.834 60 -324.501v-62h-793c0 -119.333 32.167 -217.666 96.5 -294.999s153.5 -116 267.5 -116c82 0 141.833 15.833 179.5 47.5s56.5 66.834 56.5 105.501v10zM302.999 674.999l603.001 0.000976562
v22c0 52 -12.5 102.5 -37.5 151.5s-59.5 85.333 -103.5 109s-95.333 35.5 -154 35.5c-69.333 0 -133.333 -27.833 -192 -83.5s-97.334 -133.834 -116.001 -234.501zM373 1288l296 326h216l-342 -326h-170z" />
    <glyph glyph-name="ecircumflex" unicode="&#xea;" horiz-adv-x="1179" 
d="M891 287l185.999 -0.000976562v-10c0 -49.333 -19.667 -99.666 -59 -150.999s-91.333 -90.333 -156 -117s-139 -40 -223 -40c-170 0 -301.167 55 -393.5 165s-138.5 249 -138.5 417c0 172 48.833 314.5 146.5 427.5s223.5 169.5 377.5 169.5
c84.667 0 161.334 -18.333 230.001 -55s123 -93.834 163 -171.501s60 -185.834 60 -324.501v-62h-793c0 -119.333 32.167 -217.666 96.5 -294.999s153.5 -116 267.5 -116c82 0 141.833 15.833 179.5 47.5s56.5 66.834 56.5 105.501v10zM302.999 674.999l603.001 0.000976562
v22c0 52 -12.5 102.5 -37.5 151.5s-59.5 85.333 -103.5 109s-95.333 35.5 -154 35.5c-69.333 0 -133.333 -27.833 -192 -83.5s-97.334 -133.834 -116.001 -234.501zM599 1456l-140 -168h-155l233 326h124l233 -326h-156z" />
    <glyph glyph-name="edieresis" unicode="&#xeb;" horiz-adv-x="1179" 
d="M891 287l185.999 -0.000976562v-10c0 -49.333 -19.667 -99.666 -59 -150.999s-91.333 -90.333 -156 -117s-139 -40 -223 -40c-170 0 -301.167 55 -393.5 165s-138.5 249 -138.5 417c0 172 48.833 314.5 146.5 427.5s223.5 169.5 377.5 169.5
c84.667 0 161.334 -18.333 230.001 -55s123 -93.834 163 -171.501s60 -185.834 60 -324.501v-62h-793c0 -119.333 32.167 -217.666 96.5 -294.999s153.5 -116 267.5 -116c82 0 141.833 15.833 179.5 47.5s56.5 66.834 56.5 105.501v10zM302.999 674.999l603.001 0.000976562
v22c0 52 -12.5 102.5 -37.5 151.5s-59.5 85.333 -103.5 109s-95.333 35.5 -154 35.5c-69.333 0 -133.333 -27.833 -192 -83.5s-97.334 -133.834 -116.001 -234.501zM289 1288v186h186v-186h-186zM723 1288v186h187v-186h-187z" />
    <glyph glyph-name="igrave" unicode="&#xec;" horiz-adv-x="481" 
d="M147 1117h186v-1117h-186v1117zM496 1288h-170l-342 326h216z" />
    <glyph glyph-name="iacute" unicode="&#xed;" horiz-adv-x="481" 
d="M147 1117h186v-1117h-186v1117zM-16 1288l296 326h216l-342 -326h-170z" />
    <glyph glyph-name="icircumflex" unicode="&#xee;" horiz-adv-x="480" 
d="M147 1117h186v-1117h-186v1117zM240 1456l-140 -168h-155l233 326h124l233 -326h-156z" />
    <glyph glyph-name="idieresis" unicode="&#xef;" horiz-adv-x="480" 
d="M147 1117h186v-1117h-186v1117zM-70 1288v186h186v-186h-186zM364 1288v186h187v-186h-187z" />
    <glyph glyph-name="ntilde" unicode="&#xf1;" horiz-adv-x="1196" 
d="M333 0l-186 0.000976562v1117h186v-193c39.333 60.667 77.5 105.667 114.5 135s75.667 51.5 116 66.5s85.166 22.5 134.499 22.5c70 0 132.833 -14.333 188.5 -43s98.834 -70.834 129.501 -126.501s46 -144.834 46 -267.501v-711h-186v631
c0 100 -6.66699 170.833 -20 212.5s-39.333 74.334 -78 98.001s-80.667 35.5 -126 35.5c-54.667 0 -106.667 -16 -156 -48s-88.833 -76.667 -118.5 -134s-44.5 -139.333 -44.5 -246v-549zM404 1288l-125 -0.000976562c0 88 17.167 152.667 51.5 194s77.5 62 129.5 62
c41.333 0 83.333 -13.333 126 -40l42 -25c55.333 -34.667 94 -52 116 -52c40 0 60 39 60 117h127c-4 -68 -13 -117.667 -27 -149s-35.5 -57.166 -64.5 -77.499s-60.833 -30.5 -95.5 -30.5c-45.333 0 -92.333 16.333 -141 49l-44 29c-39.333 26 -67.333 39 -84 39
c-47.333 0 -71 -38.667 -71 -116z" />
    <glyph glyph-name="ograve" unicode="&#xf2;" horiz-adv-x="1240" 
d="M621 -31c-146 0 -270.5 49.5 -373.5 148.5s-154.5 246.167 -154.5 441.5c0 194.667 51.5 341.5 154.5 440.5s227.5 148.5 373.5 148.5c145.333 0 269.5 -49.5 372.5 -148.5s154.5 -245.833 154.5 -440.5c0 -195.333 -51.5 -342.5 -154.5 -441.5
s-227.167 -148.5 -372.5 -148.5zM621 124c100 0 180.5 39.833 241.5 119.5s91.5 184.834 91.5 315.501c0 130 -30.5 234.833 -91.5 314.5s-141.5 119.5 -241.5 119.5c-100.667 0 -181.5 -39.833 -242.5 -119.5s-91.5 -184.5 -91.5 -314.5
c0 -130.667 30.5 -235.834 91.5 -315.501s141.833 -119.5 242.5 -119.5zM875 1288h-170l-342 326h216z" />
    <glyph glyph-name="oacute" unicode="&#xf3;" horiz-adv-x="1241" 
d="M621 -31c-146 0 -270.5 49.5 -373.5 148.5s-154.5 246.167 -154.5 441.5c0 194.667 51.5 341.5 154.5 440.5s227.5 148.5 373.5 148.5c145.333 0 269.5 -49.5 372.5 -148.5s154.5 -245.833 154.5 -440.5c0 -195.333 -51.5 -342.5 -154.5 -441.5
s-227.167 -148.5 -372.5 -148.5zM621 124c100 0 180.5 39.833 241.5 119.5s91.5 184.834 91.5 315.501c0 130 -30.5 234.833 -91.5 314.5s-141.5 119.5 -241.5 119.5c-100.667 0 -181.5 -39.833 -242.5 -119.5s-91.5 -184.5 -91.5 -314.5
c0 -130.667 30.5 -235.834 91.5 -315.501s141.833 -119.5 242.5 -119.5zM396 1288l296 326h216l-342 -326h-170z" />
    <glyph glyph-name="ocircumflex" unicode="&#xf4;" horiz-adv-x="1241" 
d="M621 -31c-146 0 -270.5 49.5 -373.5 148.5s-154.5 246.167 -154.5 441.5c0 194.667 51.5 341.5 154.5 440.5s227.5 148.5 373.5 148.5c145.333 0 269.5 -49.5 372.5 -148.5s154.5 -245.833 154.5 -440.5c0 -195.333 -51.5 -342.5 -154.5 -441.5
s-227.167 -148.5 -372.5 -148.5zM621 124c100 0 180.5 39.833 241.5 119.5s91.5 184.834 91.5 315.501c0 130 -30.5 234.833 -91.5 314.5s-141.5 119.5 -241.5 119.5c-100.667 0 -181.5 -39.833 -242.5 -119.5s-91.5 -184.5 -91.5 -314.5
c0 -130.667 30.5 -235.834 91.5 -315.501s141.833 -119.5 242.5 -119.5zM621 1456l-140 -168h-155l233 326h124l233 -326h-156z" />
    <glyph glyph-name="otilde" unicode="&#xf5;" horiz-adv-x="1241" 
d="M621 -31c-146 0 -270.5 49.5 -373.5 148.5s-154.5 246.167 -154.5 441.5c0 194.667 51.5 341.5 154.5 440.5s227.5 148.5 373.5 148.5c145.333 0 269.5 -49.5 372.5 -148.5s154.5 -245.833 154.5 -440.5c0 -195.333 -51.5 -342.5 -154.5 -441.5
s-227.167 -148.5 -372.5 -148.5zM621 124c100 0 180.5 39.833 241.5 119.5s91.5 184.834 91.5 315.501c0 130 -30.5 234.833 -91.5 314.5s-141.5 119.5 -241.5 119.5c-100.667 0 -181.5 -39.833 -242.5 -119.5s-91.5 -184.5 -91.5 -314.5
c0 -130.667 30.5 -235.834 91.5 -315.501s141.833 -119.5 242.5 -119.5zM420 1288l-125 -0.000976562c0 88 17.167 152.667 51.5 194s77.5 62 129.5 62c41.333 0 83.333 -13.333 126 -40l42 -25c55.333 -34.667 94 -52 116 -52c40 0 60 39 60 117h127
c-4 -68 -13 -117.667 -27 -149s-35.5 -57.166 -64.5 -77.499s-60.833 -30.5 -95.5 -30.5c-45.333 0 -92.333 16.333 -141 49l-44 29c-39.333 26 -67.333 39 -84 39c-47.333 0 -71 -38.667 -71 -116z" />
    <glyph glyph-name="odieresis" unicode="&#xf6;" horiz-adv-x="1241" 
d="M621 -31c-146 0 -270.5 49.5 -373.5 148.5s-154.5 246.167 -154.5 441.5c0 194.667 51.5 341.5 154.5 440.5s227.5 148.5 373.5 148.5c145.333 0 269.5 -49.5 372.5 -148.5s154.5 -245.833 154.5 -440.5c0 -195.333 -51.5 -342.5 -154.5 -441.5
s-227.167 -148.5 -372.5 -148.5zM621 124c100 0 180.5 39.833 241.5 119.5s91.5 184.834 91.5 315.501c0 130 -30.5 234.833 -91.5 314.5s-141.5 119.5 -241.5 119.5c-100.667 0 -181.5 -39.833 -242.5 -119.5s-91.5 -184.5 -91.5 -314.5
c0 -130.667 30.5 -235.834 91.5 -315.501s141.833 -119.5 242.5 -119.5zM311 1288v186h186v-186h-186zM745 1288v186h187v-186h-187z" />
    <glyph glyph-name="divide" unicode="&#xf7;" 
d="M1241 636v-155h-1117v155h1117zM780 977v-186h-187v186h187zM780 318v-178h-187v178h187z" />
    <glyph glyph-name="oslash" unicode="&#xf8;" horiz-adv-x="1241" 
d="M271 -31l-177.998 0.00195312l132 173c-56.667 71.333 -92.834 140.666 -108.501 207.999s-23.5 138.666 -23.5 213.999c0 192 51.833 337.333 155.5 436s228.167 148 373.5 148c104.667 0 202 -28 292 -84l62 84h172l-129 -177c51.333 -64.667 85.666 -131 102.999 -199
s26 -140 26 -216c0 -198 -52.833 -345.333 -158.5 -442s-227.167 -145 -364.5 -145c-109.333 0 -207 26.333 -293 79zM342.002 300.002l469 628.001c-56.667 43.333 -120 65 -190 65c-101.333 0 -182.333 -40.333 -243 -121s-91 -184.334 -91 -311.001
c0 -98.667 18.333 -185.667 55 -261zM901.002 813.003l-468.001 -626c55.333 -42 118 -63 188 -63c100.667 0 181.334 40.167 242.001 120.5s91 184.166 91 311.499c0 96.667 -17.667 182.334 -53 257.001z" />
    <glyph glyph-name="ugrave" unicode="&#xf9;" horiz-adv-x="1196" 
d="M861 1117l185.999 0.000976562v-1117h-186v195c-38.667 -60 -76.667 -105 -114 -135s-75.666 -52.667 -114.999 -68s-82.333 -23 -129 -23c-103.333 0 -191 29.167 -263 87.5s-108 175.833 -108 352.5v708h186v-630c0 -163.333 21.667 -262 65 -296s97 -51 161 -51
c55.333 0 107.5 16.167 156.5 48.5s88 77.666 117 135.999s43.5 139.5 43.5 243.5v549zM813.999 1288h-170l-342 326h216z" />
    <glyph glyph-name="uacute" unicode="&#xfa;" horiz-adv-x="1195" 
d="M861 1117l185.999 0.000976562v-1117h-186v195c-38.667 -60 -76.667 -105 -114 -135s-75.666 -52.667 -114.999 -68s-82.333 -23 -129 -23c-103.333 0 -191 29.167 -263 87.5s-108 175.833 -108 352.5v708h186v-630c0 -163.333 21.667 -262 65 -296s97 -51 161 -51
c55.333 0 107.5 16.167 156.5 48.5s88 77.666 117 135.999s43.5 139.5 43.5 243.5v549zM362.999 1288l296 326h216l-342 -326h-170z" />
    <glyph glyph-name="ucircumflex" unicode="&#xfb;" horiz-adv-x="1195" 
d="M861 1117l185.999 0.000976562v-1117h-186v195c-38.667 -60 -76.667 -105 -114 -135s-75.666 -52.667 -114.999 -68s-82.333 -23 -129 -23c-103.333 0 -191 29.167 -263 87.5s-108 175.833 -108 352.5v708h186v-630c0 -163.333 21.667 -262 65 -296s97 -51 161 -51
c55.333 0 107.5 16.167 156.5 48.5s88 77.666 117 135.999s43.5 139.5 43.5 243.5v549zM588.999 1456l-140 -168h-155l233 326h124l233 -326h-156z" />
    <glyph glyph-name="udieresis" unicode="&#xfc;" horiz-adv-x="1195" 
d="M861 1117l185.999 0.000976562v-1117h-186v195c-38.667 -60 -76.667 -105 -114 -135s-75.666 -52.667 -114.999 -68s-82.333 -23 -129 -23c-103.333 0 -191 29.167 -263 87.5s-108 175.833 -108 352.5v708h186v-630c0 -163.333 21.667 -262 65 -296s97 -51 161 -51
c55.333 0 107.5 16.167 156.5 48.5s88 77.666 117 135.999s43.5 139.5 43.5 243.5v549zM278.999 1288v186h186v-186h-186zM712.999 1288v186h187v-186h-187z" />
    <glyph glyph-name="ydieresis" unicode="&#xff;" horiz-adv-x="1171" 
d="M511 48l-480 1069h206l374 -830l350 830h187l-471 -1118c-63.333 -150.667 -116.333 -250.5 -159 -299.5s-87.834 -83.5 -135.501 -103.5s-111.167 -30 -190.5 -30h-140v155h105c51.333 0 96.333 6.83301 135 20.5s70.834 35.5 96.501 65.5s60.167 96 103.5 198z
M295 1288v186h186v-186h-186zM729 1288v186h187v-186h-187z" />
    <glyph glyph-name="dotlessi" unicode="&#x131;" horiz-adv-x="481" 
d="M147 1117h186v-1117h-186v1117z" />
    <glyph glyph-name="OE" unicode="&#x152;" horiz-adv-x="2234" 
d="M1205 0l0.00195312 171.001c-68.667 -88 -138.334 -146.333 -209.001 -175s-147.667 -43 -231 -43c-206 0 -369.5 72.167 -490.5 216.5s-181.5 346.5 -181.5 606.5c0 259.333 60.333 461.166 181 605.499s284.667 216.5 492 216.5c86.667 0 164.667 -15.333 234 -46
s137.666 -87.667 204.999 -171v171h876v-171h-675v-489h590v-155h-590v-566h727v-171h-928zM753.002 109.001c140.667 0 251.5 60.833 332.5 182.5s121.5 283.167 121.5 484.5c0 200.667 -40.5 362 -121.5 484s-191.833 183 -332.5 183c-141.333 0 -251.833 -61 -331.5 -183
s-119.5 -283.333 -119.5 -484c0 -201.333 39.833 -362.833 119.5 -484.5s190.167 -182.5 331.5 -182.5z" />
    <glyph glyph-name="oe" unicode="&#x153;" horiz-adv-x="2040" 
d="M1053 930c61.333 79.333 126.666 135.5 195.999 168.5s145 49.5 227 49.5c86 0 163.167 -18 231.5 -54s122.833 -93.167 163.5 -171.5s61 -186.833 61 -325.5v-62h-791c0 -119.333 32.167 -217.666 96.5 -294.999s153.5 -116 267.5 -116c82 0 141.667 18 179 54
s56 69 56 99v10h187v-10c0 -50 -19.833 -100.5 -59.5 -151.5s-92.167 -89.833 -157.5 -116.5s-136.666 -40 -213.999 -40c-198 0 -346 75 -444 225c-43.333 -74.667 -104.666 -130.834 -183.999 -168.501s-162.333 -56.5 -249 -56.5c-140.667 0 -263.5 48.5 -368.5 145.5
s-157.5 245.167 -157.5 444.5s52.667 347.333 158 444s227.666 145 366.999 145c81.333 0 160.333 -16.5 237 -49.5s142.667 -89.167 198 -168.5zM621 124c100 0 180.5 39.833 241.5 119.5s91.5 184.834 91.5 315.501c0 130 -30.5 234.833 -91.5 314.5
s-141.5 119.5 -241.5 119.5c-100.667 0 -181.5 -39.833 -242.5 -119.5s-91.5 -184.5 -91.5 -314.5c0 -130.667 30.5 -235.834 91.5 -315.501s141.833 -119.5 242.5 -119.5zM1155 675l603 0.000976562v22c0 44 -12.667 92.5 -38 145.5s-62 92.167 -110 117.5
c-43.333 22.667 -86.666 34 -129.999 34c-5.33301 0 -11 -0.333008 -17 -1c-69.333 0 -133.333 -27.833 -192 -83.5s-97.334 -133.834 -116.001 -234.501z" />
    <glyph glyph-name="Ydieresis" unicode="&#x178;" horiz-adv-x="1249" 
d="M727 0h-201v731l-503 821h235l388 -627l383 627h196l-498 -821v-731zM303 1722v186h186v-186h-186zM737 1722v186h187v-186h-187z" />
    <glyph glyph-name="florin" unicode="&#x192;" 
d="M460 -372h-188.001l253 1256h-163l31 156h163l26 129c58.667 296.667 211.667 445 459 445c40.667 0 92 -4.66699 154 -14l-30 -152c-51.333 6.66699 -91.666 10 -120.999 10c-62.667 0 -117.667 -14.833 -165 -44.5s-82 -99.5 -104 -209.5l-33 -164h326l-31 -156h-326z
" />
    <glyph glyph-name="circumflex" unicode="&#x2c6;" horiz-adv-x="1210" 
d="M605 1456l-140 -168h-155l233 326h124l233 -326h-156z" />
    <glyph glyph-name="caron" unicode="&#x2c7;" horiz-adv-x="1210" 
d="M605 1446l139 168h156l-233 -326h-124l-233 326h155z" />
    <glyph glyph-name="breve" unicode="&#x2d8;" horiz-adv-x="1210" 
d="M438 1614c6 -51.333 25.333 -96.5 58 -135.5s69.334 -58.5 110.001 -58.5s77 19.833 109 59.5s51 84.5 57 134.5h128c-8 -74 -26.833 -133.833 -56.5 -179.5s-65.5 -81.5 -107.5 -107.5s-85.333 -39 -130 -39s-88.167 13 -130.5 39s-78.333 61.833 -108 107.5
s-48.834 105.5 -57.501 179.5h128z" />
    <glyph glyph-name="dotaccent" unicode="&#x2d9;" horiz-adv-x="1210" 
d="M512 1288v186h186v-186h-186z" />
    <glyph glyph-name="ring" unicode="&#x2da;" horiz-adv-x="1210" 
d="M605 1381c26 0 48 9.16699 66 27.5s27 40.166 27 65.499s-9 47.166 -27 65.499s-40 27.5 -66 27.5c-25.333 0 -47.166 -9.16699 -65.499 -27.5s-27.5 -40.166 -27.5 -65.499s9.16699 -47.166 27.5 -65.499s40.166 -27.5 65.499 -27.5zM605 1288
c-52 0 -95.999 18.667 -131.999 56s-54 80.666 -54 129.999c0 50 18.167 93.5 54.5 130.5s80.166 55.5 131.499 55.5c52 0 96 -18.5 132 -55.5s54 -80.5 54 -130.5c0 -49.333 -18 -92.666 -54 -129.999s-80 -56 -132 -56z" />
    <glyph glyph-name="ogonek" unicode="&#x2db;" horiz-adv-x="1210" 
d="M775 0c-60 -28 -108.5 -66.999 -145.5 -116.999s-55.5 -91 -55.5 -123c0 -20.667 9.33301 -40.334 28 -59.001s49.667 -28 93 -28c23.333 0 50 6.33301 80 19v-97c-44 -19.333 -86.333 -29 -127 -29c-62 0 -113.167 16.667 -153.5 50s-60.5 75.666 -60.5 126.999
c0 80.667 49.333 166.334 148 257.001h193z" />
    <glyph glyph-name="tilde" unicode="&#x2dc;" horiz-adv-x="1210" 
d="M404 1288l-125 -0.000976562c0 88 17.167 152.667 51.5 194s77.5 62 129.5 62c41.333 0 83.333 -13.333 126 -40l42 -25c55.333 -34.667 94 -52 116 -52c40 0 60 39 60 117h127c-4 -68 -13 -117.667 -27 -149s-35.5 -57.166 -64.5 -77.499s-60.833 -30.5 -95.5 -30.5
c-45.333 0 -92.333 16.333 -141 49l-44 29c-39.333 26 -67.333 39 -84 39c-47.333 0 -71 -38.667 -71 -116z" />
    <glyph glyph-name="hungarumlaut" unicode="&#x2dd;" horiz-adv-x="1210" 
d="M519 1288h-116l142 326h123zM793 1288h-118l145 326h126z" />
    <glyph glyph-name="pi" unicode="&#x3c0;" horiz-adv-x="1412" 
d="M474 954l0.000976562 -954.002h-187v954h-25c-66.667 0 -138.334 -22.333 -215.001 -67v189c29.333 10.667 54.833 18.334 76.5 23.001s48.5 8.83398 80.5 12.501s55.667 5.5 71 5.5h1060v-163h-186v-579c0 -143.333 24.333 -268.333 73 -375h-191
c-46 106 -69 229.333 -69 370v584h-488z" />
    <glyph glyph-name="endash" unicode="&#x2013;" horiz-adv-x="1055" 
d="M62 528v155h931v-155h-931z" />
    <glyph glyph-name="emdash" unicode="&#x2014;" horiz-adv-x="2110" 
d="M62 528v155h1986v-155h-1986z" />
    <glyph glyph-name="quoteleft" unicode="&#x2018;" horiz-adv-x="621" 
d="M442 1645v-121c-32 -18 -56.5 -40.5 -73.5 -67.5s-29.833 -55.333 -38.5 -85s-13 -62.834 -13 -99.501h125v-264h-264v164c0 98.667 9.33301 173.834 28 225.501s47.5 99.167 86.5 142.5s88.833 78.333 149.5 105z" />
    <glyph glyph-name="quoteright" unicode="&#x2019;" horiz-adv-x="621" 
d="M178 1008l0.000976562 120.998c32 18.667 56.5 41.334 73.5 68.001s29.833 54.834 38.5 84.501s13 62.834 13 99.501h-125v264h264v-164c0 -98.667 -9.5 -173.834 -28.5 -225.501s-47.833 -99.167 -86.5 -142.5s-88.334 -78.333 -149.001 -105z" />
    <glyph glyph-name="quotesinglbase" unicode="&#x201a;" horiz-adv-x="621" 
d="M178 -372l0.000976562 120.001c32 18.667 56.5 41.5 73.5 68.5s29.833 55.167 38.5 84.5s13 62.333 13 99h-125v264h264v-164c0 -98.667 -9.5 -173.834 -28.5 -225.501s-47.833 -99.167 -86.5 -142.5s-88.334 -78 -149.001 -104z" />
    <glyph glyph-name="quotedblleft" unicode="&#x201c;" horiz-adv-x="1008" 
d="M830 1614l-0.000976562 -121c-32 -18 -56.5 -40.5 -73.5 -67.5s-29.833 -55.333 -38.5 -85s-13 -62.834 -13 -99.501h125v-264h-264v164c0 98.667 9.33301 173.834 28 225.501s47.334 99.167 86.001 142.5s88.667 78.333 150 105zM441.999 1614v-121
c-32 -18 -56.5 -40.5 -73.5 -67.5s-29.833 -55.333 -38.5 -85s-13 -62.834 -13 -99.501h125v-264h-264v164c0 98.667 9.33301 173.834 28 225.501s47.5 99.167 86.5 142.5s88.833 78.333 149.5 105z" />
    <glyph glyph-name="quotedblright" unicode="&#x201d;" horiz-adv-x="1008" 
d="M178 977l0.000976562 120.998c32 18.667 56.5 41.334 73.5 68.001s29.833 54.834 38.5 84.501s13 62.834 13 99.501h-125v264h264v-164c0 -98.667 -9.5 -173.834 -28.5 -225.501s-47.833 -99.167 -86.5 -142.5s-88.334 -78.333 -149.001 -105zM566.001 976.998
l0.00195312 120.998c31.333 18.667 55.666 41.334 72.999 68.001s30.333 54.834 39 84.501s13 62.834 13 99.501h-125v264h264v-164c0 -98.667 -9.5 -173.834 -28.5 -225.501s-47.833 -99.167 -86.5 -142.5s-88.334 -78.333 -149.001 -105z" />
    <glyph glyph-name="quotedblbase" unicode="&#x201e;" horiz-adv-x="1008" 
d="M178 -372l0.000976562 120.001c32 18.667 56.5 41.5 73.5 68.5s29.833 55.167 38.5 84.5s13 62.333 13 99h-125v264h264v-164c0 -98.667 -9.5 -173.834 -28.5 -225.501s-47.833 -99.167 -86.5 -142.5s-88.334 -78 -149.001 -104zM566.001 -371.999l0.00195312 120.001
c31.333 18.667 55.666 41.5 72.999 68.5s30.333 55.167 39 84.5s13 62.333 13 99h-125v264h264v-164c0 -98.667 -9.5 -173.834 -28.5 -225.501s-47.833 -99.167 -86.5 -142.5s-88.334 -78 -149.001 -104z" />
    <glyph glyph-name="dagger" unicode="&#x2020;" 
d="M797 -372h-226l34 1361l-357 -27v214l357 -32l-34 408h226l-34 -408l354 32v-214l-354 27z" />
    <glyph glyph-name="daggerdbl" unicode="&#x2021;" 
d="M796 -372h-224l33 409l-357 -37v224l357 -29v794l-357 -27v214l357 -32l-33 408h224l-36 -408l357 32v-214l-357 27v-794l357 29v-224l-357 37z" />
    <glyph glyph-name="bullet" unicode="&#x2022;" 
d="M256 768c0 74.667 18.333 144.833 55 210.5s88.5 118.167 155.5 157.5s139.167 59 216.5 59c74.667 0 145.334 -19.167 212.001 -57.5s119 -90.666 157 -156.999s57 -137.166 57 -212.499c0 -76 -19 -147.167 -57 -213.5s-90 -118.5 -156 -156.5s-137 -57 -213 -57
c-78 0 -150.333 19.667 -217 59s-118.334 91.666 -155.001 156.999s-55 135.666 -55 210.999z" />
    <glyph glyph-name="ellipsis" unicode="&#x2026;" horiz-adv-x="2110" 
d="M485 0h-264v264h264v-264zM1187 0h-264v264h264v-264zM1889 0h-264v264h264v-264z" />
    <glyph glyph-name="perthousand" unicode="&#x2030;" horiz-adv-x="2684" 
d="M62 1086c0 142.667 33.5 256 100.5 340s149.833 126 248.5 126s181.5 -42 248.5 -126s100.5 -197.333 100.5 -340s-33.5 -255.834 -100.5 -339.501s-149.833 -125.5 -248.5 -125.5s-181.5 41.833 -248.5 125.5s-100.5 196.834 -100.5 339.501zM233 1086
c0 -94 16.333 -171.833 49 -233.5s75.667 -92.5 129 -92.5s96.5 30.833 129.5 92.5s49.5 139.5 49.5 233.5s-16.5 171.833 -49.5 233.5s-76.167 92.5 -129.5 92.5s-96.333 -30.833 -129 -92.5s-49 -139.5 -49 -233.5zM275 0l1103 1552h177l-1086 -1552h-194zM1094 465
c0 142.667 33.5 256 100.5 340s149.833 126 248.5 126s181.5 -41.833 248.5 -125.5s100.5 -197.167 100.5 -340.5c0 -142.667 -33.5 -255.834 -100.5 -339.501s-149.833 -125.5 -248.5 -125.5s-181.5 41.833 -248.5 125.5s-100.5 196.834 -100.5 339.501zM1264 465
c0 -94 16.5 -171.667 49.5 -233s76.167 -92 129.5 -92s96.333 30.667 129 92s49 139 49 233s-16.333 171.833 -49 233.5s-75.667 92.5 -129 92.5s-96.5 -30.833 -129.5 -92.5s-49.5 -139.5 -49.5 -233.5zM1924 465c0 142.667 33.5 256 100.5 340s149.833 126 248.5 126
s181.5 -41.833 248.5 -125.5s100.5 -197.167 100.5 -340.5c0 -142.667 -33.5 -255.834 -100.5 -339.501s-149.833 -125.5 -248.5 -125.5s-181.5 41.833 -248.5 125.5s-100.5 196.834 -100.5 339.501zM2094 465c0 -94 16.5 -171.667 49.5 -233s76.167 -92 129.5 -92
s96.333 30.667 129 92s49 139 49 233s-16.333 171.833 -49 233.5s-75.667 92.5 -129 92.5s-96.5 -30.833 -129.5 -92.5s-49.5 -139.5 -49.5 -233.5z" />
    <glyph glyph-name="guilsinglleft" unicode="&#x2039;" horiz-adv-x="659" 
d="M276 555l305 -431h-170l-326 357v155l335 357h161z" />
    <glyph glyph-name="guilsinglright" unicode="&#x203a;" horiz-adv-x="659" 
d="M384 562l-306 431h170l326 -357v-155l-334 -357h-162z" />
    <glyph glyph-name="fraction" unicode="&#x2044;" horiz-adv-x="209" 
d="M-574 -47l1181 1645h177l-1160 -1645h-198z" />
    <glyph glyph-name="trademark" unicode="&#x2122;" horiz-adv-x="1552" 
d="M338 776v670h-253v106h631v-106h-250v-670h-128zM915 776h-113v776h122l217 -508l202 508h123v-776h-121v496l-152 -385h-118l-160 379v-490z" />
    <glyph glyph-name="Omega" unicode="&#x2126;" horiz-adv-x="1645" 
d="M637 0l-527.998 0.00292969v171h326c-115.333 108 -192.166 215.667 -230.499 323s-57.5 212.666 -57.5 315.999c0 144 29.167 280.833 87.5 410.5s137.166 225 236.499 286s216.666 91.5 351.999 91.5c134 0 251.333 -31.167 352 -93.5s179.667 -157.5 237 -285.5
s86 -264.333 86 -409c0 -103.333 -19 -208.666 -57 -315.999s-114.667 -215 -230 -323h325v-171h-527v171c84 66 151.5 156.5 202.5 271.5s76.5 232.833 76.5 353.5c0 119.333 -20.833 233.166 -62.5 341.499s-97.167 186.333 -166.5 234s-148 71.5 -236 71.5
c-88.667 0 -167.834 -24.333 -237.501 -73s-125.167 -126.334 -166.5 -233.001s-62 -220.334 -62 -341.001s25.5 -238.5 76.5 -353.5s118.833 -205.5 203.5 -271.5v-171z" />
    <glyph glyph-name="partialdiff" unicode="&#x2202;" horiz-adv-x="1334" 
d="M960 1062c-26 130 -86.499 228.499 -181.499 295.499s-218.5 100.5 -370.5 100.5h-28v156h21c171.333 0 317.666 -34.333 438.999 -103s214.666 -170.5 279.999 -305.5s98 -281.5 98 -439.5c0 -148.667 -30 -285.667 -90 -411s-139 -221 -237 -287s-205 -99 -321 -99
c-88 0 -167.5 18.833 -238.5 56.5s-124.667 91 -161 160s-54.5 142.5 -54.5 220.5c0 116 30.5 230.333 91.5 343s140 200.834 237 264.501s201.167 95.5 312.5 95.5c64.667 0 132.334 -15.667 203.001 -47zM580.001 123.999c72 0 142.333 23.666 211 70.999
s124.667 118.833 168 214.5s65 193.167 65 292.5c0 84.667 -25.833 147.834 -77.5 189.501s-115.834 62.5 -192.501 62.5c-74.667 0 -146.667 -24.333 -216 -73s-124.666 -115.167 -165.999 -199.5s-62 -168.5 -62 -252.5c0 -90.667 25.5 -164.167 76.5 -220.5
s115.5 -84.5 193.5 -84.5z" />
    <glyph glyph-name="Delta" unicode="&#x2206;" horiz-adv-x="1552" 
d="M62 0v186l602 1366h206l619 -1366v-186h-1427zM232 186h1031l-519 1159z" />
    <glyph glyph-name="product" unicode="&#x220f;" horiz-adv-x="1645" 
d="M466 -372h-202v1768h-186v156h1489v-156h-186v-1768h-201v1768h-714v-1768z" />
    <glyph glyph-name="summation" unicode="&#x2211;" horiz-adv-x="1241" 
d="M1179 -372h-1117v171l530 862l-483 735v156h1039v-156h-794l461 -703l-554 -894h918v-171z" />
    <glyph glyph-name="periodcentered" unicode="&#x2219;" 
d="M551 427v263h264v-263h-264z" />
    <glyph glyph-name="radical" unicode="&#x221a;" horiz-adv-x="1839" 
d="M185 437l-76 132l361 210l515 -953l633 1819h167l-704 -2017h-201l-498 919z" />
    <glyph glyph-name="infinity" unicode="&#x221e;" 
d="M683 442c-36 -63.333 -81.832 -118.001 -137.499 -164.001s-121.834 -69 -198.501 -69c-96.667 0 -168.334 36.5 -215.001 109.5s-70 149.5 -70 229.5c0 63.333 12.667 124.5 38 183.5s59.5 103.167 102.5 132.5s91.167 44 144.5 44
c81.333 0 161.666 -44.333 240.999 -133l69 -77l26 -28c57.333 92 113.5 154.667 168.5 188s109.833 50 164.5 50c81.333 0 149.5 -33.667 204.5 -101s82.5 -148.666 82.5 -243.999c0 -96.667 -26.667 -181.167 -80 -253.5s-120.666 -108.5 -201.999 -108.5
s-163.666 46.667 -246.999 140l-61 69zM589.001 537.999l-15.999 22.001c-10 14 -40.833 47 -92.5 99s-99.167 78 -142.5 78c-40.667 0 -74.334 -18.833 -101.001 -56.5s-40 -84.834 -40 -141.501c0 -60 14.667 -108 44 -144s65.333 -54 108 -54
c74.667 0 154.667 65.667 240 197zM774.002 578l12.999 -19c16.667 -24.667 50.334 -62 101.001 -112s96.667 -75 138 -75c34.667 0 65.667 20.667 93 62s41 87.333 41 138c0 56 -14.333 102.667 -43 140s-64.667 56 -108 56c-74.667 0 -153 -63.333 -235 -190z" />
    <glyph glyph-name="integral" unicode="&#x222b;" horiz-adv-x="1071" 
d="M262 -231c9.33301 -6 19 -8.99902 29 -8.99902c51.333 0 89.5 34.333 114.5 103s37.5 209.667 37.5 423v470c0 353.333 36.167 582 108.5 686s155.5 156 249.5 156c54 0 99.5 -16.5 136.5 -49.5s55.5 -73.833 55.5 -122.5c0 -46.667 -12.5 -80 -37.5 -100
s-49.167 -30 -72.5 -30c-22.667 0 -44.834 8 -66.501 24s-32.5 38.667 -32.5 68c0 11.333 2 22.333 6 33s10 21.334 18 32.001c-12 3.33301 -22 5 -30 5c-26.667 0 -51.5 -11.833 -74.5 -35.5s-41.167 -63.834 -54.5 -120.501s-20 -196 -20 -418v-496
c0 -292 -35 -491.667 -105 -599s-155.667 -161 -257 -161c-57.333 0 -103.166 16 -137.499 48s-51.5 73 -51.5 123c0 34 11 63 33 87s48 36 78 36c25.333 0 48 -8.33301 68 -25s30 -37.334 30 -62.001c0 -11.333 -2 -22.5 -6 -33.5s-10.333 -21.833 -19 -32.5z" />
    <glyph glyph-name="approxequal" unicode="&#x2248;" 
d="M124 209l-0.000976562 17.999c0 87.333 25.833 163.166 77.5 227.499s121.167 96.5 208.5 96.5c22 0 43.5 -2.16699 64.5 -6.5s44.833 -11.666 71.5 -21.999s66.667 -30.166 120 -59.499l121 -68c74 -40.667 134.333 -61 181 -61c49.333 0 85.833 17.833 109.5 53.5
s35.5 74.5 35.5 116.5v16h128v-16c0 -111.333 -31.5 -193.5 -94.5 -246.5s-129.833 -79.5 -200.5 -79.5c-66 0 -153.333 31.333 -262 94l-102 58c-77.333 44 -139.666 66 -186.999 66c-26.667 0 -51.5 -7 -74.5 -21s-41.5 -36.333 -55.5 -67s-21 -57.667 -21 -81v-18h-120z
M123.999 596.999l-0.000976562 18c0 87.333 25.833 163.166 77.5 227.499s121.167 96.5 208.5 96.5c22 0 43.5 -2.16699 64.5 -6.5s44.833 -11.666 71.5 -21.999s66.667 -30.5 120 -60.5l121 -67c74 -41.333 134.333 -62 181 -62c49.333 0 85.833 18 109.5 54
s35.5 75 35.5 117v16h128v-16c0 -111.333 -31.5 -193.5 -94.5 -246.5s-129.833 -79.5 -200.5 -79.5c-66 0 -153.333 31 -262 93l-102 59c-77.333 44 -139.666 66 -186.999 66c-26.667 0 -51.5 -7 -74.5 -21s-41.5 -36.333 -55.5 -67s-21 -57.667 -21 -81v-18h-120z" />
    <glyph glyph-name="notequal" unicode="&#x2260;" 
d="M1241 450v-140h-662l-145 -186h-198l146 186h-258v140h366l171 217h-537v132h647l147 194h197l-147 -186h273v-140h-385l-169 -217h554z" />
    <glyph glyph-name="lessequal" unicode="&#x2264;" 
d="M1241 1427v-173l-770 -389l770 -382v-173l-1117 555zM1241 155v-155h-1117v155h1117z" />
    <glyph glyph-name="greaterequal" unicode="&#x2265;" 
d="M124 1427l1117 -562l-1117 -555v173l770 382l-770 389v173zM124 155h1117v-155h-1117v155z" />
    <glyph glyph-name="lozenge" unicode="&#x25ca;" 
d="M1241 776l-557 -776l-560 776l560 776zM1052 776l-368 506l-369 -506l369 -508z" />
    <glyph glyph-name="apple" unicode="&#xf000;" horiz-adv-x="1618" 
d="M730 1204c30 0 79.002 11.6641 147.002 34.9971s127 35 177 35c82 0 155 -22 219 -66c36 -25.333 71.667 -59.666 107 -102.999c-53.333 -45.333 -92.333 -85.666 -117 -120.999c-44.667 -64 -67 -134.667 -67 -212c0 -84.667 23.667 -161 71 -229s101.333 -111 162 -129
c-25.333 -82 -67.333 -167.667 -126 -257c-88.667 -134 -176.667 -201 -264 -201c-34.667 0 -82.5 11 -143.5 33s-112.5 33 -154.5 33s-90.833 -11.5 -146.5 -34.5s-100.834 -34.5 -135.501 -34.5c-104.667 0 -207.334 88.667 -308.001 266
c-100.667 175.333 -151 347.333 -151 516c0 156.667 38.5 284.334 115.5 383.001s174.167 148 291.5 148c50 0 110.5 -10.333 181.5 -31s118.167 -31 141.5 -31zM1043 1617c0 -42.667 -10.002 -89.3301 -30.002 -139.997s-51.667 -97.667 -95 -141
c-37.333 -36.667 -74.333 -61.334 -111 -74.001c-23.333 -7.33301 -58.666 -13 -105.999 -17c1.33301 101.333 27.833 189 79.5 263s137.167 124.667 256.5 152c2.66699 -8.66699 4.33398 -16.334 5.00098 -23.001s1 -13.334 1 -20.001z" />
    <glyph glyph-name="fi" unicode="&#xf001;" horiz-adv-x="1226" 
d="M419 0h-185.999v962h-163v155h163v52c0 162 34.167 276.667 102.5 344s157.5 101 267.5 101c41.333 0 93.666 -4.66699 156.999 -14v-152c-52 6.66699 -93.667 10 -125 10c-60 0 -111 -14.667 -153 -44s-63 -99.333 -63 -210v-87h659v-1117h-186v962h-473v-962z" />
    <glyph glyph-name="fl" unicode="&#xf002;" horiz-adv-x="1226" 
d="M233 1117l0.00195312 49c0 95.333 14.167 175.5 42.5 240.5s72.666 115.833 132.999 152.5s145.5 55 255.5 55c123.333 0 261.333 -12 414 -36v-1578h-186v1424c-96 22.667 -174.667 34 -236 34c-78.667 0 -137.834 -21.333 -177.501 -64s-59.5 -106.667 -59.5 -192v-85
h326v-155h-326v-962h-186v962h-163v155h163z" />
    <glyph glyph-name="glyph1" horiz-adv-x="0" 
 />
    <glyph glyph-name="glyph2" horiz-adv-x="682" 
 />
    <glyph glyph-name="Lslash" horiz-adv-x="1195" 
d="M147 0l1 696l-187 -69v164l186 69v692h202v-614l186 66v-165l-186 -66v-602h814v-171h-1016z" />
    <glyph glyph-name="lslash" horiz-adv-x="481" 
d="M333 0h-186v697l-186 -75v167l186 73v752h186v-681l187 69v-167l-187 -68v-767z" />
    <glyph glyph-name="Scaron" horiz-adv-x="1241" 
d="M109 349l201.998 0.00390625v-10c0 -86 30.333 -145.833 91 -179.5s141.334 -50.5 242.001 -50.5c88 0 161.833 25.667 221.5 77s89.5 119 89.5 203c0 68 -25.667 123.5 -77 166.5s-129.333 85.833 -234 128.5l-81 33c-110 45.333 -192.167 90.166 -246.5 134.499
s-94.833 93.5 -121.5 147.5s-40 114.333 -40 181c0 117.333 41.5 216.333 124.5 297s212.833 121 389.5 121c162 0 276 -30 342 -90s99 -130 99 -210v-10h-202v10c0 25.333 -10.167 50.333 -30.5 75s-50.833 42.5 -91.5 53.5s-85.334 16.5 -134.001 16.5
c-99.333 0 -172.833 -24.833 -220.5 -74.5s-71.5 -106.167 -71.5 -169.5c0 -42.667 11.333 -82.834 34 -120.501s53.834 -68.834 93.501 -93.501s106.5 -57.667 200.5 -99l95 -41c152 -66 253.5 -135.333 304.5 -208s76.5 -151 76.5 -235c0 -78 -20.667 -153.5 -62 -226.5
s-98.666 -128.333 -171.999 -166s-171 -56.5 -293 -56.5c-116 0 -212.833 13.833 -290.5 41.5s-136.667 73.167 -177 136.5s-60.5 132.666 -60.5 207.999v10zM582.998 1862l140 62h217l-295 -202h-124l-295 202h217z" />
    <glyph glyph-name="scaron" horiz-adv-x="1042" 
d="M78 295l185.999 0.00390625v-4c0 -48 18.333 -87.833 55 -119.5s98.667 -47.5 186 -47.5c76.667 0 138.834 18.667 186.501 56s71.5 81.333 71.5 132c0 68.667 -46.667 117.334 -140 146.001l-95 29l-63 20l-129 40c-147.333 54 -221 143.667 -221 269
c0 88 35.667 165.333 107 232s177.333 100 318 100c138.667 0 237.334 -28.5 296.001 -85.5s88 -120.167 88 -189.5v-4h-187v4c0 37.333 -18.833 66.666 -56.5 87.999s-87.834 32 -150.501 32c-74.667 0 -131.834 -15.5 -171.501 -46.5s-59.5 -69.167 -59.5 -114.5
c0 -34.667 12.833 -62.834 38.5 -84.501s68.834 -41.167 129.501 -58.5l90 -25l65 -19c90.667 -26 147.167 -44.333 169.5 -55s44.833 -24.334 67.5 -41.001c31.333 -24 54.5 -53 69.5 -87s22.5 -73.667 22.5 -119c0 -105.333 -37.833 -194 -113.5 -266
s-186.167 -108 -331.5 -108c-92 0 -168.333 13.667 -229 41s-109 65.166 -145 113.499s-54 104.166 -54 167.499v4zM514.999 1446l139 168h156l-233 -326h-124l-233 326h155z" />
    <glyph glyph-name="Zcaron" horiz-adv-x="1179" 
d="M1086 186v-186h-1008v186l771 1195h-717v171h939v-171l-767 -1195h782zM614 1862l140 62h217l-295 -202h-124l-295 202h217z" />
    <glyph glyph-name="zcaron" horiz-adv-x="1132" 
d="M1024 155v-155h-908v155l663 807h-647v155h868v-155l-651 -807h675zM570 1446l139 168h156l-233 -326h-124l-233 326h155z" />
    <glyph glyph-name="brokenbar" horiz-adv-x="504" 
d="M171 -47v730h163v-730h-163zM171 869v729h163v-729h-163z" />
    <glyph glyph-name="Eth" horiz-adv-x="1435" 
d="M147 0v713.999h-186v155h186v683h429c209.333 0 362.333 -28.333 459 -85s172 -143.167 226 -259.5s81 -258.166 81 -425.499c0 -156.667 -24.5 -292.5 -73.5 -407.5s-123 -206.167 -222 -273.5s-246.5 -101 -442.5 -101h-457zM349 170.999h238.002
c142 0 249.167 20.833 321.5 62.5s127.666 107 165.999 196s57.5 200.833 57.5 335.5s-17.5 250.5 -52.5 347.5s-88.333 168.5 -160 214.5s-183.834 69 -336.501 69h-234v-527h279v-155h-279v-543z" />
    <glyph glyph-name="eth" horiz-adv-x="1218" 
d="M877 991c-25.333 64.667 -57.4971 124.666 -96.4971 179.999s-98.833 113 -179.5 173l-225 -204l-103 117l181 161c-85.333 26.667 -174 40 -266 40h-25v156h34c79.333 0 149.666 -3.66699 210.999 -11s125.666 -25.333 192.999 -54l215 195l103 -116l-178 -160
c100 -80.667 176.5 -163.167 229.5 -247.5s93.333 -180.333 121 -288s41.5 -214.167 41.5 -319.5c0 -196 -46 -352.333 -138 -469s-222.667 -175 -392 -175c-158 0 -285 52.833 -381 158.5s-144 241.834 -144 408.501c0 111.333 22 208 66 290s106.667 145.833 188 191.5
s166.666 68.5 255.999 68.5c37.333 0 77 -4.5 119 -13.5s98.667 -36.167 170 -81.5zM606.003 123.999c98 0 178 37.833 240 113.5s93 172.5 93 290.5c0 117.333 -31 213.833 -93 289.5s-142 113.5 -240 113.5c-98.667 0 -179 -37.833 -241 -113.5s-93 -172.167 -93 -289.5
c0 -118 31 -214.833 93 -290.5s142.333 -113.5 241 -113.5z" />
    <glyph glyph-name="Yacute" horiz-adv-x="1249" 
d="M727 0h-201v731l-503 821h235l388 -627l383 627h196l-498 -821v-731zM404 1722l311 202h326l-396 -202h-241z" />
    <glyph glyph-name="yacute" horiz-adv-x="1171" 
d="M511 48l-480 1069h206l374 -830l350 830h187l-471 -1118c-63.333 -150.667 -116.333 -250.5 -159 -299.5s-87.834 -83.5 -135.501 -103.5s-111.167 -30 -190.5 -30h-140v155h105c51.333 0 96.333 6.83301 135 20.5s70.834 35.5 96.501 65.5s60.167 96 103.5 198z
M441 1288l296 326h216l-342 -326h-170z" />
    <glyph glyph-name="Thorn" horiz-adv-x="1195" 
d="M349 0l-202.001 0.00292969v1552h202v-280h230c164.667 0 280.834 -16.833 348.501 -50.5s118.667 -82.834 153 -147.501s51.5 -140.334 51.5 -227.001c0 -144.667 -49.5 -266.334 -148.5 -365.001s-246.5 -148 -442.5 -148h-192v-334zM348.999 489.003
l135.999 0.000976562c178.667 0 296.334 34.333 353.001 103s85 150.667 85 246c0 83.333 -22.833 150.666 -68.5 201.999s-136.167 77 -271.5 77h-234v-628z" />
    <glyph glyph-name="thorn" horiz-adv-x="1233" 
d="M318 -434h-186.001v1986h186v-629c38.667 66 75.5 112.667 110.5 140s74.5 48.333 118.5 63s89.333 22 136 22c85.333 0 163.333 -23.167 234 -69.5s125.5 -115.5 164.5 -207.5s58.5 -195.333 58.5 -310c0 -170 -40.833 -311.167 -122.5 -423.5
s-196.167 -168.5 -343.5 -168.5c-47.333 0 -92.166 6.83301 -134.499 20.5s-79.833 34 -112.5 61s-69 75.167 -109 144.5v-629zM317.999 558c0 -126.667 27.332 -230.668 81.999 -312.001s131.667 -122 231 -122c90.667 0 166 36 226 108s90 179.667 90 323
c0 167.333 -31.667 283.5 -95 348.5s-135.666 97.5 -216.999 97.5c-58.667 0 -113.5 -17.833 -164.5 -53.5s-89.167 -88.667 -114.5 -159s-38 -147.166 -38 -230.499z" />
    <glyph glyph-name="minus" 
d="M1241 636v-155h-1117v155h1117z" />
    <glyph glyph-name="multiply" 
d="M1241 108l-115 -108l-443 450l-456 -450l-103 115l445 444l-445 452l110 106l449 -447l438 447l120 -99l-453 -459z" />
    <glyph glyph-name="onesuperior" horiz-adv-x="822" 
d="M360 644v781l-193 -73v133l193 90h140v-931h-140z" />
    <glyph glyph-name="twosuperior" horiz-adv-x="822" 
d="M85 644l0.00195312 116.002c0 43.333 16.167 96.166 48.5 158.499s85.166 120.5 158.499 174.5l63 47l59 45c62 47.333 99 82.666 111 105.999s18 46.333 18 69c0 30.667 -14 57.334 -42 80.001s-67.667 34 -119 34c-44 0 -77.333 -7.33301 -100 -22
s-34 -30.334 -34 -47.001v-24h-140v25c0 42.667 23.333 85.334 70 128.001s117 64 211 64c111.333 0 190.666 -23.333 237.999 -70s71 -101.334 71 -164.001c0 -33.333 -7.5 -67 -22.5 -101s-43.333 -68.667 -85 -104s-77.5 -63 -107.5 -83l-46 -30
c-138 -91.333 -207 -179.333 -207 -264v-6h483v-132h-628z" />
    <glyph glyph-name="threesuperior" horiz-adv-x="822" 
d="M245 1094l-0.000976562 123.997h72c52 0 92.167 7.5 120.5 22.5s51.166 33.833 68.499 56.5s26.333 46 27 70c0 26.667 -10.667 51.167 -32 73.5s-58.666 33.5 -111.999 33.5c-50 0 -86.5 -8.66699 -109.5 -26s-34.5 -34.666 -34.5 -51.999v-23h-124v23
c0 34 13.167 67.167 39.5 99.5s61.5 57.5 105.5 75.5s91.667 27 143 27c76.667 0 141 -18.5 193 -55.5s78 -88.5 78 -154.5c0 -37.333 -8.33301 -73.5 -25 -108.5s-59.667 -72.167 -129 -111.5c84.667 -39.333 138 -79 160 -119s33 -83.667 33 -131
c0 -76.667 -28.333 -145.5 -85 -206.5s-141.667 -91.5 -255 -91.5c-78.667 0 -142.667 18.333 -192 55s-74 83.334 -74 140.001v23h132v-23c0 -14.667 9.33301 -30 28 -46s57.334 -24 116.001 -24c70 0 117.833 18.333 143.5 55s38.5 75.667 38.5 117
c0 46.667 -21 87.834 -63 123.501s-109.333 53.5 -202 53.5h-61z" />
    <glyph glyph-name="onehalf" horiz-adv-x="1854" 
d="M282 644v781l-193 -73v133l193 90h140v-931h-140zM147 -47l1182 1645h176l-1159 -1645h-199zM1136 0l0.00292969 115.999c0 43.333 16.167 96.166 48.5 158.499s85.166 120.5 158.499 174.5l64 47l59 45c61.333 47.333 98 82.666 110 105.999s18 46.333 18 69
c0 30.667 -14 57.334 -42 80.001s-67.333 34 -118 34c-44.667 0 -78.334 -7.16699 -101.001 -21.5s-34 -30.166 -34 -47.499v-24h-139v25c0 42.667 23.167 85.334 69.5 128.001s116.5 64 210.5 64c111.333 0 190.666 -23.333 237.999 -70s71 -101 71 -163
c0 -34 -7.33301 -68 -22 -102s-43 -68.667 -85 -104s-78 -63 -108 -83l-46 -30c-138 -91.333 -207 -179.333 -207 -264v-6h484v-132h-629z" />
    <glyph glyph-name="onequarter" horiz-adv-x="1854" 
d="M313 613v781l-193 -73v133l193 90h140v-931h-140zM178 -78l1182 1645h176l-1159 -1645h-199zM1602 -31h-140v271h-450v114l458 546h132v-535h132v-125h-132v-271zM1462 365v333l-277 -333h277z" />
    <glyph glyph-name="threequarters" horiz-adv-x="1854" 
d="M206 1094v123.997h72c52 0 92.167 7.5 120.5 22.5s51.166 33.833 68.499 56.5s26 46 26 70c0 26.667 -10.667 51.167 -32 73.5s-58.333 33.5 -111 33.5c-50 0 -86.5 -8.66699 -109.5 -26s-34.5 -34.666 -34.5 -51.999v-23h-124v23c0 34 13.167 67 39.5 99
s61.166 57.167 104.499 75.5s91 27.5 143 27.5c77.333 0 141.833 -18.5 193.5 -55.5s77.5 -88.5 77.5 -154.5c0 -37.333 -8.16699 -73.5 -24.5 -108.5s-59.5 -72.167 -129.5 -111.5c84.667 -39.333 138 -79 160 -119s33 -83.667 33 -131
c0 -76.667 -28.167 -145.5 -84.5 -206.5s-141.166 -91.5 -254.499 -91.5c-78.667 0 -142.667 18.333 -192 55s-74 83.334 -74 140.001v23h132v-23c0 -14.667 9.33301 -30 28 -46s57.334 -24 116.001 -24c69.333 0 117 18.333 143 55s39 75.667 39 117
c0 46.667 -21.167 87.834 -63.5 123.501s-109.833 53.5 -202.5 53.5h-60zM226 -78.0029l1181 1645h176l-1159 -1645h-198zM1649 -31.0029h-140v271h-450v114l458 546h132v-535h132v-125h-132v-271zM1509 364.997v333l-277 -333h277z" />
    <glyph glyph-name="franc" 
d="M333 0v264h-248v155h248v1133h877v-171h-691v-535h606v-156h-606v-271h342v-155h-342v-264h-186z" />
    <glyph glyph-name="Gbreve" horiz-adv-x="1381" 
d="M1257 71c-164.667 -78.667 -321.668 -117.998 -471.001 -117.998c-155.333 0 -281 30.833 -377 92.5s-172.667 150.5 -230 266.5s-86 264.667 -86 446c0 204.667 27.167 363.667 81.5 477s130.833 202.166 229.5 266.499s215.667 96.5 351 96.5
c92.667 0 177 -14.667 253 -44s136.5 -73.833 181.5 -133.5s67.5 -118.834 67.5 -177.501v-10h-187v10c0 36 -13.833 69.5 -41.5 100.5s-64 55.333 -109 73s-96.167 26.5 -153.5 26.5c-150.667 0 -265.667 -59 -345 -177s-119 -280.667 -119 -488
c0 -206.667 40.667 -370 122 -490s196 -180 344 -180c86.667 0 187.334 20.667 302.001 62v443h-349v155h536v-697zM1113 1924c-34.667 -64 -81.168 -113.667 -139.501 -149s-122.833 -53 -193.5 -53c-71.333 0 -136.166 17.667 -194.499 53s-104.833 85 -139.5 149h178
c26.667 -32.667 51.667 -52.5 75 -59.5s50.333 -10.5 81 -10.5c30 0 56.667 3.5 80 10.5s48.333 26.833 75 59.5h178z" />
    <glyph glyph-name="gbreve" horiz-adv-x="1249" 
d="M915 236c-38 -78.667 -87.334 -137.668 -148.001 -177.001s-132.667 -59 -216 -59c-132.667 0 -242.167 52.167 -328.5 156.5s-129.5 241.5 -129.5 411.5c0 112 19.333 214 58 306s93 160.667 163 206s152 68 246 68c70 0 132.667 -13.833 188 -41.5
s111 -83.834 167 -168.501v179h186v-913c0 -229.333 -24 -380.666 -72 -453.999s-108.833 -127.666 -182.5 -162.999s-160.167 -53 -259.5 -53c-92 0 -174.5 13.667 -247.5 41s-128.5 64.833 -166.5 112.5s-57 97.167 -57 148.5v17h186v-16
c0 -49.333 26.667 -88.833 80 -118.5s121 -44.5 203 -44.5c66.667 0 123.834 11.5 171.501 34.5s86 60.333 115 112s43.5 145.5 43.5 281.5v134zM914.999 591.999c0 119.333 -30.668 216 -92.001 290s-134.666 111 -219.999 111c-90.667 0 -166 -37.333 -226 -112
s-90 -179.667 -90 -315c0 -85.333 12 -160 36 -224s61.5 -112.5 112.5 -145.5s105.5 -49.5 163.5 -49.5c94 0 170.167 41.5 228.5 124.5s87.5 189.833 87.5 320.5zM460.998 1614c6 -51.333 25.333 -96.5 58 -135.5s69.334 -58.5 110.001 -58.5s77 19.833 109 59.5
s51 84.5 57 134.5h128c-8 -74 -26.833 -133.833 -56.5 -179.5s-65.5 -81.5 -107.5 -107.5s-85.333 -39 -130 -39s-88.167 13 -130.5 39s-78.333 61.833 -108 107.5s-48.834 105.5 -57.501 179.5h128z" />
    <glyph glyph-name="Idotaccent" horiz-adv-x="495" 
d="M349 0h-202v1552h202v-1552zM147 1722v202h202v-202h-202z" />
    <glyph glyph-name="Scedilla" horiz-adv-x="1241" 
d="M571 -45c-172 11.333 -291.999 50.8369 -359.999 118.504s-102 153.167 -102 256.5v19h202v-18c0 -80.667 33.667 -137.834 101 -171.501s144.666 -50.5 231.999 -50.5c88 0 161.833 25.667 221.5 77s89.5 119 89.5 203c0 68 -25.667 123.5 -77 166.5
s-129.333 85.833 -234 128.5l-81 33c-110 45.333 -192.167 90.166 -246.5 134.499s-94.833 93.5 -121.5 147.5s-40 114.333 -40 181c0 117.333 41.5 216.333 124.5 297s212.833 121 389.5 121c162 0 276 -30 342 -90s99 -128 99 -204v-16h-202v14
c0 22.667 -10.167 46.334 -30.5 71.001s-50.833 42.5 -91.5 53.5s-85.334 16.5 -134.001 16.5c-97.333 0 -169.5 -24.833 -216.5 -74.5s-70.5 -106.167 -70.5 -169.5c0 -42.667 11 -82.834 33 -120.501s52.333 -68.834 91 -93.501s105 -57.667 199 -99l95 -41
c152.667 -66.667 254.334 -136.5 305.001 -209.5s76 -150.167 76 -231.5c0 -100.667 -36.333 -197.834 -109 -291.501s-198 -146.5 -376 -158.5l-47 -85c71.333 -14 118 -35.833 140 -65.5s33 -60.5 33 -92.5c0 -36.667 -14.667 -70.167 -44 -100.5
s-75.333 -45.5 -138 -45.5c-55.333 0 -108.333 9.33301 -159 28v89c38.667 -20.667 78.334 -31 119.001 -31c23.333 0 44.166 7 62.499 21s27.5 28.667 27.5 44c0 45.333 -61.667 74.333 -185 87z" />
    <glyph glyph-name="scedilla" horiz-adv-x="1040" 
d="M520 -131c71.333 -14 118.167 -35.833 140.5 -65.5s33.5 -60.5 33.5 -92.5c0 -36.667 -14.833 -70.167 -44.5 -100.5s-75.834 -45.5 -138.501 -45.5c-55.333 0 -108.333 9.33301 -159 28v89c38.667 -20.667 78.334 -31 119.001 -31c23.333 0 44.333 7 63 21
s28 28.667 28 44c0 45.333 -62 74.333 -186 87l93 167c-141.333 12.667 -241.833 46.5 -301.5 101.5s-89.5 115.833 -89.5 182.5v18h186v-16c0 -44 20.333 -77 61 -99s101.334 -33 182.001 -33c90 0 154.833 17 194.5 51s59.5 71.667 59.5 113
c0 35.333 -11.667 65.333 -35 90s-85 56.667 -185 96l-100 40c-134 53.333 -224.167 102.333 -270.5 147s-69.5 103.667 -69.5 177c0 102 38.333 179.167 115 231.5s177 78.5 301 78.5c78.667 0 150 -10.5 214 -31.5s112.167 -52.833 144.5 -95.5s48.5 -83.667 48.5 -123
v-14h-187v16c0 25.333 -17.333 47.166 -52 65.499s-89.667 27.5 -165 27.5c-74.667 0 -130.834 -10.667 -168.501 -32s-56.5 -53.666 -56.5 -96.999c0 -30 10.667 -56.167 32 -78.5s58.333 -44.5 111 -66.5l69 -28l123 -50l61 -25c98.667 -38.667 166 -83.5 202 -134.5
s54 -108.5 54 -172.5c0 -82 -27.833 -154.333 -83.5 -217s-151.167 -102.667 -286.5 -120z" />
    <glyph glyph-name="Cacute" horiz-adv-x="1320" 
d="M1070 334l187 -0.00292969v-10c0 -61.333 -21.167 -123.666 -63.5 -186.999s-99.833 -109.833 -172.5 -139.5s-158 -44.5 -256 -44.5c-197.333 0 -358.666 68.667 -483.999 206s-188 343 -188 617c0 272.667 62.333 478 187 616s286.667 207 486 207
c97.333 0 182.333 -14.833 255 -44.5s130.167 -76.667 172.5 -141s63.5 -126.166 63.5 -185.499v-10h-187v10c0 38 -11.833 74.5 -35.5 109.5s-57.667 61.333 -102 79s-97.5 26.5 -159.5 26.5c-158.667 0 -276.834 -62.667 -354.501 -188s-116.5 -285 -116.5 -479
c0 -196 39 -356.333 117 -481s195.667 -187 353 -187c108 0 184.667 22.333 230 67s68 94.334 68 149.001v10zM551 1722l311 202h326l-396 -202h-241z" />
    <glyph glyph-name="cacute" horiz-adv-x="1118" 
d="M845 287h186.999v-10c0 -50 -18.833 -100.333 -56.5 -151s-87 -89.5 -148 -116.5s-134.5 -40.5 -220.5 -40.5c-164.667 0 -291.5 52.167 -380.5 156.5s-133.5 248.833 -133.5 433.5c0 184 44.5 328.167 133.5 432.5s215.833 156.5 380.5 156.5
c86 0 159.5 -13.5 220.5 -40.5s110.333 -64 148 -111s56.5 -99.167 56.5 -156.5v-10h-187v10v6c0 38 -17.667 71.667 -53 101c-38 30.667 -96.333 46 -175 46c-93.333 0 -171.666 -34.333 -234.999 -103s-95 -179 -95 -331c0 -152.667 31.667 -263.334 95 -332.001
s141.666 -103 234.999 -103c78.667 0 136.334 15.333 173.001 46s55 66.334 55 107.001v10zM438.999 1288l296 326h216l-342 -326h-170z" />
    <glyph glyph-name="Ccaron" horiz-adv-x="1320" 
d="M1070 334l187 -0.00292969v-10c0 -61.333 -21.167 -123.666 -63.5 -186.999s-99.833 -109.833 -172.5 -139.5s-158 -44.5 -256 -44.5c-197.333 0 -358.666 68.667 -483.999 206s-188 343 -188 617c0 272.667 62.333 478 187 616s286.667 207 486 207
c97.333 0 182.333 -14.833 255 -44.5s130.167 -76.667 172.5 -141s63.5 -126.166 63.5 -185.499v-10h-187v10c0 38 -11.833 74.5 -35.5 109.5s-57.667 61.333 -102 79s-97.5 26.5 -159.5 26.5c-158.667 0 -276.834 -62.667 -354.501 -188s-116.5 -285 -116.5 -479
c0 -196 39 -356.333 117 -481s195.667 -187 353 -187c108 0 184.667 22.333 230 67s68 94.334 68 149.001v10zM763 1862l140 62h217l-295 -202h-124l-295 202h217z" />
    <glyph glyph-name="ccaron" horiz-adv-x="1118" 
d="M845 287h186.999v-10c0 -50 -18.833 -100.333 -56.5 -151s-87 -89.5 -148 -116.5s-134.5 -40.5 -220.5 -40.5c-164.667 0 -291.5 52.167 -380.5 156.5s-133.5 248.833 -133.5 433.5c0 184 44.5 328.167 133.5 432.5s215.833 156.5 380.5 156.5
c86 0 159.5 -13.5 220.5 -40.5s110.333 -64 148 -111s56.5 -99.167 56.5 -156.5v-10h-187v10v6c0 38 -17.667 71.667 -53 101c-38 30.667 -96.333 46 -175 46c-93.333 0 -171.666 -34.333 -234.999 -103s-95 -179 -95 -331c0 -152.667 31.667 -263.334 95 -332.001
s141.666 -103 234.999 -103c78.667 0 136.334 15.333 173.001 46s55 66.334 55 107.001v10zM608.999 1446l139 168h156l-233 -326h-124l-233 326h155z" />
    <glyph glyph-name="dcroat" horiz-adv-x="1233" 
d="M915 1614l185.999 -0.000976562v-233h187v-155h-187v-1226h-186v194c-45.333 -70.667 -84.166 -119.167 -116.499 -145.5s-71 -46.166 -116 -59.499s-89.5 -20 -133.5 -20c-84 0 -161.333 23.167 -232 69.5s-125.667 115.5 -165 207.5s-59 195.333 -59 310
c0 170 41 311.167 123 423.5s196.333 168.5 343 168.5c48 0 93 -6.83301 135 -20.5s79.5 -34 112.5 -61s69.167 -75.167 108.5 -144.5v304h-279v155h279v233zM914.999 558.999c0 126.667 -27.332 230.667 -81.999 312s-131.334 122 -230.001 122
c-90.667 0 -166 -36 -226 -108s-90 -179.667 -90 -323c0 -167.333 31.667 -283.5 95 -348.5s135.333 -97.5 216 -97.5c59.333 0 114.5 18 165.5 54s89 89 114 159s37.5 146.667 37.5 230z" />
    <glyph glyph-name="Grave" horiz-adv-x="1210" 
d="M1062 1722h-240l-396 202h326z" />
    <glyph glyph-name="Acute" horiz-adv-x="1210" 
d="M488 1722l311 202h326l-396 -202h-241z" />
    <glyph glyph-name="Diaeresis" horiz-adv-x="1210" 
d="M303 1722v186h186v-186h-186zM737 1722v186h187v-186h-187z" />
    <glyph glyph-name="Circumflex" horiz-adv-x="1210" 
d="M752 1784l-139 -62h-217l294 202h124l295 -202h-217z" />
    <glyph glyph-name="Tilde" horiz-adv-x="1210" 
d="M509 1722l-123.002 0.00195312c6 45.333 20.833 83.666 44.5 114.999s48.5 53.666 74.5 66.999s56 20 90 20c41.333 0 84 -7.33301 128 -22l99 -33c40.667 -14 70.334 -21 89.001 -21c20 0 36.667 4.5 50 13.5s25.333 29.833 36 62.5h123
c-13.333 -72 -41.166 -123.667 -83.499 -155s-86.833 -47 -133.5 -47c-28.667 0 -73 11.333 -133 34l-67 25l-25 9c-33.333 12 -60 18 -80 18c-12.667 0 -29.167 -4.83301 -49.5 -14.5s-33.5 -33.5 -39.5 -71.5z" />
    <glyph glyph-name="Breve" horiz-adv-x="1210" 
d="M1113 1924c-34.667 -64 -81.168 -113.667 -139.501 -149s-122.833 -53 -193.5 -53c-71.333 0 -136.166 17.667 -194.499 53s-104.833 85 -139.5 149h178c26.667 -32.667 51.667 -52.5 75 -59.5s50.333 -10.5 81 -10.5c30 0 56.667 3.5 80 10.5s48.333 26.833 75 59.5h178
z" />
    <glyph glyph-name="Dotaccent" horiz-adv-x="1210" 
d="M147 1722v202h202v-202h-202z" />
    <glyph glyph-name="Caron" horiz-adv-x="1210" 
d="M749 1862l140 62h217l-295 -202h-124l-295 202h217z" />
  </font>
</defs>
</svg>
