<?xml version="1.0" standalone="no"?>
<!DOCTYPE svg PUBLIC "-//W3C//DTD SVG 1.1//EN" "http://www.w3.org/Graphics/SVG/1.1/DTD/svg11.dtd" >
<svg>
<metadata>
Created by FontForge 20090914 at Wed Sep  1 18:16:48 2021
 By www-data
</metadata>
<defs>
<font id="GillSans" horiz-adv-x="500" >
  <font-face 
    font-family="GillSans"
    font-weight="500"
    font-stretch="normal"
    units-per-em="1000"
    panose-1="2 0 6 6 3 0 0 2 0 3"
    ascent="800"
    descent="-200"
    x-height="449"
    cap-height="682"
    bbox="-62 -231.001 1041 917"
    underline-thickness="73"
    underline-position="-61"
    unicode-range="U+000D-U+2265"
  />
<missing-glyph horiz-adv-x="278" 
 />
    <glyph glyph-name=".notdef" horiz-adv-x="278" 
 />
    <glyph glyph-name="uni0000" horiz-adv-x="280" 
 />
    <glyph glyph-name="uni0000" horiz-adv-x="280" 
 />
    <glyph glyph-name="uni000D" unicode="&#xd;" horiz-adv-x="278" 
 />
    <glyph glyph-name="uni0020" unicode=" " horiz-adv-x="278" 
 />
    <glyph glyph-name="exclam" unicode="!" horiz-adv-x="271" 
d="M196 51c0 17.333 -5.83398 31.998 -17.501 43.998s-26.167 18 -43.5 18s-31.833 -6 -43.5 -18s-17.5 -26.667 -17.5 -44s6 -31.666 18 -42.999s26.667 -17 44 -17c16.667 0 30.834 5.83301 42.501 17.5s17.5 25.834 17.5 42.501zM168.999 314.998
c7.33301 39.333 12.834 79.999 16.501 121.999s5.5 80.333 5.5 115c0 92.667 -18.333 139 -55 139c-37.333 0 -56 -47.667 -56 -143c0 -15.333 0.333008 -31.166 1 -47.499s2 -34 4 -53s4.33301 -39.667 7 -62s6 -46.833 10 -73.5c2.66699 -18 5 -32.167 7 -42.5
s4.66699 -20.833 8 -31.5l8 -25c2 -7.33301 3.66699 -11.833 5 -13.5s3 -2.5 5 -2.5c5.33301 0 9.66602 5 12.999 15l8 28l7 39z" />
    <glyph glyph-name="quotedbl" unicode="&#x22;" horiz-adv-x="354" 
d="M70 462h54l22 137v117h-100v-117zM232 462h53l23 137v117h-100v-117z" />
    <glyph glyph-name="numbersign" unicode="#" horiz-adv-x="668" 
d="M44 475v-60h147l-38 -181h-109v-60h96l-41 -196h60l41 196h207l-42 -196h60l41 196h158v60h-146l37 181h109v60h-97l42 197h-60l-41 -197h-206l42 197h-59l-42 -197h-159zM250 415h206l-37 -180h-207z" />
    <glyph glyph-name="dollar" unicode="$" horiz-adv-x="542" 
d="M470 596c-34.667 29.333 -84.3291 49 -148.996 59v36h-82v-36c-28 -4 -53.5 -11.167 -76.5 -21.5s-42.667 -23.333 -59 -39s-29 -33.5 -38 -53.5s-13.5 -41.333 -13.5 -64c0 -18 3.83301 -36 11.5 -54s18.5 -34.667 32.5 -50c7.33301 -8 15.166 -15.167 23.499 -21.5
s18 -12.5 29 -18.5s23.833 -12 38.5 -18s32 -12.333 52 -19v-215c-14.667 3.33301 -25.5 6 -32.5 8s-15.167 4.66699 -24.5 8c-42.667 17.333 -86.334 46.333 -131.001 87v-123l31.5 -18.5c7.66699 -4.33301 17.5 -9.16602 29.5 -14.499
c25.333 -11.333 47.666 -20 66.999 -26s39.333 -10 60 -12v-108h82v108l27 5c7.33301 1.33301 14.166 3 20.499 5s12.166 4.33301 17.499 7l18 9c30 16 53.833 38.5 71.5 67.5s26.5 59.833 26.5 92.5c0 37.333 -11.333 71.333 -34 102
c-7.33301 9.33301 -15.833 18.5 -25.5 27.5s-20.167 17.167 -31.5 24.5l-19 11c-6 3.33301 -12.167 6.5 -18.5 9.5s-13.666 6 -21.999 9s-18.5 6.16699 -30.5 9.5v198c28 -6.66699 55 -17.334 81 -32.001s48.667 -31.667 68 -51v112zM239.005 395
c-5.33301 2.66699 -10.001 4.66895 -14.001 6.00195c-28 12 -47.667 24 -59 36s-17 27.667 -17 47c0 21.333 8.33301 39.666 25 54.999s38.334 24.666 65.001 27.999v-172zM321.004 263.002l15 -7.99902c25.333 -13.333 43 -26.333 53 -39s15 -28.667 15 -48
c0 -44.667 -27.667 -73.334 -83 -86.001v181z" />
    <glyph glyph-name="percent" unicode="%" horiz-adv-x="708" 
d="M531 297c-21.333 0 -41.166 -4 -59.499 -12s-34.5 -18.833 -48.5 -32.5s-25 -29.834 -33 -48.501s-12 -38.334 -12 -59.001c0 -21.333 4 -41.166 12 -59.499s19 -34.333 33 -48s30.167 -24.5 48.5 -32.5s38.166 -12 59.499 -12c20.667 0 40.167 4 58.5 12
s34.5 18.833 48.5 32.5s25 29.667 33 48s12 38.166 12 59.499c0 20.667 -4 40.334 -12 59.001s-19 34.834 -33 48.501s-30.167 24.5 -48.5 32.5s-37.833 12 -58.5 12zM530 223c22 0 40.667 -7.66699 56 -23s23 -33.666 23 -54.999c0 -22 -7.66699 -40.667 -23 -56
s-34 -23 -56 -23c-21.333 0 -39.666 7.66699 -54.999 23s-23 34 -23 56c0 21.333 7.66699 39.666 23 54.999s33.666 23 54.999 23zM209 690c-21.333 0 -41.166 -4 -59.499 -12s-34.333 -19 -48 -33s-24.5 -30.333 -32.5 -49s-12 -38.334 -12 -59.001s4 -40.167 12 -58.5
s18.833 -34.5 32.5 -48.5s29.667 -25 48 -33s38.166 -12 59.499 -12c20.667 0 40.334 4 59.001 12s34.834 19 48.501 33s24.5 30.167 32.5 48.5s12 37.833 12 58.5s-4 40.334 -12 59.001s-18.833 35 -32.5 49s-29.834 25 -48.501 33s-38.334 12 -59.001 12zM208 616
c22 0 40.667 -7.66699 56 -23s23 -34 23 -56c0 -21.333 -7.66699 -39.833 -23 -55.5s-34 -23.5 -56 -23.5c-21.333 0 -39.833 7.83301 -55.5 23.5s-23.5 34.167 -23.5 55.5c0 22 7.83301 40.667 23.5 56s34.167 23 55.5 23zM630 692h-75l-449 -701h75z" />
    <glyph glyph-name="ampersand" unicode="&#x26;" horiz-adv-x="625" 
d="M495 339c-11.333 -23.333 -22.501 -43.3311 -33.501 -59.998s-24.167 -33.334 -39.5 -50.001l-96 110l7 5c40.667 28.667 70.667 57 90 85s29 57.667 29 89c0 22 -4.16699 42.167 -12.5 60.5s-20 34.333 -35 48s-33 24.167 -54 31.5s-43.833 11 -68.5 11
c-25.333 0 -48.333 -3.83301 -69 -11.5s-38.5 -18.334 -53.5 -32.001s-26.667 -30.167 -35 -49.5s-12.5 -40.666 -12.5 -63.999c0 -25.333 6.5 -51.333 19.5 -78s32.167 -53.334 57.5 -80.001c-12 -6.66699 -21.333 -12.334 -28 -17.001l-29 -21
c-37.333 -27.333 -64 -54 -80 -80s-24 -54.333 -24 -85c0 -22 4.5 -42.833 13.5 -62.5s21.167 -36.667 36.5 -51s33.333 -25.666 54 -33.999s42.667 -12.5 66 -12.5c19.333 0 39.833 3.16699 61.5 9.5s43.834 15.166 66.501 26.499c10 5.33301 19.5 10.833 28.5 16.5
s17.5 11.834 25.5 18.501c0.666992 0.666992 3.33398 3 8.00098 7l21 18c1.33301 0.666992 3.66602 2.66699 6.99902 6l79 -93h125l-138 160c28 32 50.5 62 67.5 90s31.5 57.667 43.5 89h-98zM355.999 161.002l-22 -20c-18 -16.667 -38.5 -30.334 -61.5 -41.001
s-43.5 -16 -61.5 -16c-23.333 0 -43.333 7 -60 21s-25 30.667 -25 50c0 34.667 25.333 69.334 76 104.001l43 30zM270.999 405.002c-19.333 18 -34.666 37.5 -45.999 58.5s-17 40.167 -17 57.5c0 18.667 7.16699 34.167 21.5 46.5s32.166 18.5 53.499 18.5
c22 0 40.333 -6.66699 55 -20s22 -30 22 -50c0 -32 -17.333 -60.333 -52 -85l-31 -22z" />
    <glyph glyph-name="quotesingle" unicode="'" horiz-adv-x="188" 
d="M66 462h55l23 134v120h-100v-120z" />
    <glyph glyph-name="parenleft" unicode="(" horiz-adv-x="323" 
d="M256 691l-26.9961 -33.498l-19.5 -24.5c-5.66699 -7.33301 -10.667 -14.333 -15 -21l-14.5 -22c-39.333 -58.667 -68.5 -117.334 -87.5 -176.001s-28.5 -120 -28.5 -184c0 -78.667 15.333 -155.667 46 -231c7.33301 -18.667 14.666 -35.5 21.999 -50.5
s15.666 -30.167 24.999 -45.5s20.666 -32.166 33.999 -50.499s30 -39.833 50 -64.5l15 -18h55c-8.66699 11.333 -16 21.333 -22 30s-11.5 17.167 -16.5 25.5s-9.83301 16.833 -14.5 25.5l-16 31c-24.667 51.333 -43.334 106 -56.001 164s-19 118.333 -19 181
c0 41.333 3 84.166 9 128.499s14 83.166 24 116.499c11.333 40 27.333 78.667 48 116c4 8.66699 8 16.5 12 23.5s8.33301 14.167 13 21.5l16 25l22 33h-55z" />
    <glyph glyph-name="parenright" unicode=")" horiz-adv-x="323" 
d="M67 -230l26.998 33.5c7.33301 9 13.666 17.167 18.999 24.5l15 21l15 22c39.333 58.667 68.5 117.334 87.5 176.001s28.5 120 28.5 184c0 78.667 -15.333 155.667 -46 231c-7.33301 18.667 -14.666 35.5 -21.999 50.5s-15.666 30.167 -24.999 45.5s-20.666 32 -33.999 50
l-50 65l-15 18h-55c8.66699 -11.333 16 -21.333 22 -30s11.5 -17.167 16.5 -25.5s9.83301 -16.833 14.5 -25.5l16 -31c24.667 -51.333 43.334 -106 56.001 -164s19 -118.667 19 -182c0 -20 -0.833008 -41 -2.5 -63s-3.83398 -43.667 -6.50098 -65
s-6.16699 -41.833 -10.5 -61.5s-8.83301 -37.834 -13.5 -54.501c-11.333 -40 -27.333 -78.667 -48 -116l-13 -23.5l-12.5 -21.5l-15.5 -25l-22 -33h55z" />
    <glyph glyph-name="asterisk" unicode="*" horiz-adv-x="417" 
d="M237 640c3.33301 16 5.16211 26.165 5.49512 30.498s0.5 9.5 0.5 15.5c0 26.667 -11 40 -33 40c-22.667 0 -34 -15 -34 -45c0 -4 0.166992 -7.83301 0.5 -11.5s0.833008 -7.16699 1.5 -10.5l5 -21l19 -100c-4.66699 -0.666992 -8.16699 -1.66699 -10.5 -3
s-5.16602 -3.66602 -8.49902 -6.99902l-85 80l-13 10c-9.33301 7.33301 -15.666 11.833 -18.999 13.5s-7.66602 2.5 -12.999 2.5c-9.33301 0 -17.333 -3.83301 -24 -11.5s-10 -16.167 -10 -25.5c0 -17.333 14.667 -31.333 44 -42l113 -42
c-0.666992 -2.66699 -1.16699 -4.5 -1.5 -5.5s-0.5 -2.83301 -0.5 -5.5c0 -3.33301 0.166992 -5.66602 0.5 -6.99902s0.833008 -3 1.5 -5l-99 -34c-21.333 -7.33301 -36.666 -15 -45.999 -23s-14 -17.667 -14 -29c0 -9.33301 3.16699 -17.166 9.5 -23.499
s14.166 -9.5 23.499 -9.5c7.33301 0 14.833 2.33301 22.5 7s18.5 13.334 32.5 26.001l78 72c4.66699 -4 8 -6.5 10 -7.5s5 -1.83301 9 -2.5l-22 -103l-3 -16c-2 -8 -3 -16.333 -3 -25c0 -31.333 11.333 -47 34 -47c22 0 33 14.333 33 43c0 5.33301 -0.333008 12.333 -1 21
s-1.66699 16.667 -3 24l-20 103c6.66699 0 13.334 3.33301 20.001 10l73 -73c22.667 -22 41.667 -33 57 -33c4.66699 0 9 1 13 3c5.33301 3.33301 9.83301 8 13.5 14s5.5 11.667 5.5 17c0 4.66699 -2 10.667 -6 18c-5.33301 6.66699 -10.333 11.667 -15 15l-22 11l-12 5
l-101 37c1.33301 3.33301 2 7 2 11v5c0 1.33301 -0.666992 3.66602 -2 6.99902l107 39l11 3c25.333 9.33301 38 23.666 38 42.999c0 10 -3 18.333 -9 25s-13.667 10 -23 10c-12.667 0 -28 -8.33301 -46 -25l-84 -80c-2 2.66699 -4.66699 5 -8 7s-6.66602 3 -9.99902 3h-2z
" />
    <glyph glyph-name="plus" unicode="+" horiz-adv-x="667" 
d="M67 355v-64h233v-232h64v232h235v64h-235v234h-64v-234h-233z" />
    <glyph glyph-name="comma" unicode="," horiz-adv-x="219" 
d="M49 -119c36.667 11.333 65.3311 30.667 85.998 58s31 59.333 31 96c0 27.333 -6.33301 49.833 -19 67.5s-29 26.5 -49 26.5c-16 0 -30 -6.5 -42 -19.5s-18 -28.167 -18 -45.5c0 -32.667 17.333 -54 52 -64c-1.33301 -24 -4.66602 -43.167 -9.99902 -57.5
s-15.666 -28.833 -30.999 -43.5v-18z" />
    <glyph glyph-name="hyphen" unicode="-" horiz-adv-x="323" 
d="M283 269h-243v-95h243v95z" />
    <glyph glyph-name="hyphen" unicode="&#xad;" horiz-adv-x="323" 
d="M283 269h-243v-95h243v95z" />
    <glyph glyph-name="period" unicode="." horiz-adv-x="219" 
d="M109 109c-16.667 0 -30.667 -5.66699 -42 -17s-17 -25.333 -17 -42s5.66699 -30.667 17 -42s25.333 -17 42 -17s30.834 5.66699 42.501 17s17.5 25.333 17.5 42s-5.83301 30.667 -17.5 42s-25.834 17 -42.501 17z" />
    <glyph glyph-name="slash" unicode="/" horiz-adv-x="281" 
d="M2 -12h70l208 740h-71z" />
    <glyph glyph-name="zero" unicode="0" 
d="M254 691c-33.333 0 -63.6689 -8.49902 -91.002 -25.499s-50.833 -41 -70.5 -72s-35 -67.833 -46 -110.5s-16.5 -90 -16.5 -142c0 -52.667 5.33301 -100.5 16 -143.5s25.5 -79.833 44.5 -110.5s42 -54.334 69 -71.001s57.167 -25 90.5 -25c32.667 0 62.5 8.5 89.5 25.5
s50.167 41 69.5 72s34.333 68.167 45 111.5s16 91 16 143c0 50.667 -5.33301 97.167 -16 139.5s-25.667 79 -45 110s-42.166 55.167 -68.499 72.5s-55.166 26 -86.499 26zM254.997 597.001c36 -2.66699 64.333 -26.834 85 -72.501s31 -107.5 31 -185.5
c0 -79.333 -10.833 -141.833 -32.5 -187.5s-51.5 -68.5 -89.5 -68.5s-67.667 22.833 -89 68.5s-32 109.167 -32 190.5c0 78.667 10.833 140.834 32.5 186.501s51.5 68.5 89.5 68.5h5z" />
    <glyph glyph-name="one" unicode="1" 
d="M300 682h-98v-682h98v682z" />
    <glyph glyph-name="two" unicode="2" 
d="M466 94l-260 -0.00292969l21 25l55.5 69l39 52c11 15.333 20.833 30 29.5 44s17 28.667 25 44c13.333 24.667 23.5 50.334 30.5 77.001s10.5 51.667 10.5 75c0 30.667 -5.16699 58.834 -15.5 84.501s-24.5 47.834 -42.5 66.501s-39.5 33.334 -64.5 44.001
s-52.5 16 -82.5 16c-29.333 0 -57 -5.16699 -83 -15.5s-53 -26.833 -81 -49.5v-124c21.333 29.333 45 52 71 68s53 24 81 24c36 0 64.833 -11.5 86.5 -34.5s32.5 -53.833 32.5 -92.5c0 -34.667 -8.33301 -69.334 -25 -104.001c-15.333 -30 -33.333 -59.667 -54 -89
c-23.333 -34 -48.333 -68.5 -75 -103.5l-91 -114.5l-40 -49v-7h432v94z" />
    <glyph glyph-name="three" unicode="3" 
d="M81 569c23.333 12 43.999 20.5029 61.999 25.5029s36.667 7.5 56 7.5c35.333 0 63.833 -9.33301 85.5 -28s32.5 -43.334 32.5 -74.001c0 -34 -11.167 -59.667 -33.5 -77s-54.833 -26 -97.5 -26h-6v-90l9 -1c25.333 -1.33301 45 -4 59 -8s26.667 -10.667 38 -20
c24 -20.667 36 -48.334 36 -83.001c0 -32.667 -9.83301 -58.667 -29.5 -78s-45.834 -29 -78.501 -29c-49.333 0 -99.333 16 -150 48v-106c50 -26 100 -39 150 -39c30 0 57.833 5.16699 83.5 15.5s47.834 24.833 66.501 43.5s33.334 40.5 44.001 65.5s16 52.5 16 82.5
c0 24.667 -3.5 47.834 -10.5 69.501s-17.167 40.167 -30.5 55.5c-7.33301 9.33301 -14.833 16.333 -22.5 21s-19.167 10 -34.5 16c30 16.667 52 36.667 66 60s21 52.666 21 87.999c0 57.333 -18 102.166 -54 134.499s-85.333 48.5 -148 48.5
c-25.333 0 -48.333 -2.33301 -69 -7s-41 -12 -61 -22v-93z" />
    <glyph glyph-name="four" unicode="4" 
d="M395 691h-40l-344 -424v-43h289v-224h95v224h76v84h-76v383zM298 506h2v-198h-158z" />
    <glyph glyph-name="five" unicode="5" 
d="M404 682l-302.999 0.000976562v-355c6.66699 3.33301 17 5.83301 31 7.5s30 2.5 48 2.5c22.667 0 43.667 -3.16699 63 -9.5s36.166 -15.333 50.499 -27s25.5 -25.167 33.5 -40.5s12 -32 12 -50c0 -17.333 -3.66699 -33.666 -11 -48.999s-17.5 -28.5 -30.5 -39.5
s-28.333 -19.667 -46 -26s-36.834 -9.5 -57.501 -9.5c-23.333 0 -47.333 4.16699 -72 12.5s-48.667 20.166 -72 35.499v-101c28.667 -14.667 55.834 -25.334 81.501 -32.001s52.167 -10 79.5 -10c33.333 0 63.833 5.33301 91.5 16s51.5 25.667 71.5 45s35.667 42.5 47 69.5
s17 56.5 17 88.5c0 31.333 -5.66699 60 -17 86s-27 48.5 -47 67.5s-44 33.833 -72 44.5s-58.333 16 -91 16h-9c-2.66699 0 -6.66699 -0.333008 -12 -1v172h214v87z" />
    <glyph glyph-name="six" unicode="6" 
d="M317 691l-9.99902 -7c-16.667 -12 -31.334 -23 -44.001 -33s-24.167 -19.667 -34.5 -29s-20 -18.666 -29 -27.999s-18.167 -19.666 -27.5 -30.999c-42 -49.333 -73.833 -101.833 -95.5 -157.5s-32.5 -111.834 -32.5 -168.501c0 -36.667 5.16699 -70 15.5 -100
s25 -55.833 44 -77.5s41.833 -38.5 68.5 -50.5s56 -18 88 -18c28.667 0 55.334 5.33301 80.001 16s46.334 25.334 65.001 44.001s33.334 40.5 44.001 65.5s16 51.833 16 80.5c0 28 -4.83301 54 -14.5 78s-23 44.833 -40 62.5s-37.167 31.5 -60.5 41.5s-48.333 15 -75 15
c-36.667 0 -72.667 -9.33301 -108 -28c5.33301 15.333 10.666 29.166 15.999 41.499s11.166 24 17.499 35s13.166 21.667 20.499 32s16 21.166 26 32.499c18 21.333 37 40.333 57 57s44 34 72 52zM146.001 265c21.333 14.667 39.332 24.832 53.999 30.499s31.667 8.5 51 8.5
c36 0 64.667 -10 86 -30s32 -46.667 32 -80c0 -32.667 -10.167 -59.5 -30.5 -80.5s-46.166 -31.5 -77.499 -31.5c-35.333 0 -64 12.333 -86 37s-33 56.334 -33 95.001c0 18.667 1.33301 35.667 4 51z" />
    <glyph glyph-name="seven" unicode="7" 
d="M490 682h-441v-93h295l-250 -560l87 -38z" />
    <glyph glyph-name="eight" unicode="8" 
d="M373 348c56.667 40 85.0039 90.3262 85.0039 150.993c0 26.667 -5.16699 51.834 -15.5 75.501s-24.666 44 -42.999 61s-39.833 30.5 -64.5 40.5s-51.334 15 -80.001 15c-29.333 0 -56.5 -5 -81.5 -15s-46.833 -23.667 -65.5 -41s-33.334 -37.666 -44.001 -60.999
s-16 -48.333 -16 -75c0 -30.667 6.16699 -57.667 18.5 -81s33.166 -46.666 62.499 -69.999c-64.667 -37.333 -97 -90.666 -97 -159.999c0 -28 5.66699 -54 17 -78s26.666 -44.833 45.999 -62.5s42.333 -31.5 69 -41.5s55.667 -15 87 -15s60.166 4.83301 86.499 14.5
s49.166 23.334 68.499 41.001s34.5 38.5 45.5 62.5s16.5 50 16.5 78c0 22.667 -3.66699 44.334 -11 65.001s-17.666 38.667 -30.999 54c-7.33301 8.66699 -14.5 15.834 -21.5 21.501s-17.5 12.5 -31.5 20.5zM361.004 495.993c0 -14 -2.83301 -27.1689 -8.5 -39.502
s-13.334 -23.166 -23.001 -32.499s-21 -16.666 -34 -21.999s-26.833 -8 -41.5 -8c-15.333 0 -29.666 2.66699 -42.999 8s-25 12.833 -35 22.5s-17.833 20.667 -23.5 33s-8.5 25.5 -8.5 39.5c0 30 10.167 54.333 30.5 73s46.5 28 78.5 28s58 -9.5 78 -28.5s30 -43.5 30 -73.5
zM369.004 182.991c-2.66699 -30 -14.5 -53.833 -35.5 -71.5s-48.167 -26.5 -81.5 -26.5c-36 0 -65.167 9.83301 -87.5 29.5s-33.5 45.5 -33.5 77.5s10.833 57.833 32.5 77.5s50.167 29.5 85.5 29.5c36 0 65 -9.66699 87 -29s33 -45 33 -77v-10z" />
    <glyph glyph-name="nine" unicode="9" 
d="M187 -9c40 24.667 76.834 54.167 110.501 88.5s62.5 71.5 86.5 111.5s42.833 81.5 56.5 124.5s20.5 85.167 20.5 126.5c0 36.667 -5.33301 70.167 -16 100.5s-25.834 56.5 -45.501 78.5s-43 39.167 -70 51.5s-56.5 18.5 -88.5 18.5c-28.667 0 -55.5 -5.33301 -80.5 -16
s-46.667 -25.167 -65 -43.5s-32.833 -39.833 -43.5 -64.5s-16 -51 -16 -79c0 -27.333 5 -53 15 -77s23.667 -45 41 -63s37.5 -32.167 60.5 -42.5s47.5 -15.5 73.5 -15.5c19.333 0 38.5 2.5 57.5 7.5s36.167 12.167 51.5 21.5c-5.33301 -20.667 -11.333 -38.167 -18 -52.5
s-15.667 -30.166 -27 -47.499c-20 -30 -44 -58.333 -72 -85s-58.333 -50.334 -91 -71.001zM354.001 416c-35.333 -24.667 -71.001 -37.001 -107.001 -37.001c-15.333 0 -30 2.83301 -44 8.5s-26.167 13.5 -36.5 23.5s-18.5 21.667 -24.5 35s-9 27.666 -9 42.999
c0 16 2.66699 30.833 8 44.5s12.833 25.334 22.5 35.001s21.167 17.334 34.5 23.001s28 8.5 44 8.5c34.667 0 62.834 -12.167 84.501 -36.5s32.5 -56.5 32.5 -96.5c0 -6.66699 -0.333008 -13.5 -1 -20.5s-2 -17.167 -4 -30.5z" />
    <glyph glyph-name="colon" unicode=":" horiz-adv-x="219" 
d="M105 111c-16.667 0 -30.667 -5.83301 -42 -17.5s-17 -25.834 -17 -42.501s5.83301 -30.834 17.5 -42.501s25.5 -17.5 41.5 -17.5c16.667 0 30.834 5.83301 42.501 17.5s17.5 25.834 17.5 42.501s-5.83301 30.834 -17.5 42.501s-25.834 17.5 -42.501 17.5zM113 458
c-16.667 0 -30.667 -5.83301 -42 -17.5s-17 -25.834 -17 -42.501s5.83301 -30.834 17.5 -42.501s25.5 -17.5 41.5 -17.5c16.667 0 30.834 5.83301 42.501 17.5s17.5 25.834 17.5 42.501s-5.83301 30.834 -17.5 42.501s-25.834 17.5 -42.501 17.5z" />
    <glyph glyph-name="semicolon" unicode=";" horiz-adv-x="229" 
d="M61 -119c36.667 11.333 65.334 30.667 86.001 58s31 59.333 31 96c0 27.333 -6.5 49.833 -19.5 67.5s-29.167 26.5 -48.5 26.5c-16.667 0 -30.834 -6.5 -42.501 -19.5s-17.5 -28.167 -17.5 -45.5c0 -32.667 17.333 -54 52 -64l-1 -6c-1.33301 -22 -4.83301 -40 -10.5 -54
s-15.5 -27.667 -29.5 -41v-18zM119 458.001c-16 0 -29.835 -5.83301 -41.502 -17.5s-17.5 -25.834 -17.5 -42.501s5.83301 -30.834 17.5 -42.501s25.834 -17.5 42.501 -17.5c16 0 29.833 5.83301 41.5 17.5s17.5 25.834 17.5 42.501s-5.66699 30.834 -17 42.501
s-25.666 17.5 -42.999 17.5z" />
    <glyph glyph-name="semicolon" unicode="&#x37e;" horiz-adv-x="229" 
d="M61 -119c36.667 11.333 65.334 30.667 86.001 58s31 59.333 31 96c0 27.333 -6.5 49.833 -19.5 67.5s-29.167 26.5 -48.5 26.5c-16.667 0 -30.834 -6.5 -42.501 -19.5s-17.5 -28.167 -17.5 -45.5c0 -32.667 17.333 -54 52 -64l-1 -6c-1.33301 -22 -4.83301 -40 -10.5 -54
s-15.5 -27.667 -29.5 -41v-18zM119 458.001c-16 0 -29.835 -5.83301 -41.502 -17.5s-17.5 -25.834 -17.5 -42.501s5.83301 -30.834 17.5 -42.501s25.834 -17.5 42.501 -17.5c16 0 29.833 5.83301 41.5 17.5s17.5 25.834 17.5 42.501s-5.66699 30.834 -17 42.501
s-25.666 17.5 -42.999 17.5z" />
    <glyph glyph-name="less" unicode="&#x3c;" horiz-adv-x="667" 
d="M599 72v69l-444 183l444 182v70l-530 -223v-58z" />
    <glyph glyph-name="equal" unicode="=" horiz-adv-x="667" 
d="M68 472v-65h530v65h-530zM68 243v-64h530v64h-530z" />
    <glyph glyph-name="greater" unicode="&#x3e;" horiz-adv-x="667" 
d="M69 576v-70l443 -183l-443 -182v-69l529 223v57z" />
    <glyph glyph-name="question" unicode="?" horiz-adv-x="333" 
d="M65 585c11.333 5.33301 21.001 9.33203 29.001 11.999s16.667 4 26 4c21.333 0 38 -6 50 -18s18 -28 18 -48c0 -16 -3 -32.5 -9 -49.5s-16.667 -37.167 -32 -60.5l-35.5 -57.5c-9 -15 -15.833 -28 -20.5 -39s-7.66699 -21 -9 -30s-2 -19.167 -2 -30.5
c0 -23.333 4.66699 -42.166 14 -56.499s25.333 -26.5 48 -36.5c-2 8.66699 -3 15.334 -3 20.001c0 27.333 21.333 74 64 140c19.333 28.667 35.666 55 48.999 79c12 21.333 21.333 43.333 28 66s10 44.667 10 66c0 20.667 -4 40.167 -12 58.5s-19.333 34.166 -34 47.499
c-14 13.333 -30 23 -48 29s-40.333 9.66699 -67 11zM214.001 50.999c0 17.333 -5.83105 31.668 -17.498 43.001s-25.834 17 -42.501 17s-30.834 -5.83301 -42.501 -17.5s-17.5 -26.167 -17.5 -43.5c0 -16.667 5.66699 -30.667 17 -42s25.333 -17 42 -17
c17.333 0 31.833 5.66699 43.5 17s17.5 25.666 17.5 42.999z" />
    <glyph glyph-name="at" unicode="@" horiz-adv-x="1010" 
d="M891 9c-6.66699 -10 -12.8359 -18.3271 -18.5029 -24.9941s-11.667 -13 -18 -19s-13.333 -11.833 -21 -17.5s-17.167 -11.834 -28.5 -18.501c-36.667 -23.333 -75.334 -40.333 -116.001 -51s-87 -16 -139 -16c-67.333 0 -127.166 8.33301 -179.499 25s-96.5 41 -132.5 73
s-63.5 71.333 -82.5 118s-28.5 99.667 -28.5 159c0 60.667 10.167 116.667 30.5 168s48.666 95.833 84.999 133.5s79.333 67 129 88s103.834 31.5 162.501 31.5c50 0 96.333 -7.83301 139 -23.5s79.5 -37.167 110.5 -64.5s55.333 -59.833 73 -97.5s26.5 -78.5 26.5 -122.5
c0 -41.333 -8.16699 -81.333 -24.5 -120s-39.5 -72 -69.5 -100c-16 -14.667 -32.833 -26.834 -50.5 -36.501s-32.167 -14.5 -43.5 -14.5c-9.33301 0 -17.333 3.16699 -24 9.5s-10 14.166 -10 23.499c0 3.33301 0.333008 7.66602 1 12.999s2.66699 14.666 6 27.999l7 34
l71 328h-88l-17 -76c-17.333 30 -38.666 52.5 -63.999 67.5s-53 22.5 -83 22.5c-32 0 -63.333 -8.83301 -94 -26.5s-57.667 -41 -81 -70s-42.166 -62.167 -56.499 -99.5s-21.5 -75.666 -21.5 -114.999c0 -31.333 4.5 -60.333 13.5 -87s21.333 -49.667 37 -69
s34.334 -34.666 56.001 -45.999s45.167 -17 70.5 -17s51 7 77 21s50 34 72 60c3.33301 -30.667 11.833 -52 25.5 -64s36.834 -18 69.501 -18c38 0 74.667 9.83301 110 29.5s66.666 45.667 93.999 78s49.166 69.5 65.499 111.5s24.5 85.333 24.5 130
c0 55.333 -10.333 106.333 -31 153s-49.5 87 -86.5 121s-81 60.5 -132 79.5s-106.833 28.5 -167.5 28.5c-50 0 -97.667 -6 -143 -18s-86 -29.333 -122 -52c-33.333 -20.667 -63.5 -46.334 -90.5 -77.001s-50 -64.834 -69 -102.501s-33.833 -77.667 -44.5 -120
s-16 -85.833 -16 -130.5c0 -68 11.333 -129.167 34 -183.5s55.334 -100.5 98.001 -138.5s94.5 -67 155.5 -87s129.833 -30 206.5 -30c67.333 0 127 7.83301 179 23.5s100.667 40.5 146 74.5c24.667 18.667 46 38.167 64 58.5s32 41.166 42 62.499h-88zM330.998 210.006
c0 32 4.66504 62.833 13.998 92.5s21.833 56 37.5 79s33.667 41.333 54 55s41.5 20.5 63.5 20.5c34 0 61.333 -12.833 82 -38.5s31 -59.5 31 -101.5c0 -31.333 -5 -61.833 -15 -91.5s-23.167 -56 -39.5 -79s-35.166 -41.333 -56.499 -55s-43.333 -20.5 -66 -20.5
c-15.333 0 -29.333 3.5 -42 10.5s-23.667 16.667 -33 29s-16.666 27 -21.999 44s-8 35.5 -8 55.5z" />
    <glyph glyph-name="A" unicode="A" horiz-adv-x="667" 
d="M362 686h-69l-293 -686h100l86 201h290l91 -201h100zM326 536l110 -247h-212z" />
    <glyph glyph-name="B" unicode="B" horiz-adv-x="563" 
d="M75 682l-0.000976562 -681.998h189l42 -1c30.667 -0.666992 56 1.5 76 6.5s40 12.833 60 23.5c32.667 17.333 57.5 39.333 74.5 66s25.5 57 25.5 91c0 44 -14.667 81.667 -44 113s-69 51.666 -119 60.999v2c69.333 28 104 75.667 104 143
c0 34.667 -8.16699 65.167 -24.5 91.5s-40.5 47.166 -72.5 62.499c-17.333 8.66699 -35.666 14.667 -54.999 18s-45 5 -77 5h-179zM171.999 595.002h65h20c83.333 0 125 -32.667 125 -98c0 -24 -6.66699 -45 -20 -63s-31.333 -30 -54 -36
c-10 -3.33301 -20.667 -5.5 -32 -6.5s-24 -1.5 -38 -1.5h-66v205zM171.999 302.002h91.999c19.333 0 36 -0.5 50 -1.5s26.167 -2.5 36.5 -4.5s19.5 -4.83301 27.5 -8.5s15.667 -8.16699 23 -13.5c12.667 -9.33301 22.5 -21 29.5 -35s10.5 -28.667 10.5 -44
c0 -17.333 -4.16699 -33.833 -12.5 -49.5s-20.166 -28.167 -35.499 -37.5c-6.66699 -4 -13.5 -7.5 -20.5 -10.5s-15.167 -5.16699 -24.5 -6.5s-20.333 -2.33301 -33 -3s-28 -1 -46 -1h-97v215z" />
    <glyph glyph-name="C" unicode="C" horiz-adv-x="708" 
d="M656 635c-47.333 20 -89.5 34.3301 -126.5 42.9971s-74.5 13 -112.5 13c-52 0 -100.5 -9 -145.5 -27s-84 -42.833 -117 -74.5s-59 -69 -78 -112s-28.5 -89.167 -28.5 -138.5c0 -52 11 -101.333 33 -148s53 -86.667 93 -120c33.333 -28 69.333 -48.333 108 -61
s83 -19 133 -19c46.667 0 90.167 4.83301 130.5 14.5s79.5 24.834 117.5 45.501v107c-79.333 -50.667 -160 -76 -242 -76c-39.333 0 -75.666 6.33301 -108.999 19s-62 30.334 -86 53.001s-42.667 49.834 -56 81.501s-20 66.167 -20 103.5s6.83301 71.833 20.5 103.5
s32.667 59 57 82s53 41 86 54s69.167 19.5 108.5 19.5s77.666 -5.5 114.999 -16.5s77 -28.167 119 -51.5v105z" />
    <glyph glyph-name="D" unicode="D" horiz-adv-x="750" 
d="M76 682l-0.000976562 -682.003l216 -1c26 0 47.5 0.333008 64.5 1s31.833 1.83398 44.5 3.50098s24.334 3.83398 35.001 6.50098s22.667 6.33398 36 11.001c34.667 12 66.167 28.5 94.5 49.5s52.666 45.5 72.999 73.5s36 58.833 47 92.5s16.5 68.5 16.5 104.5
c0 32 -4.16699 63 -12.5 93s-20.166 58 -35.499 84s-34 49.5 -56 70.5s-46.667 38.5 -74 52.5c-28.667 14.667 -59.667 25 -93 31c-18.667 4 -37 6.66699 -55 8s-41.667 2 -71 2h-230zM172.999 594.997l122.996 -0.000976562c22.667 0 41.667 -0.333008 57 -1
s29 -1.83398 41 -3.50098s23.167 -4.16699 33.5 -7.5s21.166 -7.66602 32.499 -12.999c45.333 -20 80.333 -49.667 105 -89s37 -84.333 37 -135c0 -29.333 -4.16699 -57.333 -12.5 -84s-20.166 -50.667 -35.499 -72s-33.666 -39.666 -54.999 -54.999s-45 -26.333 -71 -33
c-11.333 -3.33301 -21.166 -5.83301 -29.499 -7.5s-17.166 -3 -26.499 -4s-19.666 -1.66699 -30.999 -2s-25.333 -0.5 -42 -0.5h-126v507z" />
    <glyph glyph-name="E" unicode="E" 
d="M462 682h-387v-682h396v88h-298v212h279v87h-279v208h289v87z" />
    <glyph glyph-name="F" unicode="F" horiz-adv-x="469" 
d="M440 682h-364v-682h98v317h266v88h-266v189h266v88z" />
    <glyph glyph-name="G" unicode="G" horiz-adv-x="740" 
d="M673 335l-228.997 0.00195312v-86h131v-142l-9 -3c-16.667 -5.33301 -31.334 -9.66602 -44.001 -12.999s-24.334 -6 -35.001 -8s-20.834 -3.5 -30.501 -4.5s-19.834 -1.5 -30.501 -1.5c-40 0 -76.833 6.5 -110.5 19.5s-62.667 31.167 -87 54.5
s-43.166 51.166 -56.499 83.499s-20 67.833 -20 106.5c0 36.667 6.83301 71.167 20.5 103.5s32.334 60.166 56.001 83.499s51.667 41.833 84 55.5s67.166 20.5 104.499 20.5c40 0 80.333 -6 121 -18s81 -29.667 121 -53v100c-26 10.667 -49.667 19.834 -71 27.501
s-41.166 13.667 -59.499 18s-36.333 7.5 -54 9.5s-36.167 3 -55.5 3c-52.667 0 -101.5 -9 -146.5 -27s-84 -42.833 -117 -74.5s-58.833 -69.334 -77.5 -113.001s-28 -90.834 -28 -141.501c0 -94.667 33 -175 99 -241c36 -36 76 -62.167 120 -78.5s95.333 -24.5 154 -24.5
c42.667 0 83.667 4.5 123 13.5s81.666 23.167 126.999 42.5v288z" />
    <glyph glyph-name="H" unicode="H" horiz-adv-x="729" 
d="M654 682h-99v-295h-382v295h-98v-682h98v297h382v-297h99v682z" />
    <glyph glyph-name="I" unicode="I" horiz-adv-x="250" 
d="M174 682h-98v-682h98v682z" />
    <glyph glyph-name="J" unicode="J" horiz-adv-x="250" 
d="M174 682l-98 -0.000976562v-662c0 -20.667 -0.333008 -38 -1 -52s-2 -25.667 -4 -35s-4.66699 -17.333 -8 -24s-8 -13.334 -14 -20.001c-8 -9.33301 -18.833 -16 -32.5 -20s-31.5 -6 -53.5 -6h-12h-13l18 -91c7.33301 -1.33301 13 -2.16602 17 -2.49902s9 -0.5 15 -0.5
c51.333 0 94 15.333 128 46c10.667 10.667 19.667 21.834 27 33.501s13.333 25 18 40s8 32.333 10 52s3 42.5 3 68.5v673z" />
    <glyph glyph-name="K" unicode="K" horiz-adv-x="656" 
d="M583 682h-122l-287 -312v312h-99v-682h99v337l348 -337h134l-369 359z" />
    <glyph glyph-name="L" unicode="L" horiz-adv-x="490" 
d="M173 682h-99v-682h406v89h-307v593z" />
    <glyph glyph-name="M" unicode="M" horiz-adv-x="781" 
d="M709 682h-91l-226 -280l-227 280h-92v-682h98v531h2l210 -264h18l208 264h2v-531h98v682z" />
    <glyph glyph-name="N" unicode="N" horiz-adv-x="781" 
d="M710 682h-93v-529l-460 529h-79v-682h92v525l456 -525h84v682z" />
    <glyph glyph-name="O" unicode="O" horiz-adv-x="823" 
d="M410 691c-52.667 0 -101.332 -8.83398 -145.999 -26.501s-83.167 -42 -115.5 -73s-57.666 -68.167 -75.999 -111.5s-27.5 -90.333 -27.5 -141c0 -50 9.16699 -96.167 27.5 -138.5s43.5 -79 75.5 -110s70 -55.333 114 -73s91.667 -26.5 143 -26.5
c54 0 103.667 8.83301 149 26.5s84.666 42 117.999 73s59.333 67.833 78 110.5s28 89.334 28 140.001c0 50 -9.33301 96.5 -28 139.5s-44.334 80 -77.001 111s-71.5 55.333 -116.5 73s-93.833 26.5 -146.5 26.5zM414.002 598.999c37.333 0 72 -6.66797 104 -20.001
s59.833 -31.5 83.5 -54.5s42.334 -50 56.001 -81s20.5 -64.5 20.5 -100.5c0 -37.333 -6.83301 -71.833 -20.5 -103.5s-32.334 -59.167 -56.001 -82.5s-51.834 -41.666 -84.501 -54.999s-68 -20 -106 -20s-73.167 6.5 -105.5 19.5s-60.333 31 -84 54
s-42.167 50.167 -55.5 81.5s-20 65.333 -20 102c0 38 6.66699 72.833 20 104.5s31.833 59 55.5 82s51.834 41 84.501 54s68.667 19.5 108 19.5z" />
    <glyph glyph-name="P" unicode="P" horiz-adv-x="510" 
d="M70 682v-682.001h98v296h72c16 0 29.833 0.166992 41.5 0.5s22 1 31 2s17.667 2.33301 26 4s17.5 3.83398 27.5 6.50098c40.667 10.667 73.167 32.167 97.5 64.5s36.5 70.833 36.5 115.5c0 29.333 -5 56 -15 80s-24.333 44.333 -43 61s-41.167 29.5 -67.5 38.5
s-55.833 13.5 -88.5 13.5h-40h-176zM168 595.999l74 0.000976562h27c86.667 0 130 -35 130 -105c0 -34.667 -10.667 -61.334 -32 -80.001s-52 -28 -92 -28h-29h-78v213z" />
    <glyph glyph-name="Q" unicode="Q" horiz-adv-x="823" 
d="M495 -1l0.00292969 1.99805c42 8 80.333 22.333 115 43s64.5 46.167 89.5 76.5s44.5 64.5 58.5 102.5s21 78 21 120c0 50 -9.33301 96.167 -28 138.5s-44.334 79 -77.001 110s-71.5 55.333 -116.5 73s-93.833 26.5 -146.5 26.5c-53.333 0 -102.333 -8.83301 -147 -26.5
s-83.334 -42 -116.001 -73s-58.167 -68.167 -76.5 -111.5s-27.5 -90.333 -27.5 -141c0 -42 7.16699 -81.833 21.5 -119.5s34.166 -71.5 59.499 -101.5s55.5 -55.333 90.5 -76s73.167 -34.667 114.5 -42c27.333 -19.333 51.666 -35.666 72.999 -48.999s42.666 -25 63.999 -35
c70 -33.333 136 -51.666 198 -54.999l98 95c-15.333 -5.33301 -27.166 -8.83301 -35.499 -10.5s-19.166 -2.5 -32.499 -2.5c-42 0 -100 15.333 -174 46zM411.003 598.998c38.667 0 74.166 -6.50293 106.499 -19.5029s60.333 -31 84 -54s42.167 -50.167 55.5 -81.5
s20 -65.666 20 -102.999c0 -36.667 -6.83301 -70.667 -20.5 -102s-32.5 -58.666 -56.5 -81.999s-52.167 -41.666 -84.5 -54.999s-67.166 -20 -104.499 -20c-38 0 -73.167 6.5 -105.5 19.5s-60.5 31 -84.5 54s-42.667 50.167 -56 81.5s-20 65.333 -20 102
c0 37.333 6.83301 72 20.5 104s32.167 59.5 55.5 82.5s51.333 41 84 54s68 19.5 106 19.5z" />
    <glyph glyph-name="R" unicode="R" horiz-adv-x="604" 
d="M78 682l-0.000976562 -682.004h97v297h26c22 0 38.333 -1.16699 49 -3.5s21.667 -7.83301 33 -16.5c14 -10 27.667 -22.5 41 -37.5s28.333 -34.167 45 -57.5l28.5 -43l36.5 -58l14 -22c4 -6 7 -10.667 9 -14l24 -36l7 -9h116l-6 8l-30 41c-15.333 20 -34.333 49 -57 87
l-30.5 49l-22.5 35c-6.66699 10 -13.167 18.833 -19.5 26.5l-20.5 24.5c-5.33301 6.66699 -10.166 12.334 -14.499 17.001s-8.66602 8.83398 -12.999 12.501s-9 7.33398 -14 11.001l-17.5 12.5c37.333 14.667 65.666 36.334 84.999 65.001s29 63 29 103
c0 58.667 -20 105 -60 139s-94.667 51 -164 51h-171zM174.999 598.996l29.999 -0.000976562c30 0 53.667 -1.16699 71 -3.5s32.333 -6.5 45 -12.5c15.333 -7.33301 27.833 -19.333 37.5 -36s14.5 -34.667 14.5 -54c0 -28 -8.16699 -51.667 -24.5 -71
s-38.166 -30.666 -65.499 -33.999c-9.33301 -1.33301 -20 -2.33301 -32 -3s-24.667 -1 -38 -1h-38v215z" />
    <glyph glyph-name="S" unicode="S" horiz-adv-x="458" 
d="M399 643c-24.667 16.667 -49.9951 28.833 -75.9951 36.5s-53 11.5 -81 11.5c-30 0 -57.333 -4.33301 -82 -13s-45.834 -21 -63.501 -37s-31.334 -35.167 -41.001 -57.5s-14.5 -46.833 -14.5 -73.5c0 -36.667 10 -68.834 30 -96.501s53 -55.167 99 -82.5l74 -45
c29.333 -17.333 51.666 -36 66.999 -56s23 -40.667 23 -62c0 -26 -10.167 -47.5 -30.5 -64.5s-45.833 -25.5 -76.5 -25.5c-21.333 0 -43 3.83301 -65 11.5s-42.667 18.5 -62 32.5c-11.333 8 -20.5 15.5 -27.5 22.5s-16.5 18.167 -28.5 33.5v-124c56 -42 117.333 -63 184 -63
c29.333 0 56.166 4.5 80.499 13.5s45.166 21.667 62.499 38s30.833 36 40.5 59s14.5 48.167 14.5 75.5c0 78 -41.667 141 -125 189l-75 44c-34 20 -58.333 38.833 -73 56.5s-22 36.834 -22 57.501c0 23.333 10.167 42.333 30.5 57s46.5 22 78.5 22
c56.667 0 109.667 -23.667 159 -71v111z" />
    <glyph glyph-name="T" unicode="T" horiz-adv-x="604" 
d="M587 682h-570v-86h234v-596h98v596h238v86z" />
    <glyph glyph-name="U" unicode="U" horiz-adv-x="708" 
d="M647 682l-97.001 0.00292969v-387c0 -16 -0.666992 -33 -2 -51s-3 -31.667 -5 -41c-7.33301 -38 -28.166 -68.333 -62.499 -91s-76.5 -34 -126.5 -34c-64.667 0 -115.334 19 -152.001 57c-8.66699 8.66699 -15.667 17.667 -21 27s-9.66602 20 -12.999 32
s-5.66602 26.167 -6.99902 42.5s-2 35.833 -2 58.5v387h-98v-386c0 -18.667 0.166992 -34.167 0.5 -46.5s1 -23.5 2 -33.5s2.66699 -19.333 5 -28s5.16602 -18.334 8.49902 -29.001c8 -26 20.5 -49.333 37.5 -70s37.5 -38.334 61.5 -53.001s51.167 -25.834 81.5 -33.501
s62.833 -11.5 97.5 -11.5c88 0 159.667 24.667 215 74c29.333 26 50 58 62 96c3.33301 10.667 6 20 8 28s3.5 16.833 4.5 26.5s1.66699 20.667 2 33s0.5 27.833 0.5 46.5v387z" />
    <glyph glyph-name="V" unicode="V" horiz-adv-x="604" 
d="M604 682h-97l-204 -479l-205 479h-98l294 -686h22z" />
    <glyph glyph-name="W" unicode="W" horiz-adv-x="1042" 
d="M1041 682h-97l-186 -470l-190 470h-93l-189 -470l-188 470h-98l275 -686h21l225 556l223 -556h21z" />
    <glyph glyph-name="X" unicode="X" horiz-adv-x="708" 
d="M687 682h-118l-213 -260l-214 260h-119l273 -329l-294 -353h119l235 282l232 -282h118l-291 353z" />
    <glyph glyph-name="Y" unicode="Y" horiz-adv-x="604" 
d="M604 682h-118l-185 -235l-183 235h-118l252 -321v-361h100v361z" />
    <glyph glyph-name="Z" unicode="Z" horiz-adv-x="646" 
d="M628 682h-588v-86h409l-437 -596h616v86h-436z" />
    <glyph glyph-name="bracketleft" unicode="[" horiz-adv-x="333" 
d="M319 682h-233v-903h233v80h-137v742h137v81z" />
    <glyph glyph-name="backslash" unicode="\" horiz-adv-x="281" 
d="M209 -12h71l-208 740h-70z" />
    <glyph glyph-name="bracketright" unicode="]" horiz-adv-x="333" 
d="M15 -221h232v903h-232v-80h136v-743h-136v-80z" />
    <glyph glyph-name="asciicircum" unicode="^" horiz-adv-x="469" 
d="M116 291l118 292l120 -292h89l-173 391h-71l-173 -391h90z" />
    <glyph glyph-name="underscore" unicode="_" horiz-adv-x="552" 
d="M-15 -199h582v64h-582v-64z" />
    <glyph glyph-name="grave" unicode="`" horiz-adv-x="333" 
d="M227 502l-66 136h-118l113 -136h71z" />
    <glyph glyph-name="a" unicode="a" horiz-adv-x="427" 
d="M411 80c-23.333 -16 -39.9971 -24.001 -49.9971 -24.001c-10.667 0 -16 7.66699 -16 23v20v171c0 20 -0.166992 36.167 -0.5 48.5s-1.33301 22.833 -3 31.5s-4 16.334 -7 23.001s-6.83301 14 -11.5 22c-12 19.333 -30.5 34.666 -55.5 45.999s-52.833 17 -83.5 17
c-64.667 0 -114.334 -20.333 -149.001 -61v-97c45.333 49.333 92.666 74 141.999 74c53.333 0 80 -26.667 80 -80v-24l-77 -27l-36 -12c-38 -13.333 -67 -31.166 -87 -53.499s-30 -47.5 -30 -75.5c0 -32 10.333 -58.5 31 -79.5s46.667 -31.5 78 -31.5
c40.667 0 81 15.333 121 46c6.66699 -30.667 29 -46 67 -46c13.333 0 26.166 2.5 38.499 7.5s28.5 14.167 48.5 27.5v54zM258.003 221.999v-133.001c-24.667 -23.333 -51 -35 -79 -35c-19.333 0 -34.833 5.83301 -46.5 17.5s-17.5 26.834 -17.5 45.501c0 18 6 33 18 45
s33.667 24.333 65 37z" />
    <glyph glyph-name="b" unicode="b" 
d="M148 682l-88.999 -0.000976562v-657c10 -5.33301 21.833 -10 35.5 -14s28 -7.66699 43 -11s30.333 -5.83301 46 -7.5s30.167 -2.5 43.5 -2.5c36 0 68.667 5.66699 98 17s54.333 27.333 75 48s36.667 45.834 48 75.501s17 62.5 17 98.5c0 34 -4.83301 65 -14.5 93
s-23 52 -40 72s-37.333 35.667 -61 47s-49.834 17 -78.501 17c-44.667 0 -85.667 -13.667 -123 -41v265zM148.001 331.999c18.667 16 35.6689 27.3311 51.002 33.998s32 10 50 10c37.333 0 67.666 -13.833 90.999 -41.5s35 -64.167 35 -109.5
c0 -22 -3.33301 -42.167 -10 -60.5s-15.834 -34.166 -27.501 -47.499s-25.667 -23.666 -42 -30.999s-34.5 -11 -54.5 -11c-14.667 0 -30.5 1.33301 -47.5 4s-32.167 6 -45.5 10v243z" />
    <glyph glyph-name="c" unicode="c" horiz-adv-x="438" 
d="M390 427c-14 6 -26.499 10.999 -37.499 14.999s-21.5 7.16699 -31.5 9.5s-19.833 4 -29.5 5s-20.167 1.5 -31.5 1.5c-33.333 0 -63.666 -5.66699 -90.999 -17s-50.666 -27.333 -69.999 -48s-34.333 -45.5 -45 -74.5s-16 -61.167 -16 -96.5s5.5 -67.166 16.5 -95.499
s26.5 -52.5 46.5 -72.5s44.167 -35.5 72.5 -46.5s60.166 -16.5 95.499 -16.5c22 0 43.5 2 64.5 6s43.167 10.667 66.5 20v88c-24.667 -11.333 -45.834 -19.166 -63.501 -23.499s-35.834 -6.5 -54.501 -6.5c-47.333 0 -84.833 13.5 -112.5 40.5s-41.5 63.5 -41.5 109.5
c0 22 3.33301 42.167 10 60.5s16.167 34.166 28.5 47.499s26.833 23.666 43.5 30.999s35 11 55 11c20.667 0 40.667 -3.33301 60 -10c10 -3.33301 20.333 -7.66602 31 -12.999s22 -12 34 -20v95z" />
    <glyph glyph-name="d" unicode="d" horiz-adv-x="510" 
d="M452 682h-89.999v-242c-18.667 6.66699 -35.334 11.334 -50.001 14.001s-30.334 4 -47.001 4c-32 0 -61.667 -5.66699 -89 -17s-50.666 -27 -69.999 -47s-34.5 -43.833 -45.5 -71.5s-16.5 -57.834 -16.5 -90.501c0 -35.333 5.16699 -67.333 15.5 -96s25 -53 44 -73
s41.833 -35.5 68.5 -46.5s56.667 -16.5 90 -16.5h190v682zM362.001 75l-67.9961 -0.000976562c-17.333 0 -32 0.5 -44 1.5s-22.333 2.66699 -31 5s-16.334 5.5 -23.001 9.5s-13.334 9 -20.001 15c-28 26 -42 64.333 -42 115c0 49.333 13 88.5 39 117.5s61.333 43.5 106 43.5
c15.333 0 29.166 -1.66699 41.499 -5s26.166 -8.66602 41.499 -15.999v-286z" />
    <glyph glyph-name="e" unicode="e" horiz-adv-x="479" 
d="M438 131c-49.333 -36.667 -103.334 -55 -162.001 -55c-42 0 -76.167 12.667 -102.5 38s-40.833 59.666 -43.5 102.999h316v11c0 34.667 -4.66699 66.167 -14 94.5s-22.5 52.5 -39.5 72.5s-37.5 35.5 -61.5 46.5s-51 16.5 -81 16.5
c-31.333 0 -59.666 -5.66699 -84.999 -17s-47.333 -27.166 -66 -47.499s-33 -44.666 -43 -72.999s-15 -59.5 -15 -93.5c0 -69.333 22 -127 66 -173c21.333 -22.667 44 -38.834 68 -48.501s53 -14.5 87 -14.5c34.667 0 65.5 4 92.5 12s54.833 21.667 83.5 41v87zM131.999 270
c6 36 19.166 63.5 39.499 82.5s46.5 28.5 78.5 28.5s57.333 -9.5 76 -28.5s29.334 -46.5 32.001 -82.5h-226z" />
    <glyph glyph-name="f" unicode="f" horiz-adv-x="250" 
d="M296 682c-17.333 4 -29.833 6.5 -37.5 7.5s-17.167 1.5 -28.5 1.5c-36.667 0 -69 -13 -97 -39c-21.333 -20 -36.833 -43.833 -46.5 -71.5s-14.5 -62.5 -14.5 -104.5v-27h-63v-80h63v-369h90v369h80v80h-80v27c0 24 1.5 44 4.5 60s8.16699 29 15.5 39s17 17.167 29 21.5
s26.667 6.5 44 6.5c8.66699 0 15.667 -0.5 21 -1.5s12 -3.16699 20 -6.5v87z" />
    <glyph glyph-name="g" unicode="g" horiz-adv-x="427" 
d="M421 449l-185.002 -0.000976562c-60.667 0 -108.5 -13.833 -143.5 -41.5s-52.5 -65.5 -52.5 -113.5c0 -66 33 -113 99 -141v-2c-21.333 -5.33301 -38.5 -13.666 -51.5 -24.999s-19.5 -24.333 -19.5 -39c0 -19.333 15 -38.333 45 -57c-75.333 -18 -113 -57.667 -113 -119
c0 -21.333 5 -40.666 15 -57.999s24.167 -32.166 42.5 -44.499s40.5 -21.833 66.5 -28.5s55 -10 87 -10s60.833 3.33301 86.5 10s47.5 16 65.5 28s32 26.667 42 44s15 36.666 15 57.999c0 38.667 -14.333 69.334 -43 92.001c-6.66699 5.33301 -13.167 9.83301 -19.5 13.5
s-14.166 7.16699 -23.499 10.5s-21.5 6.83301 -36.5 10.5s-34.5 8.16699 -58.5 13.5c-33.333 7.33301 -56.166 14.166 -68.499 20.499s-18.5 14.833 -18.5 25.5c0 18.667 16.667 30.334 50 35.001c28 4 49.667 8.16699 65 12.5s29 10.166 41 17.499
c20 12 36.5 29.167 49.5 51.5s19.5 45.166 19.5 68.499c0 19.333 -3.5 36.333 -10.5 51s-19.167 30.667 -36.5 48h91v69zM206.998 371.999c25.333 0 46.5 -7.83398 63.5 -23.501s25.5 -35.167 25.5 -58.5s-8.33301 -42.666 -25 -57.999s-37.667 -23 -63 -23
s-46.333 7.5 -63 22.5s-25 34.167 -25 57.5s8.5 43 25.5 59s37.5 24 61.5 24zM185.998 -22.002c43.333 0 78.667 -6.50195 106 -19.502s41 -30.167 41 -51.5s-10.667 -37.666 -32 -48.999s-52 -17 -92 -17c-40.667 0 -71.667 5.83301 -93 17.5s-32 28.834 -32 51.501
c0 20 9.5 36.333 28.5 49s43.5 19 73.5 19z" />
    <glyph glyph-name="h" unicode="h" 
d="M150 682h-89.002v-682h89v322c21.333 23.333 40.5 40 57.5 50s35.167 15 54.5 15c26.667 0 48 -9.83301 64 -29.5s24 -46.167 24 -79.5v-278h89v256c0 20 -0.666992 36.833 -2 50.5s-3.66602 27.167 -6.99902 40.5c-8.66699 34 -25.667 61 -51 81s-55.666 30 -90.999 30
c-26 0 -50.833 -5.83301 -74.5 -17.5s-44.167 -28.5 -61.5 -50.5h-2v292z" />
    <glyph glyph-name="i" unicode="i" horiz-adv-x="219" 
d="M154 449h-89v-449h89v449zM109 638c-14 0 -26.167 -5.33301 -36.5 -16s-15.5 -22.667 -15.5 -36c0 -14 5.16699 -26.333 15.5 -37s22.5 -16 36.5 -16c14.667 0 27.167 5.16699 37.5 15.5s15.5 22.833 15.5 37.5s-5.16699 27 -15.5 37s-22.833 15 -37.5 15z" />
    <glyph glyph-name="j" unicode="j" horiz-adv-x="219" 
d="M151 449l-89.999 -0.000976562v-471v-43c0 -24 -5.83301 -44.833 -17.5 -62.5s-28.167 -30.167 -49.5 -37.5l67 -65c31.333 16.667 54.166 38.334 68.499 65.001s21.5 60 21.5 100v38v476zM104.001 637.999c-13.333 0 -25.333 -5.16699 -36 -15.5s-16 -22.5 -16 -36.5
c0 -14.667 5.33301 -27.167 16 -37.5s23 -15.5 37 -15.5c15.333 0 27.833 5 37.5 15s14.5 22.667 14.5 38c0 14.667 -5.16699 27 -15.5 37s-22.833 15 -37.5 15z" />
    <glyph glyph-name="k" unicode="k" horiz-adv-x="479" 
d="M461 449h-106l-199 -220l225 -229h119l-231 229zM152 682h-90v-682h90v682z" />
    <glyph glyph-name="l" unicode="l" horiz-adv-x="219" 
d="M154 682h-89v-682h89v682z" />
    <glyph glyph-name="m" unicode="m" horiz-adv-x="771" 
d="M59 449v-448.999h88v326c19.333 21.333 36.833 36.166 52.5 44.499s33.167 12.5 52.5 12.5c33.333 0 56.666 -9.83301 69.999 -29.5s20 -54.167 20 -103.5v-250h89v326c32 37.333 66.333 56 103 56c29.333 0 51.5 -9.83301 66.5 -29.5s22.5 -48.5 22.5 -86.5v-266h89v265
c0 20 -1.16699 38.667 -3.5 56s-6.16602 32.333 -11.499 45c-10 28 -27.167 50.333 -51.5 67s-52.166 25 -83.499 25c-27.333 0 -52.833 -6.5 -76.5 -19.5s-47.834 -33.5 -72.501 -61.5c-15.333 26 -34.166 46 -56.499 60s-47.5 21 -75.5 21
c-22.667 0 -44.834 -5.5 -66.501 -16.5s-44.167 -28.167 -67.5 -51.5v59h-88z" />
    <glyph glyph-name="n" unicode="n" 
d="M61 449l-0.000976562 -448.998h91v321c28.667 42 64.334 63 107.001 63c32.667 0 55.834 -9.83301 69.501 -29.5s20.5 -52.5 20.5 -98.5v-256h90v257c0 32.667 -1.83301 58.667 -5.5 78s-10.167 36.666 -19.5 51.999c-13.333 22 -31.333 39.333 -54 52s-47 19 -73 19
c-24 0 -47.833 -5.83301 -71.5 -17.5s-44.834 -27.834 -63.501 -48.501v57h-91z" />
    <glyph glyph-name="o" unicode="o" horiz-adv-x="552" 
d="M278 449c-34.667 0 -66.834 -5.83105 -96.501 -17.498s-55.167 -27.667 -76.5 -48s-38.166 -44.5 -50.499 -72.5s-18.5 -58.333 -18.5 -91s6 -63 18 -91s28.667 -52.167 50 -72.5s46.5 -36.333 75.5 -48s60.5 -17.5 94.5 -17.5c34.667 0 66.834 5.66699 96.501 17
s55.167 27.166 76.5 47.499s38.166 44.333 50.499 72s18.5 57.834 18.5 90.501c0 33.333 -6 64.166 -18 92.499s-28.5 52.666 -49.5 72.999s-46.167 36.333 -75.5 48s-61 17.5 -95 17.5zM273 370.002c22 0 42.3281 -3.66797 60.9951 -11.001s34.834 -17.666 48.501 -30.999
s24.334 -29 32.001 -47s11.5 -37.667 11.5 -59s-3.66699 -41.166 -11 -59.499s-17.666 -34 -30.999 -47s-29 -23.167 -47 -30.5s-38 -11 -60 -11s-42.167 3.66699 -60.5 11s-34.166 17.5 -47.499 30.5s-23.666 28.5 -30.999 46.5s-11 37.667 -11 59c0 22 3.66699 42 11 60
s17.5 33.667 30.5 47s28.333 23.666 46 30.999s37.167 11 58.5 11z" />
    <glyph glyph-name="p" unicode="p" 
d="M57 449v-678.999h91v241c18 -7.33301 34.167 -12.5 48.5 -15.5s29.833 -4.5 46.5 -4.5c32 0 61.667 5.83301 89 17.5s51 27.667 71 48s35.5 44.666 46.5 72.999s16.5 59.5 16.5 93.5c0 72 -22.167 127.667 -66.5 167s-106.5 59 -186.5 59h-156zM148 366.001
l63.001 0.00195312c34 0 60.667 -3 80 -9s35.666 -16.667 48.999 -32c23.333 -24.667 35 -58.334 35 -101.001c0 -22.667 -3.5 -43.5 -10.5 -62.5s-16.667 -35.333 -29 -49s-27.166 -24.334 -44.499 -32.001s-36.333 -11.5 -57 -11.5c-30.667 0 -59.334 7 -86.001 21v276z
" />
    <glyph glyph-name="q" unicode="q" 
d="M442 449l-166.998 0.000976562c-36.667 0 -69.834 -5.33301 -99.501 -16s-54.834 -26 -75.501 -46s-36.667 -44.167 -48 -72.5s-17 -59.833 -17 -94.5c0 -33.333 5.5 -63.833 16.5 -91.5s26.333 -51.834 46 -72.501s43 -36.667 70 -48s56.5 -17 88.5 -17
c15.333 0 30.5 1.33301 45.5 4s32.5 7 52.5 13v-238h88v679zM354.002 366.001l0.000976562 -281.001c-3.33301 -1.33301 -6 -2.16602 -8 -2.49902s-3.66699 -0.833008 -5 -1.5l-24 -8c-6 -2 -11.333 -3.5 -16 -4.5s-9 -1.66699 -13 -2s-9 -0.5 -15 -0.5
c-22 0 -42 3.83301 -60 11.5s-33.5 18.334 -46.5 32.001s-23.167 30 -30.5 49s-11 40.167 -11 63.5c0 33.333 8.33301 62.5 25 87.5s38.667 41.5 66 49.5l15.5 3.5c4.33301 1 9.16602 1.66699 14.499 2s12 0.666016 20 0.999023s18.667 0.5 32 0.5h56z" />
    <glyph glyph-name="r" unicode="r" horiz-adv-x="396" 
d="M69 449l-0.00195312 -449.002h89v235c0 18.667 2.83301 36.334 8.5 53.001s13.334 31.334 23.001 44.001s21 22.667 34 30s26.5 11 40.5 11c12 0 25.833 -4 41.5 -12s30.5 -18.667 44.5 -32l47 78c-36 34 -71 51 -105 51c-22 0 -43.167 -8 -63.5 -24
s-42.166 -42.667 -65.499 -80l-3 -8h-2v103h-89z" />
    <glyph glyph-name="s" unicode="s" horiz-adv-x="385" 
d="M323 421c-24 13.333 -46.6758 22.833 -68.0088 28.5s-43.666 8.5 -66.999 8.5c-21.333 0 -40.666 -2.83301 -57.999 -8.5s-32.5 -13.667 -45.5 -24s-23 -22.666 -30 -36.999s-10.5 -30.166 -10.5 -47.499c0 -15.333 3 -30.333 9 -45s14.667 -27.667 26 -39
c10.667 -10.667 24 -21.5 40 -32.5s37.333 -24.167 64 -39.5c14 -8 25.5 -15 34.5 -21s16 -11.5 21 -16.5s8.5 -10 10.5 -15s3 -10.833 3 -17.5c0 -12.667 -6.66699 -23.5 -20 -32.5s-29.333 -13.5 -48 -13.5c-17.333 0 -39.166 5.33301 -65.499 16s-52.166 25 -77.499 43
v-96c16.667 -8 31.334 -14.667 44.001 -20s24.834 -9.5 36.501 -12.5s23 -5.16699 34 -6.5s22.833 -2 35.5 -2c22.667 0 43.334 3.16699 62.001 9.5s34.834 15.166 48.501 26.499s24.334 24.666 32.001 39.999s11.5 32.333 11.5 51c0 53.333 -37.333 100.333 -112 141
l-32 18c-23.333 13.333 -40 24.666 -50 33.999s-15 19.333 -15 30c0 12 5.33301 21.667 16 29s24.667 11 42 11c18.667 0 37.5 -3.66699 56.5 -11s43.167 -19.666 72.5 -36.999v88z" />
    <glyph glyph-name="t" unicode="t" horiz-adv-x="333" 
d="M167 542l-166.999 -163.999v-9h78v-199c0 -14.667 0.166992 -26.667 0.5 -36s0.833008 -17.333 1.5 -24s1.66699 -12.667 3 -18s3 -11.333 5 -18c7.33301 -24.667 23.333 -44.667 48 -60s52.667 -23 84 -23c16.667 0 35.5 2.66699 56.5 8s39.5 12.666 55.5 21.999v83
c-34.667 -21.333 -68.334 -32 -101.001 -32c-21.333 0 -37 5.83301 -47 17.5s-15.667 31.5 -17 59.5v24v196h142v80h-142v93z" />
    <glyph glyph-name="u" unicode="u" 
d="M438 0v449h-90v-321c-30 -42 -65.667 -63 -107 -63c-33.333 0 -56.833 9.5 -70.5 28.5s-20.5 52.167 -20.5 99.5v256h-90v-257c0 -16.667 0.333008 -31.334 1 -44.001s2 -24 4 -34s4.66699 -19.167 8 -27.5s7.33301 -16.5 12 -24.5c13.333 -22 31.333 -39.333 54 -52
s47 -19 73 -19c24 0 47.833 5.83301 71.5 17.5s45.167 27.834 64.5 48.501v-57h90z" />
    <glyph glyph-name="v" unicode="v" horiz-adv-x="438" 
d="M434 449h-96l-117 -276l-121 276h-97l203 -458h30z" />
    <glyph glyph-name="w" unicode="w" horiz-adv-x="719" 
d="M719 449h-95l-117 -272l-114 272h-66l-114 -272l-118 272h-95l200 -458h29l131 314l133 -314h28z" />
    <glyph glyph-name="x" unicode="x" 
d="M487 449h-114l-128 -154l-133 154h-112l189 -221l-189 -228h112l133 161l141 -161h114l-198 228z" />
    <glyph glyph-name="y" unicode="y" horiz-adv-x="438" 
d="M438 449h-100l-116 -253l-121 253h-101l174 -353l-153 -326h99z" />
    <glyph glyph-name="z" unicode="z" horiz-adv-x="417" 
d="M405 449h-384v-83h226l-236 -366h394v82h-238z" />
    <glyph glyph-name="braceleft" unicode="{" horiz-adv-x="333" 
d="M28 219c11.333 0 20.168 -0.834961 26.501 -2.50195s13.166 -4.5 20.499 -8.5c10.667 -6 19.5 -13 26.5 -21s12.5 -18.5 16.5 -31.5s6.83301 -29.5 8.5 -49.5s2.5 -45.333 2.5 -76c0 -33.333 0.5 -60.5 1.5 -81.5s2.66699 -38.333 5 -52s5.5 -25.167 9.5 -34.5
s9.66699 -18.666 17 -27.999c12.667 -16.667 27.667 -28.167 45 -34.5s42.666 -9.5 75.999 -9.5h28v76h-16c-17.333 0 -31.333 1.33301 -42 4s-19 7.66699 -25 15s-10.167 17.5 -12.5 30.5s-3.5 30.167 -3.5 51.5v71c0 33.333 -1.83301 62 -5.5 86s-9.5 44.667 -17.5 62
s-18.5 31.833 -31.5 43.5s-29.167 21.5 -48.5 29.5c13.333 6 23 10.833 29 14.5s12.667 8.83398 20 15.501c19.333 17.333 33.166 40.5 41.499 69.5s12.5 69.167 12.5 120.5v72c0 20.667 1 37.5 3 50.5s6 23.333 12 31s14.5 12.834 25.5 15.501s25.167 4 42.5 4h16v76h-28
c-16.667 0 -31 -0.666992 -43 -2s-22.833 -3.83301 -32.5 -7.5s-18 -8.33398 -25 -14.001s-13.833 -12.5 -20.5 -20.5c-7.33301 -9.33301 -13 -18.5 -17 -27.5s-7.16699 -20.5 -9.5 -34.5s-4 -31.5 -5 -52.5s-1.5 -48.167 -1.5 -81.5c0 -30.667 -0.833008 -56 -2.5 -76
s-4.5 -36.667 -8.5 -50s-9.5 -24 -16.5 -32s-15.833 -15 -26.5 -21c-7.33301 -3.33301 -14.166 -5.83301 -20.499 -7.5s-15.166 -2.5 -26.499 -2.5v-80z" />
    <glyph glyph-name="bar" unicode="|" horiz-adv-x="527" 
d="M231 814v-831h65v831h-65z" />
    <glyph glyph-name="braceright" unicode="}" horiz-adv-x="333" 
d="M305 299c-11.333 0 -20.1689 0.837891 -26.502 2.50488s-13.166 4.16699 -20.499 7.5c-11.333 6 -20.333 13 -27 21s-12 18.667 -16 32s-6.83301 30 -8.5 50s-2.5 45.333 -2.5 76c0 33.333 -0.333008 60.5 -1 81.5s-2.16699 38.333 -4.5 52
s-5.66602 25.167 -9.99902 34.5s-10.166 18.666 -17.499 27.999c-12.667 16.667 -27.667 28.167 -45 34.5s-42.666 9.5 -75.999 9.5h-27v-76h15c17.333 0 31.5 -1.33301 42.5 -4s19.5 -7.83398 25.5 -15.501s10.167 -18 12.5 -31s3.5 -29.833 3.5 -50.5v-72
c0 -32.667 1.5 -59.834 4.5 -81.501s8.16699 -41.834 15.5 -60.501c6.66699 -17.333 16.167 -31.833 28.5 -43.5s30.166 -23.167 53.499 -34.5c-19.333 -8 -35.5 -17.833 -48.5 -29.5s-23.5 -26.167 -31.5 -43.5s-13.667 -38 -17 -62s-5 -52.667 -5 -86v-71
c0 -20.667 -1.16699 -37.5 -3.5 -50.5s-6.5 -23.333 -12.5 -31s-14.5 -12.834 -25.5 -15.501s-25.167 -4 -42.5 -4h-15v-76h27c16.667 0 31 0.666992 43 2s22.833 3.66602 32.5 6.99902s18 7.83301 25 13.5s13.833 12.834 20.5 21.501
c6.66699 9.33301 12.167 18.5 16.5 27.5s7.83301 20.5 10.5 34.5s4.33398 31.5 5.00098 52.5s1 48.167 1 81.5c0 30.667 0.833008 56 2.5 76s4.5 36.5 8.5 49.5s9.33301 23.5 16 31.5s15.667 15 27 21c7.33301 4 14.166 6.83301 20.499 8.5s15.166 2.5 26.499 2.5v80z" />
    <glyph glyph-name="asciitilde" unicode="~" horiz-adv-x="583" 
d="M42 261c13.333 12.667 25.3311 23.332 35.998 31.999s21 15.5 31 20.5s19.833 8.5 29.5 10.5s20.167 3 31.5 3c12.667 0 26.5 -1.83301 41.5 -5.5s30.167 -9.16699 45.5 -16.5l30 -13c25.333 -11.333 46.833 -19.166 64.5 -23.499s36.167 -6.5 55.5 -6.5
c26.667 0 50.5 4.33301 71.5 13s42.167 23 63.5 43v103c-19.333 -21.333 -40.166 -37.833 -62.499 -49.5s-43.5 -17.5 -63.5 -17.5c-21.333 0 -43 5 -65 15l-39 17c-28 11.333 -52.5 19.833 -73.5 25.5s-41.167 8.5 -60.5 8.5c-55.333 0 -100.666 -19.667 -135.999 -59v-100
z" />
    <glyph glyph-name="uni00A0" unicode="&#xa0;" horiz-adv-x="250" 
 />
    <glyph glyph-name="exclamdown" unicode="&#xa1;" horiz-adv-x="271" 
d="M74 451c0 -17.333 6.00098 -31.998 18.001 -43.998s26.667 -18 44 -18s31.666 6 42.999 18s17 26.667 17 44s-5.83301 31.666 -17.5 42.999s-26.167 17 -43.5 17c-16.667 0 -31 -5.83301 -43 -17.5s-18 -25.834 -18 -42.501zM101.001 185.002
c-6.66699 -40 -12 -80.8301 -16 -122.497s-6 -79.834 -6 -114.501c0 -93.333 18.667 -140 56 -140c18 0 31.667 12.167 41 36.5s14 59.833 14 106.5c0 31.333 -1.66699 65.5 -5 102.5s-8.66602 81.5 -15.999 133.5c-2.66699 19.333 -5 34.166 -7 44.499
s-4.66699 20.166 -8 29.499c-5.33301 16 -8 24.667 -8 26c-2.66699 10.667 -6.66699 16 -12 16c-4.66699 0 -8.83398 -6.33301 -12.501 -19s-8.16699 -33.667 -13.5 -63z" />
    <glyph glyph-name="cent" unicode="&#xa2;" horiz-adv-x="438" 
d="M407 620h-45.999l-59 -165c-9.33301 1.33301 -16.333 2.16602 -21 2.49902s-10.667 0.5 -18 0.5c-34 0 -65 -5.66699 -93 -17s-51.667 -27.5 -71 -48.5s-34.333 -46.333 -45 -76s-16 -62.5 -16 -98.5c0 -43.333 9.5 -82.666 28.5 -117.999s45.167 -62.333 78.5 -81
l-77 -209h47l69 190c10 -3.33301 22.333 -5.83301 37 -7.5s28.667 -2.5 42 -2.5c20 0 41.833 2.5 65.5 7.5s47.167 12.167 70.5 21.5v86c-15.333 -9.33301 -34.333 -16.833 -57 -22.5s-44.334 -8.5 -65.001 -8.5c-11.333 0 -21.333 0.833008 -30 2.5
s-19.667 5.16699 -33 10.5l102 281c12 -3.33301 24.667 -8.16602 38 -14.499s25 -13.5 35 -21.5v94c-5.33301 3.33301 -9.33301 5.66602 -12 6.99902s-9.66699 4 -21 8c-1.33301 0 -5.33301 1.33301 -12 4zM177.001 109c-32.667 28.667 -49 66 -49 112
c0 22.667 3.33301 43.5 10 62.5s16 35.167 28 48.5s26.333 23.833 43 31.5s35 11.5 55 11.5h9z" />
    <glyph glyph-name="sterling" unicode="&#xa3;" horiz-adv-x="531" 
d="M333 373h-76.001l10 31c38.667 129.333 94.334 194 167.001 194c13.333 0 26.666 -1.5 39.999 -4.5s23.666 -6.5 30.999 -10.5l-56 104l-19.5 3c-4.33301 0.666992 -9.83301 1 -16.5 1c-30 0 -59.333 -9 -88 -27s-53 -43 -73 -75c-18.667 -30 -35.667 -63.167 -51 -99.5
s-28.666 -75.166 -39.999 -116.499h-95v-87h72l-79 -295c24 6 48.833 10.333 74.5 13s52.5 4 80.5 4c13.333 0 26 -0.333008 38 -1s23.333 -1.66699 34 -3l53 -9c9.33301 -1.33301 18.833 -2.33301 28.5 -3s19.167 -1 28.5 -1c18 0 34.167 1.16699 48.5 3.5
s31.5 7.16602 51.5 14.499v95c-24.667 -14.667 -58.334 -22 -101.001 -22c-19.333 0 -35.333 1.33301 -48 4l-39 7c-9.33301 2 -22.166 3.5 -38.499 4.5s-33.166 1.5 -50.499 1.5h-21c-4 0 -9.66699 -0.666992 -17 -2l50 189h102v87z" />
    <glyph glyph-name="currency" unicode="&#xa4;" horiz-adv-x="427" 
d="M421 449l-185.002 -0.000976562c-60.667 0 -108.5 -13.833 -143.5 -41.5s-52.5 -65.5 -52.5 -113.5c0 -66 33 -113 99 -141v-2c-21.333 -5.33301 -38.5 -13.666 -51.5 -24.999s-19.5 -24.333 -19.5 -39c0 -19.333 15 -38.333 45 -57c-75.333 -18 -113 -57.667 -113 -119
c0 -21.333 5 -40.666 15 -57.999s24.167 -32.166 42.5 -44.499s40.5 -21.833 66.5 -28.5s55 -10 87 -10s60.833 3.33301 86.5 10s47.5 16 65.5 28s32 26.667 42 44s15 36.666 15 57.999c0 38.667 -14.333 69.334 -43 92.001c-6.66699 5.33301 -13.167 9.83301 -19.5 13.5
s-14.166 7.16699 -23.499 10.5s-21.5 6.83301 -36.5 10.5s-34.5 8.16699 -58.5 13.5c-33.333 7.33301 -56.166 14.166 -68.499 20.499s-18.5 14.833 -18.5 25.5c0 18.667 16.667 30.334 50 35.001c28 4 49.667 8.16699 65 12.5s29 10.166 41 17.499
c20 12 36.5 29.167 49.5 51.5s19.5 45.166 19.5 68.499c0 19.333 -3.5 36.333 -10.5 51s-19.167 30.667 -36.5 48h91v69zM206.998 371.999c25.333 0 46.5 -7.83398 63.5 -23.501s25.5 -35.167 25.5 -58.5s-8.33301 -42.666 -25 -57.999s-37.667 -23 -63 -23
s-46.333 7.5 -63 22.5s-25 34.167 -25 57.5s8.5 43 25.5 59s37.5 24 61.5 24zM185.998 -22.002c43.333 0 78.667 -6.50195 106 -19.502s41 -30.167 41 -51.5s-10.667 -37.666 -32 -48.999s-52 -17 -92 -17c-40.667 0 -71.667 5.83301 -93 17.5s-32 28.834 -32 51.501
c0 20 9.5 36.333 28.5 49s43.5 19 73.5 19zM294.999 606.996c-5.33301 -23.333 -14.832 -40.002 -28.499 -50.002s-33.167 -15 -58.5 -15c-46 0 -73.333 21.667 -82 65h-60c5.33301 -41.333 20.333 -72.666 45 -93.999s58.334 -32 101.001 -32
c41.333 0 74.166 10.833 98.499 32.5s39.166 52.834 44.499 93.501h-60z" />
    <glyph glyph-name="yen" unicode="&#xa5;" horiz-adv-x="552" 
d="M233 0h88v159h201v67h-201v70h201v73h-166l197 347h-104l-134 -248c-6 -12 -11 -21.667 -15 -29l-10.5 -19.5c-3 -5.66699 -5.5 -10.667 -7.5 -15l-7 -15.5c-4 10 -9.16699 21.5 -15.5 34.5s-13.5 26.5 -21.5 40.5l-141 252h-98l198 -347h-167v-73h203v-70h-203v-67h203
v-159z" />
    <glyph glyph-name="section" unicode="&#xa7;" horiz-adv-x="406" 
d="M239 413c-30 28 -52.1689 54.0059 -66.502 78.0059s-21.5 46.667 -21.5 68s6 38 18 50s28.333 18 49 18c9.33301 0 16.833 -2 22.5 -6s8.5 -9 8.5 -15c0 -2.66699 -0.333008 -5.33398 -1 -8.00098v-5c0 -12 3.83301 -22 11.5 -30s17.167 -12 28.5 -12
c15.333 0 27.833 5.16699 37.5 15.5s14.5 23.5 14.5 39.5c0 25.333 -11 45.833 -33 61.5s-50.667 23.5 -86 23.5c-21.333 0 -41.166 -4 -59.499 -12s-34.166 -18.833 -47.499 -32.5s-23.833 -30 -31.5 -49s-11.5 -39.5 -11.5 -61.5c0 -15.333 2.33301 -31.5 7 -48.5
s11.334 -32.833 20.001 -47.5c-44 -40 -66 -86.333 -66 -139c0 -22.667 3.5 -45.834 10.5 -69.501s16.833 -45.834 29.5 -66.501c8 -12.667 18.167 -26.334 30.5 -41.001s29.166 -32.667 50.499 -54l31.5 -33c8.33301 -8.66699 15.166 -16.167 20.499 -22.5
s10 -12.333 14 -18l13 -18.5c17.333 -27.333 26 -51.333 26 -72c0 -19.333 -7.16699 -36.166 -21.5 -50.499s-31.166 -21.5 -50.499 -21.5c-6 0 -11.333 1.66699 -16 5s-7 7.33301 -7 12c0 1.33301 0.166992 2.66602 0.5 3.99902s0.833008 3.66602 1.5 6.99902
c0.666992 2 1 5.66699 1 11c0 14 -4.5 25.5 -13.5 34.5s-20.5 13.5 -34.5 13.5c-15.333 0 -28.333 -6 -39 -18s-16 -26.667 -16 -44c0 -26 11.167 -47.333 33.5 -64s50.5 -25 84.5 -25c21.333 0 41.333 4 60 12s35 18.833 49 32.5s25 29.667 33 48s12 38.166 12 59.499
c0 19.333 -3 38.333 -9 57s-14.667 36.334 -26 53.001c26.667 26.667 45.667 51.667 57 75s17 50 17 80c0 29.333 -5.33301 55.666 -16 78.999c-8 18 -18.833 36.667 -32.5 56s-27.167 35.333 -40.5 48zM187.998 338.006l24 -24.001l27 -27.5l19 -19.5
c25.333 -28.667 38 -59.667 38 -93c0 -13.333 -3.33301 -27.833 -10 -43.5s-15.667 -29.167 -27 -40.5l-49 52l-24 25.5c-6.66699 7 -12.334 13.333 -17.001 19l-12.5 15l-11.5 13.5c-11.333 15.333 -20.166 31.333 -26.499 48s-9.5 32.334 -9.5 47.001
c0 14 2.16699 26.333 6.5 37s12.5 23 24.5 37z" />
    <glyph glyph-name="dieresis" unicode="&#xa8;" horiz-adv-x="333" 
d="M68 612c-14.667 0 -27 -5 -37 -15s-15 -22 -15 -36c0 -14.667 5 -27 15 -37s22.333 -15 37 -15c14 0 26 5 36 15s15 22.333 15 37c0 14 -5 26 -15 36s-22 15 -36 15zM265 612c-14 0 -26 -5 -36 -15s-15 -22 -15 -36c0 -14.667 5 -27 15 -37s22 -15 36 -15
c14.667 0 27 5 37 15s15 22.333 15 37c0 14 -5 26 -15 36s-22.333 15 -37 15z" />
    <glyph glyph-name="copyright" unicode="&#xa9;" horiz-adv-x="740" 
d="M488 300c-7.33301 -29.333 -21.8311 -52.332 -43.498 -68.999s-47.5 -25 -77.5 -25c-38 0 -68 13.333 -90 40s-33 63.667 -33 111s11.5 85 34.5 113s54.167 42 93.5 42c26 0 48.667 -6.5 68 -19.5s33.666 -31.5 42.999 -55.5l58 14
c-11.333 37.333 -31.333 65.833 -60 85.5s-64.334 29.5 -107.001 29.5c-61.333 0 -109.5 -18.333 -144.5 -55s-52.5 -87.334 -52.5 -152.001c0 -32 4.5 -61 13.5 -87s22 -48.167 39 -66.5s37.333 -32.5 61 -42.5s50.167 -15 79.5 -15c46 0 84.667 11.833 116 35.5
s52 56.5 62 98.5zM370.002 728.001c-51.333 0 -99.333 -9.66699 -144 -29s-83.667 -45.666 -117 -78.999s-59.666 -72.333 -78.999 -117s-29 -92.334 -29 -143.001c0 -51.333 9.66699 -99.333 29 -144s45.666 -83.667 78.999 -117s72.333 -59.666 117 -78.999
s92.667 -29 144 -29c50.667 0 98.334 9.66699 143.001 29s83.667 45.666 117 78.999s59.666 72.333 78.999 117s29 92.667 29 144c0 50.667 -9.66699 98.334 -29 143.001s-45.666 83.667 -78.999 117s-72.333 59.666 -117 78.999s-92.334 29 -143.001 29zM370.002 667.001
c42 0 81.667 -8 119 -24s70 -38 98 -66s50 -60.667 66 -98s24 -77 24 -119c0 -42.667 -8 -82.667 -24 -120s-38 -70 -66 -98s-60.667 -50 -98 -66s-77 -24 -119 -24c-42.667 0 -82.667 8 -120 24s-69.833 38 -97.5 66s-49.5 60.667 -65.5 98s-24 77.333 -24 120
c0 42 8 81.667 24 119s37.833 70 65.5 98s60.167 50 97.5 66s77.333 24 120 24z" />
    <glyph glyph-name="ordfeminine" unicode="&#xaa;" horiz-adv-x="281" 
d="M273 474c-11.333 -7.33301 -19.6641 -12.502 -24.9971 -15.502s-9.33301 -4.5 -12 -4.5c-2 0 -3.33301 1.33301 -4 4s-1 8.66699 -1 18v101c0 40.667 -8.5 69.834 -25.5 87.501s-45.167 26.5 -84.5 26.5c-43.333 0 -77 -13 -101 -39v-69
c19.333 19.333 36.166 32.833 50.499 40.5s30.166 11.5 47.499 11.5c29.333 0 44 -14.667 44 -44v-12l-44 -14l-23 -8c-25.333 -8 -45 -18.667 -59 -32s-21 -28.666 -21 -45.999c0 -20 7.16699 -36.667 21.5 -50s32.166 -20 53.499 -20c12.667 0 25.5 2 38.5 6
s25.167 9.66699 36.5 17c6 -15.333 21.333 -23 46 -23c10 0 19 1.5 27 4.5s19.667 9.16699 35 18.5v42zM163.002 542.998v-72.002c-9.33301 -7.33301 -17 -12.166 -23 -14.499s-13 -3.5 -21 -3.5c-23.333 0 -35 11.333 -35 34c0 10 3.5 18.333 10.5 25
s19.5 13.334 37.5 20.001z" />
    <glyph glyph-name="logicalnot" unicode="&#xac;" horiz-adv-x="667" 
d="M68 476v-64h467v-238h64v302h-531z" />
    <glyph glyph-name="registered" unicode="&#xae;" horiz-adv-x="740" 
d="M208 156h64.0029v168h38c12 0 22.667 -1.33301 32 -4s18.166 -7.83398 26.499 -15.501s17.166 -18.5 26.499 -32.5s20.333 -32 33 -54l35 -62h78l-48 77c-20 32 -36.5 55.167 -49.5 69.5s-27.167 24.166 -42.5 29.499v2c33.333 2 60.5 13.333 81.5 34
s31.5 46.334 31.5 77.001c0 20 -5.83301 38.833 -17.5 56.5s-26.5 30.167 -44.5 37.5c-6.66699 2.66699 -13.167 4.83398 -19.5 6.50098s-13.5 3 -21.5 4s-17.333 1.66699 -28 2s-23.334 0.5 -38.001 0.5h-137v-396zM272.003 379l-0.000976562 118.999h73
c38 0 64.333 -4.33301 79 -13s22 -24 22 -46c0 -21.333 -7.66699 -36.666 -23 -45.999s-39.666 -14 -72.999 -14h-78zM370.002 727.999c-51.333 0 -99.333 -9.66699 -144 -29s-83.667 -45.666 -117 -78.999s-59.666 -72.333 -78.999 -117s-29 -92.334 -29 -143.001
c0 -51.333 9.66699 -99.333 29 -144s45.666 -83.667 78.999 -117s72.333 -59.666 117 -78.999s92.667 -29 144 -29c50.667 0 98.334 9.66699 143.001 29s83.667 45.666 117 78.999s59.666 72.333 78.999 117s29 92.667 29 144c0 50.667 -9.66699 98.334 -29 143.001
s-45.666 83.667 -78.999 117s-72.333 59.666 -117 78.999s-92.334 29 -143.001 29zM370.002 666.999c42 0 81.667 -8 119 -24s70 -38 98 -66s50 -60.667 66 -98s24 -77 24 -119c0 -42.667 -8 -82.667 -24 -120s-38 -70 -66 -98s-60.667 -50 -98 -66s-77 -24 -119 -24
c-42.667 0 -82.667 8 -120 24s-69.833 38 -97.5 66s-49.5 60.667 -65.5 98s-24 77.333 -24 120c0 42 8 81.667 24 119s37.833 70 65.5 98s60.167 50 97.5 66s77.333 24 120 24z" />
    <glyph glyph-name="uni00AF" unicode="&#xaf;" horiz-adv-x="333" 
d="M14 518h305v72h-305v-72z" />
    <glyph glyph-name="uni00AF" unicode="&#x2c9;" horiz-adv-x="333" 
d="M14 518h305v72h-305v-72z" />
    <glyph glyph-name="degree" unicode="&#xb0;" horiz-adv-x="396" 
d="M62 593c0 -18.667 3.5 -36.334 10.5 -53.001s16.667 -31.167 29 -43.5s26.833 -22 43.5 -29s34.334 -10.5 53.001 -10.5s36.167 3.5 52.5 10.5s30.666 16.667 42.999 29s22 26.833 29 43.5s10.5 34.334 10.5 53.001s-3.5 36.167 -10.5 52.5s-16.667 30.666 -29 42.999
s-26.666 22 -42.999 29s-33.833 10.5 -52.5 10.5s-36.334 -3.5 -53.001 -10.5s-31.167 -16.667 -43.5 -29s-22 -26.666 -29 -42.999s-10.5 -33.833 -10.5 -52.5zM115 593c0 22.667 8 42 24 58s35.667 24 59 24s42.833 -8 58.5 -24s23.5 -35.333 23.5 -58
c0 -23.333 -8 -43 -24 -59s-35.333 -24 -58 -24s-42.167 8 -58.5 24s-24.5 35.667 -24.5 59z" />
    <glyph glyph-name="plusminus" unicode="&#xb1;" horiz-adv-x="667" 
d="M68 437v-64h233v-233h64v233h234v64h-234v234h-64v-234h-233zM68 42v-64h531v64h-531z" />
    <glyph glyph-name="acute" unicode="&#xb4;" horiz-adv-x="333" 
d="M109 502h72l108 136h-115z" />
    <glyph glyph-name="uni00B5" unicode="&#xb5;" horiz-adv-x="552" 
d="M465 449l-84.999 -0.000976562v-191v-29c0 -22 -0.666992 -40.667 -2 -56s-3.5 -28.5 -6.5 -39.5s-7.16699 -20.5 -12.5 -28.5s-12 -15.667 -20 -23s-17.833 -13.166 -29.5 -17.499s-23.834 -6.5 -36.501 -6.5c-27.333 0 -50.666 10.667 -69.999 32
c-6 6.66699 -11 14 -15 22s-7.16699 17.5 -9.5 28.5s-4 23.833 -5 38.5s-1.5 32 -1.5 52v28v190h-85v-621h85v217h2c15.333 -20.667 30.5 -35.167 45.5 -43.5s34.167 -12.5 57.5 -12.5c25.333 0 46.166 4.83301 62.499 14.5s31.5 26.167 45.5 49.5h2v-53h78v449z" />
    <glyph glyph-name="uni00B5" unicode="&#x3bc;" horiz-adv-x="552" 
d="M465 449l-84.999 -0.000976562v-191v-29c0 -22 -0.666992 -40.667 -2 -56s-3.5 -28.5 -6.5 -39.5s-7.16699 -20.5 -12.5 -28.5s-12 -15.667 -20 -23s-17.833 -13.166 -29.5 -17.499s-23.834 -6.5 -36.501 -6.5c-27.333 0 -50.666 10.667 -69.999 32
c-6 6.66699 -11 14 -15 22s-7.16699 17.5 -9.5 28.5s-4 23.833 -5 38.5s-1.5 32 -1.5 52v28v190h-85v-621h85v217h2c15.333 -20.667 30.5 -35.167 45.5 -43.5s34.167 -12.5 57.5 -12.5c25.333 0 46.166 4.83301 62.499 14.5s31.5 26.167 45.5 49.5h2v-53h78v449z" />
    <glyph glyph-name="paragraph" unicode="&#xb6;" horiz-adv-x="542" 
d="M198 -199l80.001 0.000976562v830h109v-830h83v830h70v85h-309c-14.667 0 -27.5 -0.333008 -38.5 -1s-21 -1.83398 -30 -3.50098s-17.667 -4 -26 -7s-17.5 -6.83301 -27.5 -11.5c-34.667 -16 -61.334 -39.833 -80.001 -71.5s-28 -68.167 -28 -109.5
c0 -29.333 4.66699 -56 14 -80s22.5 -44.667 39.5 -62s37.667 -31 62 -41s51.5 -16 81.5 -18v-510z" />
    <glyph glyph-name="periodcentered" unicode="&#xb7;" horiz-adv-x="260" 
d="M130 400c-15.333 0 -28.166 -5.33105 -38.499 -15.998s-15.5 -23.667 -15.5 -39c0 -14.667 5.16699 -27.334 15.5 -38.001s23.166 -16 38.499 -16s28.166 5.16699 38.499 15.5s15.5 23.166 15.5 38.499s-5.16699 28.333 -15.5 39s-23.166 16 -38.499 16z" />
    <glyph glyph-name="periodcentered" unicode="&#x2219;" horiz-adv-x="260" 
d="M130 400c-15.333 0 -28.166 -5.33105 -38.499 -15.998s-15.5 -23.667 -15.5 -39c0 -14.667 5.16699 -27.334 15.5 -38.001s23.166 -16 38.499 -16s28.166 5.16699 38.499 15.5s15.5 23.166 15.5 38.499s-5.16699 28.333 -15.5 39s-23.166 16 -38.499 16z" />
    <glyph glyph-name="cedilla" unicode="&#xb8;" horiz-adv-x="333" 
d="M105 -75l8 -0.000976562c46 -0.666992 69 -11.667 69 -33c0 -24.667 -29 -37 -87 -37c-2 0 -5.16699 0.166992 -9.5 0.5s-10.166 0.833008 -17.499 1.5h-11l-5 -57c9.33301 -1.33301 20.166 -2.66602 32.499 -3.99902s23.833 -2 34.5 -2c44 0 79 8.5 105 25.5
s39 39.5 39 67.5c0 19.333 -7.33301 35.333 -22 48s-35 20.667 -61 24l16 52h-65z" />
    <glyph glyph-name="ordmasculine" unicode="&#xba;" horiz-adv-x="365" 
d="M176 691c-22 0 -42.502 -3.33203 -61.502 -9.99902s-35.167 -16.167 -48.5 -28.5s-23.833 -26.833 -31.5 -43.5s-11.5 -35 -11.5 -55s4 -38.333 12 -55s19 -31.334 33 -44.001s30.667 -22.5 50 -29.5s40.333 -10.5 63 -10.5s43.834 3.5 63.501 10.5
s36.834 16.5 51.501 28.5s26 26.333 34 43s12 35 12 55c0 20.667 -4 39.5 -12 56.5s-19.333 31.667 -34 44s-32.167 21.833 -52.5 28.5s-42.833 10 -67.5 10zM180.998 638.001c26.667 0 48.668 -7.83105 66.001 -23.498s26 -35.834 26 -60.501s-8.5 -44.834 -25.5 -60.501
s-38.5 -23.5 -64.5 -23.5c-26.667 0 -48.334 7.66699 -65.001 23s-25 35 -25 59c0 24.667 8.33301 45.167 25 61.5s37.667 24.5 63 24.5z" />
    <glyph glyph-name="questiondown" unicode="&#xbf;" horiz-adv-x="333" 
d="M290 -85c-11.333 -5.33301 -21.1689 -9.33203 -29.502 -11.999s-17.166 -4 -26.499 -4c-21.333 0 -38 6 -50 18s-18 28.333 -18 49c0 16 3.16699 32.333 9.5 49s16.833 36.667 31.5 60l35.5 57.5c9 15 15.833 28 20.5 39s7.66699 21 9 30s2 19.167 2 30.5
c0 23.333 -4.66699 42.166 -14 56.499s-25 26.833 -47 37.5c1.33301 -5.33301 2.16602 -9.33301 2.49902 -12s0.5 -5.66699 0.5 -9c0 -28 -21.667 -74.667 -65 -140l-26 -42.5l-22 -36.5c-12 -21.333 -21.333 -43.333 -28 -66s-10 -44.667 -10 -66c0 -20 4 -39.333 12 -58
s19 -34.667 33 -48c14.667 -13.333 30.834 -23 48.501 -29s39.834 -9.33301 66.501 -10zM139.997 450.001c0 -17.333 5.83105 -31.833 17.498 -43.5s26.167 -17.5 43.5 -17.5c16.667 0 30.834 5.83301 42.501 17.5s17.5 26.167 17.5 43.5s-5.66699 31.5 -17 42.5
s-25.666 16.5 -42.999 16.5s-31.833 -5.66699 -43.5 -17s-17.5 -25.333 -17.5 -42z" />
    <glyph glyph-name="Agrave" unicode="&#xc0;" horiz-adv-x="667" 
d="M362 686h-69l-293 -686h100l86 201h290l91 -201h100zM326 536l110 -247h-212zM394 728l-66 136h-118l113 -136h71z" />
    <glyph glyph-name="Aacute" unicode="&#xc1;" horiz-adv-x="667" 
d="M362 686h-69l-293 -686h100l86 201h290l91 -201h100zM326 536l110 -247h-212zM276 728h72l108 136h-115z" />
    <glyph glyph-name="Acircumflex" unicode="&#xc2;" horiz-adv-x="667" 
d="M362 686h-69l-293 -686h100l86 201h290l91 -201h100zM326 536l110 -247h-212zM335 811l53 -83h100l-110 136h-93l-106 -136h100z" />
    <glyph glyph-name="Atilde" unicode="&#xc3;" horiz-adv-x="667" 
d="M362 686h-69l-293 -686h100l86 201h290l91 -201h100zM326 536l110 -247h-212zM235 740l0.00195312 4.00098c0 12.667 3.33301 22.834 10 30.501s15.667 11.5 27 11.5c5.33301 0 11 -0.833008 17 -2.5s13.333 -4.83398 22 -9.50098l18 -10c26.667 -15.333 51 -23 73 -23
c29.333 0 52.166 9.66699 68.499 29s25.166 47 26.499 83h-64c-2 -16 -5.5 -27.167 -10.5 -33.5s-13.167 -9.5 -24.5 -9.5c-6 0 -12.167 1 -18.5 3s-13.166 4.66699 -20.499 8l-15 7c-28.667 15.333 -53.334 23 -74.001 23c-29.333 0 -53.333 -9.83301 -72 -29.5
s-28 -44.834 -28 -75.501v-6h65z" />
    <glyph glyph-name="Adieresis" unicode="&#xc4;" horiz-adv-x="667" 
d="M362 686h-69l-293 -686h100l86 201h290l91 -201h100zM326 536l110 -247h-212zM235 838c-14.667 0 -27 -5 -37 -15s-15 -22 -15 -36c0 -14.667 5 -27 15 -37s22.333 -15 37 -15c14 0 26 5 36 15s15 22.333 15 37c0 14 -5 26 -15 36s-22 15 -36 15zM432 838
c-14 0 -26 -5 -36 -15s-15 -22 -15 -36c0 -14.667 5 -27 15 -37s22 -15 36 -15c14.667 0 27 5 37 15s15 22.333 15 37c0 14 -5 26 -15 36s-22.333 15 -37 15z" />
    <glyph glyph-name="Aring" unicode="&#xc5;" horiz-adv-x="667" 
d="M362 686h-69l-293 -686h100l86 201h290l91 -201h100zM326 536l110 -247h-212zM246 796c0 -12 2.33301 -23.5 7 -34.5s11 -20.5 19 -28.5s17.333 -14.333 28 -19s22 -7 34 -7c24.667 0 45.5 8.5 62.5 25.5s25.5 38.167 25.5 63.5s-8.5 46.5 -25.5 63.5
s-37.833 25.5 -62.5 25.5c-12 0 -23.333 -2.33301 -34 -7s-20 -11 -28 -19s-14.333 -17.5 -19 -28.5s-7 -22.5 -7 -34.5zM283 797c0 14.667 5.16699 27.167 15.5 37.5s22.5 15.5 36.5 15.5c14.667 0 27 -5.16699 37 -15.5s15 -22.833 15 -37.5
c0 -15.333 -5.16699 -28.166 -15.5 -38.499s-22.5 -15.5 -36.5 -15.5s-26.167 5.16699 -36.5 15.5s-15.5 23.166 -15.5 38.499z" />
    <glyph glyph-name="AE" unicode="&#xc6;" horiz-adv-x="896" 
d="M851 682h-445l-404 -682h107l178 301h186v-301h389v88h-291v213h271v88h-271v206h280v87zM471 616h2v-227h-135z" />
    <glyph glyph-name="Ccedilla" unicode="&#xc7;" horiz-adv-x="708" 
d="M656 635c-47.333 20 -89.5 34.3301 -126.5 42.9971s-74.5 13 -112.5 13c-52 0 -100.5 -9 -145.5 -27s-84 -42.833 -117 -74.5s-59 -69 -78 -112s-28.5 -89.167 -28.5 -138.5c0 -52 11 -101.333 33 -148s53 -86.667 93 -120c33.333 -28 69.333 -48.333 108 -61
s83 -19 133 -19c46.667 0 90.167 4.83301 130.5 14.5s79.5 24.834 117.5 45.501v107c-79.333 -50.667 -160 -76 -242 -76c-39.333 0 -75.666 6.33301 -108.999 19s-62 30.334 -86 53.001s-42.667 49.834 -56 81.501s-20 66.167 -20 103.5s6.83301 71.833 20.5 103.5
s32.667 59 57 82s53 41 86 54s69.167 19.5 108.5 19.5s77.666 -5.5 114.999 -16.5s77 -28.167 119 -51.5v105zM293 -75.0029l8 -0.000976562c46 -0.666992 69 -11.667 69 -33c0 -24.667 -29 -37 -87 -37c-2 0 -5.16699 0.166992 -9.5 0.5s-10.166 0.833008 -17.499 1.5h-11
l-5 -57c9.33301 -1.33301 20.166 -2.66602 32.499 -3.99902s23.833 -2 34.5 -2c44 0 79 8.5 105 25.5s39 39.5 39 67.5c0 19.333 -7.33301 35.333 -22 48s-35 20.667 -61 24l16 52h-65z" />
    <glyph glyph-name="Egrave" unicode="&#xc8;" 
d="M462 682h-387v-682h396v88h-298v212h279v87h-279v208h289v87zM311 728l-66 136h-118l113 -136h71z" />
    <glyph glyph-name="Eacute" unicode="&#xc9;" 
d="M462 682h-387v-682h396v88h-298v212h279v87h-279v208h289v87zM193 728h72l108 136h-115z" />
    <glyph glyph-name="Ecircumflex" unicode="&#xca;" 
d="M462 682h-387v-682h396v88h-298v212h279v87h-279v208h289v87zM252 811l53 -83h100l-110 136h-93l-106 -136h100z" />
    <glyph glyph-name="Edieresis" unicode="&#xcb;" 
d="M462 682h-387v-682h396v88h-298v212h279v87h-279v208h289v87zM152 838c-14.667 0 -27 -5 -37 -15s-15 -22 -15 -36c0 -14.667 5 -27 15 -37s22.333 -15 37 -15c14 0 26 5 36 15s15 22.333 15 37c0 14 -5 26 -15 36s-22 15 -36 15zM349 838c-14 0 -26 -5 -36 -15
s-15 -22 -15 -36c0 -14.667 5 -27 15 -37s22 -15 36 -15c14.667 0 27 5 37 15s15 22.333 15 37c0 14 -5 26 -15 36s-22.333 15 -37 15z" />
    <glyph glyph-name="Igrave" unicode="&#xcc;" horiz-adv-x="250" 
d="M174 682h-98v-682h98v682zM186 728l-66 136h-118l113 -136h71z" />
    <glyph glyph-name="Iacute" unicode="&#xcd;" horiz-adv-x="250" 
d="M174 682h-98v-682h98v682zM68 728h72l108 136h-115z" />
    <glyph glyph-name="Icircumflex" unicode="&#xce;" horiz-adv-x="250" 
d="M174 682h-98v-682h98v682zM127 811l53 -83h100l-110 136h-93l-106 -136h100z" />
    <glyph glyph-name="Idieresis" unicode="&#xcf;" horiz-adv-x="250" 
d="M174 682h-98v-682h98v682zM27 838c-14.667 0 -27 -5 -37 -15s-15 -22 -15 -36c0 -14.667 5 -27 15 -37s22.333 -15 37 -15c14 0 26 5 36 15s15 22.333 15 37c0 14 -5 26 -15 36s-22 15 -36 15zM224 838c-14 0 -26 -5 -36 -15s-15 -22 -15 -36c0 -14.667 5 -27 15 -37
s22 -15 36 -15c14.667 0 27 5 37 15s15 22.333 15 37c0 14 -5 26 -15 36s-22.333 15 -37 15z" />
    <glyph glyph-name="Eth" unicode="&#xd0;" horiz-adv-x="740" 
d="M673 335l-228.997 0.00195312v-86h131v-142l-9 -3c-16.667 -5.33301 -31.334 -9.66602 -44.001 -12.999s-24.334 -6 -35.001 -8s-20.834 -3.5 -30.501 -4.5s-19.834 -1.5 -30.501 -1.5c-40 0 -76.833 6.5 -110.5 19.5s-62.667 31.167 -87 54.5
s-43.166 51.166 -56.499 83.499s-20 67.833 -20 106.5c0 36.667 6.83301 71.167 20.5 103.5s32.334 60.166 56.001 83.499s51.667 41.833 84 55.5s67.166 20.5 104.499 20.5c40 0 80.333 -6 121 -18s81 -29.667 121 -53v100c-26 10.667 -49.667 19.834 -71 27.501
s-41.166 13.667 -59.499 18s-36.333 7.5 -54 9.5s-36.167 3 -55.5 3c-52.667 0 -101.5 -9 -146.5 -27s-84 -42.833 -117 -74.5s-58.833 -69.334 -77.5 -113.001s-28 -90.834 -28 -141.501c0 -94.667 33 -175 99 -241c36 -36 76 -62.167 120 -78.5s95.333 -24.5 154 -24.5
c42.667 0 83.667 4.5 123 13.5s81.666 23.167 126.999 42.5v288zM446.003 848.002c-5.33301 -23.333 -14.832 -40.002 -28.499 -50.002s-33.167 -15 -58.5 -15c-46 0 -73.333 21.667 -82 65h-60c5.33301 -41.333 20.333 -72.666 45 -93.999s58.334 -32 101.001 -32
c41.333 0 74.166 10.833 98.499 32.5s39.166 52.834 44.499 93.501h-60z" />
    <glyph glyph-name="Ntilde" unicode="&#xd1;" horiz-adv-x="781" 
d="M710 682h-93v-529l-460 529h-79v-682h92v525l456 -525h84v682zM292 740l0.00195312 4.00098c0 12.667 3.33301 22.834 10 30.501s15.667 11.5 27 11.5c5.33301 0 11 -0.833008 17 -2.5s13.333 -4.83398 22 -9.50098l18 -10c26.667 -15.333 51 -23 73 -23
c29.333 0 52.166 9.66699 68.499 29s25.166 47 26.499 83h-64c-2 -16 -5.5 -27.167 -10.5 -33.5s-13.167 -9.5 -24.5 -9.5c-6 0 -12.167 1 -18.5 3s-13.166 4.66699 -20.499 8l-15 7c-28.667 15.333 -53.334 23 -74.001 23c-29.333 0 -53.333 -9.83301 -72 -29.5
s-28 -44.834 -28 -75.501v-6h65z" />
    <glyph glyph-name="Ograve" unicode="&#xd2;" horiz-adv-x="823" 
d="M410 691c-52.667 0 -101.332 -8.83398 -145.999 -26.501s-83.167 -42 -115.5 -73s-57.666 -68.167 -75.999 -111.5s-27.5 -90.333 -27.5 -141c0 -50 9.16699 -96.167 27.5 -138.5s43.5 -79 75.5 -110s70 -55.333 114 -73s91.667 -26.5 143 -26.5
c54 0 103.667 8.83301 149 26.5s84.666 42 117.999 73s59.333 67.833 78 110.5s28 89.334 28 140.001c0 50 -9.33301 96.5 -28 139.5s-44.334 80 -77.001 111s-71.5 55.333 -116.5 73s-93.833 26.5 -146.5 26.5zM414.002 598.999c37.333 0 72 -6.66797 104 -20.001
s59.833 -31.5 83.5 -54.5s42.334 -50 56.001 -81s20.5 -64.5 20.5 -100.5c0 -37.333 -6.83301 -71.833 -20.5 -103.5s-32.334 -59.167 -56.001 -82.5s-51.834 -41.666 -84.501 -54.999s-68 -20 -106 -20s-73.167 6.5 -105.5 19.5s-60.333 31 -84 54
s-42.167 50.167 -55.5 81.5s-20 65.333 -20 102c0 38 6.66699 72.833 20 104.5s31.833 59 55.5 82s51.834 41 84.501 54s68.667 19.5 108 19.5zM472.002 727.998l-66 136h-118l113 -136h71z" />
    <glyph glyph-name="Oacute" unicode="&#xd3;" horiz-adv-x="823" 
d="M410 691c-52.667 0 -101.332 -8.83398 -145.999 -26.501s-83.167 -42 -115.5 -73s-57.666 -68.167 -75.999 -111.5s-27.5 -90.333 -27.5 -141c0 -50 9.16699 -96.167 27.5 -138.5s43.5 -79 75.5 -110s70 -55.333 114 -73s91.667 -26.5 143 -26.5
c54 0 103.667 8.83301 149 26.5s84.666 42 117.999 73s59.333 67.833 78 110.5s28 89.334 28 140.001c0 50 -9.33301 96.5 -28 139.5s-44.334 80 -77.001 111s-71.5 55.333 -116.5 73s-93.833 26.5 -146.5 26.5zM414.002 598.999c37.333 0 72 -6.66797 104 -20.001
s59.833 -31.5 83.5 -54.5s42.334 -50 56.001 -81s20.5 -64.5 20.5 -100.5c0 -37.333 -6.83301 -71.833 -20.5 -103.5s-32.334 -59.167 -56.001 -82.5s-51.834 -41.666 -84.501 -54.999s-68 -20 -106 -20s-73.167 6.5 -105.5 19.5s-60.333 31 -84 54
s-42.167 50.167 -55.5 81.5s-20 65.333 -20 102c0 38 6.66699 72.833 20 104.5s31.833 59 55.5 82s51.834 41 84.501 54s68.667 19.5 108 19.5zM354.002 727.998h72l108 136h-115z" />
    <glyph glyph-name="Ocircumflex" unicode="&#xd4;" horiz-adv-x="823" 
d="M410 691c-52.667 0 -101.332 -8.83398 -145.999 -26.501s-83.167 -42 -115.5 -73s-57.666 -68.167 -75.999 -111.5s-27.5 -90.333 -27.5 -141c0 -50 9.16699 -96.167 27.5 -138.5s43.5 -79 75.5 -110s70 -55.333 114 -73s91.667 -26.5 143 -26.5
c54 0 103.667 8.83301 149 26.5s84.666 42 117.999 73s59.333 67.833 78 110.5s28 89.334 28 140.001c0 50 -9.33301 96.5 -28 139.5s-44.334 80 -77.001 111s-71.5 55.333 -116.5 73s-93.833 26.5 -146.5 26.5zM414.002 598.999c37.333 0 72 -6.66797 104 -20.001
s59.833 -31.5 83.5 -54.5s42.334 -50 56.001 -81s20.5 -64.5 20.5 -100.5c0 -37.333 -6.83301 -71.833 -20.5 -103.5s-32.334 -59.167 -56.001 -82.5s-51.834 -41.666 -84.501 -54.999s-68 -20 -106 -20s-73.167 6.5 -105.5 19.5s-60.333 31 -84 54
s-42.167 50.167 -55.5 81.5s-20 65.333 -20 102c0 38 6.66699 72.833 20 104.5s31.833 59 55.5 82s51.834 41 84.501 54s68.667 19.5 108 19.5zM413.002 810.998l53 -83h100l-110 136h-93l-106 -136h100z" />
    <glyph glyph-name="Otilde" unicode="&#xd5;" horiz-adv-x="823" 
d="M410 691c-52.667 0 -101.332 -8.83398 -145.999 -26.501s-83.167 -42 -115.5 -73s-57.666 -68.167 -75.999 -111.5s-27.5 -90.333 -27.5 -141c0 -50 9.16699 -96.167 27.5 -138.5s43.5 -79 75.5 -110s70 -55.333 114 -73s91.667 -26.5 143 -26.5
c54 0 103.667 8.83301 149 26.5s84.666 42 117.999 73s59.333 67.833 78 110.5s28 89.334 28 140.001c0 50 -9.33301 96.5 -28 139.5s-44.334 80 -77.001 111s-71.5 55.333 -116.5 73s-93.833 26.5 -146.5 26.5zM414.002 598.999c37.333 0 72 -6.66797 104 -20.001
s59.833 -31.5 83.5 -54.5s42.334 -50 56.001 -81s20.5 -64.5 20.5 -100.5c0 -37.333 -6.83301 -71.833 -20.5 -103.5s-32.334 -59.167 -56.001 -82.5s-51.834 -41.666 -84.501 -54.999s-68 -20 -106 -20s-73.167 6.5 -105.5 19.5s-60.333 31 -84 54
s-42.167 50.167 -55.5 81.5s-20 65.333 -20 102c0 38 6.66699 72.833 20 104.5s31.833 59 55.5 82s51.834 41 84.501 54s68.667 19.5 108 19.5zM313.002 739.998l0.00195312 4.00098c0 12.667 3.33301 22.834 10 30.501s15.667 11.5 27 11.5c5.33301 0 11 -0.833008 17 -2.5
s13.333 -4.83398 22 -9.50098l18 -10c26.667 -15.333 51 -23 73 -23c29.333 0 52.166 9.66699 68.499 29s25.166 47 26.499 83h-64c-2 -16 -5.5 -27.167 -10.5 -33.5s-13.167 -9.5 -24.5 -9.5c-6 0 -12.167 1 -18.5 3s-13.166 4.66699 -20.499 8l-15 7
c-28.667 15.333 -53.334 23 -74.001 23c-29.333 0 -53.333 -9.83301 -72 -29.5s-28 -44.834 -28 -75.501v-6h65z" />
    <glyph glyph-name="Odieresis" unicode="&#xd6;" horiz-adv-x="823" 
d="M410 691c-52.667 0 -101.332 -8.83398 -145.999 -26.501s-83.167 -42 -115.5 -73s-57.666 -68.167 -75.999 -111.5s-27.5 -90.333 -27.5 -141c0 -50 9.16699 -96.167 27.5 -138.5s43.5 -79 75.5 -110s70 -55.333 114 -73s91.667 -26.5 143 -26.5
c54 0 103.667 8.83301 149 26.5s84.666 42 117.999 73s59.333 67.833 78 110.5s28 89.334 28 140.001c0 50 -9.33301 96.5 -28 139.5s-44.334 80 -77.001 111s-71.5 55.333 -116.5 73s-93.833 26.5 -146.5 26.5zM414.002 598.999c37.333 0 72 -6.66797 104 -20.001
s59.833 -31.5 83.5 -54.5s42.334 -50 56.001 -81s20.5 -64.5 20.5 -100.5c0 -37.333 -6.83301 -71.833 -20.5 -103.5s-32.334 -59.167 -56.001 -82.5s-51.834 -41.666 -84.501 -54.999s-68 -20 -106 -20s-73.167 6.5 -105.5 19.5s-60.333 31 -84 54
s-42.167 50.167 -55.5 81.5s-20 65.333 -20 102c0 38 6.66699 72.833 20 104.5s31.833 59 55.5 82s51.834 41 84.501 54s68.667 19.5 108 19.5zM313.002 837.998c-14.667 0 -27 -5 -37 -15s-15 -22 -15 -36c0 -14.667 5 -27 15 -37s22.333 -15 37 -15c14 0 26 5 36 15
s15 22.333 15 37c0 14 -5 26 -15 36s-22 15 -36 15zM510.002 837.998c-14 0 -26 -5 -36 -15s-15 -22 -15 -36c0 -14.667 5 -27 15 -37s22 -15 36 -15c14.667 0 27 5 37 15s15 22.333 15 37c0 14 -5 26 -15 36s-22.333 15 -37 15z" />
    <glyph glyph-name="Oslash" unicode="&#xd8;" horiz-adv-x="823" 
d="M717 653l-45.999 39.999l-48 -59c-35.333 20 -69.5 34.5 -102.5 43.5s-69.167 13.5 -108.5 13.5c-53.333 0 -102.333 -8.83301 -147 -26.5s-83.334 -42.167 -116.001 -73.5s-58.167 -68.666 -76.5 -111.999s-27.5 -90.333 -27.5 -141c0 -48.667 9.16699 -95 27.5 -139
s44.5 -81.333 78.5 -112l-47 -58l47 -33l49 53c28 -19.333 59.833 -33.833 95.5 -43.5s74.167 -14.5 115.5 -14.5c52.667 0 101.5 8.83301 146.5 26.5s83.833 42.167 116.5 73.5s58.167 68.5 76.5 111.5s27.5 89.833 27.5 140.5c0 50 -9.33301 97 -28 141
s-45 81.667 -79 113zM605.001 522.999c22.667 -22.667 40.332 -49.667 52.999 -81s19 -64 19 -98c0 -38 -6.66699 -72.833 -20 -104.5s-31.833 -59.167 -55.5 -82.5s-51.667 -41.5 -84 -54.5s-67.833 -19.5 -106.5 -19.5c-27.333 0 -52.666 3.16699 -75.999 9.5
s-47.333 16.5 -72 30.5zM215.999 159.999c-10.667 12 -18.502 21.499 -23.502 28.499s-10.167 15.5 -15.5 25.5c-9.33301 18 -16.666 38.5 -21.999 61.5s-8 45.167 -8 66.5c0 36.667 6.66699 70.834 20 102.501s31.833 59 55.5 82s51.834 41 84.501 54s68 19.5 106 19.5
c28 0 53.333 -3 76 -9s46 -16 70 -30z" />
    <glyph glyph-name="Ugrave" unicode="&#xd9;" horiz-adv-x="708" 
d="M647 682l-97.001 0.00292969v-387c0 -16 -0.666992 -33 -2 -51s-3 -31.667 -5 -41c-7.33301 -38 -28.166 -68.333 -62.499 -91s-76.5 -34 -126.5 -34c-64.667 0 -115.334 19 -152.001 57c-8.66699 8.66699 -15.667 17.667 -21 27s-9.66602 20 -12.999 32
s-5.66602 26.167 -6.99902 42.5s-2 35.833 -2 58.5v387h-98v-386c0 -18.667 0.166992 -34.167 0.5 -46.5s1 -23.5 2 -33.5s2.66699 -19.333 5 -28s5.16602 -18.334 8.49902 -29.001c8 -26 20.5 -49.333 37.5 -70s37.5 -38.334 61.5 -53.001s51.167 -25.834 81.5 -33.501
s62.833 -11.5 97.5 -11.5c88 0 159.667 24.667 215 74c29.333 26 50 58 62 96c3.33301 10.667 6 20 8 28s3.5 16.833 4.5 26.5s1.66699 20.667 2 33s0.5 27.833 0.5 46.5v387zM414.999 728.003l-66 136h-118l113 -136h71z" />
    <glyph glyph-name="Uacute" unicode="&#xda;" horiz-adv-x="708" 
d="M647 682l-97.001 0.00292969v-387c0 -16 -0.666992 -33 -2 -51s-3 -31.667 -5 -41c-7.33301 -38 -28.166 -68.333 -62.499 -91s-76.5 -34 -126.5 -34c-64.667 0 -115.334 19 -152.001 57c-8.66699 8.66699 -15.667 17.667 -21 27s-9.66602 20 -12.999 32
s-5.66602 26.167 -6.99902 42.5s-2 35.833 -2 58.5v387h-98v-386c0 -18.667 0.166992 -34.167 0.5 -46.5s1 -23.5 2 -33.5s2.66699 -19.333 5 -28s5.16602 -18.334 8.49902 -29.001c8 -26 20.5 -49.333 37.5 -70s37.5 -38.334 61.5 -53.001s51.167 -25.834 81.5 -33.501
s62.833 -11.5 97.5 -11.5c88 0 159.667 24.667 215 74c29.333 26 50 58 62 96c3.33301 10.667 6 20 8 28s3.5 16.833 4.5 26.5s1.66699 20.667 2 33s0.5 27.833 0.5 46.5v387zM296.999 728.003h72l108 136h-115z" />
    <glyph glyph-name="Ucircumflex" unicode="&#xdb;" horiz-adv-x="708" 
d="M647 682l-97.001 0.00292969v-387c0 -16 -0.666992 -33 -2 -51s-3 -31.667 -5 -41c-7.33301 -38 -28.166 -68.333 -62.499 -91s-76.5 -34 -126.5 -34c-64.667 0 -115.334 19 -152.001 57c-8.66699 8.66699 -15.667 17.667 -21 27s-9.66602 20 -12.999 32
s-5.66602 26.167 -6.99902 42.5s-2 35.833 -2 58.5v387h-98v-386c0 -18.667 0.166992 -34.167 0.5 -46.5s1 -23.5 2 -33.5s2.66699 -19.333 5 -28s5.16602 -18.334 8.49902 -29.001c8 -26 20.5 -49.333 37.5 -70s37.5 -38.334 61.5 -53.001s51.167 -25.834 81.5 -33.501
s62.833 -11.5 97.5 -11.5c88 0 159.667 24.667 215 74c29.333 26 50 58 62 96c3.33301 10.667 6 20 8 28s3.5 16.833 4.5 26.5s1.66699 20.667 2 33s0.5 27.833 0.5 46.5v387zM355.999 811.003l53 -83h100l-110 136h-93l-106 -136h100z" />
    <glyph glyph-name="Udieresis" unicode="&#xdc;" horiz-adv-x="708" 
d="M647 682l-97.001 0.00292969v-387c0 -16 -0.666992 -33 -2 -51s-3 -31.667 -5 -41c-7.33301 -38 -28.166 -68.333 -62.499 -91s-76.5 -34 -126.5 -34c-64.667 0 -115.334 19 -152.001 57c-8.66699 8.66699 -15.667 17.667 -21 27s-9.66602 20 -12.999 32
s-5.66602 26.167 -6.99902 42.5s-2 35.833 -2 58.5v387h-98v-386c0 -18.667 0.166992 -34.167 0.5 -46.5s1 -23.5 2 -33.5s2.66699 -19.333 5 -28s5.16602 -18.334 8.49902 -29.001c8 -26 20.5 -49.333 37.5 -70s37.5 -38.334 61.5 -53.001s51.167 -25.834 81.5 -33.501
s62.833 -11.5 97.5 -11.5c88 0 159.667 24.667 215 74c29.333 26 50 58 62 96c3.33301 10.667 6 20 8 28s3.5 16.833 4.5 26.5s1.66699 20.667 2 33s0.5 27.833 0.5 46.5v387zM255.999 838.003c-14.667 0 -27 -5 -37 -15s-15 -22 -15 -36c0 -14.667 5 -27 15 -37
s22.333 -15 37 -15c14 0 26 5 36 15s15 22.333 15 37c0 14 -5 26 -15 36s-22 15 -36 15zM452.999 838.003c-14 0 -26 -5 -36 -15s-15 -22 -15 -36c0 -14.667 5 -27 15 -37s22 -15 36 -15c14.667 0 27 5 37 15s15 22.333 15 37c0 14 -5 26 -15 36s-22.333 15 -37 15z" />
    <glyph glyph-name="Yacute" unicode="&#xdd;" horiz-adv-x="250" 
d="M174 682h-98v-682h98v682zM126 831c-14.667 0 -27 -5 -37 -15s-15 -22 -15 -36c0 -14.667 5 -27 15 -37s22.333 -15 37 -15c14 0 26 5 36 15s15 22.333 15 37c0 14 -5 26 -15 36s-22 15 -36 15z" />
    <glyph glyph-name="Thorn" unicode="&#xde;" horiz-adv-x="458" 
d="M399 643c-24.667 16.667 -49.9951 28.833 -75.9951 36.5s-53 11.5 -81 11.5c-30 0 -57.333 -4.33301 -82 -13s-45.834 -21 -63.501 -37s-31.334 -35.167 -41.001 -57.5s-14.5 -46.833 -14.5 -73.5c0 -36.667 10 -68.834 30 -96.501s53 -55.167 99 -82.5l74 -45
c29.333 -17.333 51.666 -36 66.999 -56s23 -40.667 23 -62c0 -26 -10.167 -47.5 -30.5 -64.5s-45.833 -25.5 -76.5 -25.5c-21.333 0 -43 3.83301 -65 11.5s-42.667 18.5 -62 32.5c-11.333 8 -20.5 15.5 -27.5 22.5s-16.5 18.167 -28.5 33.5v-124c56 -42 117.333 -63 184 -63
c29.333 0 56.166 4.5 80.499 13.5s45.166 21.667 62.499 38s30.833 36 40.5 59s14.5 48.167 14.5 75.5c0 78 -41.667 141 -125 189l-75 44c-34 20 -58.333 38.833 -73 56.5s-22 36.834 -22 57.501c0 23.333 10.167 42.333 30.5 57s46.5 22 78.5 22
c56.667 0 109.667 -23.667 159 -71v111zM181.005 -75.001l8 -0.000976562c46 -0.666992 69 -11.667 69 -33c0 -24.667 -29 -37 -87 -37c-2 0 -5.16699 0.166992 -9.5 0.5s-10.166 0.833008 -17.499 1.5h-11l-5 -57c9.33301 -1.33301 20.166 -2.66602 32.499 -3.99902
s23.833 -2 34.5 -2c44 0 79 8.5 105 25.5s39 39.5 39 67.5c0 19.333 -7.33301 35.333 -22 48s-35 20.667 -61 24l16 52h-65z" />
    <glyph glyph-name="uni00DF" unicode="&#xdf;" 
d="M59 0l89 0.00195312v449v40c0 46.667 7.83301 80.5 23.5 101.5s40.834 31.5 75.501 31.5c30 0 54.667 -9.83301 74 -29.5s29 -44.834 29 -75.501c0 -33.333 -9.16699 -59 -27.5 -77s-44.5 -27 -78.5 -27h-13v-81c23.333 -0.666992 41.5 -2.16699 54.5 -4.5
s25.167 -7.16602 36.5 -14.499c36.667 -22.667 55 -59.667 55 -111c0 -38.667 -9.5 -69.334 -28.5 -92.001s-44.5 -34 -76.5 -34c-10.667 0 -19 0.666992 -25 2s-14 4.33301 -24 9v-87c16 -4 28.333 -6.5 37 -7.5s19.334 -1.5 32.001 -1.5c26 0 49.667 5 71 15
s39.666 24.167 54.999 42.5s27.333 40 36 65s13 52.5 13 82.5c0 46.667 -11 85.667 -33 117s-53.333 52 -94 62v2c31.333 12.667 55.5 32.167 72.5 58.5s25.5 57.166 25.5 92.499c0 50.667 -16.833 90.5 -50.5 119.5s-79.834 43.5 -138.501 43.5
c-32 0 -60 -4.16699 -84 -12.5s-43.667 -21.166 -59 -38.499c-16 -17.333 -27.667 -39.333 -35 -66c-6.66699 -26.667 -10.667 -55.334 -12 -86.001v-39v-449z" />
    <glyph glyph-name="agrave" unicode="&#xe0;" horiz-adv-x="427" 
d="M411 80c-23.333 -16 -39.9971 -24.001 -49.9971 -24.001c-10.667 0 -16 7.66699 -16 23v20v171c0 20 -0.166992 36.167 -0.5 48.5s-1.33301 22.833 -3 31.5s-4 16.334 -7 23.001s-6.83301 14 -11.5 22c-12 19.333 -30.5 34.666 -55.5 45.999s-52.833 17 -83.5 17
c-64.667 0 -114.334 -20.333 -149.001 -61v-97c45.333 49.333 92.666 74 141.999 74c53.333 0 80 -26.667 80 -80v-24l-77 -27l-36 -12c-38 -13.333 -67 -31.166 -87 -53.499s-30 -47.5 -30 -75.5c0 -32 10.333 -58.5 31 -79.5s46.667 -31.5 78 -31.5
c40.667 0 81 15.333 121 46c6.66699 -30.667 29 -46 67 -46c13.333 0 26.166 2.5 38.499 7.5s28.5 14.167 48.5 27.5v54zM258.003 221.999v-133.001c-24.667 -23.333 -51 -35 -79 -35c-19.333 0 -34.833 5.83301 -46.5 17.5s-17.5 26.834 -17.5 45.501c0 18 6 33 18 45
s33.667 24.333 65 37zM274.003 501.998l-66 136h-118l113 -136h71z" />
    <glyph glyph-name="aacute" unicode="&#xe1;" horiz-adv-x="427" 
d="M411 80c-23.333 -16 -39.9971 -24.001 -49.9971 -24.001c-10.667 0 -16 7.66699 -16 23v20v171c0 20 -0.166992 36.167 -0.5 48.5s-1.33301 22.833 -3 31.5s-4 16.334 -7 23.001s-6.83301 14 -11.5 22c-12 19.333 -30.5 34.666 -55.5 45.999s-52.833 17 -83.5 17
c-64.667 0 -114.334 -20.333 -149.001 -61v-97c45.333 49.333 92.666 74 141.999 74c53.333 0 80 -26.667 80 -80v-24l-77 -27l-36 -12c-38 -13.333 -67 -31.166 -87 -53.499s-30 -47.5 -30 -75.5c0 -32 10.333 -58.5 31 -79.5s46.667 -31.5 78 -31.5
c40.667 0 81 15.333 121 46c6.66699 -30.667 29 -46 67 -46c13.333 0 26.166 2.5 38.499 7.5s28.5 14.167 48.5 27.5v54zM258.003 221.999v-133.001c-24.667 -23.333 -51 -35 -79 -35c-19.333 0 -34.833 5.83301 -46.5 17.5s-17.5 26.834 -17.5 45.501c0 18 6 33 18 45
s33.667 24.333 65 37zM156.003 501.998h72l108 136h-115z" />
    <glyph glyph-name="acircumflex" unicode="&#xe2;" horiz-adv-x="427" 
d="M411 80c-23.333 -16 -39.9971 -24.001 -49.9971 -24.001c-10.667 0 -16 7.66699 -16 23v20v171c0 20 -0.166992 36.167 -0.5 48.5s-1.33301 22.833 -3 31.5s-4 16.334 -7 23.001s-6.83301 14 -11.5 22c-12 19.333 -30.5 34.666 -55.5 45.999s-52.833 17 -83.5 17
c-64.667 0 -114.334 -20.333 -149.001 -61v-97c45.333 49.333 92.666 74 141.999 74c53.333 0 80 -26.667 80 -80v-24l-77 -27l-36 -12c-38 -13.333 -67 -31.166 -87 -53.499s-30 -47.5 -30 -75.5c0 -32 10.333 -58.5 31 -79.5s46.667 -31.5 78 -31.5
c40.667 0 81 15.333 121 46c6.66699 -30.667 29 -46 67 -46c13.333 0 26.166 2.5 38.499 7.5s28.5 14.167 48.5 27.5v54zM258.003 221.999v-133.001c-24.667 -23.333 -51 -35 -79 -35c-19.333 0 -34.833 5.83301 -46.5 17.5s-17.5 26.834 -17.5 45.501c0 18 6 33 18 45
s33.667 24.333 65 37zM215.003 584.998l53 -83h100l-110 136h-93l-106 -136h100z" />
    <glyph glyph-name="atilde" unicode="&#xe3;" horiz-adv-x="427" 
d="M411 80c-23.333 -16 -39.9971 -24.001 -49.9971 -24.001c-10.667 0 -16 7.66699 -16 23v20v171c0 20 -0.166992 36.167 -0.5 48.5s-1.33301 22.833 -3 31.5s-4 16.334 -7 23.001s-6.83301 14 -11.5 22c-12 19.333 -30.5 34.666 -55.5 45.999s-52.833 17 -83.5 17
c-64.667 0 -114.334 -20.333 -149.001 -61v-97c45.333 49.333 92.666 74 141.999 74c53.333 0 80 -26.667 80 -80v-24l-77 -27l-36 -12c-38 -13.333 -67 -31.166 -87 -53.499s-30 -47.5 -30 -75.5c0 -32 10.333 -58.5 31 -79.5s46.667 -31.5 78 -31.5
c40.667 0 81 15.333 121 46c6.66699 -30.667 29 -46 67 -46c13.333 0 26.166 2.5 38.499 7.5s28.5 14.167 48.5 27.5v54zM258.003 221.999v-133.001c-24.667 -23.333 -51 -35 -79 -35c-19.333 0 -34.833 5.83301 -46.5 17.5s-17.5 26.834 -17.5 45.501c0 18 6 33 18 45
s33.667 24.333 65 37zM115.003 513.998l0.00195312 4.00098c0 12.667 3.33301 22.834 10 30.501s15.667 11.5 27 11.5c5.33301 0 11 -0.833008 17 -2.5s13.333 -4.83398 22 -9.50098l18 -10c26.667 -15.333 51 -23 73 -23c29.333 0 52.166 9.66699 68.499 29
s25.166 47 26.499 83h-64c-2 -16 -5.5 -27.167 -10.5 -33.5s-13.167 -9.5 -24.5 -9.5c-6 0 -12.167 1 -18.5 3s-13.166 4.66699 -20.499 8l-15 7c-28.667 15.333 -53.334 23 -74.001 23c-29.333 0 -53.333 -9.83301 -72 -29.5s-28 -44.834 -28 -75.501v-6h65z" />
    <glyph glyph-name="adieresis" unicode="&#xe4;" horiz-adv-x="427" 
d="M411 80c-23.333 -16 -39.9971 -24.001 -49.9971 -24.001c-10.667 0 -16 7.66699 -16 23v20v171c0 20 -0.166992 36.167 -0.5 48.5s-1.33301 22.833 -3 31.5s-4 16.334 -7 23.001s-6.83301 14 -11.5 22c-12 19.333 -30.5 34.666 -55.5 45.999s-52.833 17 -83.5 17
c-64.667 0 -114.334 -20.333 -149.001 -61v-97c45.333 49.333 92.666 74 141.999 74c53.333 0 80 -26.667 80 -80v-24l-77 -27l-36 -12c-38 -13.333 -67 -31.166 -87 -53.499s-30 -47.5 -30 -75.5c0 -32 10.333 -58.5 31 -79.5s46.667 -31.5 78 -31.5
c40.667 0 81 15.333 121 46c6.66699 -30.667 29 -46 67 -46c13.333 0 26.166 2.5 38.499 7.5s28.5 14.167 48.5 27.5v54zM258.003 221.999v-133.001c-24.667 -23.333 -51 -35 -79 -35c-19.333 0 -34.833 5.83301 -46.5 17.5s-17.5 26.834 -17.5 45.501c0 18 6 33 18 45
s33.667 24.333 65 37zM115.003 611.998c-14.667 0 -27 -5 -37 -15s-15 -22 -15 -36c0 -14.667 5 -27 15 -37s22.333 -15 37 -15c14 0 26 5 36 15s15 22.333 15 37c0 14 -5 26 -15 36s-22 15 -36 15zM312.003 611.998c-14 0 -26 -5 -36 -15s-15 -22 -15 -36
c0 -14.667 5 -27 15 -37s22 -15 36 -15c14.667 0 27 5 37 15s15 22.333 15 37c0 14 -5 26 -15 36s-22.333 15 -37 15z" />
    <glyph glyph-name="aring" unicode="&#xe5;" horiz-adv-x="427" 
d="M411 80c-23.333 -16 -39.9971 -24.001 -49.9971 -24.001c-10.667 0 -16 7.66699 -16 23v20v171c0 20 -0.166992 36.167 -0.5 48.5s-1.33301 22.833 -3 31.5s-4 16.334 -7 23.001s-6.83301 14 -11.5 22c-12 19.333 -30.5 34.666 -55.5 45.999s-52.833 17 -83.5 17
c-64.667 0 -114.334 -20.333 -149.001 -61v-97c45.333 49.333 92.666 74 141.999 74c53.333 0 80 -26.667 80 -80v-24l-77 -27l-36 -12c-38 -13.333 -67 -31.166 -87 -53.499s-30 -47.5 -30 -75.5c0 -32 10.333 -58.5 31 -79.5s46.667 -31.5 78 -31.5
c40.667 0 81 15.333 121 46c6.66699 -30.667 29 -46 67 -46c13.333 0 26.166 2.5 38.499 7.5s28.5 14.167 48.5 27.5v54zM258.003 221.999v-133.001c-24.667 -23.333 -51 -35 -79 -35c-19.333 0 -34.833 5.83301 -46.5 17.5s-17.5 26.834 -17.5 45.501c0 18 6 33 18 45
s33.667 24.333 65 37zM126.003 569.998c0 -12 2.33301 -23.5 7 -34.5s11 -20.5 19 -28.5s17.333 -14.333 28 -19s22 -7 34 -7c24.667 0 45.5 8.5 62.5 25.5s25.5 38.167 25.5 63.5s-8.5 46.5 -25.5 63.5s-37.833 25.5 -62.5 25.5c-12 0 -23.333 -2.33301 -34 -7
s-20 -11 -28 -19s-14.333 -17.5 -19 -28.5s-7 -22.5 -7 -34.5zM163.003 570.998c0 14.667 5.16699 27.167 15.5 37.5s22.5 15.5 36.5 15.5c14.667 0 27 -5.16699 37 -15.5s15 -22.833 15 -37.5c0 -15.333 -5.16699 -28.166 -15.5 -38.499s-22.5 -15.5 -36.5 -15.5
s-26.167 5.16699 -36.5 15.5s-15.5 23.166 -15.5 38.499z" />
    <glyph glyph-name="ae" unicode="&#xe6;" horiz-adv-x="667" 
d="M628 126c-25.333 -18.667 -48.835 -32.335 -70.502 -41.002s-43.834 -13 -66.501 -13c-51.333 0 -89.333 21 -114 63c-9.33301 15.333 -15.666 30.833 -18.999 46.5s-5.66602 36.5 -6.99902 62.5h277v14c0 30 -4 57.333 -12 82s-19.5 45.667 -34.5 63
s-33 30.833 -54 40.5s-44.5 14.5 -70.5 14.5c-24 0 -46 -4.33301 -66 -13s-42.333 -23.667 -67 -45c-14.667 18 -33.834 32.167 -57.501 42.5s-49.5 15.5 -77.5 15.5s-52.833 -3.83301 -74.5 -11.5s-44.834 -20.5 -69.501 -38.5v-107c23.333 25.333 46.333 44 69 56
s47.334 18 74.001 18c27.333 0 46.5 -6.83301 57.5 -20.5s16.5 -37.5 16.5 -71.5v-14l-62 -19c-6.66699 -2 -19 -6 -37 -12c-9.33301 -3.33301 -17.5 -6.5 -24.5 -9.5s-13.833 -6.16699 -20.5 -9.5c-27.333 -12.667 -48 -28.667 -62 -48s-21 -41 -21 -65
c0 -34 11.167 -61.667 33.5 -83s51.5 -32 87.5 -32c26 0 53.333 6 82 18s57.334 29.333 86.001 52c6.66699 -10 15.5 -19.333 26.5 -28s23.167 -16.167 36.5 -22.5s27.5 -11.166 42.5 -14.499s30.167 -5 45.5 -5s29.333 0.833008 42 2.5s24.834 4.33398 36.501 8.00098
s23.5 8.5 35.5 14.5s25 13.667 39 23v87zM361.998 300.999c8 25.333 20 45 36 59s34.667 21 56 21c23.333 0 42.5 -7 57.5 -21s24.167 -33.667 27.5 -59h-177zM261.998 223.999v-144.999c-10.667 -6 -19.5 -10.667 -26.5 -14s-13.167 -6 -18.5 -8s-10.333 -3.33301 -15 -4
s-9.66699 -1 -15 -1c-17.333 0 -32.333 7 -45 21s-19 30.667 -19 50c0 16.667 6.83301 31.167 20.5 43.5s37.167 25.166 70.5 38.499z" />
    <glyph glyph-name="ccedilla" unicode="&#xe7;" horiz-adv-x="438" 
d="M390 427c-14 6 -26.499 10.999 -37.499 14.999s-21.5 7.16699 -31.5 9.5s-19.833 4 -29.5 5s-20.167 1.5 -31.5 1.5c-33.333 0 -63.666 -5.66699 -90.999 -17s-50.666 -27.333 -69.999 -48s-34.333 -45.5 -45 -74.5s-16 -61.167 -16 -96.5s5.5 -67.166 16.5 -95.499
s26.5 -52.5 46.5 -72.5s44.167 -35.5 72.5 -46.5s60.166 -16.5 95.499 -16.5c22 0 43.5 2 64.5 6s43.167 10.667 66.5 20v88c-24.667 -11.333 -45.834 -19.166 -63.501 -23.499s-35.834 -6.5 -54.501 -6.5c-47.333 0 -84.833 13.5 -112.5 40.5s-41.5 63.5 -41.5 109.5
c0 22 3.33301 42.167 10 60.5s16.167 34.166 28.5 47.499s26.833 23.666 43.5 30.999s35 11 55 11c20.667 0 40.667 -3.33301 60 -10c10 -3.33301 20.333 -7.66602 31 -12.999s22 -12 34 -20v95zM158.001 -75.001l8 -0.000976562c46 -0.666992 69 -11.667 69 -33
c0 -24.667 -29 -37 -87 -37c-2 0 -5.16699 0.166992 -9.5 0.5s-10.166 0.833008 -17.499 1.5h-11l-5 -57c9.33301 -1.33301 20.166 -2.66602 32.499 -3.99902s23.833 -2 34.5 -2c44 0 79 8.5 105 25.5s39 39.5 39 67.5c0 19.333 -7.33301 35.333 -22 48s-35 20.667 -61 24
l16 52h-65z" />
    <glyph glyph-name="egrave" unicode="&#xe8;" horiz-adv-x="479" 
d="M438 131c-49.333 -36.667 -103.334 -55 -162.001 -55c-42 0 -76.167 12.667 -102.5 38s-40.833 59.666 -43.5 102.999h316v11c0 34.667 -4.66699 66.167 -14 94.5s-22.5 52.5 -39.5 72.5s-37.5 35.5 -61.5 46.5s-51 16.5 -81 16.5
c-31.333 0 -59.666 -5.66699 -84.999 -17s-47.333 -27.166 -66 -47.499s-33 -44.666 -43 -72.999s-15 -59.5 -15 -93.5c0 -69.333 22 -127 66 -173c21.333 -22.667 44 -38.834 68 -48.501s53 -14.5 87 -14.5c34.667 0 65.5 4 92.5 12s54.833 21.667 83.5 41v87zM131.999 270
c6 36 19.166 63.5 39.499 82.5s46.5 28.5 78.5 28.5s57.333 -9.5 76 -28.5s29.334 -46.5 32.001 -82.5h-226zM299.998 502l-66 136h-118l113 -136h71z" />
    <glyph glyph-name="eacute" unicode="&#xe9;" horiz-adv-x="479" 
d="M438 131c-49.333 -36.667 -103.334 -55 -162.001 -55c-42 0 -76.167 12.667 -102.5 38s-40.833 59.666 -43.5 102.999h316v11c0 34.667 -4.66699 66.167 -14 94.5s-22.5 52.5 -39.5 72.5s-37.5 35.5 -61.5 46.5s-51 16.5 -81 16.5
c-31.333 0 -59.666 -5.66699 -84.999 -17s-47.333 -27.166 -66 -47.499s-33 -44.666 -43 -72.999s-15 -59.5 -15 -93.5c0 -69.333 22 -127 66 -173c21.333 -22.667 44 -38.834 68 -48.501s53 -14.5 87 -14.5c34.667 0 65.5 4 92.5 12s54.833 21.667 83.5 41v87zM131.999 270
c6 36 19.166 63.5 39.499 82.5s46.5 28.5 78.5 28.5s57.333 -9.5 76 -28.5s29.334 -46.5 32.001 -82.5h-226zM181.998 502h72l108 136h-115z" />
    <glyph glyph-name="ecircumflex" unicode="&#xea;" horiz-adv-x="479" 
d="M438 131c-49.333 -36.667 -103.334 -55 -162.001 -55c-42 0 -76.167 12.667 -102.5 38s-40.833 59.666 -43.5 102.999h316v11c0 34.667 -4.66699 66.167 -14 94.5s-22.5 52.5 -39.5 72.5s-37.5 35.5 -61.5 46.5s-51 16.5 -81 16.5
c-31.333 0 -59.666 -5.66699 -84.999 -17s-47.333 -27.166 -66 -47.499s-33 -44.666 -43 -72.999s-15 -59.5 -15 -93.5c0 -69.333 22 -127 66 -173c21.333 -22.667 44 -38.834 68 -48.501s53 -14.5 87 -14.5c34.667 0 65.5 4 92.5 12s54.833 21.667 83.5 41v87zM131.999 270
c6 36 19.166 63.5 39.499 82.5s46.5 28.5 78.5 28.5s57.333 -9.5 76 -28.5s29.334 -46.5 32.001 -82.5h-226zM240.998 585l53 -83h100l-110 136h-93l-106 -136h100z" />
    <glyph glyph-name="edieresis" unicode="&#xeb;" horiz-adv-x="479" 
d="M438 131c-49.333 -36.667 -103.334 -55 -162.001 -55c-42 0 -76.167 12.667 -102.5 38s-40.833 59.666 -43.5 102.999h316v11c0 34.667 -4.66699 66.167 -14 94.5s-22.5 52.5 -39.5 72.5s-37.5 35.5 -61.5 46.5s-51 16.5 -81 16.5
c-31.333 0 -59.666 -5.66699 -84.999 -17s-47.333 -27.166 -66 -47.499s-33 -44.666 -43 -72.999s-15 -59.5 -15 -93.5c0 -69.333 22 -127 66 -173c21.333 -22.667 44 -38.834 68 -48.501s53 -14.5 87 -14.5c34.667 0 65.5 4 92.5 12s54.833 21.667 83.5 41v87zM131.999 270
c6 36 19.166 63.5 39.499 82.5s46.5 28.5 78.5 28.5s57.333 -9.5 76 -28.5s29.334 -46.5 32.001 -82.5h-226zM140.998 612c-14.667 0 -27 -5 -37 -15s-15 -22 -15 -36c0 -14.667 5 -27 15 -37s22.333 -15 37 -15c14 0 26 5 36 15s15 22.333 15 37c0 14 -5 26 -15 36
s-22 15 -36 15zM337.998 612c-14 0 -26 -5 -36 -15s-15 -22 -15 -36c0 -14.667 5 -27 15 -37s22 -15 36 -15c14.667 0 27 5 37 15s15 22.333 15 37c0 14 -5 26 -15 36s-22.333 15 -37 15z" />
    <glyph glyph-name="igrave" unicode="&#xec;" horiz-adv-x="219" 
d="M154 449h-90v-449h90v449zM170 502l-66 136h-118l113 -136h71z" />
    <glyph glyph-name="iacute" unicode="&#xed;" horiz-adv-x="219" 
d="M154 449h-90v-449h90v449zM52 502h72l108 136h-115z" />
    <glyph glyph-name="icircumflex" unicode="&#xee;" horiz-adv-x="219" 
d="M154 449h-90v-449h90v449zM111 585l53 -83h100l-110 136h-93l-106 -136h100z" />
    <glyph glyph-name="idieresis" unicode="&#xef;" horiz-adv-x="219" 
d="M154 449h-90v-449h90v449zM11 612c-14.667 0 -27 -5 -37 -15s-15 -22 -15 -36c0 -14.667 5 -27 15 -37s22.333 -15 37 -15c14 0 26 5 36 15s15 22.333 15 37c0 14 -5 26 -15 36s-22 15 -36 15zM208 612c-14 0 -26 -5 -36 -15s-15 -22 -15 -36c0 -14.667 5 -27 15 -37
s22 -15 36 -15c14.667 0 27 5 37 15s15 22.333 15 37c0 14 -5 26 -15 36s-22.333 15 -37 15z" />
    <glyph glyph-name="eth" unicode="&#xf0;" horiz-adv-x="427" 
d="M421 449l-185.002 -0.000976562c-60.667 0 -108.5 -13.833 -143.5 -41.5s-52.5 -65.5 -52.5 -113.5c0 -66 33 -113 99 -141v-2c-21.333 -5.33301 -38.5 -13.666 -51.5 -24.999s-19.5 -24.333 -19.5 -39c0 -19.333 15 -38.333 45 -57c-75.333 -18 -113 -57.667 -113 -119
c0 -21.333 5 -40.666 15 -57.999s24.167 -32.166 42.5 -44.499s40.5 -21.833 66.5 -28.5s55 -10 87 -10s60.833 3.33301 86.5 10s47.5 16 65.5 28s32 26.667 42 44s15 36.666 15 57.999c0 38.667 -14.333 69.334 -43 92.001c-6.66699 5.33301 -13.167 9.83301 -19.5 13.5
s-14.166 7.16699 -23.499 10.5s-21.5 6.83301 -36.5 10.5s-34.5 8.16699 -58.5 13.5c-33.333 7.33301 -56.166 14.166 -68.499 20.499s-18.5 14.833 -18.5 25.5c0 18.667 16.667 30.334 50 35.001c28 4 49.667 8.16699 65 12.5s29 10.166 41 17.499
c20 12 36.5 29.167 49.5 51.5s19.5 45.166 19.5 68.499c0 19.333 -3.5 36.333 -10.5 51s-19.167 30.667 -36.5 48h91v69zM206.998 371.999c25.333 0 46.5 -7.83398 63.5 -23.501s25.5 -35.167 25.5 -58.5s-8.33301 -42.666 -25 -57.999s-37.667 -23 -63 -23
s-46.333 7.5 -63 22.5s-25 34.167 -25 57.5s8.5 43 25.5 59s37.5 24 61.5 24zM185.998 -22.002c43.333 0 78.667 -6.50195 106 -19.502s41 -30.167 41 -51.5s-10.667 -37.666 -32 -48.999s-52 -17 -92 -17c-40.667 0 -71.667 5.83301 -93 17.5s-32 28.834 -32 51.501
c0 20 9.5 36.333 28.5 49s43.5 19 73.5 19zM315.999 630.996c-5.33301 -23.333 -14.832 -40.002 -28.499 -50.002s-33.167 -15 -58.5 -15c-46 0 -73.333 21.667 -82 65h-60c5.33301 -41.333 20.333 -72.666 45 -93.999s58.334 -32 101.001 -32
c41.333 0 74.166 10.833 98.499 32.5s39.166 52.834 44.499 93.501h-60z" />
    <glyph glyph-name="ntilde" unicode="&#xf1;" 
d="M61 449l-0.000976562 -448.998h91v321c28.667 42 64.334 63 107.001 63c32.667 0 55.834 -9.83301 69.501 -29.5s20.5 -52.5 20.5 -98.5v-256h90v257c0 32.667 -1.83301 58.667 -5.5 78s-10.167 36.666 -19.5 51.999c-13.333 22 -31.333 39.333 -54 52s-47 19 -73 19
c-24 0 -47.833 -5.83301 -71.5 -17.5s-44.834 -27.834 -63.501 -48.501v57h-91zM151.999 514.002l0.00195312 4.00098c0 12.667 3.33301 22.834 10 30.501s15.667 11.5 27 11.5c5.33301 0 11 -0.833008 17 -2.5s13.333 -4.83398 22 -9.50098l18 -10
c26.667 -15.333 51 -23 73 -23c29.333 0 52.166 9.66699 68.499 29s25.166 47 26.499 83h-64c-2 -16 -5.5 -27.167 -10.5 -33.5s-13.167 -9.5 -24.5 -9.5c-6 0 -12.167 1 -18.5 3s-13.166 4.66699 -20.499 8l-15 7c-28.667 15.333 -53.334 23 -74.001 23
c-29.333 0 -53.333 -9.83301 -72 -29.5s-28 -44.834 -28 -75.501v-6h65z" />
    <glyph glyph-name="ograve" unicode="&#xf2;" horiz-adv-x="552" 
d="M278 449c-34.667 0 -66.834 -5.83105 -96.501 -17.498s-55.167 -27.667 -76.5 -48s-38.166 -44.5 -50.499 -72.5s-18.5 -58.333 -18.5 -91s6 -63 18 -91s28.667 -52.167 50 -72.5s46.5 -36.333 75.5 -48s60.5 -17.5 94.5 -17.5c34.667 0 66.834 5.66699 96.501 17
s55.167 27.166 76.5 47.499s38.166 44.333 50.499 72s18.5 57.834 18.5 90.501c0 33.333 -6 64.166 -18 92.499s-28.5 52.666 -49.5 72.999s-46.167 36.333 -75.5 48s-61 17.5 -95 17.5zM273 370.002c22 0 42.3281 -3.66797 60.9951 -11.001s34.834 -17.666 48.501 -30.999
s24.334 -29 32.001 -47s11.5 -37.667 11.5 -59s-3.66699 -41.166 -11 -59.499s-17.666 -34 -30.999 -47s-29 -23.167 -47 -30.5s-38 -11 -60 -11s-42.167 3.66699 -60.5 11s-34.166 17.5 -47.499 30.5s-23.666 28.5 -30.999 46.5s-11 37.667 -11 59c0 22 3.66699 42 11 60
s17.5 33.667 30.5 47s28.333 23.666 46 30.999s37.167 11 58.5 11zM336.995 502.001l-66 136h-118l113 -136h71z" />
    <glyph glyph-name="oacute" unicode="&#xf3;" horiz-adv-x="552" 
d="M278 449c-34.667 0 -66.834 -5.83105 -96.501 -17.498s-55.167 -27.667 -76.5 -48s-38.166 -44.5 -50.499 -72.5s-18.5 -58.333 -18.5 -91s6 -63 18 -91s28.667 -52.167 50 -72.5s46.5 -36.333 75.5 -48s60.5 -17.5 94.5 -17.5c34.667 0 66.834 5.66699 96.501 17
s55.167 27.166 76.5 47.499s38.166 44.333 50.499 72s18.5 57.834 18.5 90.501c0 33.333 -6 64.166 -18 92.499s-28.5 52.666 -49.5 72.999s-46.167 36.333 -75.5 48s-61 17.5 -95 17.5zM273 370.002c22 0 42.3281 -3.66797 60.9951 -11.001s34.834 -17.666 48.501 -30.999
s24.334 -29 32.001 -47s11.5 -37.667 11.5 -59s-3.66699 -41.166 -11 -59.499s-17.666 -34 -30.999 -47s-29 -23.167 -47 -30.5s-38 -11 -60 -11s-42.167 3.66699 -60.5 11s-34.166 17.5 -47.499 30.5s-23.666 28.5 -30.999 46.5s-11 37.667 -11 59c0 22 3.66699 42 11 60
s17.5 33.667 30.5 47s28.333 23.666 46 30.999s37.167 11 58.5 11zM218.995 502.001h72l108 136h-115z" />
    <glyph glyph-name="ocircumflex" unicode="&#xf4;" horiz-adv-x="552" 
d="M278 449c-34.667 0 -66.834 -5.83105 -96.501 -17.498s-55.167 -27.667 -76.5 -48s-38.166 -44.5 -50.499 -72.5s-18.5 -58.333 -18.5 -91s6 -63 18 -91s28.667 -52.167 50 -72.5s46.5 -36.333 75.5 -48s60.5 -17.5 94.5 -17.5c34.667 0 66.834 5.66699 96.501 17
s55.167 27.166 76.5 47.499s38.166 44.333 50.499 72s18.5 57.834 18.5 90.501c0 33.333 -6 64.166 -18 92.499s-28.5 52.666 -49.5 72.999s-46.167 36.333 -75.5 48s-61 17.5 -95 17.5zM273 370.002c22 0 42.3281 -3.66797 60.9951 -11.001s34.834 -17.666 48.501 -30.999
s24.334 -29 32.001 -47s11.5 -37.667 11.5 -59s-3.66699 -41.166 -11 -59.499s-17.666 -34 -30.999 -47s-29 -23.167 -47 -30.5s-38 -11 -60 -11s-42.167 3.66699 -60.5 11s-34.166 17.5 -47.499 30.5s-23.666 28.5 -30.999 46.5s-11 37.667 -11 59c0 22 3.66699 42 11 60
s17.5 33.667 30.5 47s28.333 23.666 46 30.999s37.167 11 58.5 11zM277.995 585.001l53 -83h100l-110 136h-93l-106 -136h100z" />
    <glyph glyph-name="otilde" unicode="&#xf5;" horiz-adv-x="552" 
d="M278 449c-34.667 0 -66.834 -5.83105 -96.501 -17.498s-55.167 -27.667 -76.5 -48s-38.166 -44.5 -50.499 -72.5s-18.5 -58.333 -18.5 -91s6 -63 18 -91s28.667 -52.167 50 -72.5s46.5 -36.333 75.5 -48s60.5 -17.5 94.5 -17.5c34.667 0 66.834 5.66699 96.501 17
s55.167 27.166 76.5 47.499s38.166 44.333 50.499 72s18.5 57.834 18.5 90.501c0 33.333 -6 64.166 -18 92.499s-28.5 52.666 -49.5 72.999s-46.167 36.333 -75.5 48s-61 17.5 -95 17.5zM273 370.002c22 0 42.3281 -3.66797 60.9951 -11.001s34.834 -17.666 48.501 -30.999
s24.334 -29 32.001 -47s11.5 -37.667 11.5 -59s-3.66699 -41.166 -11 -59.499s-17.666 -34 -30.999 -47s-29 -23.167 -47 -30.5s-38 -11 -60 -11s-42.167 3.66699 -60.5 11s-34.166 17.5 -47.499 30.5s-23.666 28.5 -30.999 46.5s-11 37.667 -11 59c0 22 3.66699 42 11 60
s17.5 33.667 30.5 47s28.333 23.666 46 30.999s37.167 11 58.5 11zM177.995 514.001l0.00195312 4.00098c0 12.667 3.33301 22.834 10 30.501s15.667 11.5 27 11.5c5.33301 0 11 -0.833008 17 -2.5s13.333 -4.83398 22 -9.50098l18 -10c26.667 -15.333 51 -23 73 -23
c29.333 0 52.166 9.66699 68.499 29s25.166 47 26.499 83h-64c-2 -16 -5.5 -27.167 -10.5 -33.5s-13.167 -9.5 -24.5 -9.5c-6 0 -12.167 1 -18.5 3s-13.166 4.66699 -20.499 8l-15 7c-28.667 15.333 -53.334 23 -74.001 23c-29.333 0 -53.333 -9.83301 -72 -29.5
s-28 -44.834 -28 -75.501v-6h65z" />
    <glyph glyph-name="odieresis" unicode="&#xf6;" horiz-adv-x="552" 
d="M278 449c-34.667 0 -66.834 -5.83105 -96.501 -17.498s-55.167 -27.667 -76.5 -48s-38.166 -44.5 -50.499 -72.5s-18.5 -58.333 -18.5 -91s6 -63 18 -91s28.667 -52.167 50 -72.5s46.5 -36.333 75.5 -48s60.5 -17.5 94.5 -17.5c34.667 0 66.834 5.66699 96.501 17
s55.167 27.166 76.5 47.499s38.166 44.333 50.499 72s18.5 57.834 18.5 90.501c0 33.333 -6 64.166 -18 92.499s-28.5 52.666 -49.5 72.999s-46.167 36.333 -75.5 48s-61 17.5 -95 17.5zM273 370.002c22 0 42.3281 -3.66797 60.9951 -11.001s34.834 -17.666 48.501 -30.999
s24.334 -29 32.001 -47s11.5 -37.667 11.5 -59s-3.66699 -41.166 -11 -59.499s-17.666 -34 -30.999 -47s-29 -23.167 -47 -30.5s-38 -11 -60 -11s-42.167 3.66699 -60.5 11s-34.166 17.5 -47.499 30.5s-23.666 28.5 -30.999 46.5s-11 37.667 -11 59c0 22 3.66699 42 11 60
s17.5 33.667 30.5 47s28.333 23.666 46 30.999s37.167 11 58.5 11zM177.995 612.001c-14.667 0 -27 -5 -37 -15s-15 -22 -15 -36c0 -14.667 5 -27 15 -37s22.333 -15 37 -15c14 0 26 5 36 15s15 22.333 15 37c0 14 -5 26 -15 36s-22 15 -36 15zM374.995 612.001
c-14 0 -26 -5 -36 -15s-15 -22 -15 -36c0 -14.667 5 -27 15 -37s22 -15 36 -15c14.667 0 27 5 37 15s15 22.333 15 37c0 14 -5 26 -15 36s-22.333 15 -37 15z" />
    <glyph glyph-name="divide" unicode="&#xf7;" horiz-adv-x="668" 
d="M291 529c0 -12 4.16797 -22.3311 12.501 -30.998s18.166 -13 29.499 -13s20.833 4.16699 28.5 12.5s11.5 18.166 11.5 29.499s-3.83301 21 -11.5 29s-17.167 12 -28.5 12s-21 -3.83301 -29 -11.5s-12.333 -16.834 -13 -27.501zM291.001 123.002
c0 -11.333 4.16699 -21 12.5 -29s18.166 -12 29.499 -12s21 4.16699 29 12.5s12 18.166 12 29.499s-4 21 -12 29s-17.667 12 -29 12s-21.166 -4.16699 -29.499 -12.5s-12.5 -18.166 -12.5 -29.499zM68.001 354.002v-62h532v62h-532z" />
    <glyph glyph-name="oslash" unicode="&#xf8;" horiz-adv-x="552" 
d="M460 473l-45.999 -54.999c-22 14 -44 24.167 -66 30.5s-46 9.5 -72 9.5c-34.667 0 -66.667 -5.83301 -96 -17.5s-54.833 -28 -76.5 -49s-38.5 -45.833 -50.5 -74.5s-18 -59.667 -18 -93c0 -65.333 22.667 -121.333 68 -168l-54 -63l33 -30l56 65
c22 -13.333 43.167 -22.833 63.5 -28.5s43.166 -8.5 68.499 -8.5c36 0 69 5.66699 99 17s56 27.333 78 48s39.167 45.167 51.5 73.5s18.5 59.166 18.5 92.499c0 62.667 -22.667 119 -68 169l44 52zM393.001 327.001c14.667 -18.667 24.667 -35.5 30 -50.5s8 -32.833 8 -53.5
c0 -22 -4 -42.333 -12 -61s-19 -35 -33 -49s-30.5 -25 -49.5 -33s-39.5 -12 -61.5 -12c-30.667 0 -58 8.33301 -82 25zM159.001 121.001c-25.333 29.333 -37.999 62.667 -37.999 100c0 22 4 42.5 12 61.5s18.833 35.5 32.5 49.5s30 25 49 33s39.5 12 61.5 12
c15.333 0 29.166 -1.66699 41.499 -5s25.833 -9.33301 40.5 -18z" />
    <glyph glyph-name="ugrave" unicode="&#xf9;" 
d="M438 0v449h-90v-321c-30 -42 -65.667 -63 -107 -63c-33.333 0 -56.833 9.5 -70.5 28.5s-20.5 52.167 -20.5 99.5v256h-90v-257c0 -16.667 0.333008 -31.334 1 -44.001s2 -24 4 -34s4.66699 -19.167 8 -27.5s7.33301 -16.5 12 -24.5c13.333 -22 31.333 -39.333 54 -52
s47 -19 73 -19c24 0 47.833 5.83301 71.5 17.5s45.167 27.834 64.5 48.501v-57h90zM311 502l-66 136h-118l113 -136h71z" />
    <glyph glyph-name="uacute" unicode="&#xfa;" 
d="M438 0v449h-90v-321c-30 -42 -65.667 -63 -107 -63c-33.333 0 -56.833 9.5 -70.5 28.5s-20.5 52.167 -20.5 99.5v256h-90v-257c0 -16.667 0.333008 -31.334 1 -44.001s2 -24 4 -34s4.66699 -19.167 8 -27.5s7.33301 -16.5 12 -24.5c13.333 -22 31.333 -39.333 54 -52
s47 -19 73 -19c24 0 47.833 5.83301 71.5 17.5s45.167 27.834 64.5 48.501v-57h90zM193 502h72l108 136h-115z" />
    <glyph glyph-name="ucircumflex" unicode="&#xfb;" 
d="M438 0v449h-90v-321c-30 -42 -65.667 -63 -107 -63c-33.333 0 -56.833 9.5 -70.5 28.5s-20.5 52.167 -20.5 99.5v256h-90v-257c0 -16.667 0.333008 -31.334 1 -44.001s2 -24 4 -34s4.66699 -19.167 8 -27.5s7.33301 -16.5 12 -24.5c13.333 -22 31.333 -39.333 54 -52
s47 -19 73 -19c24 0 47.833 5.83301 71.5 17.5s45.167 27.834 64.5 48.501v-57h90zM252 585l53 -83h100l-110 136h-93l-106 -136h100z" />
    <glyph glyph-name="udieresis" unicode="&#xfc;" 
d="M438 0v449h-90v-321c-30 -42 -65.667 -63 -107 -63c-33.333 0 -56.833 9.5 -70.5 28.5s-20.5 52.167 -20.5 99.5v256h-90v-257c0 -16.667 0.333008 -31.334 1 -44.001s2 -24 4 -34s4.66699 -19.167 8 -27.5s7.33301 -16.5 12 -24.5c13.333 -22 31.333 -39.333 54 -52
s47 -19 73 -19c24 0 47.833 5.83301 71.5 17.5s45.167 27.834 64.5 48.501v-57h90zM152 612c-14.667 0 -27 -5 -37 -15s-15 -22 -15 -36c0 -14.667 5 -27 15 -37s22.333 -15 37 -15c14 0 26 5 36 15s15 22.333 15 37c0 14 -5 26 -15 36s-22 15 -36 15zM349 612
c-14 0 -26 -5 -36 -15s-15 -22 -15 -36c0 -14.667 5 -27 15 -37s22 -15 36 -15c14.667 0 27 5 37 15s15 22.333 15 37c0 14 -5 26 -15 36s-22.333 15 -37 15z" />
    <glyph glyph-name="yacute" unicode="&#xfd;" horiz-adv-x="219" 
d="M154 449h-90v-449h90v449z" />
    <glyph glyph-name="thorn" unicode="&#xfe;" horiz-adv-x="385" 
d="M323 421c-24 13.333 -46.6758 22.833 -68.0088 28.5s-43.666 8.5 -66.999 8.5c-21.333 0 -40.666 -2.83301 -57.999 -8.5s-32.5 -13.667 -45.5 -24s-23 -22.666 -30 -36.999s-10.5 -30.166 -10.5 -47.499c0 -15.333 3 -30.333 9 -45s14.667 -27.667 26 -39
c10.667 -10.667 24 -21.5 40 -32.5s37.333 -24.167 64 -39.5c14 -8 25.5 -15 34.5 -21s16 -11.5 21 -16.5s8.5 -10 10.5 -15s3 -10.833 3 -17.5c0 -12.667 -6.66699 -23.5 -20 -32.5s-29.333 -13.5 -48 -13.5c-17.333 0 -39.166 5.33301 -65.499 16s-52.166 25 -77.499 43
v-96c16.667 -8 31.334 -14.667 44.001 -20s24.834 -9.5 36.501 -12.5s23 -5.16699 34 -6.5s22.833 -2 35.5 -2c22.667 0 43.334 3.16699 62.001 9.5s34.834 15.166 48.501 26.499s24.334 24.666 32.001 39.999s11.5 32.333 11.5 51c0 53.333 -37.333 100.333 -112 141
l-32 18c-23.333 13.333 -40 24.666 -50 33.999s-15 19.333 -15 30c0 12 5.33301 21.667 16 29s24.667 11 42 11c18.667 0 37.5 -3.66699 56.5 -11s43.167 -19.666 72.5 -36.999v88zM139.991 -75l8 -0.000976562c46 -0.666992 69 -11.667 69 -33c0 -24.667 -29 -37 -87 -37
c-2 0 -5.16699 0.166992 -9.5 0.5s-10.166 0.833008 -17.499 1.5h-11l-5 -57c9.33301 -1.33301 20.166 -2.66602 32.499 -3.99902s23.833 -2 34.5 -2c44 0 79 8.5 105 25.5s39 39.5 39 67.5c0 19.333 -7.33301 35.333 -22 48s-35 20.667 -61 24l16 52h-65z" />
    <glyph glyph-name="ydieresis" unicode="&#xff;" horiz-adv-x="438" 
d="M438 449h-100l-116 -253l-121 253h-101l174 -353l-153 -326h99zM121 612c-14.667 0 -27 -5 -37 -15s-15 -22 -15 -36c0 -14.667 5 -27 15 -37s22.333 -15 37 -15c14 0 26 5 36 15s15 22.333 15 37c0 14 -5 26 -15 36s-22 15 -36 15zM318 612c-14 0 -26 -5 -36 -15
s-15 -22 -15 -36c0 -14.667 5 -27 15 -37s22 -15 36 -15c14.667 0 27 5 37 15s15 22.333 15 37c0 14 -5 26 -15 36s-22.333 15 -37 15z" />
    <glyph glyph-name="Gbreve" unicode="&#x11e;" horiz-adv-x="740" 
d="M673 335l-228.997 0.00195312v-86h131v-142l-9 -3c-16.667 -5.33301 -31.334 -9.66602 -44.001 -12.999s-24.334 -6 -35.001 -8s-20.834 -3.5 -30.501 -4.5s-19.834 -1.5 -30.501 -1.5c-40 0 -76.833 6.5 -110.5 19.5s-62.667 31.167 -87 54.5
s-43.166 51.166 -56.499 83.499s-20 67.833 -20 106.5c0 36.667 6.83301 71.167 20.5 103.5s32.334 60.166 56.001 83.499s51.667 41.833 84 55.5s67.166 20.5 104.499 20.5c40 0 80.333 -6 121 -18s81 -29.667 121 -53v100c-26 10.667 -49.667 19.834 -71 27.501
s-41.166 13.667 -59.499 18s-36.333 7.5 -54 9.5s-36.167 3 -55.5 3c-52.667 0 -101.5 -9 -146.5 -27s-84 -42.833 -117 -74.5s-58.833 -69.334 -77.5 -113.001s-28 -90.834 -28 -141.501c0 -94.667 33 -175 99 -241c36 -36 76 -62.167 120 -78.5s95.333 -24.5 154 -24.5
c42.667 0 83.667 4.5 123 13.5s81.666 23.167 126.999 42.5v288zM446.003 848.002c-5.33301 -23.333 -14.832 -40.002 -28.499 -50.002s-33.167 -15 -58.5 -15c-46 0 -73.333 21.667 -82 65h-60c5.33301 -41.333 20.333 -72.666 45 -93.999s58.334 -32 101.001 -32
c41.333 0 74.166 10.833 98.499 32.5s39.166 52.834 44.499 93.501h-60z" />
    <glyph glyph-name="gbreve" unicode="&#x11f;" horiz-adv-x="427" 
d="M421 449l-185.002 -0.000976562c-60.667 0 -108.5 -13.833 -143.5 -41.5s-52.5 -65.5 -52.5 -113.5c0 -66 33 -113 99 -141v-2c-21.333 -5.33301 -38.5 -13.666 -51.5 -24.999s-19.5 -24.333 -19.5 -39c0 -19.333 15 -38.333 45 -57c-75.333 -18 -113 -57.667 -113 -119
c0 -21.333 5 -40.666 15 -57.999s24.167 -32.166 42.5 -44.499s40.5 -21.833 66.5 -28.5s55 -10 87 -10s60.833 3.33301 86.5 10s47.5 16 65.5 28s32 26.667 42 44s15 36.666 15 57.999c0 38.667 -14.333 69.334 -43 92.001c-6.66699 5.33301 -13.167 9.83301 -19.5 13.5
s-14.166 7.16699 -23.499 10.5s-21.5 6.83301 -36.5 10.5s-34.5 8.16699 -58.5 13.5c-33.333 7.33301 -56.166 14.166 -68.499 20.499s-18.5 14.833 -18.5 25.5c0 18.667 16.667 30.334 50 35.001c28 4 49.667 8.16699 65 12.5s29 10.166 41 17.499
c20 12 36.5 29.167 49.5 51.5s19.5 45.166 19.5 68.499c0 19.333 -3.5 36.333 -10.5 51s-19.167 30.667 -36.5 48h91v69zM206.998 371.999c25.333 0 46.5 -7.83398 63.5 -23.501s25.5 -35.167 25.5 -58.5s-8.33301 -42.666 -25 -57.999s-37.667 -23 -63 -23
s-46.333 7.5 -63 22.5s-25 34.167 -25 57.5s8.5 43 25.5 59s37.5 24 61.5 24zM185.998 -22.002c43.333 0 78.667 -6.50195 106 -19.502s41 -30.167 41 -51.5s-10.667 -37.666 -32 -48.999s-52 -17 -92 -17c-40.667 0 -71.667 5.83301 -93 17.5s-32 28.834 -32 51.501
c0 20 9.5 36.333 28.5 49s43.5 19 73.5 19zM315.999 630.996c-5.33301 -23.333 -14.832 -40.002 -28.499 -50.002s-33.167 -15 -58.5 -15c-46 0 -73.333 21.667 -82 65h-60c5.33301 -41.333 20.333 -72.666 45 -93.999s58.334 -32 101.001 -32
c41.333 0 74.166 10.833 98.499 32.5s39.166 52.834 44.499 93.501h-60z" />
    <glyph glyph-name="uni0130" unicode="&#x130;" horiz-adv-x="250" 
d="M174 682h-98v-682h98v682zM126 831c-14.667 0 -27 -5 -37 -15s-15 -22 -15 -36c0 -14.667 5 -27 15 -37s22.333 -15 37 -15c14 0 26 5 36 15s15 22.333 15 37c0 14 -5 26 -15 36s-22 15 -36 15z" />
    <glyph glyph-name="dotlessi" unicode="&#x131;" horiz-adv-x="219" 
d="M154 449h-90v-449h90v449z" />
    <glyph glyph-name="OE" unicode="&#x152;" horiz-adv-x="917" 
d="M875 682l-408.998 -0.000976562h-33c-57.333 0 -109.666 -8.33301 -156.999 -25s-88 -40 -122 -70s-60.333 -66.167 -79 -108.5s-28 -89.166 -28 -140.499c0 -61.333 14.667 -116.333 44 -165s71.666 -88.667 126.999 -120c33.333 -19.333 69.166 -33 107.499 -41
s85.166 -12 140.499 -12h420v88h-290v213h269v88h-269v206h279v87zM498.002 84.999l-45.998 0.000976562h-22c-40 0 -77.167 6.5 -111.5 19.5s-64 31 -89 54s-44.5 50 -58.5 81s-21 64.833 -21 101.5c0 43.333 9.83301 83.166 29.5 119.499s47.5 66.166 83.5 89.499
c13.333 8.66699 26.666 16 39.999 22s27.833 10.833 43.5 14.5s32.667 6.33398 51 8.00098s39.166 2.5 62.499 2.5h38v-512z" />
    <glyph glyph-name="oe" unicode="&#x153;" horiz-adv-x="833" 
d="M798 129c-25.333 -19.333 -49.165 -33.5049 -71.498 -42.5049s-45.833 -13.5 -70.5 -13.5c-35.333 0 -65 10 -89 30c-17.333 14.667 -29.833 31.834 -37.5 51.501s-12.167 45.834 -13.5 78.501v11h282c-0.666992 10.667 -1.16699 19.834 -1.5 27.501s-1 14.834 -2 21.501
s-2.16699 13 -3.5 19s-3 12.667 -5 20c-11.333 39.333 -31.5 70.166 -60.5 92.499s-62.833 33.5 -101.5 33.5c-32 0 -61.333 -8 -88 -24s-49 -39 -67 -69c-24.667 32 -52.167 55.5 -82.5 70.5s-65.833 22.5 -106.5 22.5c-35.333 0 -67.833 -5.83301 -97.5 -17.5
s-55.5 -28 -77.5 -49s-39.167 -45.833 -51.5 -74.5s-18.5 -59.667 -18.5 -93s6.16699 -64.166 18.5 -92.499s29.166 -52.833 50.499 -73.5s46.5 -37 75.5 -49s60.167 -18 93.5 -18c82.667 0 148 29.667 196 89c17.333 -28.667 40.5 -50.667 69.5 -66s61.5 -23 97.5 -23
c16 0 30.667 0.833008 44 2.5s26.333 4.33398 39 8.00098s25.167 8.5 37.5 14.5s26.166 13.667 41.499 23v90zM525.001 301.995c7.33301 25.333 19.334 44.833 36.001 58.5s36.667 20.5 60 20.5c47.333 0 76.666 -26.333 87.999 -79h-184zM277.002 370.995
c20.667 0 40.002 -3.66699 58.002 -11s33.667 -17.5 47 -30.5s23.666 -28.5 30.999 -46.5s11 -37.667 11 -59c0 -44 -13.5 -79.5 -40.5 -106.5s-62.167 -40.5 -105.5 -40.5c-21.333 0 -41.166 3.66699 -59.499 11s-34.166 17.333 -47.499 30s-23.833 27.834 -31.5 45.501
s-11.5 36.834 -11.5 57.501c0 22 3.66699 42.167 11 60.5s17.666 34.166 30.999 47.499s29.166 23.666 47.499 30.999s38.166 11 59.499 11z" />
    <glyph glyph-name="Scedilla" unicode="&#x15e;" horiz-adv-x="458" 
d="M399 643c-24.667 16.667 -49.9951 28.833 -75.9951 36.5s-53 11.5 -81 11.5c-30 0 -57.333 -4.33301 -82 -13s-45.834 -21 -63.501 -37s-31.334 -35.167 -41.001 -57.5s-14.5 -46.833 -14.5 -73.5c0 -36.667 10 -68.834 30 -96.501s53 -55.167 99 -82.5l74 -45
c29.333 -17.333 51.666 -36 66.999 -56s23 -40.667 23 -62c0 -26 -10.167 -47.5 -30.5 -64.5s-45.833 -25.5 -76.5 -25.5c-21.333 0 -43 3.83301 -65 11.5s-42.667 18.5 -62 32.5c-11.333 8 -20.5 15.5 -27.5 22.5s-16.5 18.167 -28.5 33.5v-124c56 -42 117.333 -63 184 -63
c29.333 0 56.166 4.5 80.499 13.5s45.166 21.667 62.499 38s30.833 36 40.5 59s14.5 48.167 14.5 75.5c0 78 -41.667 141 -125 189l-75 44c-34 20 -58.333 38.833 -73 56.5s-22 36.834 -22 57.501c0 23.333 10.167 42.333 30.5 57s46.5 22 78.5 22
c56.667 0 109.667 -23.667 159 -71v111zM181.005 -75.001l8 -0.000976562c46 -0.666992 69 -11.667 69 -33c0 -24.667 -29 -37 -87 -37c-2 0 -5.16699 0.166992 -9.5 0.5s-10.166 0.833008 -17.499 1.5h-11l-5 -57c9.33301 -1.33301 20.166 -2.66602 32.499 -3.99902
s23.833 -2 34.5 -2c44 0 79 8.5 105 25.5s39 39.5 39 67.5c0 19.333 -7.33301 35.333 -22 48s-35 20.667 -61 24l16 52h-65z" />
    <glyph glyph-name="scedilla" unicode="&#x15f;" horiz-adv-x="385" 
d="M323 421c-24 13.333 -46.6758 22.833 -68.0088 28.5s-43.666 8.5 -66.999 8.5c-21.333 0 -40.666 -2.83301 -57.999 -8.5s-32.5 -13.667 -45.5 -24s-23 -22.666 -30 -36.999s-10.5 -30.166 -10.5 -47.499c0 -15.333 3 -30.333 9 -45s14.667 -27.667 26 -39
c10.667 -10.667 24 -21.5 40 -32.5s37.333 -24.167 64 -39.5c14 -8 25.5 -15 34.5 -21s16 -11.5 21 -16.5s8.5 -10 10.5 -15s3 -10.833 3 -17.5c0 -12.667 -6.66699 -23.5 -20 -32.5s-29.333 -13.5 -48 -13.5c-17.333 0 -39.166 5.33301 -65.499 16s-52.166 25 -77.499 43
v-96c16.667 -8 31.334 -14.667 44.001 -20s24.834 -9.5 36.501 -12.5s23 -5.16699 34 -6.5s22.833 -2 35.5 -2c22.667 0 43.334 3.16699 62.001 9.5s34.834 15.166 48.501 26.499s24.334 24.666 32.001 39.999s11.5 32.333 11.5 51c0 53.333 -37.333 100.333 -112 141
l-32 18c-23.333 13.333 -40 24.666 -50 33.999s-15 19.333 -15 30c0 12 5.33301 21.667 16 29s24.667 11 42 11c18.667 0 37.5 -3.66699 56.5 -11s43.167 -19.666 72.5 -36.999v88zM139.991 -75l8 -0.000976562c46 -0.666992 69 -11.667 69 -33c0 -24.667 -29 -37 -87 -37
c-2 0 -5.16699 0.166992 -9.5 0.5s-10.166 0.833008 -17.499 1.5h-11l-5 -57c9.33301 -1.33301 20.166 -2.66602 32.499 -3.99902s23.833 -2 34.5 -2c44 0 79 8.5 105 25.5s39 39.5 39 67.5c0 19.333 -7.33301 35.333 -22 48s-35 20.667 -61 24l16 52h-65z" />
    <glyph glyph-name="Ydieresis" unicode="&#x178;" horiz-adv-x="604" 
d="M604 682h-118l-185 -235l-183 235h-118l252 -321v-361h100v361zM204 838c-14.667 0 -27 -5 -37 -15s-15 -22 -15 -36c0 -14.667 5 -27 15 -37s22.333 -15 37 -15c14 0 26 5 36 15s15 22.333 15 37c0 14 -5 26 -15 36s-22 15 -36 15zM401 838c-14 0 -26 -5 -36 -15
s-15 -22 -15 -36c0 -14.667 5 -27 15 -37s22 -15 36 -15c14.667 0 27 5 37 15s15 22.333 15 37c0 14 -5 26 -15 36s-22.333 15 -37 15z" />
    <glyph glyph-name="uni0192" unicode="&#x192;" horiz-adv-x="552" 
d="M23 -198c20 -4 39.333 -6.99902 58 -8.99902s35.667 -3 51 -3c38 0 66.667 9.66699 86 29s33 52 41 98l93 533h100l12 68h-99l9 51c2.66699 16 5.66699 29 9 39s7.33301 17.833 12 23.5s10.5 9.66699 17.5 12s15.5 3.5 25.5 3.5c9.33301 0 19.166 -0.833008 29.499 -2.5
s25.5 -4.83398 45.5 -9.50098l17 75l-9 2c-22.667 6.66699 -40.334 11.167 -53.001 13.5s-26 3.5 -40 3.5c-46.667 0 -82 -14.333 -106 -43c-8 -10.667 -14.667 -23.334 -20 -38.001s-10.666 -36 -15.999 -64l-11 -66h-99l-11 -68h98l-87 -508
c-4.66699 -29.333 -11.334 -49.166 -20.001 -59.499s-22.667 -15.5 -42 -15.5c-9.33301 0 -19.666 0.833008 -30.999 2.5s-25.666 4.5 -42.999 8.5z" />
    <glyph glyph-name="uni02C6" unicode="&#x2c6;" horiz-adv-x="333" 
d="M168 585l53 -83h100l-110 136h-93l-106 -136h100z" />
    <glyph glyph-name="uni02C7" unicode="&#x2c7;" horiz-adv-x="333" 
d="M175 556l-55 82h-100l105 -136h94l110 136h-100z" />
    <glyph glyph-name="uni02D8" unicode="&#x2d8;" horiz-adv-x="333" 
d="M251 633c-5.33301 -23.333 -14.832 -40.002 -28.499 -50.002s-33.167 -15 -58.5 -15c-46 0 -73.333 21.667 -82 65h-60c5.33301 -41.333 20.333 -72.666 45 -93.999s58.334 -32 101.001 -32c41.333 0 74.166 10.833 98.499 32.5s39.166 52.834 44.499 93.501h-60z" />
    <glyph glyph-name="uni02D9" unicode="&#x2d9;" horiz-adv-x="333" 
d="M167 604c-14.667 0 -27 -5 -37 -15s-15 -22.333 -15 -37c0 -14 5 -26 15 -36s22.333 -15 37 -15c14 0 26 5 36 15s15 22 15 36c0 14.667 -5 27 -15 37s-22 15 -36 15z" />
    <glyph glyph-name="uni02DA" unicode="&#x2da;" horiz-adv-x="333" 
d="M79 570c0 -12 2.33301 -23.5 7 -34.5s11 -20.5 19 -28.5s17.333 -14.333 28 -19s22 -7 34 -7c24.667 0 45.5 8.5 62.5 25.5s25.5 38.167 25.5 63.5s-8.5 46.5 -25.5 63.5s-37.833 25.5 -62.5 25.5c-12 0 -23.333 -2.33301 -34 -7s-20 -11 -28 -19
s-14.333 -17.5 -19 -28.5s-7 -22.5 -7 -34.5zM116 571c0 14.667 5.16699 27.167 15.5 37.5s22.5 15.5 36.5 15.5c14.667 0 27 -5.16699 37 -15.5s15 -22.833 15 -37.5c0 -15.333 -5.16699 -28.166 -15.5 -38.499s-22.5 -15.5 -36.5 -15.5s-26.167 5.16699 -36.5 15.5
s-15.5 23.166 -15.5 38.499z" />
    <glyph glyph-name="uni02DB" unicode="&#x2db;" horiz-adv-x="333" 
d="M110 12c-7.33301 -24 -12.668 -44.998 -16.001 -62.998s-5 -34.333 -5 -49c0 -32.667 9.66699 -58.834 29 -78.501s45 -29.5 77 -29.5c15.333 0 32.833 2.66699 52.5 8s38.167 12.666 55.5 21.999v58c-29.333 -15.333 -56.666 -23 -81.999 -23c-20 0 -36.667 7 -50 21
s-20 31.667 -20 53c0 24.667 6.33301 51.667 19 81h-60z" />
    <glyph glyph-name="uni02DC" unicode="&#x2dc;" horiz-adv-x="333" 
d="M68 514l0.00195312 4.00098c0 12.667 3.33301 22.834 10 30.501s15.667 11.5 27 11.5c5.33301 0 11 -0.833008 17 -2.5s13.333 -4.83398 22 -9.50098l18 -10c26.667 -15.333 51 -23 73 -23c29.333 0 52.166 9.66699 68.499 29s25.166 47 26.499 83h-64
c-2 -16 -5.5 -27.167 -10.5 -33.5s-13.167 -9.5 -24.5 -9.5c-6 0 -12.167 1 -18.5 3s-13.166 4.66699 -20.499 8l-15 7c-28.667 15.333 -53.334 23 -74.001 23c-29.333 0 -53.333 -9.83301 -72 -29.5s-28 -44.834 -28 -75.501v-6h65z" />
    <glyph glyph-name="uni02DD" unicode="&#x2dd;" horiz-adv-x="333" 
d="M28 502h71l103 136h-114zM198 502h74l101 136h-113z" />
    <glyph glyph-name="Delta" unicode="&#x394;" horiz-adv-x="612" 
d="M326 688l-320 -688h602zM290 517l194 -468h-412z" />
    <glyph glyph-name="Delta" unicode="&#x2206;" horiz-adv-x="612" 
d="M326 688l-320 -688h602zM290 517l194 -468h-412z" />
    <glyph glyph-name="Omega" unicode="&#x3a9;" horiz-adv-x="768" 
d="M313 152l-26.502 11c-9.66699 4 -19.667 9.83301 -30 17.5s-20.666 18.167 -30.999 31.5s-20.5 31.333 -30.5 54c-8 18.667 -14.333 42.667 -19 72s-6 60 -4 92s8.33301 63.5 19 94.5s27 57.5 49 79.5c20.667 20.667 43.667 34.5 69 41.5s50.666 10.5 75.999 10.5
s50.666 -3.5 75.999 -10.5s48.333 -20.833 69 -41.5c22 -22 38.333 -48.5 49 -79.5s17 -62.5 19 -94.5s0.666992 -62.667 -4 -92s-11 -53.333 -19 -72c-10 -22.667 -20.167 -40.667 -30.5 -54s-20.666 -23.833 -30.999 -31.5s-20.333 -13.5 -30 -17.5l-26.5 -11l-16 -152
h295v162h-15c-3.33301 -12 -6.5 -22 -9.5 -30s-7 -14.333 -12 -19s-11 -7.83398 -18 -9.50098s-15.833 -2.5 -26.5 -2.5h-158l2 28c38.667 11.333 71 24.833 97 40.5s49.333 38.5 70 68.5c17.333 26 30 52.333 38 79s12 53 12 79s-3 50.667 -9 74s-14.333 44.333 -25 63
c-10 18 -20.333 33.167 -31 45.5s-21 22.666 -31 30.999s-19.5 15.166 -28.5 20.499l-23.5 14c-23.333 13.333 -50.666 24 -81.999 32s-65 12 -101 12s-69.667 -4 -101 -12s-58.666 -18.667 -81.999 -32l-23.5 -14c-9 -5.33301 -18.5 -12.166 -28.5 -20.499
s-20.333 -18.666 -31 -30.999s-21 -27.5 -31 -45.5c-10.667 -18.667 -19 -39.667 -25 -63s-9 -48 -9 -74s4 -52.333 12 -79s20.667 -53 38 -79c20.667 -30 44 -52.833 70 -68.5s58.333 -29.167 97 -40.5l2 -28h-158c-10.667 0 -19.5 0.833008 -26.5 2.5
s-13 4.83398 -18 9.50098s-9.16699 11 -12.5 19s-6.33301 18 -9 30h-15v-162h295z" />
    <glyph glyph-name="Omega" unicode="&#x2126;" horiz-adv-x="768" 
d="M313 152l-26.502 11c-9.66699 4 -19.667 9.83301 -30 17.5s-20.666 18.167 -30.999 31.5s-20.5 31.333 -30.5 54c-8 18.667 -14.333 42.667 -19 72s-6 60 -4 92s8.33301 63.5 19 94.5s27 57.5 49 79.5c20.667 20.667 43.667 34.5 69 41.5s50.666 10.5 75.999 10.5
s50.666 -3.5 75.999 -10.5s48.333 -20.833 69 -41.5c22 -22 38.333 -48.5 49 -79.5s17 -62.5 19 -94.5s0.666992 -62.667 -4 -92s-11 -53.333 -19 -72c-10 -22.667 -20.167 -40.667 -30.5 -54s-20.666 -23.833 -30.999 -31.5s-20.333 -13.5 -30 -17.5l-26.5 -11l-16 -152
h295v162h-15c-3.33301 -12 -6.5 -22 -9.5 -30s-7 -14.333 -12 -19s-11 -7.83398 -18 -9.50098s-15.833 -2.5 -26.5 -2.5h-158l2 28c38.667 11.333 71 24.833 97 40.5s49.333 38.5 70 68.5c17.333 26 30 52.333 38 79s12 53 12 79s-3 50.667 -9 74s-14.333 44.333 -25 63
c-10 18 -20.333 33.167 -31 45.5s-21 22.666 -31 30.999s-19.5 15.166 -28.5 20.499l-23.5 14c-23.333 13.333 -50.666 24 -81.999 32s-65 12 -101 12s-69.667 -4 -101 -12s-58.666 -18.667 -81.999 -32l-23.5 -14c-9 -5.33301 -18.5 -12.166 -28.5 -20.499
s-20.333 -18.666 -31 -30.999s-21 -27.5 -31 -45.5c-10.667 -18.667 -19 -39.667 -25 -63s-9 -48 -9 -74s4 -52.333 12 -79s20.667 -53 38 -79c20.667 -30 44 -52.833 70 -68.5s58.333 -29.167 97 -40.5l2 -28h-158c-10.667 0 -19.5 0.833008 -26.5 2.5
s-13 4.83398 -18 9.50098s-9.16699 11 -12.5 19s-6.33301 18 -9 30h-15v-162h295z" />
    <glyph glyph-name="pi" unicode="&#x3c0;" horiz-adv-x="549" 
d="M335 401l-16.999 -160.992c-1.33301 -13.333 -2.33301 -27.833 -3 -43.5s-0.833984 -31.334 -0.500977 -47.001s1.33301 -30.5 3 -44.5s4.16699 -26 7.5 -36c6 -18 13.667 -33.333 23 -46s18 -22 26 -28c13.333 -9.33301 28.166 -12.833 44.499 -10.5s29.5 6.5 39.5 12.5
c6.66699 4 14.167 10 22.5 18s16 18.167 23 30.5s13 27.333 18 45s7.83301 37.834 8.5 60.501h-21c-0.666992 -4 -1.33398 -8.5 -2.00098 -13.5s-1.66699 -10.333 -3 -16s-3.66602 -11.334 -6.99902 -17.001s-8 -10.834 -14 -15.501c-8 -6 -15.667 -9.83301 -23 -11.5
s-14.333 -1.83398 -21 -0.500977s-12.5 3.5 -17.5 6.5s-9.16699 6.16699 -12.5 9.5c-7.33301 7.33301 -13.333 17.833 -18 31.5s-7 27.5 -7 41.5c0 19.333 0.5 48.666 1.5 87.999s4.5 88.333 10.5 147h126v86h-373c-23.333 0 -42.666 -5.66699 -57.999 -17
s-27.333 -23 -36 -35c-15.333 -21.333 -26 -41 -32 -59s-10.333 -30.667 -13 -38h17l21 31c5.33301 8 14.166 15.333 26.499 22s25.5 10 39.5 10h47l-29 -229c-2.66699 -21.333 -9.66699 -38.333 -21 -51s-21 -24.334 -29 -35.001l-19 -26.5
c-6.66699 -9.66699 -8 -22.834 -4 -39.501c2.66699 -11.333 10.334 -21.333 23.001 -30s25.667 -11.334 39 -8.00098c16 4 28.167 11.5 36.5 22.5s14.5 26.167 18.5 45.5c6 27.333 13.167 69.166 21.5 125.499s16.5 131.5 24.5 225.5h113z" />
    <glyph glyph-name="endash" unicode="&#x2013;" 
d="M509 282h-518v-63h518v63z" />
    <glyph glyph-name="emdash" unicode="&#x2014;" horiz-adv-x="1000" 
d="M1009 285h-1018v-64h1018v64z" />
    <glyph glyph-name="quoteleft" unicode="&#x2018;" horiz-adv-x="219" 
d="M171 691c-18 -6 -31.832 -11.667 -41.499 -17s-19.5 -12.666 -29.5 -21.999c-30.667 -29.333 -46 -66.666 -46 -111.999c0 -28 6 -50.167 18 -66.5s28.333 -24.5 49 -24.5c17.333 0 31.666 5.5 42.999 16.5s17 24.833 17 41.5c0 29.333 -17 49.666 -51 60.999
c-0.666992 3.33301 -1 7 -1 11c0 33.333 14 65.666 42 96.999v15z" />
    <glyph glyph-name="quoteright" unicode="&#x2019;" horiz-adv-x="219" 
d="M49 443c36.667 11.333 65.3311 30.832 85.998 58.499s31 59.5 31 95.5c0 28 -6.33301 50.667 -19 68s-29 26 -49 26c-16 0 -30 -6.33301 -42 -19s-18 -28 -18 -46c0 -31.333 17.333 -52.666 52 -63.999c-1.33301 -24 -4.66602 -43 -9.99902 -57
s-15.666 -28.333 -30.999 -43v-19z" />
    <glyph glyph-name="quotesinglbase" unicode="&#x201a;" horiz-adv-x="219" 
d="M49 -119c36.667 11.333 65.3311 30.667 85.998 58s31 59.333 31 96c0 27.333 -6.33301 49.833 -19 67.5s-29 26.5 -49 26.5c-16 0 -30 -6.5 -42 -19.5s-18 -28.167 -18 -45.5c0 -32.667 17.333 -54 52 -64c-1.33301 -24 -4.66602 -43.167 -9.99902 -57.5
s-15.666 -28.833 -30.999 -43.5v-18z" />
    <glyph glyph-name="quotedblleft" unicode="&#x201c;" horiz-adv-x="427" 
d="M373 691c-9.33301 -3.33301 -17 -6.33203 -23 -8.99902s-11.333 -5.33398 -16 -8.00098s-9.16699 -5.5 -13.5 -8.5s-8.83301 -6.5 -13.5 -10.5c-15.333 -12.667 -27.666 -29.167 -36.999 -49.5s-14 -41.5 -14 -63.5c0 -28 6.5 -50.5 19.5 -67.5s30.167 -25.5 51.5 -25.5
c17.333 0 31.5 5.5 42.5 16.5s16.5 24.833 16.5 41.5c0 16 -4.5 29 -13.5 39s-21.167 15.667 -36.5 17c-1.33301 5.33301 -2 9.33301 -2 12v12c0 17.333 3.66699 33.833 11 49.5s16.666 27.167 27.999 34.5v20zM148 691.001c-36 -11.333 -64.168 -29.832 -84.501 -55.499
s-30.5 -55.834 -30.5 -90.501c0 -28 6.83301 -51 20.5 -69s30.834 -27 51.501 -27c16 0 29.333 5.5 40 16.5s16 24.833 16 41.5c0 14.667 -4.66699 27.667 -14 39s-20 17 -32 17h-4c-0.666992 6 -1.16699 10.667 -1.5 14s-0.5 7 -0.5 11c0 16 3.5 31.333 10.5 46
s16.5 26.667 28.5 36v21z" />
    <glyph glyph-name="quotedblright" unicode="&#x201d;" horiz-adv-x="427" 
d="M279 449c36 10.667 64.167 29.332 84.5 55.999s30.5 57.667 30.5 93c0 28 -6.33301 50.5 -19 67.5s-29.667 25.5 -51 25.5c-17.333 0 -31.333 -5.66699 -42 -17s-16 -25.666 -16 -42.999c0 -35.333 17.333 -55 52 -59v-13c0 -37.333 -13 -71 -39 -101v-9zM54 448.998
c38 13.333 67.002 32.498 87.002 57.498s30 54.833 30 89.5c0 28.667 -6.33301 51.667 -19 69s-29.334 26 -50.001 26c-18 0 -32.5 -5.83301 -43.5 -17.5s-16.5 -27.167 -16.5 -46.5c0 -15.333 4.66699 -28.166 14 -38.499s21.666 -16.166 36.999 -17.499v-11
c0 -40.667 -13 -74.667 -39 -102v-9z" />
    <glyph glyph-name="quotedblbase" unicode="&#x201e;" horiz-adv-x="448" 
d="M287 -116c35.333 10.667 63.333 29.499 84 56.499s31 58.5 31 94.5c0 28.667 -6.33301 51.667 -19 69s-29.667 26 -51 26c-17.333 0 -31.333 -5.66699 -42 -17s-16 -25.666 -16 -42.999c0 -16.667 4.5 -30.167 13.5 -40.5s21.5 -16.5 37.5 -18.5
c0.666992 -3.33301 1 -5.66602 1 -6.99902v-4c0 -36.667 -13 -69.334 -39 -98.001v-18zM61 -117.001c13.333 4.66699 23.167 8.50098 29.5 11.501s13.166 7.16699 20.499 12.5c21.333 14 37.833 32.167 49.5 54.5s17.5 46.166 17.5 71.499c0 29.333 -6.16699 53 -18.5 71
s-29.166 27 -50.499 27c-18 0 -32.5 -6 -43.5 -18s-16.5 -27.667 -16.5 -47c0 -15.333 4.83301 -28.166 14.5 -38.499s22.167 -16.166 37.5 -17.499c0 -3.33301 0.166992 -5.83301 0.5 -7.5s0.5 -3.5 0.5 -5.5c0 -16.667 -3.66699 -33.334 -11 -50.001
s-17.333 -31.334 -30 -44.001v-20z" />
    <glyph glyph-name="dagger" unicode="&#x2020;" horiz-adv-x="490" 
d="M264 376c32 -9.33301 58.3311 -16.0049 78.998 -20.0049s38.334 -6 53.001 -6c19.333 0 35.333 4.16699 48 12.5s19 18.833 19 31.5c0 13.333 -6.5 24.333 -19.5 33s-29.833 13 -50.5 13c-8.66699 0 -18.334 -0.666992 -29.001 -2s-21.834 -3.16602 -33.501 -5.49902
s-23.167 -5 -34.5 -8s-22 -6.5 -32 -10.5l3 11l11 54c5.33301 25.333 9.33301 47.333 12 66s4 37.334 4 56.001c0 60 -15.667 90 -47 90c-15.333 0 -27.5 -8 -36.5 -24s-13.5 -38.667 -13.5 -68c0 -18 1.16699 -36 3.5 -54s6.5 -41.333 12.5 -70l9 -48l3 -13
c-18.667 7.33301 -40.167 13.5 -64.5 18.5s-45.833 7.5 -64.5 7.5c-21.333 0 -38.166 -4.16699 -50.499 -12.5s-18.5 -19.833 -18.5 -34.5c0 -13.333 6.33301 -23.833 19 -31.5s29.667 -11.5 51 -11.5c17.333 0 34.5 1.66699 51.5 5s38.167 9 63.5 17
c1.33301 0.666992 3 1.33398 5 2.00098s4.66699 1.33398 8 2.00098l-6 -54c-1.33301 -20 -3 -40.667 -5 -62l-6 -66c-5.33301 -72 -9.5 -131 -12.5 -177s-4.5 -78.333 -4.5 -97c0 -56 3.83301 -95 11.5 -117s21.167 -33 40.5 -33c18.667 0 32 11.333 40 34
s12 59.334 12 110.001c0 19.333 -0.166992 38.166 -0.5 56.499s-1 38.333 -2 60s-2.66699 45.5 -5 71.5s-4.83301 56.333 -7.5 91c-3.33301 30.667 -5.66602 56.834 -6.99902 78.501s-2.66602 39.167 -3.99902 52.5z" />
    <glyph glyph-name="daggerdbl" unicode="&#x2021;" horiz-adv-x="490" 
d="M271 468c4.66699 18.667 8.50586 34.6729 11.5059 48.0059s5.33301 25.333 7 36s2.83398 20.334 3.50098 29.001s1 17.667 1 27c0 25.333 -4.33301 45.5 -13 60.5s-20.334 22.5 -35.001 22.5s-26.5 -7.16699 -35.5 -21.5s-13.5 -33.166 -13.5 -56.499
c0 -13.333 0.833008 -27 2.5 -41s4.5 -30.667 8.5 -50l12 -56l6 -26c-28.667 9.33301 -52.667 15.833 -72 19.5s-38 5.5 -56 5.5c-21.333 0 -38.5 -4.33301 -51.5 -13s-19.5 -20.334 -19.5 -35.001c0 -12 6.16699 -22 18.5 -30s28.166 -12 47.499 -12
c8 0 15.833 0.333008 23.5 1s16 1.83398 25 3.50098s19 4 30 7l38.5 10.5l16 4v-8c0 -10.667 -0.833008 -26 -2.5 -46s-4.16699 -39 -7.5 -57c-2.66699 -16 -4.33398 -27.5 -5.00098 -34.5s-1 -15.167 -1 -24.5c0 -8 0.333008 -16.5 1 -25.5s1.66699 -18.5 3 -28.5l7 -57
l4 -43l1 -15c-32 9.33301 -58 15.833 -78 19.5s-38 5.5 -54 5.5c-19.333 0 -35.333 -4.16699 -48 -12.5s-19 -18.833 -19 -31.5c0 -14 5.83301 -25.167 17.5 -33.5s27.5 -12.5 47.5 -12.5c18 0 37.167 2.16699 57.5 6.5s45.833 11.5 76.5 21.5
c-10.667 -40.667 -18.167 -74.334 -22.5 -101.001s-6.5 -50.667 -6.5 -72c0 -24.667 4.16699 -44.5 12.5 -59.5s19.166 -22.5 32.499 -22.5c15.333 0 27.666 7.33301 36.999 22s14 34.667 14 60c0 20.667 -2.5 46.167 -7.5 76.5s-12.167 62.5 -21.5 96.5
c24 -8.66699 47.5 -15.334 70.5 -20.001s43.5 -7 61.5 -7c21.333 0 37.833 4 49.5 12s17.5 19 17.5 33c0 12.667 -6.16699 23.167 -18.5 31.5s-27.833 12.5 -46.5 12.5c-16 0 -32.5 -1.33301 -49.5 -4s-38.167 -7.66699 -63.5 -15
c-5.33301 -1.33301 -12.333 -3.33301 -21 -6c0 13.333 0.166992 23.666 0.5 30.999s1.16602 15.666 2.49902 24.999l9 61c2 11.333 3.33301 20.666 4 27.999s1 14.666 1 21.999s-0.333008 15.5 -1 24.5s-2.33398 21.167 -5.00098 36.5
c-2.66699 17.333 -4.66699 31.666 -6 42.999s-2.33301 21 -3 29s-1.16699 14.833 -1.5 20.5s-0.5 11.834 -0.5 18.501c27.333 -9.33301 51.5 -16 72.5 -20s39.833 -6 56.5 -6c20 0 36.5 4.16699 49.5 12.5s19.5 19.166 19.5 32.499s-6.16699 24.166 -18.5 32.499
s-28.166 12.5 -47.499 12.5c-16.667 0 -35.834 -2.16699 -57.501 -6.5s-46.5 -10.5 -74.5 -18.5z" />
    <glyph glyph-name="bullet" unicode="&#x2022;" horiz-adv-x="354" 
d="M53 341c0 -17.333 3.33203 -33.5 9.99902 -48.5s15.5 -28 26.5 -39s24 -19.833 39 -26.5s31.167 -10 48.5 -10c16.667 0 32.667 3.33301 48 10s28.5 15.5 39.5 26.5s19.833 24 26.5 39s10 31.167 10 48.5c0 16.667 -3.16699 32.667 -9.5 48s-15.166 28.5 -26.499 39.5
s-24.5 19.833 -39.5 26.5s-31.167 10 -48.5 10s-33.5 -3.33301 -48.5 -10s-28 -15.5 -39 -26.5s-19.833 -24.167 -26.5 -39.5s-10 -31.333 -10 -48z" />
    <glyph glyph-name="ellipsis" unicode="&#x2026;" horiz-adv-x="1000" 
d="M834 111c-17.333 0 -31.666 -5.83301 -42.999 -17.5s-17 -25.834 -17 -42.501s5.66699 -30.834 17 -42.501s25.666 -17.5 42.999 -17.5c16.667 0 30.667 5.83301 42 17.5s17 25.834 17 42.501s-5.66699 30.834 -17 42.501s-25.333 17.5 -42 17.5zM500 111
c-16.667 0 -30.834 -5.83301 -42.501 -17.5s-17.5 -25.834 -17.5 -42.501s5.83301 -30.834 17.5 -42.501s25.834 -17.5 42.501 -17.5s30.834 5.83301 42.501 17.5s17.5 25.834 17.5 42.501s-5.83301 30.834 -17.5 42.501s-25.834 17.5 -42.501 17.5zM166 109
c-16.667 0 -30.667 -5.83301 -42 -17.5s-17 -25.834 -17 -42.501s5.66699 -30.667 17 -42s25.333 -17 42 -17s30.834 5.66699 42.501 17s17.5 25.333 17.5 42s-5.83301 30.834 -17.5 42.501s-25.834 17.5 -42.501 17.5z" />
    <glyph glyph-name="perthousand" unicode="&#x2030;" horiz-adv-x="1010" 
d="M486 297c-21.333 0 -41.166 -4 -59.499 -12s-34.333 -18.833 -48 -32.5s-24.5 -29.834 -32.5 -48.501s-12 -38.334 -12 -59.001c0 -21.333 4 -41.166 12 -59.499s18.833 -34.333 32.5 -48s29.667 -24.5 48 -32.5s38.166 -12 59.499 -12c20.667 0 40.334 4 59.001 12
s34.834 18.833 48.501 32.5s24.5 29.667 32.5 48s12 38.166 12 59.499c0 20.667 -4 40.334 -12 59.001s-18.833 34.834 -32.5 48.501s-29.834 24.5 -48.501 32.5s-38.334 12 -59.001 12zM486 223c22 0 40.667 -7.66699 56 -23s23 -33.666 23 -54.999
c0 -22 -7.66699 -40.667 -23 -56s-34 -23 -56 -23c-21.333 0 -39.833 7.66699 -55.5 23s-23.5 34 -23.5 56c0 21.333 7.83301 39.666 23.5 54.999s34.167 23 55.5 23zM165 690c-21.333 0 -41.166 -4 -59.499 -12s-34.333 -19 -48 -33s-24.5 -30.333 -32.5 -49
s-12 -38.334 -12 -59.001s4 -40.167 12 -58.5s18.833 -34.5 32.5 -48.5s29.667 -25 48 -33s38.166 -12 59.499 -12c20.667 0 40.334 4 59.001 12s34.834 19 48.501 33s24.5 30.167 32.5 48.5s12 37.833 12 58.5s-4 40.334 -12 59.001s-18.833 35 -32.5 49
s-29.834 25 -48.501 33s-38.334 12 -59.001 12zM164 616c21.333 0 39.833 -7.66699 55.5 -23s23.5 -34 23.5 -56c0 -21.333 -7.83301 -39.833 -23.5 -55.5s-34.167 -23.5 -55.5 -23.5c-22 0 -40.667 7.83301 -56 23.5s-23 34.167 -23 55.5c0 22 7.66699 40.667 23 56
s34 23 56 23zM846 297c-21.333 0 -41.166 -4 -59.499 -12s-34.333 -18.833 -48 -32.5s-24.5 -29.834 -32.5 -48.501s-12 -38.334 -12 -59.001c0 -21.333 4 -41.166 12 -59.499s18.833 -34.333 32.5 -48s29.667 -24.5 48 -32.5s38.166 -12 59.499 -12
c20.667 0 40.334 4 59.001 12s34.834 18.833 48.501 32.5s24.5 29.667 32.5 48s12 38.166 12 59.499c0 20.667 -4 40.334 -12 59.001s-18.833 34.834 -32.5 48.501s-29.834 24.5 -48.501 32.5s-38.334 12 -59.001 12zM846 223c21.333 0 39.666 -7.66699 54.999 -23
s23 -33.666 23 -54.999c0 -22 -7.66699 -40.667 -23 -56s-33.666 -23 -54.999 -23c-22 0 -40.667 7.66699 -56 23s-23 34 -23 56c0 21.333 7.66699 39.666 23 54.999s34 23 56 23zM586 692h-75l-450 -701h76z" />
    <glyph glyph-name="guilsinglleft" unicode="&#x2039;" horiz-adv-x="250" 
d="M174 682h-98v-682h98v682zM126 810c-14.667 0 -27 -5 -37 -15s-15 -22.333 -15 -37c0 -14 5 -26 15 -36s22.333 -15 37 -15c14 0 26 5 36 15s15 22 15 36c0 14.667 -5 27 -15 37s-22 15 -36 15z" />
    <glyph glyph-name="guilsinglright" unicode="&#x203a;" horiz-adv-x="219" 
d="M154 449h-89v-449h89v449z" />
    <glyph glyph-name="trademark" unicode="&#x2122;" horiz-adv-x="1000" 
d="M239 318h66v339h130v59h-325v-59h129v-339zM480 318h61v339h2l105 -339h60l100 334h2v-334h61v398h-96l-96 -318h-2l-99 318h-98v-398z" />
    <glyph glyph-name="partialdiff" unicode="&#x2202;" horiz-adv-x="494" 
d="M104 667c14.667 6 26.666 11.333 35.999 16s18.5 8.33398 27.5 11.001s19 4.33398 30 5.00098s25.5 0.333984 43.5 -0.999023c15.333 -1.33301 29.333 -5.33301 42 -12s23.667 -14.5 33 -23.5s17 -18.5 23 -28.5s10.667 -18.333 14 -25
c3.33301 -8 6.83301 -18.5 10.5 -31.5s7.16699 -26.833 10.5 -41.5s6 -29.667 8 -45s3 -29 3 -41c-0.666992 -19.333 -1.66699 -38.166 -3 -56.499s-4 -38.166 -8 -59.499l-43.5 32c-12.333 8.66699 -23.833 15.5 -34.5 20.5s-21.667 8.66699 -33 11
s-24.333 3.83301 -39 4.5c-32 1.33301 -59.333 -4.83398 -82 -18.501s-42.667 -31.167 -60 -52.5c-6 -7.33301 -12.5 -16.833 -19.5 -28.5s-13.5 -25 -19.5 -40s-10.667 -31.5 -14 -49.5s-4 -37 -2 -57c3.33301 -38 13.333 -68.333 30 -91s34.667 -40.667 54 -54
c12.667 -8.66699 26.667 -15.834 42 -21.501s31.5 -9 48.5 -10s34.333 0.333008 52 4s35.167 10.167 52.5 19.5c28 15.333 49 33.166 63 53.499s27.667 45.166 41 74.499c10 21.333 18.333 45.166 25 71.499s12 51.833 16 76.5s6.83301 47.334 8.5 68.001s2.5 36 2.5 46
c0 6 -0.333008 16.833 -1 32.5s-2.66699 33.5 -6 53.5s-8.16602 41.167 -14.499 63.5s-15.166 43.5 -26.499 63.5c-24 42 -50.333 73 -79 93s-58.334 33.667 -89.001 41c-16.667 4 -33.667 5.83301 -51 5.5s-34 -1.83301 -50 -4.5s-30.833 -6.33398 -44.5 -11.001
s-25.5 -9 -35.5 -13zM365.999 299c-4 -32.667 -9.33203 -64.665 -15.999 -95.998s-16 -62 -28 -92c-10 -23.333 -21.333 -42.666 -34 -57.999s-28.334 -27 -47.001 -35c-14.667 -6.66699 -28.667 -9.83398 -42 -9.50098s-27 5.16602 -41 14.499
c-11.333 7.33301 -20 16.666 -26 27.999s-10.5 23 -13.5 35s-4.83301 23.5 -5.5 34.5s-1 20.167 -1 27.5c0 25.333 3.33301 51.5 10 78.5s20 54.5 40 82.5c26 34.667 58 52.667 96 54c15.333 0 28.5 -2.16699 39.5 -6.5s20.833 -9.83301 29.5 -16.5s16 -13.667 22 -21z" />
    <glyph glyph-name="product" unicode="&#x220f;" horiz-adv-x="823" 
d="M706 629c0 23.333 3.50098 41.666 10.501 54.999s15.5 23.166 25.5 29.499s20.333 10.333 31 12s19.667 2.5 27 2.5v23h-773v-23c6.66699 0 15.5 -0.833008 26.5 -2.5s21.5 -5.66699 31.5 -12s18.667 -16.166 26 -29.499s11 -31.666 11 -54.999v-626
c0 -17.333 -2.16699 -31.333 -6.5 -42s-10.833 -18.834 -19.5 -24.501s-19 -9.5 -31 -11.5s-25.333 -3 -40 -3v-23h307v23c-14.667 0 -28 1 -40 3s-22.167 5.83301 -30.5 11.5s-14.833 13.834 -19.5 24.501s-7 24.667 -7 42v693h358v-693c0 -17.333 -2.33301 -31.333 -7 -42
s-11.167 -18.834 -19.5 -24.501s-18.333 -9.5 -30 -11.5s-24.834 -3 -39.501 -3v-23h306v23c-14.667 0 -28 1 -40 3s-22.167 5.83301 -30.5 11.5s-14.833 13.834 -19.5 24.501s-7 24.667 -7 42v626z" />
    <glyph glyph-name="summation" unicode="&#x2211;" horiz-adv-x="713" 
d="M617 745l-497.004 0.000976562c-17.333 0 -34.666 0.833008 -51.999 2.5s-34.666 3.16699 -51.999 4.5l347 -454l-349 -398c10 0 19.667 0.5 29 1.5s19 1.5 29 1.5h503c12.667 0 25.334 -1.33301 38.001 -4s25.667 -5 39 -7l8.5 63.5c2.33301 17 5 33.167 8 48.5
s6.66699 31.5 11 48.5l15.5 63.5h-23c-8.66699 -22 -17 -40.333 -25 -55s-16.833 -26.334 -26.5 -35.001s-21.167 -14.667 -34.5 -18s-29.666 -5 -48.999 -5h-371l294 339l-273 358h263c32 0 57 -2.83301 75 -8.5s32 -13.667 42 -24s17.167 -22.5 21.5 -36.5l14.5 -45h20z
" />
    <glyph glyph-name="radical" unicode="&#x221a;" horiz-adv-x="549" 
d="M26 417l96 47l243 -502l150 950l-35 5l-127 -798l-197 403l-146 -72z" />
    <glyph glyph-name="infinity" unicode="&#x221e;" horiz-adv-x="713" 
d="M357 297l-39.498 35c-11 9.33301 -21.167 17.5 -30.5 24.5s-18.5 13.167 -27.5 18.5s-19.5 10.666 -31.5 15.999c-24 10.667 -47.667 15 -71 13s-44.333 -8.66699 -63 -20s-34.167 -26.166 -46.5 -44.499s-19.5 -38.5 -21.5 -60.5c-2 -18.667 0.166992 -37.5 6.5 -56.5
s16.166 -36.167 29.499 -51.5s29.333 -27.333 48 -36s39.667 -12 63 -10c26 2.66699 49 8.66699 69 18s37.5 19.666 52.5 30.999s27.667 22.333 38 33s18.5 18.667 24.5 24c6 -5.33301 14.167 -13.333 24.5 -24s23 -21.667 38 -33s32.5 -21.666 52.5 -30.999
s43 -15.333 69 -18c22.667 -2 43.5 1.33301 62.5 10s35.167 20.667 48.5 36s23.166 32.5 29.499 51.5s8.5 37.833 6.5 56.5c-2 22 -9.16699 42.167 -21.5 60.5s-27.833 33.166 -46.5 44.499s-39.667 18 -63 20s-47 -2.33301 -71 -13
c-12 -5.33301 -22.5 -10.666 -31.5 -15.999s-18.167 -11.5 -27.5 -18.5s-19.5 -15.167 -30.5 -24.5zM324.002 264l-37.5 -36.001c-10.333 -10 -20.166 -18.333 -29.499 -25s-19 -12.167 -29 -16.5s-22 -8.16602 -36 -11.499s-27.667 -3.5 -41 -0.5s-25.5 8.16699 -36.5 15.5
s-20 17 -27 29s-10.833 25.333 -11.5 40c0 10.667 2.66699 22.667 8 36s13.333 25 24 35s24.167 16.833 40.5 20.5s35.166 1.83398 56.499 -5.49902c8.66699 -3.33301 17 -7 25 -11s16.667 -9.33301 26 -16s19.5 -14.334 30.5 -23.001zM390.002 263.999l37.5 31.001
c11 8.66699 21.167 16.334 30.5 23.001s18 12 26 16s16.333 7.66699 25 11c21.333 7.33301 40.166 9.16602 56.499 5.49902s29.833 -10.5 40.5 -20.5s18.667 -21.667 24 -35s8 -25.333 8 -36c-0.666992 -14.667 -4.5 -28 -11.5 -40s-16 -21.667 -27 -29
s-23.167 -12.5 -36.5 -15.5s-27 -2.83301 -41 0.5s-26 7.16602 -36 11.499s-19.667 9.83301 -29 16.5s-19.166 15 -29.499 25z" />
    <glyph glyph-name="integral" unicode="&#x222b;" horiz-adv-x="274" 
d="M190 488c0 34 -1.17285 68.4971 -3.50586 103.497s-4.66602 67.833 -6.99902 98.5s-4.5 57.334 -6.5 80.001s-2.66699 38.667 -2 48s4.66699 16.333 12 21s16.666 1 27.999 -11c4.66699 -5.33301 10.5 -8.83301 17.5 -10.5s13.833 -1.83398 20.5 -0.500977
s13 3.66602 19 6.99902s10.667 7 14 11c4.66699 6 7.5 12.333 8.5 19s0.5 13.167 -1.5 19.5s-4.83301 12 -8.5 17s-7.5 8.83301 -11.5 11.5s-9 5.16699 -15 7.5s-12.5 4.16602 -19.5 5.49902s-14.333 1.5 -22 0.5s-14.834 -3.83301 -21.501 -8.5
c-10.667 -6.66699 -20 -16.667 -28 -30s-13.667 -25 -17 -35c-5.33301 -18 -9.66602 -36.667 -12.999 -56s-6 -41.333 -8 -66s-3.33301 -52.167 -4 -82.5s-1 -65.5 -1 -105.5v-144c0 -41.333 0.166992 -77.5 0.5 -108.5s0.833008 -58.667 1.5 -83
s1.33398 -46.166 2.00098 -65.499l2 -57c0.666992 -15.333 0.333984 -30.666 -0.999023 -45.999s-3.66602 -28.5 -6.99902 -39.5s-7.66602 -18.5 -12.999 -22.5s-11.666 -2 -18.999 6c-9.33301 9.33301 -18.333 16.5 -27 21.5s-18.667 4.5 -30 -1.5
c-12 -6 -20 -13.833 -24 -23.5s-4 -20.167 0 -31.5c2 -5.33301 6 -12.166 12 -20.499s13 -14.5 21 -18.5s16.833 -5.66699 26.5 -5s18.667 2.5 27 5.5s15.666 6.33301 21.999 10s10.5 6.83398 12.5 9.50098c4 5.33301 8.5 12 13.5 20s10.167 21.667 15.5 41
c6.66699 23.333 13.834 58.333 21.501 105s11.834 109.334 12.501 188.001z" />
    <glyph glyph-name="approxequal" unicode="&#x2248;" horiz-adv-x="549" 
d="M490 394c-6 -9.33301 -14 -17.834 -24 -25.501s-19 -13.167 -27 -16.5c-17.333 -7.33301 -32.333 -11.5 -45 -12.5s-24 0.166992 -34 3.5l-151 42c-36.667 10 -71.667 9.33301 -105 -2s-63.333 -34.666 -90 -69.999l43 -27c3.33301 4 8.16602 10.333 14.499 19
s15 16.667 26 24s24.667 12.5 41 15.5s36.5 1.16699 60.5 -5.5l150 -43c14.667 -4 30.334 -5.5 47.001 -4.5s33 4.5 49 10.5s31.167 14.667 45.5 26s26.5 25.333 36.5 42zM490 242.999c-6 -9.33301 -14 -17.834 -24 -25.501s-19 -13.167 -27 -16.5
c-17.333 -7.33301 -32.333 -11.5 -45 -12.5s-24 0.166992 -34 3.5l-151 42c-36.667 10 -71.667 9.33301 -105 -2s-63.333 -34.666 -90 -69.999l43 -27c3.33301 4 8.16602 10.333 14.499 19s15 16.667 26 24s24.667 12.5 41 15.5s36.5 1.16699 60.5 -5.5l150 -43
c14.667 -4 30.334 -5.5 47.001 -4.5s33 4.5 49 10.5s31.167 14.667 45.5 26s26.5 25.333 36.5 42z" />
    <glyph glyph-name="notequal" unicode="&#x2260;" horiz-adv-x="549" 
d="M402 549l-91 -164h-296v-55h265l-77 -139h-188v-55h157l-74 -133l49 -28l90 161h303v55h-273l78 139h195v55h-165l76 136z" />
    <glyph glyph-name="lessequal" unicode="&#x2264;" horiz-adv-x="549" 
d="M29 0h497v55h-497v-55zM29 347l497 -230v62l-433 199l433 199v62l-497 -230v-62z" />
    <glyph glyph-name="greaterequal" unicode="&#x2265;" horiz-adv-x="549" 
d="M526 55h-497v-55h497v55zM526 409l-497 230v-62l433 -199l-433 -199v-62l497 230v62z" />
    <glyph glyph-name=".null" horiz-adv-x="0" 
 />
    <glyph glyph-name="nonmarkingreturn" horiz-adv-x="278" 
 />
    <glyph glyph-name="glyph232" horiz-adv-x="0" 
 />
  </font>
</defs>
</svg>
